<svg width="281" height="56" viewBox="0 0 281 56" fill="none" xmlns="http://www.w3.org/2000/svg">
<rect width="56" height="56" rx="16" fill="#47A5A8"/>
<path d="M23.099 38H27.887V18.344H23.099V26.044H15.651V18.344H10.863V38H15.651V29.908H23.099V38ZM41.7314 24.728C41.7314 26.268 40.8914 27.192 39.0994 27.192H36.1314V22.32H39.0994C40.8914 22.32 41.7314 23.272 41.7314 24.728ZM31.3434 18.344V38H36.1314V30.58H37.2794L41.3674 38H46.7714L42.2354 30.216C45.2594 29.32 46.6034 26.996 46.6034 24.532C46.6034 21.116 44.1954 18.344 39.3794 18.344H31.3434Z" fill="white"/>
<path d="M83.776 18.344H71.736V38H83.776V34.164H76.524V29.852H82.936V26.156H76.524V22.18H83.776V18.344ZM86.6044 30.16H98.9244V26.184H86.6044V30.16ZM107.915 27.136V22.208H110.519C112.423 22.208 113.235 23.16 113.235 24.672C113.235 26.184 112.423 27.136 110.519 27.136H107.915ZM118.107 24.672C118.107 21.06 115.699 18.344 110.883 18.344H103.127V38H107.915V30.944H110.883C115.895 30.944 118.107 27.92 118.107 24.672ZM119.647 30.16C119.647 35.088 122.699 38.224 126.507 38.224C128.831 38.224 130.483 37.16 131.351 35.788V38H136.139V22.376H131.351V24.588C130.511 23.216 128.859 22.152 126.535 22.152C122.699 22.152 119.647 25.232 119.647 30.16ZM131.351 30.188C131.351 32.68 129.755 34.052 127.935 34.052C126.143 34.052 124.519 32.652 124.519 30.16C124.519 27.668 126.143 26.324 127.935 26.324C129.755 26.324 131.351 27.696 131.351 30.188ZM146.799 32.148L143.187 22.376H137.839L144.195 37.468L140.611 45.42H145.763L155.563 22.376H150.383L146.799 32.148ZM162.083 30.748C162.083 28.06 163.399 27.276 165.667 27.276H166.983V22.208C164.883 22.208 163.175 23.328 162.083 24.98V22.376H157.295V38H162.083V30.748ZM184.559 30.188C184.559 25.232 181.031 22.152 176.439 22.152C171.875 22.152 168.319 25.232 168.319 30.188C168.319 35.144 171.791 38.224 176.383 38.224C180.975 38.224 184.559 35.144 184.559 30.188ZM173.191 30.188C173.191 27.528 174.703 26.296 176.439 26.296C178.119 26.296 179.687 27.528 179.687 30.188C179.687 32.82 178.091 34.08 176.383 34.08C174.647 34.08 173.191 32.82 173.191 30.188ZM187.099 38H191.887V17.28H187.099V38ZM195.357 38H200.145V17.28H195.357V38ZM229.426 23.104C229.51 20.388 227.522 17.952 223.518 17.952C219.598 17.952 217.386 20.192 217.386 22.964C217.386 24.224 217.75 25.288 218.758 26.492C216.042 27.78 214.754 29.88 214.754 32.288C214.754 35.928 217.638 38.308 222.202 38.308C224.778 38.308 226.906 37.608 228.698 36.236L230.518 38H236.09L231.358 33.352C231.974 32.428 232.562 31.392 233.094 30.216L234.438 27.78H229.65L228.614 29.544C228.502 29.824 228.362 30.076 228.25 30.328L223.462 25.652C222.426 24.56 221.894 23.748 221.894 22.936C221.894 22.096 222.566 21.536 223.462 21.536C224.302 21.536 224.946 22.04 224.918 23.104H229.426ZM222.426 34.444C220.522 34.444 219.374 33.324 219.374 31.952C219.374 30.832 220.046 29.852 221.39 29.152L225.758 33.38C224.806 34.08 223.714 34.444 222.426 34.444ZM255.992 38H260.78V18.344H255.992V26.044H248.544V18.344H243.756V38H248.544V29.908H255.992V38ZM274.624 24.728C274.624 26.268 273.784 27.192 271.992 27.192H269.024V22.32H271.992C273.784 22.32 274.624 23.272 274.624 24.728ZM264.236 18.344V38H269.024V30.58H270.172L274.26 38H279.664L275.128 30.216C278.152 29.32 279.496 26.996 279.496 24.532C279.496 21.116 277.088 18.344 272.272 18.344H264.236Z" fill="white"/>
</svg>
