<svg width="551" height="539" viewBox="0 0 551 539" fill="none" xmlns="http://www.w3.org/2000/svg">
<path d="M251.649 538.483C383.287 538.483 490 531.261 490 522.353C490 513.444 383.287 506.222 251.649 506.222C120.012 506.222 13.2988 513.444 13.2988 522.353C13.2988 531.261 120.012 538.483 251.649 538.483Z" fill="#DAE9FF"/>
<path opacity="0.3" d="M268 538C408.833 538 523 530.837 523 522C523 513.163 408.833 506 268 506C127.167 506 13 513.163 13 522C13 530.837 127.167 538 268 538Z" fill="white"/>
<circle cx="358.5" cy="3.5" r="3.5" fill="#F4F4F4"/>
<circle cx="358.5" cy="24.5" r="3.5" fill="#F4F4F4"/>
<circle cx="358.5" cy="45.5" r="3.5" fill="#F4F4F4"/>
<circle cx="358.5" cy="66.5" r="3.5" fill="#F4F4F4"/>
<circle cx="358.5" cy="87.5" r="3.5" fill="#F4F4F4"/>
<circle cx="358.5" cy="108.5" r="3.5" fill="#F4F4F4"/>
<circle cx="358.5" cy="129.5" r="3.5" fill="#F4F4F4"/>
<circle cx="358.5" cy="150.5" r="3.5" fill="#F4F4F4"/>
<circle cx="379.5" cy="3.5" r="3.5" fill="#F4F4F4"/>
<circle cx="379.5" cy="24.5" r="3.5" fill="#F4F4F4"/>
<circle cx="379.5" cy="45.5" r="3.5" fill="#F4F4F4"/>
<circle cx="379.5" cy="66.5" r="3.5" fill="#F4F4F4"/>
<circle cx="379.5" cy="87.5" r="3.5" fill="#F4F4F4"/>
<circle cx="379.5" cy="108.5" r="3.5" fill="#F4F4F4"/>
<circle cx="379.5" cy="129.5" r="3.5" fill="#F4F4F4"/>
<circle cx="379.5" cy="150.5" r="3.5" fill="#F4F4F4"/>
<circle cx="400.5" cy="3.5" r="3.5" fill="#F4F4F4"/>
<circle cx="400.5" cy="24.5" r="3.5" fill="#F4F4F4"/>
<circle cx="400.5" cy="45.5" r="3.5" fill="#F4F4F4"/>
<circle cx="400.5" cy="66.5" r="3.5" fill="#F4F4F4"/>
<circle cx="400.5" cy="87.5" r="3.5" fill="#F4F4F4"/>
<circle cx="400.5" cy="108.5" r="3.5" fill="#F4F4F4"/>
<circle cx="400.5" cy="129.5" r="3.5" fill="#F4F4F4"/>
<circle cx="400.5" cy="150.5" r="3.5" fill="#F4F4F4"/>
<circle cx="421.5" cy="3.5" r="3.5" fill="#F4F4F4"/>
<circle cx="421.5" cy="24.5" r="3.5" fill="#F4F4F4"/>
<circle cx="421.5" cy="45.5" r="3.5" fill="#F4F4F4"/>
<circle cx="421.5" cy="66.5" r="3.5" fill="#F4F4F4"/>
<circle cx="421.5" cy="87.5" r="3.5" fill="#F4F4F4"/>
<circle cx="421.5" cy="108.5" r="3.5" fill="#F4F4F4"/>
<circle cx="421.5" cy="129.5" r="3.5" fill="#F4F4F4"/>
<circle cx="421.5" cy="150.5" r="3.5" fill="#F4F4F4"/>
<circle cx="442.5" cy="3.5" r="3.5" fill="#F4F4F4"/>
<circle cx="442.5" cy="24.5" r="3.5" fill="#F4F4F4"/>
<circle cx="442.5" cy="45.5" r="3.5" fill="#F4F4F4"/>
<circle cx="442.5" cy="66.5" r="3.5" fill="#F4F4F4"/>
<circle cx="442.5" cy="87.5" r="3.5" fill="#F4F4F4"/>
<circle cx="442.5" cy="108.5" r="3.5" fill="#F4F4F4"/>
<circle cx="442.5" cy="129.5" r="3.5" fill="#F4F4F4"/>
<circle cx="442.5" cy="150.5" r="3.5" fill="#F4F4F4"/>
<circle cx="463.5" cy="3.5" r="3.5" fill="#F4F4F4"/>
<circle cx="463.5" cy="24.5" r="3.5" fill="#F4F4F4"/>
<circle cx="463.5" cy="45.5" r="3.5" fill="#F4F4F4"/>
<circle cx="463.5" cy="66.5" r="3.5" fill="#F4F4F4"/>
<circle cx="463.5" cy="87.5" r="3.5" fill="#F4F4F4"/>
<circle cx="463.5" cy="108.5" r="3.5" fill="#F4F4F4"/>
<circle cx="463.5" cy="129.5" r="3.5" fill="#F4F4F4"/>
<circle cx="463.5" cy="150.5" r="3.5" fill="#F4F4F4"/>
<circle cx="484.5" cy="3.5" r="3.5" fill="#F4F4F4"/>
<circle cx="484.5" cy="24.5" r="3.5" fill="#F4F4F4"/>
<circle cx="484.5" cy="45.5" r="3.5" fill="#F4F4F4"/>
<circle cx="484.5" cy="66.5" r="3.5" fill="#F4F4F4"/>
<circle cx="484.5" cy="87.5" r="3.5" fill="#F4F4F4"/>
<circle cx="484.5" cy="108.5" r="3.5" fill="#F4F4F4"/>
<circle cx="484.5" cy="129.5" r="3.5" fill="#F4F4F4"/>
<circle cx="484.5" cy="150.5" r="3.5" fill="#F4F4F4"/>
<circle cx="505.5" cy="3.5" r="3.5" fill="#F4F4F4"/>
<circle cx="505.5" cy="24.5" r="3.5" fill="#F4F4F4"/>
<circle cx="505.5" cy="45.5" r="3.5" fill="#F4F4F4"/>
<circle cx="505.5" cy="66.5" r="3.5" fill="#F4F4F4"/>
<circle cx="505.5" cy="87.5" r="3.5" fill="#F4F4F4"/>
<circle cx="505.5" cy="108.5" r="3.5" fill="#F4F4F4"/>
<circle cx="505.5" cy="129.5" r="3.5" fill="#F4F4F4"/>
<circle cx="505.5" cy="150.5" r="3.5" fill="#F4F4F4"/>
<circle cx="526.5" cy="3.5" r="3.5" fill="#F4F4F4"/>
<circle cx="526.5" cy="24.5" r="3.5" fill="#F4F4F4"/>
<circle cx="526.5" cy="45.5" r="3.5" fill="#F4F4F4"/>
<circle cx="526.5" cy="66.5" r="3.5" fill="#F4F4F4"/>
<circle cx="526.5" cy="87.5" r="3.5" fill="#F4F4F4"/>
<circle cx="526.5" cy="108.5" r="3.5" fill="#F4F4F4"/>
<circle cx="526.5" cy="129.5" r="3.5" fill="#F4F4F4"/>
<circle cx="526.5" cy="150.5" r="3.5" fill="#F4F4F4"/>
<circle cx="547.5" cy="3.5" r="3.5" fill="#F4F4F4"/>
<circle cx="547.5" cy="24.5" r="3.5" fill="#F4F4F4"/>
<circle cx="547.5" cy="45.5" r="3.5" fill="#F4F4F4"/>
<circle cx="547.5" cy="66.5" r="3.5" fill="#F4F4F4"/>
<circle cx="547.5" cy="87.5" r="3.5" fill="#F4F4F4"/>
<circle cx="547.5" cy="108.5" r="3.5" fill="#F4F4F4"/>
<circle cx="547.5" cy="129.5" r="3.5" fill="#F4F4F4"/>
<circle cx="547.5" cy="150.5" r="3.5" fill="#F4F4F4"/>
<circle cx="150.5" cy="3.5" r="3.5" fill="#F4F4F4"/>
<circle cx="150.5" cy="24.5" r="3.5" fill="#F4F4F4"/>
<circle cx="150.5" cy="45.5" r="3.5" fill="#F4F4F4"/>
<circle cx="150.5" cy="66.5" r="3.5" fill="#F4F4F4"/>
<circle cx="150.5" cy="87.5" r="3.5" fill="#F4F4F4"/>
<circle cx="150.5" cy="108.5" r="3.5" fill="#F4F4F4"/>
<circle cx="150.5" cy="129.5" r="3.5" fill="#F4F4F4"/>
<circle cx="150.5" cy="150.5" r="3.5" fill="#F4F4F4"/>
<circle cx="171.5" cy="3.5" r="3.5" fill="#F4F4F4"/>
<circle cx="171.5" cy="24.5" r="3.5" fill="#F4F4F4"/>
<circle cx="171.5" cy="45.5" r="3.5" fill="#F4F4F4"/>
<circle cx="171.5" cy="66.5" r="3.5" fill="#F4F4F4"/>
<circle cx="171.5" cy="87.5" r="3.5" fill="#F4F4F4"/>
<circle cx="171.5" cy="108.5" r="3.5" fill="#F4F4F4"/>
<circle cx="171.5" cy="129.5" r="3.5" fill="#F4F4F4"/>
<circle cx="171.5" cy="150.5" r="3.5" fill="#F4F4F4"/>
<circle cx="192.5" cy="3.5" r="3.5" fill="#F4F4F4"/>
<circle cx="192.5" cy="24.5" r="3.5" fill="#F4F4F4"/>
<circle cx="192.5" cy="45.5" r="3.5" fill="#F4F4F4"/>
<circle cx="192.5" cy="66.5" r="3.5" fill="#F4F4F4"/>
<circle cx="192.5" cy="87.5" r="3.5" fill="#F4F4F4"/>
<circle cx="192.5" cy="108.5" r="3.5" fill="#F4F4F4"/>
<circle cx="192.5" cy="129.5" r="3.5" fill="#F4F4F4"/>
<circle cx="192.5" cy="150.5" r="3.5" fill="#F4F4F4"/>
<circle cx="213.5" cy="3.5" r="3.5" fill="#F4F4F4"/>
<circle cx="213.5" cy="24.5" r="3.5" fill="#F4F4F4"/>
<circle cx="213.5" cy="45.5" r="3.5" fill="#F4F4F4"/>
<circle cx="213.5" cy="66.5" r="3.5" fill="#F4F4F4"/>
<circle cx="213.5" cy="87.5" r="3.5" fill="#F4F4F4"/>
<circle cx="213.5" cy="108.5" r="3.5" fill="#F4F4F4"/>
<circle cx="213.5" cy="129.5" r="3.5" fill="#F4F4F4"/>
<circle cx="213.5" cy="150.5" r="3.5" fill="#F4F4F4"/>
<circle cx="234.5" cy="3.5" r="3.5" fill="#F4F4F4"/>
<circle cx="234.5" cy="24.5" r="3.5" fill="#F4F4F4"/>
<circle cx="234.5" cy="45.5" r="3.5" fill="#F4F4F4"/>
<circle cx="234.5" cy="66.5" r="3.5" fill="#F4F4F4"/>
<circle cx="234.5" cy="87.5" r="3.5" fill="#F4F4F4"/>
<circle cx="234.5" cy="108.5" r="3.5" fill="#F4F4F4"/>
<circle cx="234.5" cy="129.5" r="3.5" fill="#F4F4F4"/>
<circle cx="234.5" cy="150.5" r="3.5" fill="#F4F4F4"/>
<circle cx="255.5" cy="3.5" r="3.5" fill="#F4F4F4"/>
<circle cx="255.5" cy="24.5" r="3.5" fill="#F4F4F4"/>
<circle cx="255.5" cy="45.5" r="3.5" fill="#F4F4F4"/>
<circle cx="255.5" cy="66.5" r="3.5" fill="#F4F4F4"/>
<circle cx="255.5" cy="87.5" r="3.5" fill="#F4F4F4"/>
<circle cx="255.5" cy="108.5" r="3.5" fill="#F4F4F4"/>
<circle cx="255.5" cy="129.5" r="3.5" fill="#F4F4F4"/>
<circle cx="255.5" cy="150.5" r="3.5" fill="#F4F4F4"/>
<circle cx="276.5" cy="3.5" r="3.5" fill="#F4F4F4"/>
<circle cx="276.5" cy="24.5" r="3.5" fill="#F4F4F4"/>
<circle cx="276.5" cy="45.5" r="3.5" fill="#F4F4F4"/>
<circle cx="276.5" cy="66.5" r="3.5" fill="#F4F4F4"/>
<circle cx="276.5" cy="87.5" r="3.5" fill="#F4F4F4"/>
<circle cx="276.5" cy="108.5" r="3.5" fill="#F4F4F4"/>
<circle cx="276.5" cy="129.5" r="3.5" fill="#F4F4F4"/>
<circle cx="276.5" cy="150.5" r="3.5" fill="#F4F4F4"/>
<circle cx="297.5" cy="3.5" r="3.5" fill="#F4F4F4"/>
<circle cx="297.5" cy="24.5" r="3.5" fill="#F4F4F4"/>
<circle cx="297.5" cy="45.5" r="3.5" fill="#F4F4F4"/>
<circle cx="297.5" cy="66.5" r="3.5" fill="#F4F4F4"/>
<circle cx="297.5" cy="87.5" r="3.5" fill="#F4F4F4"/>
<circle cx="297.5" cy="108.5" r="3.5" fill="#F4F4F4"/>
<circle cx="297.5" cy="129.5" r="3.5" fill="#F4F4F4"/>
<circle cx="297.5" cy="150.5" r="3.5" fill="#F4F4F4"/>
<circle cx="318.5" cy="3.5" r="3.5" fill="#F4F4F4"/>
<circle cx="318.5" cy="24.5" r="3.5" fill="#F4F4F4"/>
<circle cx="318.5" cy="45.5" r="3.5" fill="#F4F4F4"/>
<circle cx="318.5" cy="66.5" r="3.5" fill="#F4F4F4"/>
<circle cx="318.5" cy="87.5" r="3.5" fill="#F4F4F4"/>
<circle cx="318.5" cy="108.5" r="3.5" fill="#F4F4F4"/>
<circle cx="318.5" cy="129.5" r="3.5" fill="#F4F4F4"/>
<circle cx="318.5" cy="150.5" r="3.5" fill="#F4F4F4"/>
<circle cx="339.5" cy="3.5" r="3.5" fill="#F4F4F4"/>
<circle cx="339.5" cy="24.5" r="3.5" fill="#F4F4F4"/>
<circle cx="339.5" cy="45.5" r="3.5" fill="#F4F4F4"/>
<circle cx="339.5" cy="66.5" r="3.5" fill="#F4F4F4"/>
<circle cx="339.5" cy="87.5" r="3.5" fill="#F4F4F4"/>
<circle cx="339.5" cy="108.5" r="3.5" fill="#F4F4F4"/>
<circle cx="339.5" cy="129.5" r="3.5" fill="#F4F4F4"/>
<circle cx="339.5" cy="150.5" r="3.5" fill="#F4F4F4"/>
<path d="M373.033 129.723C374.68 126.075 375.474 122.101 375.358 118.101C375.358 110.679 366.375 106.379 355.816 105.2C345.256 104.021 340.574 108.321 342.135 111.061C343.756 113.32 345.736 115.3 347.995 116.922C347.995 116.922 337.436 111.061 330.396 115.76C323.356 120.458 333.534 118.499 331.575 123.181C329.616 127.864 318.674 125.921 315.935 138.423C313.195 150.926 321.015 163.444 313.975 168.923C306.936 174.403 285.75 166.964 279.573 180.645C273.397 194.327 282.163 200.403 267.32 209.004C252.477 217.604 241.651 226.006 245.952 247.108C250.252 268.211 264.331 275.6 292.092 268.145C319.853 260.69 317.894 243.904 326.959 226.637C336.024 209.369 350.038 212.955 354.338 203.176C358.638 193.397 353.159 181.675 353.558 172.676C353.956 163.677 362.938 161.734 366.458 151.092C369.978 140.449 373.033 129.723 373.033 129.723Z" fill="#263238" stroke="#263238" stroke-linecap="round" stroke-linejoin="round"/>
<path d="M249.189 246.71C248.461 248.18 248.091 249.801 248.11 251.442" stroke="white" stroke-width="0.5" stroke-linecap="round" stroke-linejoin="round"/>
<path d="M358.024 121.969C358.024 121.969 353.142 116.324 362.54 118.948C374.378 122.268 360.481 135.966 355.135 138.722C344.409 144.218 330.23 142.458 321.928 152.453C314.39 161.485 324.568 170.899 320.052 178.055C315.536 185.211 297.455 181.06 291.445 189.678C285.434 198.295 302.353 216.791 285.036 226.952C272.517 234.307 258.802 237.13 252.178 242.958" stroke="white" stroke-width="0.5" stroke-linecap="round" stroke-linejoin="round"/>
<path d="M329.948 155.375C328.922 157.776 328.61 160.422 329.051 162.996C330.545 169.388 339.212 181.442 331.309 188.216C323.406 194.991 309.841 194.609 307.6 202.545C305.358 210.481 309.858 232.282 302.336 242.393C294.815 252.504 280.121 251.807 272.218 258.581C264.315 265.355 265.444 269.124 265.444 269.124" stroke="white" stroke-width="0.5" stroke-linecap="round" stroke-linejoin="round"/>
<path d="M333.932 147.937C333.248 148.904 332.616 149.907 332.04 150.942" stroke="white" stroke-width="0.5" stroke-linecap="round" stroke-linejoin="round"/>
<path d="M380.76 237.014L386.194 251.064C386.194 251.064 398.252 258.349 406.837 262.575C415.422 266.801 436.76 274.96 436.76 274.96L428.172 279.867C428.172 279.867 393.564 269.425 387.242 269.446C380.919 269.468 374.33 261.962 371.832 259.808C369.333 257.654 375.263 235.6 380.76 237.014Z" fill="white" stroke="#263238" stroke-linecap="round" stroke-linejoin="round"/>
<path d="M397.092 489.234C397.092 489.234 406.489 497.171 410.374 499.827C414.259 502.484 418.792 503.679 418.078 505.124C417.364 506.568 415.422 508.013 406.273 506.784C397.125 505.555 394.485 502.451 392.791 501.969C391.098 501.488 387.013 502.7 383.892 500.774C380.77 498.848 385.718 487.375 385.718 487.375C387.089 488.978 388.983 490.044 391.065 490.384C393.147 490.724 395.281 490.317 397.092 489.234Z" fill="white" stroke="#263238" stroke-linecap="round" stroke-linejoin="round"/>
<path d="M418.045 505.124C418.052 505.046 418.052 504.968 418.045 504.891C412.763 505.376 407.437 504.875 402.338 503.413C396.427 502.019 394.684 498.881 389.055 498.881C386.846 498.901 384.651 498.541 382.563 497.818C382.503 498.372 382.579 498.932 382.784 499.45C382.99 499.968 383.319 500.428 383.742 500.79C386.864 502.716 390.965 501.504 392.642 501.986C394.319 502.467 396.975 505.605 406.123 506.801C415.272 507.996 417.314 506.568 418.045 505.124Z" fill="white" stroke="#263238" stroke-linecap="round" stroke-linejoin="round"/>
<path d="M347.896 168.342C347.896 168.342 349.706 180.529 347.381 185.444C345.057 190.358 337.785 190.89 331.575 191.936C325.366 192.982 311.103 198.411 312.647 212.408C314.191 226.404 332.09 256.722 332.09 265.272C332.09 273.823 326.644 278.223 320.683 294.81C314.723 311.396 315.503 342.245 317.363 362.202C318.726 375.374 321.327 388.388 325.133 401.071C325.133 401.071 310.19 425.179 303.549 435.539C296.907 445.9 273.663 491.011 273.663 491.011C273.663 491.011 273.663 492.555 277.282 493.601C279.829 494.22 282.463 494.395 285.069 494.116C285.069 494.116 329.633 440.47 337.934 431.405C346.236 422.34 354.006 406.5 355.036 399.261C356.065 392.022 354.787 347.691 354.787 347.691C354.787 347.691 364.101 369.973 371.39 381.379C375.811 388.36 379.867 395.564 383.543 402.964C382.523 412.344 382.523 421.808 383.543 431.189C385.353 444.14 383.826 485.748 385.635 489.118C387.445 492.489 394.468 491.077 396.029 489.533C397.59 487.989 398.32 477.911 398.32 477.911C398.32 477.911 401.425 446.365 403.301 431.521C405.178 416.678 408.282 404.043 407.203 400.672C406.124 397.302 399.682 361.273 394.751 344.221C389.819 327.17 374.827 295.241 371.506 286.956C368.185 278.671 366.309 271.133 366.841 268.543C367.372 265.953 377.467 250.413 380.123 246.262C381.638 243.448 382.473 240.319 382.562 237.124C382.652 233.93 381.993 230.759 380.638 227.865C377.533 221.124 380.638 212.042 380.123 206.613C379.608 201.184 371.572 198.826 367.422 196.767C363.271 194.708 361.71 190.026 361.71 186.141C361.964 182.868 362.755 179.66 364.051 176.644C364.051 176.644 351.267 168.342 347.896 168.342Z" fill="white" stroke="#263238" stroke-linecap="round" stroke-linejoin="round"/>
<path d="M379.309 223.781C377.944 220.311 376.807 216.756 375.906 213.138" stroke="#263238" stroke-linecap="round" stroke-linejoin="round"/>
<path d="M345.654 252.637C345.654 252.637 350.336 253.667 359.717 248.985" stroke="#263238" stroke-linecap="round" stroke-linejoin="round"/>
<path d="M394.8 344.055C390.102 327.717 376.172 297.881 372.004 288.036C352.08 295.507 333.451 289.131 324.701 285.014C323.44 287.77 322.078 290.958 320.683 294.81C314.723 311.413 315.503 342.245 317.363 362.203C318.726 375.374 321.327 388.388 325.133 401.071C325.133 401.071 310.19 425.179 303.549 435.539C296.907 445.9 273.663 491.011 273.663 491.011C273.663 491.011 273.663 492.555 277.282 493.601C279.829 494.221 282.463 494.395 285.069 494.116C285.069 494.116 329.633 440.47 337.934 431.405C346.236 422.34 354.006 406.5 355.036 399.261C356.065 392.022 354.787 347.691 354.787 347.691C354.787 347.691 364.101 369.973 371.39 381.379C375.811 388.36 379.867 395.564 383.543 402.964C382.523 412.344 382.523 421.808 383.543 431.189C385.353 444.14 383.826 485.748 385.635 489.118C387.445 492.489 394.468 491.077 396.029 489.533C397.59 487.989 398.32 477.911 398.32 477.911C398.32 477.911 401.425 446.365 403.301 431.521C405.178 416.678 408.282 404.043 407.203 400.672C406.124 397.302 399.732 361.157 394.8 344.055Z" fill="#263238" stroke="#263238" stroke-linecap="round" stroke-linejoin="round"/>
<path d="M515.057 287.805L514.245 284.517L517.002 283.836L510.629 258.013L507.872 258.693L480.662 265.408L477.906 266.088L484.279 291.912L487.035 291.232L487.847 294.52L485.074 295.204L486.554 301.201L497.177 298.579L496.68 296.564L508.189 293.724L508.686 295.739L519.309 293.117L517.829 287.121L515.057 287.805Z" fill="#FFF5DB" stroke="#263238" stroke-linecap="round" stroke-linejoin="round"/>
<path d="M330.101 294.373L519.926 247.526C520.687 247.339 521.491 247.461 522.162 247.866C522.833 248.271 523.316 248.927 523.503 249.688L524.928 255.458C525.115 256.219 524.993 257.024 524.588 257.695C524.183 258.366 523.527 258.848 522.766 259.036L332.941 305.883L330.097 294.357L330.101 294.373Z" fill="#FFF5DB" stroke="#263238" stroke-linecap="round" stroke-linejoin="round"/>
<path d="M465.919 259.025L454.361 261.877C453.48 262.095 452.942 262.986 453.159 263.867L456.067 275.651C456.285 276.532 457.176 277.07 458.057 276.853L469.615 274C470.496 273.783 471.034 272.892 470.817 272.011L467.909 260.227C467.691 259.346 466.8 258.808 465.919 259.025Z" fill="#FFF5DB" stroke="#263238" stroke-linecap="round" stroke-linejoin="round"/>
<path d="M338.658 303.518C337.302 286.525 322.428 273.849 305.435 275.205C288.443 276.562 275.767 291.436 277.123 308.429C278.479 325.421 293.354 338.097 310.346 336.741C327.339 335.385 340.014 320.51 338.658 303.518Z" fill="#FFF5DB" stroke="#263238" stroke-linecap="round" stroke-linejoin="round"/>
<path d="M314.032 304.376C315.564 303.115 316.718 301.457 317.369 299.582C318.02 297.708 318.141 295.691 317.72 293.752C316.268 287.868 309.674 284.433 302.985 286.084C296.295 287.735 292.072 293.908 293.508 299.727C294.034 301.641 295.079 303.372 296.528 304.729C297.976 306.086 299.772 307.015 301.716 307.415C300.184 308.679 299.029 310.34 298.379 312.217C297.729 314.095 297.609 316.114 298.032 318.055C299.484 323.939 306.077 327.374 312.767 325.723C319.457 324.072 323.68 317.899 322.243 312.08C321.711 310.167 320.664 308.437 319.216 307.078C317.768 305.72 315.975 304.785 314.032 304.376Z" fill="white" stroke="#263238" stroke-linecap="round" stroke-linejoin="round"/>
<path d="M425.53 282.127C425.53 282.127 435.193 286.212 438.182 286.212C441.171 286.212 444.624 283.207 446.334 279.571C448.044 275.934 447.995 274.208 446.982 275.071L444.84 276.731C444.84 276.731 446.5 273.095 444.624 273.527C443.325 273.96 442.246 274.883 441.619 276.1C441.619 276.1 441.403 272.879 439.693 274.44C438.561 275.465 437.553 276.618 436.688 277.877C436.688 277.877 436.472 273.809 435.393 274.872C434.313 275.934 430.262 281.729 430.262 281.729L425.53 282.127Z" fill="white" stroke="#263238" stroke-linecap="round" stroke-linejoin="round"/>
<path d="M436.687 277.844C436.687 277.844 436.04 282.991 432.835 283.854L436.687 277.844Z" fill="white"/>
<path d="M436.687 277.844C436.687 277.844 436.04 282.991 432.835 283.854" stroke="#263238" stroke-linecap="round" stroke-linejoin="round"/>
<path d="M441.618 276.134C441.618 276.134 439.958 284.269 437.335 285.564L441.618 276.134Z" fill="white"/>
<path d="M441.618 276.134C441.618 276.134 439.958 284.269 437.335 285.564" stroke="#263238" stroke-linecap="round" stroke-linejoin="round"/>
<path d="M444.84 276.764C443.984 279.733 442.832 282.609 441.403 285.348L444.84 276.764Z" fill="white"/>
<path d="M444.84 276.764C443.984 279.733 442.832 282.609 441.403 285.348" stroke="#263238" stroke-linecap="round" stroke-linejoin="round"/>
<path d="M366.807 196.269C365.135 195.14 363.78 193.601 362.873 191.798C361.966 189.996 361.537 187.991 361.627 185.975C361.925 182.754 362.743 179.603 364.051 176.644C364.051 176.644 351.349 168.342 347.979 168.342C347.979 168.342 349.789 180.529 347.464 185.444C346.702 186.973 345.46 188.209 343.928 188.964C346.997 197.228 351.157 205.046 356.297 212.208C360.963 218.069 363.237 205.716 366.807 196.269Z" fill="white" stroke="#263238" stroke-linecap="round" stroke-linejoin="round"/>
<path d="M319.161 198.141C316.214 199.426 313.607 201.378 311.544 203.842C309.481 206.307 308.02 209.218 307.275 212.345C304.673 223.145 293.701 271.958 296.195 274.096C310.397 286.324 351.38 287.532 356.243 290.47C361.15 293.586 366.343 296.228 371.751 298.357C376.265 299.877 383.788 296.891 385.032 295.832C386.275 294.773 386.551 291.318 384.069 291.931C383.123 292.178 382.122 292.092 381.232 291.69C380.342 291.287 379.617 290.591 379.179 289.718C378.474 288.387 383.43 290.173 385.295 288.584C387.16 286.995 379.318 284.809 376.753 283.561C374.188 282.313 371.806 280.284 368.969 280.985C366.132 281.685 360.796 283.002 360.796 283.002C360.796 283.002 345.404 276.762 335.767 271.667C328.252 267.638 320.34 264.398 312.158 261.999L326.377 216.711" fill="white"/>
<path d="M319.161 198.141C316.214 199.426 313.607 201.378 311.544 203.842C309.481 206.307 308.02 209.218 307.275 212.345C304.673 223.145 293.701 271.958 296.195 274.096C310.397 286.324 351.38 287.532 356.243 290.47C361.15 293.586 366.343 296.228 371.751 298.357C376.265 299.877 383.788 296.891 385.032 295.832C386.275 294.773 386.551 291.318 384.069 291.931C383.123 292.178 382.122 292.092 381.232 291.69C380.342 291.287 379.617 290.591 379.179 289.718C378.474 288.387 383.43 290.173 385.295 288.584C387.16 286.995 379.318 284.809 376.753 283.561C374.188 282.313 371.806 280.284 368.969 280.985C366.132 281.685 360.796 283.002 360.796 283.002C360.796 283.002 345.404 276.762 335.767 271.667C328.252 267.638 320.34 264.398 312.158 261.999L326.377 216.711" stroke="#263238" stroke-linecap="round" stroke-linejoin="round"/>
<path d="M376.741 283.581C374.176 282.333 371.794 280.305 368.957 281.005C366.12 281.705 360.784 283.022 360.784 283.022C360.784 283.022 345.392 276.782 335.755 271.687C328.24 267.658 320.329 264.418 312.146 262.019L317.831 243.891C312.204 242.136 306.211 241.921 300.473 243.267C297.343 258.302 294.834 273.013 296.131 274.18C310.333 286.409 351.315 287.616 356.179 290.554C361.085 293.671 366.278 296.312 371.687 298.442C376.2 299.961 383.724 296.976 384.967 295.917C386.211 294.857 386.487 291.403 384.004 292.016C383.059 292.262 382.058 292.177 381.168 291.774C380.278 291.371 379.553 290.675 379.114 289.802C378.41 288.471 383.365 290.258 385.231 288.669C387.096 287.08 379.311 284.846 376.741 283.581Z" fill="white" stroke="#263238" stroke-linecap="round" stroke-linejoin="round"/>
<path d="M376.404 150.461C375.109 147.87 375.109 145.795 375.624 142.159C376.138 138.523 373.034 129.706 373.034 129.706C369.862 135.186 360.697 138.44 356.646 139.668C352.18 141.03 358.705 144.118 358.008 148.252C357.31 152.387 348.394 154.777 348.394 154.777C348.394 154.777 345.788 149.415 342.168 149.415C338.549 149.415 335.975 157.716 338.034 162.116C338.57 163.335 339.505 164.336 340.684 164.954C341.864 165.572 343.218 165.772 344.526 165.52C344.526 165.52 344.277 173.307 349.191 175.631C354.435 178.133 359.906 180.129 365.529 181.592C368.634 182.106 371.738 180.562 373.034 175.897C374.046 171.195 374.74 166.43 375.109 161.635C377.283 160.212 379.283 158.54 381.07 156.654C382.315 154.86 377.699 153.051 376.404 150.461Z" fill="white" stroke="#263238" stroke-linecap="round" stroke-linejoin="round"/>
<path d="M273.779 491.011C273.779 491.011 267.586 503.43 267.818 505.124C268.051 506.817 280.337 515.716 286.082 518.838C291.827 521.959 302.22 522.457 301.49 518.124C300.759 513.79 290.897 510.901 288.489 504.393C287.207 501.026 286.099 497.596 285.169 494.116C281.155 494.175 277.207 493.099 273.779 491.011Z" fill="white" stroke="#263238" stroke-linecap="round" stroke-linejoin="round"/>
<path d="M301.523 518.19C297.103 518.783 292.604 518.145 288.523 516.348C279.607 512.479 270.973 504.576 268.599 502.334C268.177 503.23 267.908 504.189 267.802 505.173C268.051 506.834 280.321 515.766 286.065 518.888C291.81 522.009 302.121 522.441 301.523 518.19Z" fill="white" stroke="#263238" stroke-linecap="round" stroke-linejoin="round"/>
<path d="M129.162 242.009C129.057 242.009 130.361 235.527 130.5 235.057C131.994 230.435 137.625 222.371 143.065 222.388C143.969 222.414 144.858 222.63 145.674 223.022C146.489 223.414 147.213 223.973 147.798 224.663C148.384 225.353 148.817 226.159 149.07 227.027C149.324 227.896 149.392 228.808 149.269 229.705C148.87 233.545 145.429 236.795 142.318 238.69C138.668 240.966 129.162 242.009 129.162 242.009Z" fill="#DAE9FF"/>
<path d="M118.612 198.37C123.739 200.212 126.294 209.701 126.12 214.567C126.12 214.985 125.147 221.519 125.06 221.519H124.956C125.355 223.014 125.79 224.63 126.224 226.385C126.989 229.653 127.823 233.337 128.466 237.438C129.212 241.838 129.699 246.277 129.926 250.733C130.203 255.72 130.034 260.722 129.422 265.679C129.412 265.737 129.412 265.796 129.422 265.853C130.1 264.411 132.099 260.414 132.29 260.118C134.966 256.051 142.509 249.691 147.775 251.22C148.638 251.486 149.435 251.93 150.115 252.524C150.796 253.118 151.344 253.848 151.724 254.668C152.104 255.487 152.308 256.377 152.322 257.28C152.336 258.183 152.161 259.079 151.806 259.91C150.416 263.49 146.245 265.732 142.752 266.722C138.807 267.852 130.013 266.514 129.318 266.409C128.576 271.435 127.497 276.405 126.085 281.286C125.274 284.136 124.394 286.986 123.444 289.836C124.052 288.602 124.626 287.508 124.712 287.351C127.389 283.284 134.931 276.924 140.197 278.436C141.062 278.699 141.861 279.142 142.543 279.736C143.225 280.329 143.774 281.06 144.154 281.88C144.535 282.7 144.738 283.591 144.751 284.495C144.764 285.398 144.586 286.295 144.229 287.125C142.839 290.723 138.668 292.947 135.175 293.955C131.681 294.963 124.104 293.955 122.123 293.695C121.758 294.772 121.393 295.867 121.011 296.944C119.273 302.158 117.396 307.372 115.797 312.481C115.223 314.219 114.719 316.096 114.215 317.904C114.772 316.809 115.241 315.888 115.328 315.766C117.987 311.699 125.547 305.339 130.795 306.851C131.658 307.117 132.456 307.561 133.136 308.155C133.817 308.749 134.366 309.478 134.748 310.297C135.129 311.116 135.335 312.005 135.351 312.908C135.368 313.811 135.195 314.708 134.844 315.54C133.454 319.12 129.266 321.362 125.773 322.353C122.279 323.343 115.449 322.474 113.086 322.144C112.617 324.021 112.165 325.881 111.8 327.705C111.574 328.957 111.278 330.156 111.122 331.425C110.966 332.693 110.774 333.927 110.601 335.144C110.357 337.525 110.079 339.993 109.905 342.321C109.766 343.938 109.662 345.484 109.558 347.031C110.097 345.293 111.296 341.713 111.383 341.418C113.312 337.598 116.183 334.332 119.725 331.929C119.918 331.493 120.156 331.079 120.437 330.695C120.93 329.936 121.576 329.29 122.335 328.798C123.093 328.305 123.947 327.978 124.84 327.837C125.733 327.696 126.646 327.745 127.519 327.979C128.393 328.214 129.207 328.63 129.909 329.2C134.045 332.676 133.002 342.547 131.108 347.031C131.004 347.292 129.457 350.02 128.466 351.723C129.214 350.82 129.909 349.985 130.691 348.978C132.203 347.135 133.767 345.328 135.435 343.381L137.99 340.618C138.824 339.662 139.832 338.776 140.753 337.855C142.926 335.752 145.237 333.719 147.618 331.72C145.984 330.399 140.302 325.585 138.668 322.318C137.034 319.051 135.87 314.48 137.573 311.039C137.945 310.212 138.488 309.473 139.165 308.871C139.843 308.268 140.639 307.815 141.504 307.541C142.368 307.267 143.28 307.179 144.181 307.281C145.082 307.384 145.951 307.675 146.732 308.137C151.337 311.022 151.806 320.841 150.607 325.516C150.607 325.811 149.286 329.096 148.574 330.886C150.016 329.704 151.442 328.505 152.936 327.41C157.246 324.073 161.713 320.841 166.144 317.591L170.194 314.584C169.62 314.115 162.738 308.554 160.896 304.904C159.28 301.654 158.098 297.066 159.801 293.608C160.175 292.783 160.719 292.046 161.397 291.445C162.074 290.844 162.871 290.392 163.734 290.118C164.598 289.844 165.509 289.755 166.409 289.856C167.31 289.958 168.178 290.247 168.96 290.705C173.565 293.608 174.034 303.427 172.835 308.084C172.748 308.449 170.958 313.176 170.437 314.358C173.409 312.134 176.346 309.909 179.126 307.598C182.934 304.488 186.533 301.133 189.902 297.553C189.641 297.344 182.428 291.574 180.552 287.82C178.918 284.571 177.754 279.982 179.457 276.541C179.827 275.715 180.368 274.977 181.044 274.374C181.72 273.771 182.515 273.318 183.378 273.044C184.241 272.77 185.152 272.682 186.051 272.784C186.951 272.887 187.819 273.178 188.598 273.639C193.221 276.524 193.69 286.343 192.491 291.018C192.404 291.314 191.049 294.928 190.353 296.632L190.631 296.788C193.928 293.097 196.888 289.118 199.477 284.901C200.92 282.607 202.189 280.33 203.37 278.071C201.91 277.132 195.324 272.857 193.256 269.59C191.188 266.322 189.623 262.117 190.927 258.502C191.208 257.651 191.663 256.868 192.263 256.203C192.863 255.538 193.596 255.006 194.413 254.639C195.231 254.273 196.116 254.081 197.012 254.076C197.908 254.071 198.795 254.252 199.616 254.609C204.535 256.972 206.064 266.687 205.386 271.501C205.386 271.762 204.691 274.386 204.187 276.298C204.691 275.273 205.247 274.23 205.716 273.239C207.454 269.52 208.932 266.01 210.148 262.812C210.843 261.074 211.417 259.336 211.886 257.894C210.93 256.156 207.211 249.465 206.846 245.728C206.481 241.992 207.072 237.404 209.905 234.797C210.551 234.163 211.323 233.672 212.172 233.357C213.02 233.041 213.925 232.908 214.828 232.965C215.732 233.022 216.613 233.269 217.414 233.69C218.216 234.11 218.92 234.695 219.481 235.405C222.748 239.767 219.637 249.082 216.822 253.062C216.578 253.392 212.147 258.276 212.095 258.276V258.172C211.608 259.649 211.087 261.23 210.461 262.934C209.314 266.079 207.958 269.642 206.255 273.361C204.44 277.438 202.392 281.407 200.12 285.248C197.59 289.553 194.682 293.624 191.431 297.414L191.309 297.553C192.665 296.701 196.523 294.494 196.853 294.355C201.337 292.443 211.104 291.348 214.684 295.467C215.258 296.166 215.678 296.978 215.919 297.85C216.159 298.721 216.214 299.634 216.08 300.528C215.945 301.423 215.625 302.279 215.139 303.041C214.653 303.804 214.013 304.456 213.259 304.956C210.113 307.181 205.386 306.694 201.928 305.634C198.018 304.4 191.5 298.439 190.892 297.97C187.503 301.751 183.863 305.298 179.995 308.588C177.736 310.535 175.425 312.412 173.044 314.254C174.243 313.576 175.32 312.968 175.477 312.898C179.943 310.987 189.71 309.892 193.29 314.011C193.867 314.709 194.289 315.52 194.531 316.392C194.773 317.265 194.829 318.178 194.694 319.073C194.56 319.968 194.239 320.825 193.751 321.588C193.264 322.35 192.621 323.002 191.865 323.5C188.737 325.724 184.01 325.238 180.552 324.178C177.093 323.117 171.306 318.112 169.811 316.774L167.083 318.877C162.703 322.231 158.393 325.55 154.135 328.939C152.658 330.139 151.25 331.372 149.825 332.589C150.903 331.981 151.789 331.477 151.945 331.425C156.412 329.495 166.179 328.418 169.759 332.519C170.338 333.216 170.763 334.028 171.006 334.9C171.25 335.773 171.306 336.687 171.172 337.583C171.037 338.479 170.715 339.336 170.226 340.099C169.737 340.862 169.092 341.512 168.334 342.008C165.188 344.233 160.479 343.746 157.02 342.704C153.562 341.661 148.331 337.108 146.593 335.526C145.185 336.83 143.76 338.116 142.457 339.454C141.57 340.375 140.719 341.192 139.85 342.182C138.981 343.173 138.112 344.059 137.347 344.998C135.835 346.84 134.254 348.752 132.811 350.594C131.803 351.862 130.865 353.096 129.926 354.33C131.369 353.131 134.288 350.854 134.549 350.663C138.668 348.091 148.157 345.536 152.328 349.047C153.001 349.653 153.54 350.394 153.909 351.222C154.277 352.05 154.468 352.946 154.468 353.852C154.468 354.759 154.277 355.655 153.909 356.482C153.54 357.31 153.001 358.051 152.328 358.658C149.565 361.317 144.837 361.612 141.257 361.056C137.295 360.43 130.135 355.842 129.248 355.182C127.684 357.233 126.19 359.249 124.799 361.178C119.985 367.834 116.231 373.552 113.659 377.601L113.399 378.001L110.062 376.384C110.236 376.124 110.409 375.88 110.583 375.602C113.277 371.57 117.205 365.87 122.21 359.249C123.791 357.163 125.512 354.956 127.302 352.697C125.439 350.67 123.698 348.534 122.088 346.301C118.247 347.796 110.27 347.865 109.245 347.865C109.089 350.437 108.95 352.94 108.845 355.304C108.498 363.524 108.532 370.371 108.619 375.15V375.724L104.952 373.986C104.952 369.242 105.144 362.794 105.63 355.199C105.787 352.575 106.012 349.777 106.273 346.927C105.248 346.666 96.958 344.528 93.8297 342.026C90.9969 339.767 88.0078 336.082 88.112 332.241C88.1023 331.335 88.2842 330.438 88.6456 329.607C89.0071 328.776 89.54 328.031 90.2095 327.421C90.8789 326.811 91.6699 326.348 92.5304 326.065C93.3909 325.782 94.3015 325.683 95.2027 325.776C100.608 326.472 105.126 335.196 106.03 339.975C106.03 340.253 106.308 343.451 106.412 345.363C106.534 344.181 106.621 343.051 106.742 341.887C106.986 339.506 107.299 337.125 107.629 334.57C107.82 333.354 108.029 332.12 108.22 330.868C108.411 329.617 108.741 328.331 109.002 327.045C109.662 324.091 110.462 321.119 111.348 318.147C109.262 317.921 101.876 317.052 98.6959 315.245C95.5155 313.437 92.0397 310.239 91.5705 306.433C91.4223 305.539 91.4651 304.623 91.696 303.746C91.9269 302.869 92.3407 302.051 92.9102 301.345C93.4797 300.639 94.1921 300.062 95.0006 299.651C95.809 299.24 96.6952 299.005 97.601 298.96C103.041 298.821 108.845 306.764 110.444 311.352C110.548 311.647 111.331 315.071 111.713 316.965C112.269 315.227 112.79 313.385 113.451 311.612C115.189 306.399 117.153 301.289 119.064 296.128C119.655 294.546 120.211 292.965 120.802 291.4C120.055 291.4 111.244 290.479 107.698 288.446C104.553 286.708 101.042 283.441 100.555 279.635C100.413 278.741 100.46 277.827 100.693 276.952C100.926 276.078 101.34 275.262 101.909 274.557C102.477 273.853 103.187 273.275 103.993 272.863C104.799 272.45 105.682 272.211 106.586 272.162C112.043 272.023 117.848 279.965 119.447 284.553C119.568 284.901 120.68 289.767 120.906 291.105C122.158 287.629 123.392 284.153 124.382 280.678C125.852 275.985 127.013 271.201 127.858 266.357C127.51 266.357 118.3 265.488 114.685 263.403C111.522 261.665 108.011 258.398 107.542 254.592C107.399 253.698 107.446 252.784 107.679 251.909C107.912 251.034 108.327 250.218 108.895 249.514C109.464 248.809 110.174 248.232 110.979 247.819C111.785 247.407 112.669 247.168 113.572 247.119C119.012 246.997 124.817 254.922 126.416 259.51C126.52 259.823 127.371 263.577 127.736 265.367H128.049C128.767 260.471 129.046 255.522 128.883 250.577C128.883 247.848 128.623 245.259 128.362 242.722C126.624 242.722 118.734 242.722 115.258 241.227C111.782 239.732 108.081 236.986 107.177 233.25C106.936 232.375 106.882 231.458 107.02 230.561C107.157 229.664 107.483 228.805 107.975 228.042C108.467 227.28 109.115 226.629 109.876 226.134C110.637 225.639 111.494 225.31 112.391 225.169C117.796 224.439 124.434 231.686 126.537 236.083C126.642 236.326 127.545 238.881 128.153 240.74C128.032 239.611 127.91 238.429 127.754 237.351C127.215 233.267 126.45 229.548 125.755 226.281C125.338 224.421 124.938 222.805 124.539 221.189C122.801 220.32 115.988 216.74 113.642 213.838C111.296 210.935 109.245 206.782 110.166 203.045C110.365 202.154 110.75 201.316 111.297 200.585C111.843 199.855 112.539 199.248 113.337 198.806C114.135 198.365 115.018 198.097 115.928 198.022C116.837 197.947 117.752 198.065 118.612 198.37Z" fill="#DAE9FF"/>
<path d="M217.117 282.363C212.859 282.19 204.344 277.827 204.344 277.81C204.344 277.793 208.914 273.083 209.245 272.822C213.051 269.781 222.192 266.166 226.728 269.173C227.468 269.696 228.089 270.368 228.552 271.147C229.016 271.925 229.31 272.792 229.416 273.692C229.523 274.591 229.439 275.503 229.171 276.368C228.902 277.234 228.455 278.033 227.858 278.714C225.425 281.633 220.75 282.502 217.117 282.363Z" fill="#DAE9FF"/>
<g opacity="0.5">
<path opacity="0.5" d="M129.161 242.009C129.057 242.009 130.361 235.527 130.5 235.057C131.994 230.435 137.625 222.371 143.065 222.388C143.969 222.414 144.858 222.63 145.674 223.022C146.489 223.414 147.213 223.973 147.798 224.663C148.383 225.353 148.817 226.159 149.07 227.027C149.324 227.896 149.391 228.808 149.269 229.705C148.869 233.545 145.428 236.795 142.317 238.69C138.668 240.966 129.161 242.009 129.161 242.009Z" fill="white"/>
<path opacity="0.5" d="M118.612 198.37C123.739 200.212 126.294 209.701 126.12 214.567C126.12 214.985 125.147 221.519 125.06 221.519H124.956C125.355 223.014 125.79 224.63 126.224 226.385C126.989 229.653 127.823 233.337 128.466 237.438C129.212 241.838 129.699 246.277 129.926 250.733C130.203 255.72 130.034 260.722 129.422 265.679C129.412 265.737 129.412 265.796 129.422 265.853C130.1 264.411 132.099 260.414 132.29 260.118C134.966 256.051 142.509 249.691 147.775 251.22C148.638 251.486 149.435 251.93 150.115 252.524C150.796 253.118 151.344 253.848 151.724 254.668C152.104 255.487 152.308 256.377 152.322 257.28C152.336 258.183 152.161 259.079 151.806 259.91C150.416 263.49 146.245 265.732 142.752 266.722C138.807 267.852 130.013 266.514 129.318 266.409C128.576 271.435 127.497 276.405 126.085 281.286C125.274 284.136 124.394 286.986 123.444 289.836C124.052 288.602 124.626 287.508 124.712 287.351C127.389 283.284 134.931 276.924 140.197 278.436C141.062 278.699 141.861 279.142 142.543 279.736C143.225 280.329 143.774 281.06 144.154 281.88C144.535 282.7 144.738 283.591 144.751 284.495C144.764 285.398 144.586 286.295 144.229 287.125C142.839 290.723 138.668 292.947 135.175 293.955C131.681 294.963 124.104 293.955 122.123 293.695C121.758 294.772 121.393 295.867 121.011 296.944C119.273 302.158 117.396 307.372 115.797 312.481C115.223 314.219 114.719 316.096 114.215 317.904C114.772 316.809 115.241 315.888 115.328 315.766C117.987 311.699 125.547 305.339 130.795 306.851C131.658 307.117 132.456 307.561 133.136 308.155C133.817 308.749 134.366 309.478 134.748 310.297C135.129 311.116 135.335 312.005 135.351 312.908C135.368 313.811 135.195 314.708 134.844 315.54C133.454 319.12 129.266 321.362 125.773 322.353C122.279 323.343 115.449 322.474 113.086 322.144C112.617 324.021 112.165 325.881 111.8 327.705C111.574 328.957 111.278 330.156 111.122 331.425C110.966 332.693 110.774 333.927 110.601 335.144C110.357 337.525 110.079 339.993 109.905 342.321C109.766 343.938 109.662 345.484 109.558 347.031C110.097 345.293 111.296 341.713 111.383 341.418C113.312 337.598 116.183 334.332 119.725 331.929C119.918 331.493 120.156 331.079 120.437 330.695C120.93 329.936 121.576 329.29 122.335 328.798C123.093 328.305 123.947 327.978 124.84 327.837C125.733 327.696 126.646 327.745 127.519 327.979C128.393 328.214 129.207 328.63 129.909 329.2C134.045 332.676 133.002 342.547 131.108 347.031C131.004 347.292 129.457 350.02 128.466 351.723C129.214 350.82 129.909 349.985 130.691 348.978C132.203 347.135 133.767 345.328 135.435 343.381L137.99 340.618C138.824 339.662 139.832 338.776 140.753 337.855C142.926 335.752 145.237 333.719 147.618 331.72C145.984 330.399 140.302 325.585 138.668 322.318C137.034 319.051 135.87 314.48 137.573 311.039C137.945 310.212 138.488 309.473 139.165 308.871C139.843 308.268 140.639 307.815 141.504 307.541C142.368 307.267 143.28 307.179 144.181 307.281C145.082 307.384 145.951 307.675 146.732 308.137C151.337 311.022 151.806 320.841 150.607 325.516C150.607 325.811 149.286 329.096 148.574 330.886C150.016 329.704 151.442 328.505 152.936 327.41C157.246 324.073 161.713 320.841 166.144 317.591L170.194 314.584C169.62 314.115 162.738 308.554 160.896 304.904C159.28 301.654 158.098 297.066 159.801 293.608C160.175 292.783 160.719 292.046 161.397 291.445C162.074 290.844 162.871 290.392 163.734 290.118C164.598 289.844 165.509 289.755 166.409 289.856C167.31 289.958 168.178 290.247 168.96 290.705C173.565 293.608 174.034 303.427 172.835 308.084C172.748 308.449 170.958 313.176 170.437 314.358C173.409 312.134 176.346 309.909 179.126 307.598C182.934 304.488 186.533 301.133 189.902 297.553C189.641 297.344 182.428 291.574 180.552 287.82C178.918 284.571 177.754 279.982 179.457 276.541C179.827 275.715 180.368 274.977 181.044 274.374C181.72 273.771 182.515 273.318 183.378 273.044C184.241 272.77 185.152 272.682 186.051 272.784C186.951 272.887 187.819 273.178 188.598 273.639C193.221 276.524 193.69 286.343 192.491 291.018C192.404 291.314 191.049 294.928 190.353 296.632L190.631 296.788C193.928 293.097 196.888 289.118 199.477 284.901C200.92 282.607 202.189 280.33 203.37 278.071C201.91 277.132 195.324 272.857 193.256 269.59C191.188 266.322 189.623 262.117 190.927 258.502C191.208 257.651 191.663 256.868 192.263 256.203C192.863 255.538 193.596 255.006 194.413 254.639C195.231 254.273 196.116 254.081 197.012 254.076C197.908 254.071 198.795 254.252 199.616 254.609C204.535 256.972 206.064 266.687 205.386 271.501C205.386 271.762 204.691 274.386 204.187 276.298C204.691 275.273 205.247 274.23 205.716 273.239C207.454 269.52 208.932 266.01 210.148 262.812C210.843 261.074 211.417 259.336 211.886 257.894C210.93 256.156 207.211 249.465 206.846 245.728C206.481 241.992 207.072 237.404 209.905 234.797C210.551 234.163 211.323 233.672 212.172 233.357C213.02 233.041 213.925 232.908 214.828 232.965C215.732 233.022 216.613 233.269 217.414 233.69C218.216 234.11 218.92 234.695 219.481 235.405C222.748 239.767 219.637 249.082 216.822 253.062C216.578 253.392 212.147 258.276 212.095 258.276V258.172C211.608 259.649 211.087 261.23 210.461 262.934C209.314 266.079 207.958 269.642 206.255 273.361C204.44 277.438 202.392 281.407 200.12 285.248C197.59 289.553 194.682 293.624 191.431 297.414L191.309 297.553C192.665 296.701 196.523 294.494 196.853 294.355C201.337 292.443 211.104 291.348 214.684 295.467C215.258 296.166 215.678 296.978 215.919 297.85C216.159 298.721 216.214 299.634 216.08 300.528C215.945 301.423 215.625 302.279 215.139 303.041C214.653 303.804 214.013 304.456 213.259 304.956C210.113 307.181 205.386 306.694 201.928 305.634C198.018 304.4 191.5 298.439 190.892 297.97C187.503 301.751 183.863 305.298 179.995 308.588C177.736 310.535 175.425 312.412 173.044 314.254C174.243 313.576 175.32 312.968 175.477 312.898C179.943 310.987 189.71 309.892 193.29 314.011C193.867 314.709 194.289 315.52 194.531 316.392C194.773 317.265 194.829 318.178 194.694 319.073C194.56 319.968 194.239 320.825 193.751 321.588C193.264 322.35 192.621 323.002 191.865 323.5C188.737 325.724 184.01 325.238 180.552 324.178C177.093 323.117 171.306 318.112 169.811 316.774L167.083 318.877C162.703 322.231 158.393 325.55 154.135 328.939C152.658 330.139 151.25 331.372 149.825 332.589C150.903 331.981 151.789 331.477 151.945 331.425C156.412 329.495 166.179 328.418 169.759 332.519C170.338 333.216 170.763 334.028 171.006 334.9C171.25 335.773 171.306 336.687 171.172 337.583C171.037 338.479 170.715 339.336 170.226 340.099C169.737 340.862 169.092 341.512 168.334 342.008C165.188 344.233 160.479 343.746 157.02 342.704C153.562 341.661 148.331 337.108 146.593 335.526C145.185 336.83 143.76 338.116 142.457 339.454C141.57 340.375 140.719 341.192 139.85 342.182C138.981 343.173 138.112 344.059 137.347 344.998C135.835 346.84 134.254 348.752 132.811 350.594C131.803 351.862 130.865 353.096 129.926 354.33C131.369 353.131 134.288 350.854 134.549 350.663C138.668 348.091 148.157 345.536 152.328 349.047C153.001 349.653 153.54 350.394 153.909 351.222C154.277 352.05 154.468 352.946 154.468 353.852C154.468 354.759 154.277 355.655 153.909 356.482C153.54 357.31 153.001 358.051 152.328 358.658C149.565 361.317 144.837 361.612 141.257 361.056C137.295 360.43 130.135 355.842 129.248 355.182C127.684 357.233 126.19 359.249 124.799 361.178C119.985 367.834 116.231 373.552 113.659 377.601L113.399 378.001L110.062 376.384C110.236 376.124 110.409 375.88 110.583 375.602C113.277 371.57 117.205 365.87 122.21 359.249C123.791 357.163 125.512 354.956 127.302 352.697C125.439 350.67 123.698 348.534 122.088 346.301C118.247 347.796 110.27 347.865 109.245 347.865C109.089 350.437 108.95 352.94 108.845 355.304C108.498 363.524 108.532 370.371 108.619 375.15V375.724L104.952 373.986C104.952 369.242 105.144 362.794 105.63 355.199C105.787 352.575 106.012 349.777 106.273 346.927C105.248 346.666 96.958 344.528 93.8297 342.026C90.9969 339.767 88.0078 336.082 88.112 332.241C88.1023 331.335 88.2842 330.438 88.6456 329.607C89.0071 328.776 89.54 328.031 90.2095 327.421C90.8789 326.811 91.6699 326.348 92.5304 326.065C93.3909 325.782 94.3015 325.683 95.2027 325.776C100.608 326.472 105.126 335.196 106.03 339.975C106.03 340.253 106.308 343.451 106.412 345.363C106.534 344.181 106.621 343.051 106.742 341.887C106.986 339.506 107.299 337.125 107.629 334.57C107.82 333.354 108.029 332.12 108.22 330.868C108.411 329.617 108.741 328.331 109.002 327.045C109.662 324.091 110.462 321.119 111.348 318.147C109.262 317.921 101.876 317.052 98.6959 315.245C95.5155 313.437 92.0397 310.239 91.5705 306.433C91.4223 305.539 91.4651 304.623 91.696 303.746C91.9269 302.869 92.3407 302.051 92.9102 301.345C93.4797 300.639 94.1921 300.062 95.0006 299.651C95.809 299.24 96.6952 299.005 97.601 298.96C103.041 298.821 108.845 306.764 110.444 311.352C110.548 311.647 111.331 315.071 111.713 316.965C112.269 315.227 112.79 313.385 113.451 311.612C115.189 306.399 117.153 301.289 119.064 296.128C119.655 294.546 120.211 292.965 120.802 291.4C120.055 291.4 111.244 290.479 107.698 288.446C104.553 286.708 101.042 283.441 100.555 279.635C100.413 278.741 100.46 277.827 100.693 276.952C100.926 276.078 101.34 275.262 101.909 274.557C102.477 273.853 103.187 273.275 103.993 272.863C104.799 272.45 105.682 272.211 106.586 272.162C112.043 272.023 117.848 279.965 119.447 284.553C119.568 284.901 120.68 289.767 120.906 291.105C122.158 287.629 123.392 284.153 124.382 280.678C125.852 275.985 127.013 271.201 127.858 266.357C127.51 266.357 118.3 265.488 114.685 263.403C111.522 261.665 108.011 258.398 107.542 254.592C107.399 253.698 107.446 252.784 107.679 251.909C107.912 251.034 108.327 250.218 108.895 249.514C109.464 248.809 110.174 248.232 110.979 247.819C111.785 247.407 112.669 247.168 113.572 247.119C119.012 246.997 124.817 254.922 126.416 259.51C126.52 259.823 127.371 263.577 127.736 265.367H128.049C128.767 260.471 129.046 255.522 128.883 250.577C128.883 247.848 128.623 245.259 128.362 242.722C126.624 242.722 118.734 242.722 115.258 241.227C111.782 239.732 108.081 236.986 107.177 233.25C106.936 232.375 106.882 231.458 107.02 230.561C107.157 229.664 107.483 228.805 107.975 228.042C108.467 227.28 109.115 226.629 109.876 226.134C110.637 225.639 111.494 225.31 112.391 225.169C117.796 224.439 124.434 231.686 126.537 236.083C126.642 236.326 127.545 238.881 128.153 240.74C128.032 239.611 127.91 238.429 127.754 237.351C127.215 233.267 126.45 229.548 125.755 226.281C125.338 224.421 124.938 222.805 124.539 221.189C122.801 220.32 115.988 216.74 113.642 213.838C111.296 210.935 109.245 206.782 110.166 203.045C110.365 202.154 110.75 201.316 111.297 200.585C111.843 199.855 112.539 199.248 113.337 198.806C114.135 198.365 115.018 198.097 115.928 198.022C116.837 197.947 117.752 198.065 118.612 198.37Z" fill="white"/>
<path opacity="0.5" d="M217.117 282.363C212.859 282.19 204.344 277.827 204.344 277.81C204.344 277.793 208.914 273.083 209.244 272.822C213.05 269.781 222.192 266.166 226.728 269.173C227.467 269.696 228.089 270.368 228.552 271.147C229.015 271.925 229.31 272.792 229.416 273.692C229.523 274.591 229.439 275.503 229.17 276.368C228.902 277.234 228.455 278.033 227.857 278.714C225.424 281.633 220.749 282.502 217.117 282.363Z" fill="white"/>
</g>
<path d="M167.396 389.002C167.396 389.002 141.553 326.697 127.093 329.409C112.634 332.12 151.859 428.713 151.859 428.713C151.859 428.713 106.395 342.947 75.3906 342.947C44.3863 342.947 86.7566 437.75 126.016 469.345C126.016 469.345 64.0247 402.54 27.8587 416.982C-8.30722 431.424 100.191 499.133 100.191 499.133C100.191 499.133 37.1566 479.269 44.3863 494.614C51.616 509.96 71.2544 512.671 71.2544 512.671L0 516.286H248L192.196 510.864C192.196 510.864 250.068 481.98 234.566 470.249C219.064 458.518 184.966 483.787 184.966 483.787C184.966 483.787 243.864 418.789 232.498 394.407C221.132 370.024 170.489 438.654 170.489 438.654C170.489 438.654 211.834 351.08 203.509 335.735C195.185 320.389 167.396 389.002 167.396 389.002Z" fill="#DAE9FF"/>
<path opacity="0.4" d="M167.396 389.002C167.396 389.002 141.553 326.697 127.093 329.409C112.634 332.12 151.859 428.713 151.859 428.713C151.859 428.713 106.395 342.947 75.3906 342.947C44.3863 342.947 86.7566 437.75 126.016 469.345C126.016 469.345 64.0247 402.54 27.8587 416.982C-8.30722 431.424 100.191 499.133 100.191 499.133C100.191 499.133 37.1566 479.269 44.3863 494.614C51.616 509.96 71.2544 512.671 71.2544 512.671L0 516.286H248L192.196 510.864C192.196 510.864 250.068 481.98 234.566 470.249C219.064 458.518 184.966 483.787 184.966 483.787C184.966 483.787 243.864 418.789 232.498 394.407C221.132 370.024 170.489 438.654 170.489 438.654C170.489 438.654 211.834 351.08 203.509 335.735C195.185 320.389 167.396 389.002 167.396 389.002Z" fill="white"/>
<path d="M175.668 392.269C152.919 459.439 152.919 506.971 152.919 506.971C152.919 506.971 179.787 507.996 207.698 487.333" stroke="#263238" stroke-linecap="round" stroke-linejoin="round"/>
<path d="M164.302 428.452C159.611 408.367 153.388 388.671 145.689 369.537" stroke="#263238" stroke-linecap="round" stroke-linejoin="round"/>
<path d="M97.1318 389.175L154.987 474.941C154.987 474.941 194.264 441.921 207.698 423.273" stroke="#263238" stroke-linecap="round" stroke-linejoin="round"/>
<path d="M153.962 495.622C153.962 495.622 92.9956 466.686 68.1956 450.211" stroke="#263238" stroke-linecap="round" stroke-linejoin="round"/>
</svg>
