<svg width="196" height="196" viewBox="0 0 196 196" fill="none" xmlns="http://www.w3.org/2000/svg">
<path d="M97.8568 195.714C151.902 195.714 195.714 151.902 195.714 97.8568C195.714 43.812 151.902 0 97.8568 0C43.812 0 0 43.812 0 97.8568C0 151.902 43.812 195.714 97.8568 195.714Z" fill="#FFEAA7"/>
<path d="M118.614 170.273H114.031V167.977H118.614V170.273ZM110.211 170.273H105.628V167.977H110.211V170.273ZM101.808 170.273H97.2247V167.977H101.808V170.273ZM93.4052 170.273H88.8217V167.977H93.4052V170.273ZM85.0021 170.273H80.4187V167.977H85.0021V170.273ZM76.5991 170.273H72.0156V167.977H76.5991V170.273Z" fill="#4462AC"/>
<path d="M111.473 47.2891H98.5703V50.6419H111.473V47.2891Z" fill="#4462AC"/>
<path d="M106.69 42.5039H103.344V55.433H106.69V42.5039Z" fill="#4462AC"/>
<path d="M104.603 37.2461H93.1289V40.1167H104.603V37.2461Z" fill="#4462AC"/>
<path d="M100.296 32.9355H97.4316V44.4331H100.296V32.9355Z" fill="#4462AC"/>
<path d="M95.6079 45.2363H87.2812V48.1069H95.6079V45.2363Z" fill="#4462AC"/>
<path d="M92.8705 42.5039H90.0059V50.84H92.8705V42.5039Z" fill="#4462AC"/>
<path d="M99.1346 53.2363H93.0156V55.15H99.1346V53.2363Z" fill="#4462AC"/>
<path d="M97.0328 51.1309H95.123V57.2624H97.0328V51.1309Z" fill="#4462AC"/>
<path d="M111.533 33.5566H104.879V35.4704H111.533V33.5566Z" fill="#4462AC"/>
<path d="M109.158 31.1777H107.248V37.8451H109.158V31.1777Z" fill="#4462AC"/>
<path d="M139.256 102.527H51.4062V155.943H139.256V102.527Z" fill="#D4E4F5"/>
<path d="M140.411 157.093H50.2695V101.381H140.411V157.093ZM52.5613 154.796H138.119V103.677H52.5613V154.796Z" fill="#4462AC"/>
<path d="M144.286 162.991H46.375V154.793H144.286V162.991ZM48.6667 160.695H141.994V157.089H48.6667V160.695Z" fill="#4462AC"/>
<path d="M132.967 120.715H111.027V155.942H132.967V120.715Z" fill="#7393CB"/>
<path d="M104.25 120.432H60.3398V138.045H104.25V120.432Z" fill="#7393CB"/>
<path d="M119.066 153.278C118.914 153.277 118.768 153.217 118.661 153.109L117.897 152.344C117.841 152.291 117.796 152.228 117.764 152.157C117.733 152.087 117.716 152.011 117.715 151.934C117.714 151.857 117.728 151.78 117.757 151.709C117.785 151.637 117.828 151.572 117.883 151.518C117.937 151.463 118.002 151.42 118.073 151.391C118.145 151.362 118.221 151.348 118.298 151.35C118.375 151.351 118.451 151.368 118.521 151.399C118.591 151.431 118.654 151.476 118.707 151.532L119.471 152.298C119.551 152.378 119.605 152.48 119.627 152.592C119.649 152.703 119.638 152.818 119.595 152.923C119.551 153.028 119.478 153.118 119.384 153.181C119.29 153.244 119.179 153.278 119.066 153.278Z" fill="#4462AC"/>
<path d="M116.101 150.307C115.949 150.307 115.804 150.246 115.696 150.139L114.932 149.373C114.876 149.32 114.831 149.257 114.8 149.187C114.768 149.116 114.751 149.04 114.75 148.963C114.749 148.886 114.763 148.809 114.792 148.738C114.821 148.667 114.863 148.602 114.918 148.547C114.972 148.493 115.037 148.45 115.108 148.421C115.18 148.392 115.256 148.378 115.333 148.379C115.41 148.38 115.486 148.397 115.556 148.429C115.626 148.46 115.69 148.505 115.742 148.562L116.506 149.327C116.586 149.407 116.641 149.51 116.663 149.621C116.685 149.732 116.673 149.848 116.63 149.952C116.587 150.057 116.513 150.147 116.419 150.21C116.325 150.273 116.214 150.307 116.101 150.307Z" fill="#4462AC"/>
<path d="M115.34 153.278C115.227 153.278 115.116 153.244 115.022 153.181C114.928 153.118 114.854 153.028 114.811 152.923C114.768 152.818 114.756 152.703 114.779 152.592C114.801 152.48 114.855 152.378 114.935 152.298L115.699 151.532C115.751 151.476 115.815 151.431 115.885 151.399C115.955 151.368 116.031 151.351 116.108 151.35C116.185 151.348 116.261 151.362 116.333 151.391C116.404 151.42 116.469 151.463 116.523 151.518C116.578 151.572 116.621 151.637 116.649 151.709C116.678 151.78 116.692 151.857 116.691 151.934C116.69 152.011 116.673 152.087 116.642 152.157C116.61 152.228 116.565 152.291 116.509 152.344L115.745 153.109C115.638 153.217 115.492 153.277 115.34 153.278Z" fill="#4462AC"/>
<path d="M118.301 150.307C118.188 150.307 118.077 150.273 117.983 150.21C117.889 150.147 117.815 150.057 117.772 149.952C117.729 149.848 117.717 149.732 117.74 149.621C117.762 149.51 117.816 149.407 117.896 149.327L118.66 148.562C118.712 148.505 118.776 148.46 118.846 148.429C118.916 148.397 118.992 148.38 119.069 148.379C119.146 148.378 119.222 148.392 119.294 148.421C119.365 148.45 119.43 148.493 119.484 148.547C119.539 148.602 119.582 148.667 119.61 148.738C119.639 148.809 119.653 148.886 119.652 148.963C119.651 149.04 119.634 149.116 119.602 149.187C119.571 149.257 119.526 149.32 119.47 149.373L118.706 150.139C118.598 150.246 118.453 150.307 118.301 150.307Z" fill="#4462AC"/>
<path d="M134.116 157.091H109.885V119.582H134.116V157.091ZM112.177 154.794H131.824V121.878H112.177V154.794Z" fill="#4462AC"/>
<path d="M105.047 139.477H58.8457V119.574H105.047V139.477ZM61.1374 137.18H102.755V121.871H61.1374V137.18Z" fill="#4462AC"/>
<path d="M74.8522 139.478H65.8457V137.228C65.8457 136.033 66.3193 134.887 67.1624 134.042C68.0055 133.197 69.149 132.723 70.3413 132.723C71.5336 132.723 72.6771 133.197 73.5202 134.042C74.3633 134.887 74.837 136.033 74.837 137.228L74.8522 139.478ZM68.1527 137.182H72.5605C72.5605 136.596 72.3283 136.034 71.915 135.62C71.5017 135.206 70.9411 134.973 70.3566 134.973C69.7721 134.973 69.2115 135.206 68.7982 135.62C68.3849 136.034 68.1527 136.596 68.1527 137.182Z" fill="#4462AC"/>
<path d="M98.0266 139.478H89.043V137.228C89.043 136.033 89.5166 134.887 90.3597 134.042C91.2028 133.197 92.3463 132.723 93.5386 132.723C94.7309 132.723 95.8744 133.197 96.7175 134.042C97.5606 134.887 98.0342 136.033 98.0342 137.228L98.0266 139.478ZM91.3271 137.182H95.7348C95.7348 136.596 95.5026 136.034 95.0893 135.62C94.676 135.206 94.1155 134.973 93.531 134.973C92.9464 134.973 92.3859 135.206 91.9726 135.62C91.5593 136.034 91.3271 136.596 91.3271 137.182Z" fill="#4462AC"/>
<path d="M83.0906 120.715H80.7988V138.329H83.0906V120.715Z" fill="#4462AC"/>
<path d="M126.538 124.141L116.912 133.787L117.452 134.328L127.078 124.683L126.538 124.141Z" fill="#4462AC"/>
<path d="M122.096 124.532L117.262 129.377L117.802 129.918L122.636 125.074L122.096 124.532Z" fill="#4462AC"/>
<path d="M126.236 128.545L121.256 133.535L121.796 134.076L126.776 129.086L126.236 128.545Z" fill="#4462AC"/>
<path d="M70.1688 123.529L62.7793 130.934L63.3195 131.475L70.709 124.07L70.1688 123.529Z" fill="#4462AC"/>
<path d="M66.752 123.83L63.041 127.549L63.5812 128.09L67.2921 124.372L66.752 123.83Z" fill="#4462AC"/>
<path d="M69.9259 126.912L66.1016 130.744L66.6417 131.285L70.4661 127.453L69.9259 126.912Z" fill="#4462AC"/>
<path d="M92.3192 123.527L84.9297 130.932L85.4699 131.473L92.8594 124.068L92.3192 123.527Z" fill="#4462AC"/>
<path d="M88.9004 123.84L85.1895 127.559L85.7296 128.1L89.4406 124.381L88.9004 123.84Z" fill="#4462AC"/>
<path d="M92.0763 126.914L88.252 130.746L88.7921 131.287L92.6165 127.455L92.0763 126.914Z" fill="#4462AC"/>
<path d="M127.642 78.6074H63.0225C61.7562 78.6074 60.5418 79.1115 59.6465 80.0087C58.7511 80.9059 58.248 82.1228 58.248 83.3917H132.416C132.416 82.1228 131.913 80.9059 131.018 80.0087C130.123 79.1115 128.908 78.6074 127.642 78.6074Z" fill="#7393CB"/>
<path d="M47.5189 114.553C45.9143 114.553 44.3754 113.914 43.2408 112.777C42.1062 111.64 41.4688 110.098 41.4688 108.49V102.527H53.5691V108.513C53.5631 110.117 52.9229 111.654 51.789 112.786C50.655 113.918 49.1196 114.553 47.5189 114.553Z" fill="#D4E4F5"/>
<path d="M59.5708 114.555C57.9783 114.555 56.4511 113.921 55.325 112.793C54.199 111.664 53.5664 110.134 53.5664 108.538V102.521H65.5675V108.515C65.5705 109.307 65.4177 110.091 65.1177 110.823C64.8178 111.555 64.3767 112.221 63.8197 112.782C63.2626 113.343 62.6006 113.788 61.8715 114.093C61.1424 114.397 60.3606 114.554 59.5708 114.555Z" fill="#D4E4F5"/>
<path d="M71.5423 114.553C69.96 114.553 68.4425 113.923 67.3236 112.802C66.2047 111.681 65.5762 110.16 65.5762 108.575V102.527H77.5085V108.575C77.5085 110.16 76.8799 111.681 75.761 112.802C74.6422 113.923 73.1247 114.553 71.5423 114.553Z" fill="#D4E4F5"/>
<path d="M83.4178 114.553C81.8416 114.553 80.3299 113.926 79.2153 112.809C78.1008 111.692 77.4746 110.177 77.4746 108.598V102.527H89.3611V108.598C89.3611 110.177 88.7349 111.692 87.6204 112.809C86.5058 113.926 84.9941 114.553 83.4178 114.553Z" fill="#D4E4F5"/>
<path d="M95.3379 114.553C93.7637 114.553 92.254 113.926 91.1408 112.811C90.0277 111.696 89.4023 110.183 89.4023 108.605V102.527H101.281V108.605C101.281 109.387 101.127 110.161 100.829 110.883C100.53 111.605 100.092 112.261 99.54 112.814C98.988 113.366 98.3328 113.804 97.6117 114.103C96.8907 114.401 96.1181 114.554 95.3379 114.553Z" fill="#D4E4F5"/>
<path d="M107.215 114.553C105.638 114.553 104.127 113.926 103.012 112.809C101.898 111.692 101.271 110.177 101.271 108.598V102.527H113.158V108.598C113.158 110.177 112.532 111.692 111.417 112.809C110.303 113.926 108.791 114.553 107.215 114.553Z" fill="#D4E4F5"/>
<path d="M113.158 102.527H125.091V108.582C125.091 110.168 124.462 111.689 123.343 112.81C122.224 113.931 120.707 114.561 119.124 114.561C117.542 114.561 116.025 113.931 114.906 112.81C113.787 111.689 113.158 110.168 113.158 108.582V102.527Z" fill="#D4E4F5"/>
<path d="M125.096 102.527H137.097V108.544C137.097 110.14 136.464 111.67 135.338 112.799C134.212 113.927 132.685 114.561 131.092 114.561C130.304 114.561 129.523 114.405 128.794 114.103C128.066 113.8 127.404 113.357 126.847 112.799C126.289 112.24 125.847 111.577 125.545 110.847C125.243 110.117 125.088 109.334 125.088 108.544V102.527H125.096Z" fill="#D4E4F5"/>
<path d="M137.094 102.527H149.194V108.498C149.194 110.106 148.557 111.648 147.422 112.785C146.287 113.922 144.749 114.561 143.144 114.561C141.539 114.561 140 113.922 138.866 112.785C137.731 111.648 137.094 110.106 137.094 108.498V102.527Z" fill="#D4E4F5"/>
<path d="M68.7061 83.3887H58.1183C53.7946 91.189 45.804 94.7255 41.4727 102.526H53.573C57.553 95.0547 64.7185 90.8598 68.7061 83.3887Z" fill="#7393CB"/>
<path d="M77.5534 83.3887H68.7073C64.7274 90.8598 57.5542 95.0547 53.5742 102.526H65.5753C68.6386 95.3991 74.4902 90.5153 77.5534 83.3887Z" fill="#7393CB"/>
<path d="M85.1622 83.3887H77.5231C74.4674 90.5153 68.6082 95.3991 65.5449 102.526H77.4772C78.9898 94.871 83.6802 91.0435 85.1622 83.3887Z" fill="#7393CB"/>
<path d="M92.0319 83.3887H85.1567C83.6747 91.0435 78.9843 94.871 77.5176 102.526H89.404C89.9235 94.871 91.5048 91.0435 92.0319 83.3887Z" fill="#7393CB"/>
<path d="M98.6457 83.3887H92.0302C91.5031 91.0435 89.9294 94.871 89.4023 102.526H101.281C100.746 94.871 99.1651 91.0435 98.6457 83.3887Z" fill="#7393CB"/>
<path d="M105.506 83.3887H98.6309C99.158 91.0435 100.732 94.871 101.259 102.526H113.145C111.686 94.871 106.996 91.0435 105.506 83.3887Z" fill="#7393CB"/>
<path d="M113.114 83.3887H105.475C106.957 91.0435 111.647 94.871 113.114 102.526H125.046C122.029 95.3991 116.177 90.5153 113.114 83.3887Z" fill="#7393CB"/>
<path d="M121.969 83.3887H113.115C116.171 90.5153 122.03 95.3991 125.093 102.526H137.094C133.114 95.0547 125.949 90.8598 121.969 83.3887Z" fill="#7393CB"/>
<path d="M132.551 83.3887H121.971C125.951 90.8598 133.124 95.0547 137.104 102.526H149.197C144.873 94.7332 136.898 91.1813 132.551 83.3887Z" fill="#7393CB"/>
<path d="M74.0881 63.2129H116.577C117.019 63.2129 117.442 63.3887 117.754 63.7017C118.067 64.0146 118.242 64.4391 118.242 64.8816V83.3834H72.4609V64.8816C72.4608 64.4456 72.631 64.0269 72.9351 63.715C73.2392 63.4031 73.653 63.2229 74.0881 63.2129Z" fill="#D4E4F5"/>
<path d="M133.562 84.5397H57.1016V83.3915C57.1036 81.8187 57.728 80.3109 58.8378 79.1988C59.9477 78.0867 61.4523 77.461 63.0219 77.459H72.418V79.7554H63.0219C62.2599 79.7561 61.5174 79.9966 60.8992 80.443C60.281 80.8894 59.8184 81.5192 59.5766 82.2433H131.079C130.837 81.5192 130.374 80.8894 129.756 80.443C129.138 79.9966 128.396 79.7561 127.634 79.7554H118.237V77.459H127.634C129.203 77.461 130.708 78.0867 131.818 79.1988C132.927 80.3109 133.552 81.8187 133.554 83.3915L133.562 84.5397Z" fill="#4462AC"/>
<path d="M47.5183 115.703C45.6104 115.701 43.7813 114.941 42.4322 113.589C41.0831 112.237 40.3243 110.404 40.3223 108.492V102.529C40.3223 102.225 40.443 101.932 40.6579 101.717C40.8728 101.502 41.1642 101.381 41.4681 101.381H53.5685C53.8724 101.381 54.1639 101.502 54.3788 101.717C54.5936 101.932 54.7144 102.225 54.7144 102.529V108.515C54.7063 110.423 53.9448 112.25 52.5964 113.597C51.248 114.944 49.4222 115.701 47.5183 115.703ZM42.614 103.677V108.515C42.614 109.819 43.1307 111.069 44.0504 111.99C44.9702 112.912 46.2176 113.43 47.5183 113.43C48.819 113.43 50.0665 112.912 50.9862 111.99C51.9059 111.069 52.4226 109.819 52.4226 108.515V103.7L42.614 103.677Z" fill="#4462AC"/>
<path d="M59.5701 115.701C57.6744 115.699 55.8569 114.943 54.5164 113.6C53.1759 112.257 52.4219 110.436 52.4199 108.536V102.519C52.4199 102.215 52.5407 101.923 52.7555 101.707C52.9704 101.492 53.2619 101.371 53.5658 101.371H65.5669C65.8708 101.371 66.1622 101.492 66.3771 101.707C66.592 101.923 66.7127 102.215 66.7127 102.519V108.513C66.7147 109.455 66.5316 110.388 66.1737 111.259C65.8159 112.13 65.2903 112.922 64.627 113.589C63.9638 114.257 63.1758 114.787 62.3082 115.149C61.4405 115.512 60.5101 115.699 59.5701 115.701ZM54.7117 103.675V108.513C54.7614 109.77 55.2947 110.959 56.1996 111.83C57.1046 112.702 58.3111 113.189 59.5663 113.189C60.8215 113.189 62.028 112.702 62.933 111.83C63.838 110.959 64.3712 109.77 64.421 108.513V103.645L54.7117 103.675Z" fill="#4462AC"/>
<path d="M71.5398 115.703C69.6542 115.701 67.8464 114.95 66.513 113.613C65.1797 112.277 64.4298 110.466 64.4277 108.576V102.529C64.4277 102.225 64.5485 101.932 64.7634 101.717C64.9782 101.502 65.2697 101.381 65.5736 101.381H77.5059C77.8098 101.381 78.1013 101.502 78.3162 101.717C78.5311 101.932 78.6518 102.225 78.6518 102.529V108.576C78.6498 110.466 77.8998 112.277 76.5665 113.613C75.2332 114.95 73.4254 115.701 71.5398 115.703ZM66.7195 103.677V108.576C66.7195 109.857 67.2273 111.086 68.1313 111.992C69.0353 112.898 70.2613 113.407 71.5398 113.407C72.8182 113.407 74.0442 112.898 74.9482 111.992C75.8522 111.086 76.36 109.857 76.36 108.576V103.677H66.7195Z" fill="#4462AC"/>
<path d="M83.4211 115.703C81.5416 115.701 79.7396 114.952 78.4106 113.62C77.0816 112.288 76.3341 110.483 76.332 108.599V102.529C76.332 102.225 76.4527 101.932 76.6676 101.717C76.8825 101.502 77.174 101.381 77.4779 101.381H89.3644C89.6683 101.381 89.9597 101.502 90.1746 101.717C90.3895 101.932 90.5102 102.225 90.5102 102.529V108.599C90.5082 110.483 89.7607 112.288 88.4316 113.62C87.1026 114.952 85.3007 115.701 83.4211 115.703ZM78.6238 103.677V108.599C78.6238 109.874 79.1292 111.097 80.0289 111.999C80.9286 112.9 82.1488 113.407 83.4211 113.407C84.6935 113.407 85.9137 112.9 86.8134 111.999C87.7131 111.097 88.2185 109.874 88.2185 108.599V103.677H78.6238Z" fill="#4462AC"/>
<path d="M95.3354 115.703C93.4579 115.701 91.6579 114.953 90.3303 113.622C89.0027 112.292 88.2559 110.488 88.2539 108.607V102.529C88.2539 102.225 88.3746 101.932 88.5895 101.717C88.8044 101.502 89.0959 101.381 89.3998 101.381H101.271C101.575 101.381 101.866 101.502 102.081 101.717C102.296 101.932 102.417 102.225 102.417 102.529V108.607C102.415 110.488 101.668 112.292 100.34 113.622C99.0129 114.953 97.2129 115.701 95.3354 115.703ZM90.5456 103.677V108.607C90.5456 109.88 91.0503 111.101 91.9485 112.001C92.8468 112.901 94.0651 113.407 95.3354 113.407C96.6057 113.407 97.824 112.901 98.7222 112.001C99.6205 111.101 100.125 109.88 100.125 108.607V103.677H90.5456Z" fill="#4462AC"/>
<path d="M107.218 115.703C105.338 115.701 103.537 114.952 102.207 113.62C100.878 112.288 100.131 110.483 100.129 108.599V102.529C100.129 102.225 100.25 101.932 100.465 101.717C100.679 101.502 100.971 101.381 101.275 101.381H113.161C113.465 101.381 113.757 101.502 113.972 101.717C114.186 101.932 114.307 102.225 114.307 102.529V108.599C114.305 110.483 113.558 112.288 112.229 113.62C110.9 114.952 109.098 115.701 107.218 115.703ZM102.421 103.677V108.599C102.421 109.874 102.926 111.097 103.826 111.999C104.725 112.9 105.946 113.407 107.218 113.407C108.49 113.407 109.711 112.9 110.61 111.999C111.51 111.097 112.015 109.874 112.015 108.599V103.677H102.421Z" fill="#4462AC"/>
<path d="M119.126 115.701C117.24 115.699 115.432 114.947 114.099 113.611C112.766 112.275 112.016 110.464 112.014 108.574V102.519C112.014 102.215 112.134 101.923 112.349 101.707C112.564 101.492 112.856 101.371 113.16 101.371H125.092C125.396 101.371 125.687 101.492 125.902 101.707C126.117 101.923 126.238 102.215 126.238 102.519V108.574C126.236 110.464 125.486 112.275 124.152 113.611C122.819 114.947 121.011 115.699 119.126 115.701ZM114.305 103.675V108.582C114.305 109.863 114.813 111.092 115.717 111.997C116.621 112.903 117.847 113.412 119.126 113.412C120.404 113.412 121.63 112.903 122.534 111.997C123.438 111.092 123.946 109.863 123.946 108.582V103.675H114.305Z" fill="#4462AC"/>
<path d="M131.097 115.699C130.153 115.703 129.217 115.52 128.345 115.16C127.472 114.8 126.678 114.271 126.01 113.603C125.342 112.935 124.812 112.141 124.452 111.267C124.091 110.393 123.906 109.456 123.908 108.511V102.494C123.908 102.189 124.029 101.897 124.244 101.682C124.459 101.467 124.75 101.346 125.054 101.346H137.055C137.359 101.346 137.651 101.467 137.865 101.682C138.08 101.897 138.201 102.189 138.201 102.494V108.511C138.205 110.406 137.46 112.227 136.129 113.573C134.798 114.92 132.988 115.684 131.097 115.699ZM126.2 103.673V108.511C126.25 109.767 126.783 110.956 127.688 111.828C128.593 112.699 129.799 113.186 131.055 113.186C132.31 113.186 133.516 112.699 134.421 111.828C135.326 110.956 135.86 109.767 135.909 108.511V103.642L126.2 103.673Z" fill="#4462AC"/>
<path d="M143.145 115.701C141.237 115.699 139.408 114.939 138.059 113.587C136.71 112.235 135.951 110.402 135.949 108.49V102.519C135.949 102.215 136.07 101.923 136.285 101.707C136.5 101.492 136.791 101.371 137.095 101.371H149.195C149.499 101.371 149.791 101.492 150.006 101.707C150.221 101.923 150.341 102.215 150.341 102.519V108.513C150.333 110.421 149.572 112.248 148.223 113.595C146.875 114.942 145.049 115.699 143.145 115.701ZM138.241 103.675V108.513C138.243 109.816 138.76 111.065 139.68 111.986C140.599 112.907 141.845 113.425 143.145 113.428C144.445 113.425 145.692 112.907 146.611 111.986C147.53 111.065 148.048 109.816 148.05 108.513V103.691L138.241 103.675Z" fill="#4462AC"/>
<path d="M53.5741 103.672H41.4737C41.2741 103.672 41.0779 103.62 40.9047 103.52C40.7314 103.421 40.5871 103.278 40.486 103.105C40.3849 102.933 40.3305 102.737 40.3282 102.537C40.3259 102.337 40.3758 102.14 40.473 101.965C42.7265 97.9078 45.9273 94.9607 49.0212 92.1054C52.115 89.2501 55.0408 86.5633 57.1186 82.8277C57.2179 82.6491 57.3631 82.5002 57.539 82.3966C57.7149 82.293 57.9153 82.2383 58.1194 82.2383H68.7072C68.9053 82.2385 69.0999 82.2901 69.2722 82.3882C69.4444 82.4862 69.5883 82.6273 69.6899 82.7977C69.7915 82.9681 69.8473 83.162 69.8517 83.3605C69.8562 83.5589 69.8093 83.7552 69.7155 83.93C67.653 87.8034 64.7577 90.8194 61.9695 93.7512C59.1812 96.683 56.5075 99.4694 54.5901 103.067C54.4915 103.251 54.3449 103.404 54.1659 103.511C53.9869 103.617 53.7823 103.673 53.5741 103.672ZM43.5286 101.375H52.8636C54.8956 97.7853 57.6304 94.93 60.2812 92.1896C62.6591 89.8554 64.8008 87.2913 66.6752 84.5347H58.7763C56.5457 88.2933 53.513 91.095 50.5643 93.7971C47.967 96.2008 45.4842 98.4895 43.5286 101.375Z" fill="#4462AC"/>
<path d="M65.5717 103.672H53.5706C53.3725 103.672 53.1779 103.62 53.0056 103.522C52.8334 103.424 52.6895 103.283 52.5879 103.112C52.4863 102.942 52.4306 102.748 52.4261 102.55C52.4216 102.351 52.4685 102.155 52.5623 101.98C54.6248 98.1068 57.5201 95.0908 60.3083 92.159C63.0966 89.2272 65.778 86.4408 67.6877 82.843C67.7857 82.6604 67.9311 82.5077 68.1087 82.4012C68.2862 82.2948 68.4892 82.2385 68.6961 82.2383H77.5422C77.7318 82.2382 77.9185 82.2852 78.0855 82.3752C78.2525 82.4652 78.3946 82.5953 78.4991 82.7539C78.6036 82.9124 78.6672 83.0945 78.6842 83.2837C78.7011 83.473 78.671 83.6635 78.5964 83.8382C77.0075 87.5202 74.7081 90.6357 72.4851 93.6364C70.2621 96.6371 68.1079 99.5383 66.6259 102.975C66.5376 103.182 66.3906 103.358 66.2032 103.482C66.0158 103.606 65.7962 103.672 65.5717 103.672ZM55.5721 101.375H64.8307C66.4495 98.1484 68.3977 95.0982 70.6441 92.2738C72.5686 89.8428 74.2858 87.254 75.7776 84.5347H69.4142C67.3822 88.1249 64.6474 90.9801 61.9966 93.7206C59.6054 96.0529 57.4508 98.6171 55.5644 101.375H55.5721Z" fill="#4462AC"/>
<path d="M77.5066 103.672H65.5743C65.3847 103.672 65.198 103.625 65.031 103.535C64.864 103.445 64.7219 103.315 64.6174 103.156C64.5129 102.998 64.4493 102.816 64.4323 102.626C64.4154 102.437 64.4455 102.247 64.5201 102.072C66.109 98.39 68.4084 95.2821 70.6314 92.2738C72.8544 89.2654 75.0086 86.3719 76.4906 82.9349C76.5789 82.7281 76.7259 82.5518 76.9133 82.4279C77.1007 82.3041 77.3203 82.2381 77.5448 82.2383H85.1839C85.3531 82.2385 85.5201 82.2762 85.673 82.3487C85.8259 82.4213 85.9608 82.5268 86.0682 82.6578C86.1755 82.7888 86.2526 82.9419 86.2939 83.1063C86.3351 83.2707 86.3396 83.4422 86.3069 83.6085C85.543 87.6043 83.9235 90.6051 82.3651 93.4986C80.8067 96.3921 79.3629 99.0866 78.6525 102.746C78.6005 103.01 78.4571 103.248 78.2476 103.418C78.0381 103.587 77.7758 103.677 77.5066 103.672ZM67.3848 101.375H76.5517C77.3807 98.2287 78.6404 95.2121 80.2949 92.4116C81.7513 89.9382 82.8933 87.2921 83.6943 84.5347H78.2629C76.6444 87.7643 74.6962 90.8171 72.4495 93.644C70.5462 96.0747 68.8494 98.6608 67.3771 101.375H67.3848Z" fill="#4462AC"/>
<path d="M89.3924 103.672H77.5059C77.3367 103.672 77.1697 103.634 77.0169 103.561C76.864 103.489 76.729 103.383 76.6217 103.252C76.5143 103.121 76.4372 102.968 76.396 102.804C76.3547 102.639 76.3502 102.468 76.3829 102.302C77.1469 98.3058 78.7664 95.3051 80.3247 92.4116C81.8831 89.518 83.3269 86.8236 84.0374 83.1645C84.0886 82.9038 84.2286 82.6689 84.4334 82.5C84.6382 82.3311 84.8951 82.2386 85.1603 82.2383H92.0355C92.1926 82.2379 92.3482 82.27 92.4924 82.3324C92.6367 82.3949 92.7666 82.4864 92.874 82.6012C92.9815 82.7161 93.0642 82.8519 93.1171 83.0001C93.17 83.1484 93.1919 83.306 93.1814 83.4631C92.925 86.7207 92.4709 89.9595 91.8216 93.1618C91.1989 96.2788 90.7652 99.4307 90.523 102.6C90.5038 102.889 90.3767 103.159 90.1671 103.358C89.9575 103.557 89.6809 103.669 89.3924 103.672ZM78.9344 101.375H88.3305C88.5972 98.4802 89.0128 95.6007 89.5757 92.7484C90.0264 90.2682 90.5001 87.7115 90.7751 84.5347H86.077C85.248 87.6814 83.9883 90.698 82.3338 93.4986C80.8801 95.9723 79.7407 98.6184 78.9421 101.375H78.9344Z" fill="#4462AC"/>
<path d="M101.271 103.672H89.3926C89.2354 103.672 89.0799 103.64 88.9357 103.578C88.7914 103.515 88.6615 103.424 88.554 103.309C88.4466 103.194 88.3638 103.058 88.311 102.91C88.2581 102.762 88.2362 102.604 88.2467 102.447C88.4927 99.1902 88.9366 95.9512 89.5759 92.7484C90.1987 89.6314 90.6324 86.4795 90.8745 83.31C90.8939 83.0189 91.0232 82.7462 91.236 82.5471C91.4488 82.3481 91.7293 82.2376 92.0204 82.2383H98.6359C98.927 82.2376 99.2075 82.3481 99.4203 82.5471C99.6331 82.7462 99.7624 83.0189 99.7818 83.31C100.024 86.4795 100.458 89.6314 101.08 92.7484C101.72 95.9512 102.164 99.1902 102.41 102.447C102.42 102.604 102.398 102.762 102.345 102.91C102.292 103.058 102.21 103.194 102.102 103.309C101.995 103.424 101.865 103.515 101.721 103.578C101.576 103.64 101.421 103.672 101.264 103.672H101.271ZM90.6377 101.375H100.034C99.7512 98.1987 99.2699 95.6419 98.8345 93.1618C98.2712 90.3095 97.8556 87.43 97.5893 84.5347H93.0975C92.8208 87.4305 92.395 90.31 91.8218 93.1618C91.3787 95.6419 90.9127 98.1987 90.6377 101.375Z" fill="#4462AC"/>
<path d="M113.163 103.672H101.276C100.985 103.673 100.705 103.562 100.492 103.363C100.279 103.164 100.15 102.891 100.13 102.6C99.8881 99.4307 99.4545 96.2788 98.8318 93.1618C98.1925 89.9589 97.7485 86.72 97.5025 83.4631C97.4921 83.306 97.514 83.1484 97.5668 83.0001C97.6197 82.8519 97.7025 82.7161 97.8099 82.6012C97.9174 82.4864 98.0473 82.3949 98.1915 82.3324C98.3358 82.27 98.4913 82.2379 98.6484 82.2383H105.524C105.789 82.2386 106.046 82.3311 106.251 82.5C106.455 82.6689 106.595 82.9038 106.647 83.1645C107.357 86.8236 108.816 89.5333 110.359 92.4116C111.902 95.2898 113.529 98.3058 114.301 102.302C114.334 102.468 114.329 102.639 114.288 102.804C114.247 102.968 114.17 103.121 114.062 103.252C113.955 103.383 113.82 103.489 113.667 103.561C113.514 103.634 113.347 103.672 113.178 103.672H113.163ZM102.338 101.375H111.734C110.933 98.6181 109.791 95.9719 108.335 93.4986C106.681 90.6979 105.421 87.6814 104.592 84.5347H99.8936C100.176 87.7115 100.658 90.2682 101.093 92.7484C101.656 95.6006 102.072 98.4801 102.338 101.375Z" fill="#4462AC"/>
<path d="M125.093 103.672H113.16C112.895 103.672 112.638 103.579 112.433 103.41C112.229 103.241 112.089 103.006 112.037 102.746C111.327 99.0866 109.868 96.3768 108.325 93.4986C106.782 90.6204 105.155 87.6043 104.383 83.6085C104.35 83.4422 104.355 83.2707 104.396 83.1063C104.437 82.9419 104.514 82.7888 104.622 82.6578C104.729 82.5268 104.864 82.4213 105.017 82.3487C105.17 82.2762 105.337 82.2385 105.506 82.2383H113.145C113.37 82.2381 113.589 82.3041 113.777 82.4279C113.964 82.5518 114.111 82.7281 114.199 82.9349C115.681 86.3719 117.805 89.2425 120.058 92.2738C122.312 95.3051 124.596 98.3977 126.17 102.072C126.244 102.247 126.274 102.437 126.258 102.626C126.241 102.816 126.177 102.998 126.072 103.156C125.968 103.315 125.826 103.445 125.659 103.535C125.492 103.625 125.305 103.672 125.116 103.672H125.093ZM114.085 101.375H123.252C121.769 98.66 120.062 96.0738 118.149 93.644C115.902 90.8172 113.954 87.7644 112.335 84.5347H106.904C107.715 87.3018 108.87 89.9559 110.341 92.4346C111.994 95.2281 113.253 98.2367 114.085 101.375Z" fill="#4462AC"/>
<path d="M137.095 103.672H125.094C124.869 103.672 124.65 103.606 124.462 103.482C124.275 103.358 124.128 103.182 124.039 102.975C122.557 99.5383 120.434 96.6753 118.18 93.6364C115.927 90.5974 113.643 87.5125 112.069 83.8382C111.994 83.6635 111.964 83.473 111.981 83.2837C111.998 83.0945 112.062 82.9124 112.166 82.7539C112.271 82.5953 112.413 82.4652 112.58 82.3752C112.747 82.2852 112.934 82.2382 113.123 82.2383H121.969C122.176 82.2385 122.379 82.2948 122.557 82.4012C122.734 82.5077 122.88 82.6604 122.978 82.843C124.895 86.4408 127.561 89.2195 130.357 92.159C133.153 95.0985 136.04 98.1068 138.103 101.98C138.197 102.155 138.244 102.351 138.239 102.55C138.235 102.748 138.179 102.942 138.077 103.112C137.976 103.283 137.832 103.424 137.66 103.522C137.487 103.62 137.293 103.672 137.095 103.672ZM125.835 101.375H135.093C133.219 98.6189 131.077 96.0548 128.699 93.7206C126.056 90.9495 123.352 88.0942 121.289 84.5347H114.926C116.408 87.2527 118.115 89.8415 120.029 92.2738C122.273 95.0986 124.218 98.1488 125.835 101.375Z" fill="#4462AC"/>
<path d="M149.191 103.672H137.091C136.884 103.672 136.681 103.615 136.503 103.509C136.326 103.402 136.18 103.25 136.082 103.067C134.165 99.4694 131.499 96.6906 128.703 93.7512C125.907 90.8117 123.019 87.8034 120.957 83.93C120.863 83.7552 120.816 83.5589 120.821 83.3605C120.825 83.162 120.881 82.9681 120.982 82.7977C121.084 82.6273 121.228 82.4862 121.4 82.3882C121.572 82.2901 121.767 82.2385 121.965 82.2383H132.553C132.757 82.2383 132.957 82.293 133.133 82.3966C133.309 82.5002 133.454 82.6491 133.554 82.8277C135.624 86.5633 138.55 89.2578 141.651 92.1131C144.753 94.9683 147.946 97.9078 150.199 101.965C150.297 102.14 150.346 102.337 150.344 102.537C150.342 102.737 150.287 102.933 150.186 103.105C150.085 103.278 149.941 103.421 149.768 103.52C149.594 103.62 149.398 103.672 149.199 103.672H149.191ZM137.732 101.375H147.106C145.15 98.4895 142.667 96.2007 140.062 93.8048C137.121 91.0949 134.081 88.3009 131.85 84.5347H123.959C125.833 87.2913 127.975 89.8554 130.353 92.1896C133.004 94.93 135.731 97.7929 137.771 101.375H137.732Z" fill="#4462AC"/>
<path d="M118.248 84.5238H72.4134C72.1095 84.5238 71.8181 84.4028 71.6032 84.1875C71.3883 83.9721 71.2676 83.6801 71.2676 83.3755V64.8814C71.2696 64.1349 71.5664 63.4196 72.0932 62.8918C72.62 62.3639 73.3338 62.0665 74.0788 62.0645H116.575C117.32 62.0665 118.034 62.3639 118.561 62.8918C119.088 63.4196 119.384 64.1349 119.386 64.8814V83.3755C119.386 83.6788 119.267 83.9697 119.054 84.1848C118.84 84.3999 118.551 84.5218 118.248 84.5238ZM73.5746 82.2273H117.118V64.8814C117.118 64.7434 117.063 64.611 116.965 64.5134C116.868 64.4157 116.736 64.3609 116.598 64.3609H74.0941C73.9563 64.3609 73.8242 64.4157 73.7267 64.5134C73.6293 64.611 73.5746 64.7434 73.5746 64.8814V82.2273Z" fill="#4462AC"/>
<path d="M29.4184 101.348C34.5403 101.348 38.6923 97.1871 38.6923 92.0547C38.6923 86.9223 34.5403 82.7617 29.4184 82.7617C24.2966 82.7617 20.1445 86.9223 20.1445 92.0547C20.1445 97.1871 24.2966 101.348 29.4184 101.348Z" fill="#7393CB"/>
<path d="M29.4198 102.488C27.3589 102.488 25.3444 101.876 23.6309 100.728C21.9173 99.581 20.5818 97.9503 19.7932 96.0424C19.0045 94.1345 18.7982 92.0351 19.2002 90.0097C19.6023 87.9843 20.5947 86.1239 22.0519 84.6637C23.5091 83.2034 25.3657 82.209 27.387 81.8061C29.4082 81.4032 31.5033 81.61 33.4072 82.4003C35.3112 83.1906 36.9386 84.5288 38.0835 86.2459C39.2284 87.9629 39.8395 89.9816 39.8395 92.0467C39.8375 94.8153 38.7391 97.4699 36.7854 99.4275C34.8318 101.385 32.1826 102.486 29.4198 102.488ZM29.4198 83.9096C27.8122 83.9096 26.2407 84.3873 24.9041 85.2822C23.5674 86.1772 22.5256 87.4492 21.9105 88.9375C21.2953 90.4257 21.1343 92.0634 21.4479 93.6433C21.7615 95.2233 22.5357 96.6745 23.6724 97.8136C24.8091 98.9527 26.2574 99.7284 27.8341 100.043C29.4108 100.357 31.045 100.196 32.5302 99.5792C34.0154 98.9627 35.2849 97.9188 36.178 96.5794C37.0711 95.24 37.5478 93.6653 37.5478 92.0544C37.5458 89.8949 36.6888 87.8244 35.1649 86.2974C33.6411 84.7704 31.5748 83.9116 29.4198 83.9096Z" fill="#4462AC"/>
<path d="M29.4203 97.879C27.2508 97.879 25.4785 96.3481 25.4785 94.3884C25.4785 94.0839 25.5992 93.7918 25.8141 93.5765C26.029 93.3612 26.3205 93.2402 26.6244 93.2402C26.9283 93.2402 27.2198 93.3612 27.4346 93.5765C27.6495 93.7918 27.7703 94.0839 27.7703 94.3884C27.7703 95.0314 28.5342 95.5826 29.4203 95.5826C30.3064 95.5826 31.0704 95.0391 31.0704 94.3884C31.0704 93.9138 30.444 93.6229 29.046 93.133C27.648 92.6431 25.4785 91.8929 25.4785 89.7113C25.4785 87.7899 27.2432 86.2207 29.4203 86.2207C31.5975 86.2207 33.3621 87.7517 33.3621 89.7113C33.3621 90.0158 33.2414 90.3079 33.0265 90.5232C32.8116 90.7386 32.5201 90.8595 32.2162 90.8595C31.9123 90.8595 31.6209 90.7386 31.406 90.5232C31.1911 90.3079 31.0704 90.0158 31.0704 89.7113C31.0704 89.0683 30.3064 88.5172 29.4203 88.5172C28.5342 88.5172 27.7703 89.0607 27.7703 89.7113C27.7703 90.1859 28.3967 90.4768 29.7946 90.9667C31.1926 91.4566 33.3621 92.2068 33.3621 94.3884C33.3621 96.3174 31.5975 97.879 29.4203 97.879Z" fill="#4462AC"/>
<path d="M29.4193 99.5472C29.1154 99.5472 28.824 99.4263 28.6091 99.2109C28.3942 98.9956 28.2734 98.7035 28.2734 98.399V96.7303C28.2734 96.4257 28.3942 96.1337 28.6091 95.9183C28.824 95.703 29.1154 95.582 29.4193 95.582C29.7232 95.582 30.0147 95.703 30.2296 95.9183C30.4445 96.1337 30.5652 96.4257 30.5652 96.7303V98.399C30.5652 98.7035 30.4445 98.9956 30.2296 99.2109C30.0147 99.4263 29.7232 99.5472 29.4193 99.5472Z" fill="#4462AC"/>
<path d="M29.4193 88.5199C29.1154 88.5199 28.824 88.3989 28.6091 88.1836C28.3942 87.9683 28.2734 87.6762 28.2734 87.3717V85.7029C28.2734 85.3984 28.3942 85.1063 28.6091 84.891C28.824 84.6757 29.1154 84.5547 29.4193 84.5547C29.7232 84.5547 30.0147 84.6757 30.2296 84.891C30.4445 85.1063 30.5652 85.3984 30.5652 85.7029V87.3717C30.5652 87.6762 30.4445 87.9683 30.2296 88.1836C30.0147 88.3989 29.7232 88.5199 29.4193 88.5199Z" fill="#4462AC"/>
<path d="M23.6537 81.0843C23.3498 81.0843 23.0583 80.9633 22.8434 80.748C22.6285 80.5327 22.5078 80.2406 22.5078 79.9361V72.4803C22.5078 72.1757 22.6285 71.8837 22.8434 71.6683C23.0583 71.453 23.3498 71.332 23.6537 71.332C23.9576 71.332 24.249 71.453 24.4639 71.6683C24.6788 71.8837 24.7996 72.1757 24.7996 72.4803V79.9361C24.7996 80.2406 24.6788 80.5327 24.4639 80.748C24.249 80.9633 23.9576 81.0843 23.6537 81.0843Z" fill="#4462AC"/>
<path d="M47.1107 65.7618C46.8068 65.7618 46.5153 65.6409 46.3005 65.4255C46.0856 65.2102 45.9648 64.9181 45.9648 64.6136V59.8982C45.9648 59.5937 46.0856 59.3017 46.3005 59.0863C46.5153 58.871 46.8068 58.75 47.1107 58.75C47.4146 58.75 47.7061 58.871 47.921 59.0863C48.1359 59.3017 48.2566 59.5937 48.2566 59.8982V64.6136C48.2566 64.9181 48.1359 65.2102 47.921 65.4255C47.7061 65.6409 47.4146 65.7618 47.1107 65.7618Z" fill="#4462AC"/>
<path d="M35.1263 85.8828C34.8224 85.8828 34.531 85.7618 34.3161 85.5465C34.1012 85.3311 33.9805 85.0391 33.9805 84.7345V79.5369C33.9805 79.2324 34.1012 78.9403 34.3161 78.725C34.531 78.5096 34.8224 78.3887 35.1263 78.3887C35.4302 78.3887 35.7217 78.5096 35.9366 78.725C36.1515 78.9403 36.2722 79.2324 36.2722 79.5369V84.7345C36.2722 85.0391 36.1515 85.3311 35.9366 85.5465C35.7217 85.7618 35.4302 85.8828 35.1263 85.8828Z" fill="#4462AC"/>
<path d="M35.1263 70.2777C34.8224 70.2777 34.531 70.1567 34.3161 69.9414C34.1012 69.726 33.9805 69.434 33.9805 69.1294V64.6131C33.9805 64.3085 34.1012 64.0165 34.3161 63.8011C34.531 63.5858 34.8224 63.4648 35.1263 63.4648C35.4302 63.4648 35.7217 63.5858 35.9366 63.8011C36.1515 64.0165 36.2722 64.3085 36.2722 64.6131V69.1294C36.2722 69.434 36.1515 69.726 35.9366 69.9414C35.7217 70.1567 35.4302 70.2777 35.1263 70.2777Z" fill="#4462AC"/>
<path d="M35.1263 62.5858C34.8224 62.5858 34.531 62.4648 34.3161 62.2495C34.1012 62.0341 33.9805 61.7421 33.9805 61.4375V59.8377C33.9805 59.5332 34.1012 59.2411 34.3161 59.0258C34.531 58.8104 34.8224 58.6895 35.1263 58.6895C35.4302 58.6895 35.7217 58.8104 35.9366 59.0258C36.1515 59.2411 36.2722 59.5332 36.2722 59.8377V61.4375C36.2722 61.7421 36.1515 62.0341 35.9366 62.2495C35.7217 62.4648 35.4302 62.5858 35.1263 62.5858Z" fill="#4462AC"/>
<path d="M41.6478 58.4432C41.3439 58.4432 41.0525 58.3222 40.8376 58.1069C40.6227 57.8916 40.502 57.5995 40.502 57.295V55.6951C40.502 55.3906 40.6227 55.0985 40.8376 54.8832C41.0525 54.6678 41.3439 54.5469 41.6478 54.5469C41.9517 54.5469 42.2432 54.6678 42.4581 54.8832C42.673 55.0985 42.7937 55.3906 42.7937 55.6951V57.295C42.7937 57.5995 42.673 57.8916 42.4581 58.1069C42.2432 58.3222 41.9517 58.4432 41.6478 58.4432Z" fill="#4462AC"/>
<path d="M29.0756 59.58C28.7717 59.58 28.4802 59.459 28.2653 59.2437C28.0504 59.0283 27.9297 58.7363 27.9297 58.4317V57.4978C27.9297 57.1933 28.0504 56.9013 28.2653 56.6859C28.4802 56.4706 28.7717 56.3496 29.0756 56.3496C29.3795 56.3496 29.6709 56.4706 29.8858 56.6859C30.1007 56.9013 30.2214 57.1933 30.2214 57.4978V58.4317C30.2214 58.7363 30.1007 59.0283 29.8858 59.2437C29.6709 59.459 29.3795 59.58 29.0756 59.58Z" fill="#4462AC"/>
<path d="M23.6537 68.9921C23.3498 68.9921 23.0583 68.8711 22.8434 68.6558C22.6285 68.4404 22.5078 68.1484 22.5078 67.8438V66.9099C22.5078 66.6054 22.6285 66.3134 22.8434 66.098C23.0583 65.8827 23.3498 65.7617 23.6537 65.7617C23.9576 65.7617 24.249 65.8827 24.4639 66.098C24.6788 66.3134 24.7996 66.6054 24.7996 66.9099V67.8438C24.7996 68.1484 24.6788 68.4404 24.4639 68.6558C24.249 68.8711 23.9576 68.9921 23.6537 68.9921Z" fill="#4462AC"/>
<path d="M29.0756 79.5173C28.7717 79.5173 28.4802 79.3963 28.2653 79.181C28.0504 78.9657 27.9297 78.6736 27.9297 78.3691V68.4178C27.9297 68.1132 28.0504 67.8212 28.2653 67.6058C28.4802 67.3905 28.7717 67.2695 29.0756 67.2695C29.3795 67.2695 29.6709 67.3905 29.8858 67.6058C30.1007 67.8212 30.2214 68.1132 30.2214 68.4178V78.3691C30.2214 78.6736 30.1007 78.9657 29.8858 79.181C29.6709 79.3963 29.3795 79.5173 29.0756 79.5173Z" fill="#4462AC"/>
<path d="M29.0756 66.1279C28.7717 66.1279 28.4802 66.0069 28.2653 65.7916C28.0504 65.5762 27.9297 65.2842 27.9297 64.9796V62.0096C27.9297 61.705 28.0504 61.413 28.2653 61.1976C28.4802 60.9823 28.7717 60.8613 29.0756 60.8613C29.3795 60.8613 29.6709 60.9823 29.8858 61.1976C30.1007 61.413 30.2214 61.705 30.2214 62.0096V64.9796C30.2214 65.2842 30.1007 65.5762 29.8858 65.7916C29.6709 66.0069 29.3795 66.1279 29.0756 66.1279Z" fill="#4462AC"/>
<path d="M40.9252 82.1501C45.2159 82.1501 48.6942 78.6646 48.6942 74.3651C48.6942 70.0655 45.2159 66.5801 40.9252 66.5801C36.6345 66.5801 33.1562 70.0655 33.1562 74.3651C33.1562 78.6646 36.6345 82.1501 40.9252 82.1501Z" fill="#7393CB"/>
<path d="M40.9278 83.2961C39.1634 83.3021 37.4368 82.7834 35.9667 81.8055C34.4967 80.8276 33.3493 79.4345 32.6698 77.8027C31.9904 76.171 31.8095 74.3738 32.15 72.6389C32.4905 70.9041 33.3372 69.3094 34.5827 68.057C35.8283 66.8046 37.4167 65.9508 39.1468 65.6036C40.877 65.2564 42.671 65.4315 44.3018 66.1068C45.9325 66.782 47.3266 67.9269 48.3076 69.3967C49.2885 70.8664 49.8121 72.5947 49.8121 74.3629C49.8101 76.7262 48.8744 78.9926 47.2096 80.6666C45.5448 82.3406 43.2863 83.286 40.9278 83.2961ZM40.9278 67.7261C39.6179 67.7261 38.3374 68.1153 37.2482 68.8446C36.1591 69.5739 35.3102 70.6104 34.8089 71.8231C34.3076 73.0358 34.1764 74.3702 34.432 75.6576C34.6875 76.945 35.3183 78.1276 36.2446 79.0558C37.1708 79.9839 38.351 80.616 39.6357 80.8721C40.9205 81.1282 42.2522 80.9967 43.4624 80.4944C44.6726 79.9921 45.707 79.1415 46.4348 78.05C47.1625 76.9586 47.551 75.6755 47.551 74.3629C47.5489 72.6033 46.8505 70.9164 45.6089 69.6722C44.3672 68.428 42.6838 67.7281 40.9278 67.7261Z" fill="#4462AC"/>
<path d="M37.6336 78.4273C37.4819 78.4282 37.3333 78.3838 37.2069 78.2997C37.0804 78.2157 36.9818 78.0958 36.9236 77.9554C36.8655 77.815 36.8503 77.6603 36.8802 77.5112C36.91 77.3622 36.9835 77.2254 37.0912 77.1183L43.6838 70.5122C43.8299 70.3868 44.0179 70.3213 44.2102 70.3287C44.4024 70.3361 44.5848 70.416 44.7208 70.5523C44.8569 70.6886 44.9366 70.8714 44.944 71.064C44.9514 71.2567 44.886 71.4451 44.7609 71.5915L38.1683 78.1977C38.0273 78.3419 37.8351 78.4244 37.6336 78.4273Z" fill="#4462AC"/>
<path d="M38.5373 74.0695C38.1309 74.0695 37.7336 73.9487 37.3957 73.7224C37.0578 73.4962 36.7944 73.1746 36.6388 72.7983C36.4833 72.4221 36.4426 72.008 36.5219 71.6086C36.6012 71.2092 36.7969 70.8423 37.0843 70.5543C37.3717 70.2663 37.7378 70.0702 38.1364 69.9907C38.5351 69.9113 38.9482 69.9521 39.3237 70.1079C39.6992 70.2638 40.0201 70.5277 40.2459 70.8663C40.4717 71.2049 40.5923 71.6031 40.5923 72.0103C40.5923 72.5564 40.3758 73.0802 39.9904 73.4664C39.605 73.8525 39.0823 74.0695 38.5373 74.0695ZM38.5373 71.4821C38.4331 71.4821 38.3312 71.5131 38.2445 71.5711C38.1578 71.6292 38.0903 71.7117 38.0504 71.8082C38.0105 71.9047 38 72.0109 38.0204 72.1134C38.0407 72.2159 38.0909 72.3099 38.1646 72.3838C38.2383 72.4577 38.3323 72.508 38.4345 72.5284C38.5368 72.5488 38.6427 72.5383 38.7391 72.4983C38.8354 72.4583 38.9177 72.3906 38.9756 72.3038C39.0335 72.2169 39.0644 72.1148 39.0644 72.0103C39.0697 71.9378 39.06 71.865 39.0358 71.7964C39.0117 71.7279 38.9737 71.665 38.9242 71.6118C38.8748 71.5587 38.8149 71.5163 38.7483 71.4874C38.6817 71.4585 38.6099 71.4437 38.5373 71.4439V71.4821Z" fill="#4462AC"/>
<path d="M43.3147 78.8117C42.9083 78.8117 42.511 78.6909 42.173 78.4646C41.8351 78.2384 41.5717 77.9168 41.4162 77.5405C41.2607 77.1643 41.22 76.7502 41.2993 76.3508C41.3785 75.9514 41.5743 75.5845 41.8616 75.2965C42.149 75.0085 42.5152 74.8124 42.9138 74.7329C43.3124 74.6535 43.7256 74.6943 44.1011 74.8501C44.4766 75.006 44.7975 75.2699 45.0233 75.6085C45.2491 75.9471 45.3696 76.3452 45.3696 76.7525C45.3696 77.0229 45.3165 77.2907 45.2132 77.5405C45.1099 77.7903 44.9586 78.0173 44.7677 78.2085C44.5769 78.3998 44.3504 78.5514 44.1011 78.6549C43.8518 78.7584 43.5845 78.8117 43.3147 78.8117ZM43.3147 76.2243C43.2104 76.2243 43.1085 76.2553 43.0218 76.3133C42.9352 76.3714 42.8676 76.4539 42.8277 76.5504C42.7878 76.6469 42.7774 76.7531 42.7977 76.8555C42.8181 76.958 42.8683 77.0521 42.942 77.126C43.0157 77.1999 43.1096 77.2502 43.2119 77.2706C43.3141 77.2909 43.4201 77.2804 43.5164 77.2405C43.6127 77.2005 43.695 77.1328 43.753 77.046C43.8109 76.9591 43.8418 76.857 43.8418 76.7525C43.8418 76.6124 43.7862 76.4781 43.6874 76.379C43.5885 76.28 43.4545 76.2243 43.3147 76.2243Z" fill="#4462AC"/>
<path d="M158.513 47.0426L141.218 26.8797C140.913 26.5213 140.535 26.2334 140.108 26.036C139.681 25.8386 139.217 25.7363 138.747 25.7363C138.277 25.7363 137.813 25.8386 137.386 26.036C136.959 26.2334 136.581 26.5213 136.276 26.8797L118.973 47.0426C118.556 47.5244 118.285 48.1154 118.191 48.7463C118.097 49.3773 118.185 50.0219 118.444 50.6046C118.703 51.1872 119.123 51.6838 119.653 52.0359C120.184 52.388 120.804 52.581 121.441 52.5924H125.321V58.1192C125.321 58.1192 132.349 65.1004 138.736 63.4164C145.657 61.5945 152.15 64.6488 152.15 64.6488V52.6307H156.031C156.675 52.6285 157.306 52.4396 157.846 52.0867C158.387 51.7338 158.814 51.2319 159.076 50.6415C159.338 50.0511 159.425 49.3973 159.325 48.7588C159.225 48.1203 158.943 47.5243 158.513 47.0426Z" fill="#D4E4F5"/>
<path d="M174.258 67.3068L164.228 57.3555C163.776 56.9039 163.163 56.6504 162.525 56.6504C161.886 56.6504 161.273 56.9039 160.821 57.3555L150.791 67.3068C150.544 67.5526 150.376 67.8661 150.308 68.2076C150.239 68.5492 150.274 68.9034 150.406 69.2255C150.539 69.5476 150.763 69.8231 151.052 70.017C151.341 70.211 151.681 70.3147 152.028 70.3151H154.465V88.4112C154.465 88.4112 155.481 88.9471 160.722 94.0758C164.778 98.0487 170.599 99.2429 170.599 99.2429V70.3075H173.028C173.374 70.3041 173.711 70.1987 173.997 70.0046C174.283 69.8104 174.505 69.5361 174.636 69.2158C174.768 68.8956 174.802 68.5438 174.735 68.2042C174.667 67.8647 174.502 67.5525 174.258 67.3068Z" fill="#7393CB"/>
<path d="M147.526 39.3481L154.356 31.5248C154.438 31.4305 154.54 31.3549 154.654 31.3032C154.768 31.2514 154.891 31.2246 155.017 31.2246C155.142 31.2246 155.265 31.2514 155.379 31.3032C155.493 31.3549 155.595 31.4305 155.677 31.5248L162.507 39.3481C162.687 39.5552 162.804 39.8101 162.844 40.0821C162.884 40.3542 162.845 40.632 162.731 40.8823C162.617 41.1326 162.434 41.3448 162.203 41.4936C161.973 41.6423 161.704 41.7213 161.43 41.7211H148.603C148.329 41.7213 148.06 41.6423 147.83 41.4936C147.599 41.3448 147.416 41.1326 147.302 40.8823C147.188 40.632 147.149 40.3542 147.189 40.0821C147.229 39.8101 147.346 39.5552 147.526 39.3481Z" fill="#7393CB"/>
<path d="M153.565 65.51H151.273V51.5934H156.331C156.745 51.593 157.151 51.473 157.5 51.2477C157.849 51.0224 158.125 50.7014 158.297 50.3229C158.468 49.9444 158.527 49.5245 158.467 49.1132C158.407 48.7019 158.23 48.3166 157.958 48.0033L153.061 42.3923L154.787 40.8613L159.684 46.4723C160.248 47.1177 160.614 47.9121 160.739 48.7606C160.864 49.6091 160.742 50.4757 160.388 51.2566C160.034 52.0376 159.464 52.6998 158.744 53.1641C158.024 53.6284 157.186 53.8751 156.331 53.8746H153.565V65.51Z" fill="#4462AC"/>
<path d="M159.813 96.4946H158.285V94.1981H159.813V96.4946ZM159.813 91.9016H158.285V89.6052H159.813V91.9016ZM159.813 87.3087H158.285V85.0123H159.813V87.3087ZM159.813 82.7158H158.285V80.4194H159.813V82.7158ZM159.813 78.1229H158.285V75.8265H159.813V78.1229ZM159.813 73.53H158.285V71.2335H159.813V73.53ZM159.813 68.9371H158.285V66.6406H159.813V68.9371Z" fill="#4462AC"/>
<path d="M126.527 58.5191H124.235V53.8879H121.47C120.614 53.8884 119.776 53.6417 119.056 53.1774C118.337 52.7131 117.766 52.0509 117.412 51.27C117.058 50.489 116.936 49.6224 117.061 48.774C117.186 47.9255 117.552 47.131 118.116 46.4857L135.541 26.5218C135.959 26.0437 136.474 25.6607 137.052 25.3982C137.63 25.1358 138.257 25 138.891 25C139.525 25 140.152 25.1358 140.73 25.3982C141.307 25.6607 141.823 26.0437 142.241 26.5218L150.583 36.0751L148.856 37.606L140.514 28.0528C140.305 27.8298 140.053 27.6521 139.774 27.5307C139.494 27.4092 139.192 27.3465 138.887 27.3465C138.582 27.3465 138.28 27.4092 138 27.5307C137.721 27.6521 137.468 27.8298 137.26 28.0528L119.835 48.0166C119.562 48.3299 119.385 48.7152 119.325 49.1265C119.265 49.5378 119.324 49.9578 119.496 50.3362C119.668 50.7147 119.944 51.0358 120.293 51.2611C120.641 51.4863 121.047 51.6063 121.462 51.6068H126.519L126.527 58.5191Z" fill="#4462AC"/>
<path d="M138.327 33.4038L129.77 43.0898L130.913 44.1047L139.471 34.4187L138.327 33.4038Z" fill="#4462AC"/>
<path d="M138.324 38.8901L129.766 48.5762L130.91 49.591L139.467 39.905L138.324 38.8901Z" fill="#4462AC"/>
<path d="M138.326 44.3242L129.77 54.0117L130.914 55.0264L139.47 45.3388L138.326 44.3242Z" fill="#4462AC"/>
<path d="M138.32 49.8821L131.234 57.8789L132.377 58.8954L139.462 50.8985L138.32 49.8821Z" fill="#4462AC"/>
<path d="M138.323 55.3396L133.742 60.5898L134.892 61.5975L139.473 56.3473L138.323 55.3396Z" fill="#4462AC"/>
<path d="M171.746 99.243H169.454V68.8992H173.021C173.143 68.9012 173.262 68.8665 173.363 68.7998C173.464 68.733 173.543 68.6371 173.589 68.5248C173.636 68.4124 173.647 68.2887 173.622 68.1697C173.597 68.0508 173.537 67.9422 173.449 67.8581L163.434 57.9068C163.197 57.6726 162.877 57.5413 162.544 57.5413C162.211 57.5413 161.892 57.6726 161.654 57.9068L151.639 67.8581C151.552 67.9422 151.492 68.0508 151.467 68.1697C151.442 68.2887 151.453 68.4124 151.499 68.5248C151.545 68.6371 151.624 68.733 151.726 68.7998C151.827 68.8665 151.946 68.9012 152.067 68.8992H155.635V87.9214H153.343V71.1956H152.067C151.494 71.1956 150.933 71.025 150.456 70.7052C149.98 70.3855 149.609 69.9311 149.39 69.3997C149.172 68.8683 149.116 68.2838 149.229 67.7204C149.343 67.1571 149.62 66.6401 150.028 66.2353L160.042 56.2839C160.71 55.6216 161.612 55.25 162.552 55.25C163.492 55.25 164.393 55.6216 165.061 56.2839L175.076 66.2353C175.483 66.6401 175.761 67.1571 175.875 67.7204C175.988 68.2838 175.932 68.8683 175.714 69.3997C175.495 69.9311 175.124 70.3855 174.647 70.7052C174.171 71.025 173.61 71.1956 173.037 71.1956H171.761L171.746 99.243Z" fill="#4462AC"/>
<path d="M161.34 42.7734H148.659C148.166 42.7737 147.685 42.6319 147.271 42.3648C146.857 42.0977 146.529 41.7168 146.326 41.2676C146.123 40.8184 146.053 40.3201 146.125 39.8323C146.198 39.3445 146.409 38.8879 146.734 38.5173L153.494 30.7706C153.689 30.559 153.925 30.3902 154.188 30.2747C154.451 30.1592 154.735 30.0996 155.022 30.0996C155.309 30.0996 155.593 30.1592 155.856 30.2747C156.119 30.3902 156.355 30.559 156.55 30.7706L163.31 38.5173C163.635 38.8879 163.846 39.3445 163.919 39.8323C163.991 40.3201 163.921 40.8184 163.718 41.2676C163.515 41.7168 163.187 42.0977 162.773 42.3648C162.359 42.6319 161.878 42.7737 161.385 42.7734H161.34ZM154.991 32.5235L148.437 40.0253C148.403 40.0639 148.382 40.1113 148.374 40.1619C148.367 40.2125 148.374 40.2643 148.395 40.311C148.415 40.3577 148.449 40.3974 148.492 40.4255C148.535 40.4535 148.585 40.4687 148.636 40.4693H161.34C161.391 40.4687 161.44 40.4535 161.483 40.4255C161.526 40.3974 161.56 40.3577 161.581 40.311C161.602 40.2643 161.609 40.2125 161.601 40.1619C161.594 40.1113 161.572 40.0639 161.538 40.0253L154.991 32.5235Z" fill="#4462AC"/>
<path d="M154.565 34.694L150.967 38.8828L152.125 39.8816L155.723 35.6928L154.565 34.694Z" fill="#4462AC"/>
<path d="M76.873 73.9553C76.873 76.0125 78.2197 77.0305 79.9482 77.0305C81.666 77.0305 83.1082 76.0125 83.1082 73.9553V70.4189C83.1082 69.9182 82.7022 69.5123 82.2015 69.5123C81.7008 69.5123 81.2949 69.9182 81.2949 70.4189V73.9659C81.2949 74.8461 80.8389 75.3551 79.98 75.3551C79.1211 75.3551 78.6863 74.8461 78.6863 73.9659V70.4189C78.6863 69.9182 78.2804 69.5123 77.7797 69.5123C77.279 69.5123 76.873 69.9182 76.873 70.4189V73.9553Z" fill="#4462AC"/>
<path d="M89.7895 74.74C89.7895 72.2481 86.1099 72.8313 86.1099 71.5376C86.1099 71.0711 86.4386 70.8484 86.8734 70.859C87.0032 70.8618 87.1224 70.8842 87.2282 70.9244C87.7135 71.1091 88.1357 71.6331 88.655 71.6331C89.2198 71.6331 89.6964 71.1346 89.4297 70.6367C89.0038 69.8417 88.0977 69.4062 86.9052 69.4062C85.3464 69.4062 84.1906 70.1909 84.1906 71.6013C84.1694 74.2416 87.8914 73.4994 87.8914 74.8779C87.8914 75.3126 87.552 75.5777 87.0218 75.5777C86.8405 75.5777 86.6779 75.5427 86.5414 75.4717C86.0873 75.2355 85.7077 74.7294 85.1958 74.7294C84.6349 74.7294 84.1587 75.219 84.4168 75.7171C84.8644 76.5806 85.8706 77.0305 87.0749 77.0305C88.8139 77.0305 89.7895 75.9913 89.7895 74.74Z" fill="#4462AC"/>
<path d="M95.7785 76.3478C95.9017 76.7115 96.2431 76.9562 96.6271 76.9562C97.2482 76.9562 97.6808 76.3396 97.4695 75.7556L95.5677 70.4994C95.3534 69.907 94.7908 69.5123 94.1608 69.5123C93.5307 69.5123 92.9682 69.907 92.7538 70.4994L90.8472 75.7688C90.6382 76.3464 91.0661 76.9562 91.6803 76.9562C92.0601 76.9562 92.3977 76.7142 92.5195 76.3545L92.761 75.6414H95.5393L95.7785 76.3478ZM95.0727 74.2416H93.2382L94.1502 71.5164L95.0727 74.2416Z" fill="#4462AC"/>
<path d="M103.358 76.0496C103.358 76.5503 103.764 76.9562 104.264 76.9562C104.765 76.9562 105.171 76.5503 105.171 76.0496V70.4189C105.171 69.9182 104.765 69.5123 104.264 69.5123C103.764 69.5123 103.358 69.9182 103.358 70.4189V72.4284H100.537V70.4189C100.537 69.9182 100.131 69.5123 99.6303 69.5123C99.1296 69.5123 98.7237 69.9182 98.7237 70.4189V76.0496C98.7237 76.5503 99.1296 76.9562 99.6303 76.9562C100.131 76.9562 100.537 76.5503 100.537 76.0496V73.8917H103.358V76.0496Z" fill="#4462AC"/>
<path d="M111.353 76.3478C111.476 76.7115 111.818 76.9562 112.202 76.9562C112.823 76.9562 113.255 76.3396 113.044 75.7556L111.142 70.4994C110.928 69.907 110.365 69.5123 109.735 69.5123C109.105 69.5123 108.543 69.907 108.328 70.4994L106.422 75.7688C106.213 76.3464 106.641 76.9562 107.255 76.9562C107.635 76.9562 107.972 76.7142 108.094 76.3545L108.336 75.6414H111.114L111.353 76.3478ZM110.647 74.2416H108.813L109.725 71.5164L110.647 74.2416Z" fill="#4462AC"/>
</svg>
