<svg width="196" height="196" viewBox="0 0 196 196" fill="none" xmlns="http://www.w3.org/2000/svg">
<path d="M97.8568 195.714C151.902 195.714 195.714 151.902 195.714 97.8568C195.714 43.812 151.902 0 97.8568 0C43.812 0 0 43.812 0 97.8568C0 151.902 43.812 195.714 97.8568 195.714Z" fill="#B4F5C9"/>
<path d="M149.1 65.235C148.965 65.2357 148.833 65.1964 148.721 65.122C148.609 65.0475 148.521 64.9414 148.47 64.8171C148.418 64.6927 148.405 64.5558 148.431 64.4238C148.458 64.2918 148.523 64.1707 148.618 64.0759L154.577 58.1178C154.637 58.0468 154.712 57.9892 154.796 57.9486C154.88 57.9079 154.972 57.885 155.065 57.8814C155.159 57.8778 155.252 57.8935 155.339 57.9276C155.426 57.9617 155.505 58.0134 155.571 58.0794C155.637 58.1455 155.688 58.2245 155.723 58.3115C155.757 58.3984 155.772 58.4915 155.769 58.5849C155.765 58.6782 155.742 58.7698 155.702 58.8539C155.661 58.938 155.603 59.0128 155.532 59.0736L149.574 65.0316C149.449 65.1593 149.279 65.2324 149.1 65.235Z" fill="#4462AC"/>
<path d="M149.918 61.2714C149.553 61.2714 149.197 61.1632 148.894 60.9606C148.59 60.758 148.354 60.4701 148.215 60.1332C148.075 59.7963 148.039 59.4256 148.11 59.068C148.181 58.7103 148.356 58.3818 148.614 58.124C148.872 57.8661 149.201 57.6905 149.558 57.6194C149.916 57.5483 150.287 57.5848 150.623 57.7243C150.96 57.8639 151.248 58.1002 151.451 58.4034C151.653 58.7066 151.762 59.063 151.762 59.4277C151.762 59.9166 151.567 60.3856 151.222 60.7313C150.876 61.0771 150.407 61.2714 149.918 61.2714ZM149.918 58.9396C149.821 58.9396 149.727 58.9683 149.647 59.0219C149.566 59.0755 149.504 59.1517 149.467 59.2409C149.43 59.3301 149.42 59.4282 149.439 59.5229C149.458 59.6176 149.505 59.7045 149.573 59.7728C149.641 59.841 149.728 59.8875 149.823 59.9063C149.917 59.9252 150.015 59.9155 150.105 59.8786C150.194 59.8416 150.27 59.7791 150.324 59.6988C150.377 59.6186 150.406 59.5242 150.406 59.4277C150.407 59.363 150.395 59.2988 150.371 59.2388C150.347 59.1788 150.311 59.1242 150.265 59.0782C150.22 59.0322 150.166 58.9956 150.106 58.9706C150.047 58.9457 149.983 58.9329 149.918 58.9329V58.9396Z" fill="#4462AC"/>
<path d="M154.23 65.58C153.866 65.58 153.509 65.4718 153.206 65.2692C152.903 65.0666 152.667 64.7787 152.527 64.4418C152.388 64.1049 152.351 63.7342 152.422 63.3766C152.493 63.0189 152.669 62.6905 152.927 62.4326C153.185 62.1748 153.513 61.9991 153.871 61.928C154.228 61.8569 154.599 61.8934 154.936 62.0329C155.273 62.1725 155.561 62.4088 155.763 62.712C155.966 63.0152 156.074 63.3716 156.074 63.7363C156.074 63.9784 156.026 64.2182 155.934 64.4418C155.841 64.6655 155.705 64.8687 155.534 65.0399C155.363 65.2111 155.16 65.347 154.936 65.4396C154.712 65.5323 154.473 65.58 154.23 65.58ZM154.23 63.2482C154.134 63.2482 154.04 63.2769 153.959 63.3305C153.879 63.3841 153.816 63.4603 153.779 63.5495C153.743 63.6387 153.733 63.7368 153.752 63.8315C153.771 63.9262 153.817 64.0131 153.885 64.0814C153.954 64.1496 154.041 64.1961 154.135 64.2149C154.23 64.2337 154.328 64.2241 154.417 64.1872C154.506 64.1502 154.583 64.0877 154.636 64.0074C154.69 63.9271 154.718 63.8328 154.718 63.7363C154.718 63.6068 154.667 63.4827 154.575 63.3912C154.484 63.2997 154.36 63.2482 154.23 63.2482Z" fill="#4462AC"/>
<path d="M52.6586 48.8509C52.5945 48.8519 52.5314 48.8346 52.4767 48.8012C52.422 48.7678 52.3779 48.7195 52.3495 48.6621C52.3211 48.6046 52.3096 48.5402 52.3163 48.4764C52.3231 48.4127 52.3477 48.3521 52.3875 48.3018L55.6139 44.1332C55.6708 44.0683 55.7502 44.0275 55.8361 44.0192C55.9219 44.0108 56.0078 44.0355 56.0761 44.0882C56.1443 44.1409 56.1899 44.2177 56.2036 44.3029C56.2172 44.3881 56.1978 44.4753 56.1494 44.5467L52.923 48.7153C52.8921 48.7565 52.8523 48.7901 52.8064 48.8136C52.7606 48.8371 52.7101 48.8498 52.6586 48.8509Z" fill="#4462AC"/>
<path d="M52.7586 46.3314C52.5526 46.331 52.3511 46.2713 52.1783 46.1593C52.0054 46.0474 51.8685 45.888 51.7839 45.7002C51.6993 45.5124 51.6707 45.3042 51.7015 45.1006C51.7322 44.8969 51.821 44.7065 51.9573 44.552C52.0935 44.3975 52.2713 44.2856 52.4695 44.2297C52.6678 44.1738 52.8779 44.1762 53.0748 44.2366C53.2717 44.2971 53.447 44.413 53.5796 44.5706C53.7123 44.7281 53.7967 44.9206 53.8228 45.1249C53.8593 45.4062 53.7828 45.6905 53.6099 45.9154C53.4371 46.1403 53.1821 46.2875 52.9009 46.3246L52.7586 46.3314ZM52.7586 44.8741H52.7111C52.6551 44.874 52.5997 44.8859 52.5487 44.9089C52.4976 44.932 52.4521 44.9657 52.4151 45.0077C52.3781 45.0498 52.3506 45.0993 52.3343 45.1529C52.318 45.2065 52.3134 45.2629 52.3207 45.3185C52.328 45.374 52.3471 45.4273 52.3767 45.4749C52.4063 45.5225 52.4457 45.5632 52.4923 45.5943C52.5389 45.6253 52.5916 45.6461 52.6469 45.6552C52.7021 45.6642 52.7587 45.6614 52.8128 45.6468C52.9148 45.6333 53.0075 45.5802 53.0709 45.4991C53.1342 45.418 53.1633 45.3153 53.1517 45.213C53.1387 45.1195 53.0925 45.0338 53.0216 44.9716C52.9506 44.9094 52.8597 44.8748 52.7654 44.8741H52.7586Z" fill="#4462AC"/>
<path d="M55.7771 48.6614C55.5708 48.6624 55.3687 48.6038 55.195 48.4926C55.0212 48.3815 54.8833 48.2225 54.7977 48.0349C54.7121 47.8472 54.6826 47.6389 54.7125 47.4348C54.7425 47.2308 54.8308 47.0397 54.9667 46.8846C55.1026 46.7295 55.2805 46.617 55.4788 46.5605C55.6772 46.504 55.8876 46.506 56.0849 46.5662C56.2821 46.6264 56.4578 46.7423 56.5908 46.9C56.7237 47.0576 56.8084 47.2503 56.8345 47.4549C56.871 47.7362 56.7945 48.0205 56.6217 48.2454C56.4488 48.4704 56.1939 48.6175 55.9126 48.6546L55.7771 48.6614ZM55.7771 47.2041H55.7228C55.6668 47.204 55.6114 47.2159 55.5604 47.239C55.5093 47.262 55.4638 47.2957 55.4268 47.3378C55.3898 47.3798 55.3623 47.4294 55.346 47.483C55.3297 47.5366 55.3251 47.593 55.3324 47.6485C55.3397 47.7041 55.3588 47.7574 55.3884 47.805C55.418 47.8525 55.4574 47.8932 55.504 47.9243C55.5506 47.9554 55.6033 47.9761 55.6586 47.9852C55.7139 47.9943 55.7704 47.9914 55.8245 47.9768C55.9279 47.9633 56.0216 47.9093 56.0852 47.8267C56.1488 47.7441 56.1769 47.6396 56.1634 47.5363C56.1504 47.4428 56.1042 47.3572 56.0333 47.2949C55.9623 47.2327 55.8714 47.1981 55.7771 47.1973V47.2041Z" fill="#4462AC"/>
<path d="M151.219 77.043C151.084 77.0438 150.952 77.0045 150.84 76.9301C150.728 76.8556 150.641 76.7495 150.589 76.6251C150.537 76.5008 150.524 76.3639 150.55 76.2319C150.577 76.0999 150.642 75.9788 150.738 75.884L161.806 64.8151C161.867 64.7441 161.942 64.6865 162.026 64.6458C162.11 64.6051 162.202 64.5822 162.295 64.5786C162.389 64.575 162.482 64.5908 162.569 64.6248C162.656 64.6589 162.735 64.7106 162.801 64.7767C162.867 64.8427 162.918 64.9217 162.952 65.0087C162.987 65.0957 163.002 65.1888 162.999 65.2821C162.995 65.3755 162.972 65.4671 162.931 65.5512C162.891 65.6353 162.833 65.71 162.762 65.7708L151.693 76.8397C151.568 76.9674 151.398 77.0405 151.219 77.043Z" fill="#4462AC"/>
<path d="M35.4269 67.0843C35.3377 67.0848 35.2493 67.0677 35.1667 67.034C35.0841 67.0003 35.009 66.9506 34.9457 66.8877L33.163 65.1051C33.052 64.9754 32.9939 64.8086 33.0005 64.638C33.0071 64.4674 33.0778 64.3056 33.1985 64.1849C33.3193 64.0642 33.4811 63.9934 33.6517 63.9868C33.8223 63.9802 33.9891 64.0383 34.1187 64.1493L35.9014 65.932C35.997 66.0268 36.0622 66.1479 36.0887 66.28C36.1152 66.412 36.1017 66.5488 36.0501 66.6732C35.9985 66.7975 35.911 66.9037 35.7988 66.9781C35.6866 67.0526 35.5548 67.0919 35.4201 67.0911L35.4269 67.0843Z" fill="#4462AC"/>
<path d="M46.0555 77.7141C45.9663 77.7146 45.8779 77.6975 45.7954 77.6638C45.7128 77.63 45.6377 77.5804 45.5743 77.5175L36.8778 68.8414C36.7668 68.7117 36.7088 68.5449 36.7153 68.3743C36.7219 68.2038 36.7926 68.0419 36.9134 67.9212C37.0341 67.8005 37.1959 67.7298 37.3665 67.7232C37.5371 67.7166 37.7039 67.7746 37.8336 67.8857L46.5368 76.5889C46.6324 76.6837 46.6976 76.8048 46.7241 76.9368C46.7506 77.0688 46.7371 77.2058 46.6855 77.3301C46.6339 77.4545 46.5464 77.5606 46.4342 77.635C46.322 77.7095 46.1902 77.7488 46.0555 77.748V77.7141Z" fill="#4462AC"/>
<path d="M138.585 67.6208C138.463 67.6214 138.342 67.5887 138.237 67.5262C138.131 67.4637 138.045 67.3738 137.986 67.266C137.928 67.1581 137.9 67.0365 137.905 66.914C137.91 66.7914 137.949 66.6726 138.016 66.5702L151.64 45.7949C151.689 45.7189 151.751 45.6534 151.825 45.602C151.899 45.5506 151.982 45.5144 152.07 45.4955C152.158 45.4767 152.249 45.4755 152.338 45.4921C152.426 45.5087 152.51 45.5428 152.585 45.5922C152.66 45.6417 152.725 45.7057 152.775 45.7804C152.825 45.855 152.86 45.9389 152.878 46.0272C152.895 46.1154 152.895 46.2063 152.876 46.2944C152.858 46.3826 152.823 46.4662 152.772 46.5405L139.155 67.3158C139.093 67.41 139.008 67.4872 138.909 67.5405C138.809 67.5938 138.698 67.6214 138.585 67.6208Z" fill="#4462AC"/>
<path d="M140.41 40.2036C140.293 40.2039 140.179 40.1741 140.077 40.1172C139.975 40.0602 139.89 39.9781 139.83 39.8786C139.769 39.7792 139.735 39.6658 139.731 39.5494C139.727 39.4329 139.753 39.3174 139.806 39.214L141.528 35.913C141.614 35.7583 141.757 35.6433 141.927 35.5927C142.096 35.5421 142.279 35.5599 142.436 35.6422C142.593 35.7246 142.711 35.8649 142.765 36.0333C142.82 36.2017 142.807 36.3848 142.728 36.5434L141.006 39.8444C140.949 39.9526 140.863 40.0432 140.758 40.1065C140.653 40.1697 140.532 40.2033 140.41 40.2036Z" fill="#4462AC"/>
<path d="M53.4228 62.3413C53.3101 62.3418 53.1989 62.3142 53.0995 62.261C53.0001 62.2077 52.9155 62.1305 52.8535 62.0363L45.9668 51.4622C45.9183 51.3874 45.8849 51.3038 45.8687 51.2162C45.8525 51.1285 45.8538 51.0386 45.8723 50.9514C45.8909 50.8642 45.9264 50.7815 45.977 50.7081C46.0275 50.6347 46.092 50.5719 46.1667 50.5234C46.2415 50.4749 46.3251 50.4416 46.4127 50.4254C46.5004 50.4092 46.5904 50.4104 46.6775 50.4289C46.7647 50.4475 46.8474 50.4831 46.9208 50.5336C46.9942 50.5841 47.057 50.6486 47.1055 50.7234L53.9922 61.2974C54.0597 61.3999 54.0981 61.5187 54.1033 61.6412C54.1086 61.7637 54.0805 61.8854 54.0221 61.9932C53.9636 62.101 53.877 62.191 53.7715 62.2535C53.666 62.316 53.5455 62.3486 53.4228 62.3481V62.3413Z" fill="#4462AC"/>
<path d="M57.0712 68.0136C56.9584 68.0141 56.8473 67.9865 56.7478 67.9332C56.6484 67.88 56.5639 67.8027 56.5018 67.7085L54.4277 64.5227C54.3297 64.3717 54.2958 64.188 54.3333 64.0119C54.3708 63.8359 54.4766 63.6819 54.6276 63.584C54.7787 63.486 54.9624 63.452 55.1385 63.4895C55.3145 63.527 55.4685 63.6329 55.5664 63.7839L57.6406 66.9697C57.708 67.0721 57.7465 67.1909 57.7517 67.3134C57.757 67.436 57.7288 67.5576 57.6704 67.6655C57.612 67.7733 57.5254 67.8632 57.4199 67.9257C57.3143 67.9882 57.1938 68.0209 57.0712 68.0203V68.0136Z" fill="#4462AC"/>
<path d="M97.2911 49.6536C97.1113 49.6536 96.9389 49.5821 96.8118 49.455C96.6847 49.3279 96.6133 49.1555 96.6133 48.9757V30.3966C96.6133 30.2168 96.6847 30.0444 96.8118 29.9172C96.9389 29.7901 97.1113 29.7188 97.2911 29.7188C97.4709 29.7188 97.6433 29.7901 97.7704 29.9172C97.8975 30.0444 97.9689 30.2168 97.9689 30.3966V48.9757C97.9689 49.0647 97.9514 49.1529 97.9173 49.2351C97.8833 49.3174 97.8333 49.3921 97.7704 49.455C97.7074 49.518 97.6327 49.5679 97.5505 49.602C97.4683 49.636 97.3801 49.6536 97.2911 49.6536Z" fill="#4462AC"/>
<path d="M126.764 40.4809C126.656 40.4812 126.549 40.4558 126.453 40.4068C126.358 40.3577 126.275 40.2865 126.212 40.199C126.149 40.1116 126.108 40.0103 126.091 39.9037C126.075 39.7971 126.085 39.6883 126.12 39.5862L128.065 33.8247C128.089 33.7349 128.131 33.651 128.188 33.5781C128.246 33.5052 128.318 33.4449 128.4 33.401C128.481 33.357 128.571 33.3304 128.664 33.3227C128.757 33.3149 128.85 33.3263 128.938 33.3561C129.026 33.3859 129.107 33.4335 129.175 33.4958C129.244 33.5582 129.299 33.634 129.338 33.7187C129.376 33.8033 129.397 33.8948 129.398 33.9877C129.399 34.0806 129.382 34.1727 129.346 34.2585L127.401 40.02C127.356 40.1535 127.27 40.2697 127.156 40.3523C127.042 40.4349 126.904 40.4798 126.764 40.4809Z" fill="#4462AC"/>
<path d="M75.3861 58.7347C75.2496 58.7343 75.1164 58.6927 75.0039 58.6152C74.8914 58.5378 74.8049 58.4283 74.7558 58.3009L71.2785 49.1842C71.2469 49.1009 71.232 49.0123 71.2347 48.9233C71.2373 48.8343 71.2575 48.7467 71.294 48.6655C71.3305 48.5843 71.3826 48.5112 71.4474 48.4501C71.5122 48.3891 71.5885 48.3414 71.6717 48.3098C71.7549 48.2782 71.8435 48.2633 71.9325 48.2659C72.0215 48.2686 72.1091 48.2887 72.1903 48.3253C72.2715 48.3618 72.3447 48.4139 72.4057 48.4787C72.4668 48.5435 72.5145 48.6197 72.5461 48.7029L76.0233 57.7858C76.0629 57.8883 76.0769 57.9989 76.0642 58.1081C76.0515 58.2172 76.0125 58.3216 75.9504 58.4124C75.8884 58.5031 75.8053 58.5774 75.7081 58.6288C75.611 58.6802 75.5028 58.7073 75.3929 58.7076L75.3861 58.7347Z" fill="#4462AC"/>
<path d="M97.2911 55.4062C97.1113 55.4062 96.9389 55.3348 96.8118 55.2076C96.6847 55.0805 96.6133 54.9081 96.6133 54.7284V51.4884C96.6133 51.3086 96.6847 51.1362 96.8118 51.009C96.9389 50.8819 97.1113 50.8105 97.2911 50.8105C97.4709 50.8105 97.6433 50.8819 97.7704 51.009C97.8975 51.1362 97.9689 51.3086 97.9689 51.4884V54.7216C97.9698 54.8111 97.9529 54.9 97.9193 54.983C97.8856 55.0661 97.8359 55.1416 97.7728 55.2053C97.7098 55.2689 97.6348 55.3194 97.5521 55.3539C97.4694 55.3884 97.3807 55.4062 97.2911 55.4062Z" fill="#4462AC"/>
<path d="M122.859 52.167C122.751 52.1666 122.644 52.1403 122.549 52.0905C122.453 52.0406 122.37 51.9686 122.308 51.8804C122.246 51.7922 122.205 51.6904 122.19 51.5834C122.175 51.4764 122.186 51.3675 122.222 51.2655L125.163 42.9079C125.223 42.738 125.347 42.5987 125.509 42.5205C125.671 42.4423 125.858 42.4317 126.028 42.4911C126.197 42.5504 126.337 42.6748 126.415 42.8368C126.493 42.9989 126.504 43.1854 126.444 43.3553L123.503 51.7128C123.456 51.8462 123.369 51.9617 123.253 52.0431C123.138 52.1245 123 52.1679 122.859 52.167Z" fill="#4462AC"/>
<path d="M70.9509 47.1499C70.8143 47.1495 70.6811 47.1079 70.5686 47.0305C70.4561 46.9531 70.3697 46.8435 70.3205 46.7161L68.2531 41.2935C68.1893 41.1254 68.1949 40.9389 68.2686 40.7749C68.3424 40.6109 68.4782 40.483 68.6463 40.4191C68.8143 40.3553 69.0009 40.3609 69.1649 40.4346C69.3289 40.5083 69.4569 40.6442 69.5207 40.8123L71.588 46.2349C71.6276 46.3374 71.6416 46.448 71.629 46.5572C71.6163 46.6663 71.5772 46.7708 71.5152 46.8615C71.4531 46.9522 71.37 47.0265 71.2728 47.0779C71.1757 47.1293 71.0676 47.1564 70.9577 47.1567L70.9509 47.1499Z" fill="#4462AC"/>
<path d="M68.1452 39.7557C68.0086 39.7553 67.8754 39.7136 67.7629 39.6362C67.6504 39.5588 67.564 39.4492 67.5148 39.3219L66.593 36.9088C66.5292 36.7407 66.5347 36.5542 66.6084 36.3902C66.6822 36.2262 66.818 36.0982 66.9861 36.0344C67.1542 35.9706 67.3407 35.9761 67.5047 36.0499C67.6687 36.1236 67.7967 36.2594 67.8605 36.4275L68.7823 38.8406C68.8219 38.9431 68.8359 39.0537 68.8233 39.1629C68.8106 39.2721 68.7715 39.3765 68.7095 39.4672C68.6474 39.5579 68.5643 39.6322 68.4672 39.6836C68.37 39.7351 68.2619 39.7621 68.152 39.7624L68.1452 39.7557Z" fill="#4462AC"/>
<path d="M111.775 48.5065C110.067 48.5065 108.678 47.2932 108.678 45.7952C108.678 45.6155 108.749 45.4431 108.876 45.316C109.003 45.1888 109.176 45.1174 109.356 45.1174C109.535 45.1174 109.708 45.1888 109.835 45.316C109.962 45.4431 110.033 45.6155 110.033 45.7952C110.136 46.179 110.362 46.5182 110.677 46.7601C110.992 47.0021 111.378 47.1332 111.775 47.1332C112.173 47.1332 112.559 47.0021 112.874 46.7601C113.189 46.5182 113.415 46.179 113.517 45.7952C113.517 45.1174 112.779 44.8395 111.552 44.4396C110.325 44.0397 108.678 43.4432 108.678 41.7758C108.678 40.2845 110.033 39.0645 111.775 39.0645C113.517 39.0645 114.873 40.2778 114.873 41.7758C114.873 41.9555 114.802 42.1279 114.675 42.255C114.547 42.3822 114.375 42.4536 114.195 42.4536C114.015 42.4536 113.843 42.3822 113.716 42.255C113.589 42.1279 113.517 41.9555 113.517 41.7758C113.415 41.392 113.189 41.0528 112.874 40.8109C112.559 40.5689 112.173 40.4378 111.775 40.4378C111.378 40.4378 110.992 40.5689 110.677 40.8109C110.362 41.0528 110.136 41.392 110.033 41.7758C110.033 42.4536 110.772 42.7315 111.999 43.1314C113.226 43.5313 114.873 44.1278 114.873 45.7952C114.873 47.2661 113.484 48.5065 111.775 48.5065Z" fill="#4462AC"/>
<path d="M111.777 49.9159C111.598 49.9159 111.425 49.8445 111.298 49.7174C111.171 49.5903 111.1 49.4179 111.1 49.2381V47.8282C111.1 47.6484 111.171 47.476 111.298 47.3489C111.425 47.2218 111.598 47.1504 111.777 47.1504C111.957 47.1504 112.13 47.2218 112.257 47.3489C112.384 47.476 112.455 47.6484 112.455 47.8282V49.272C112.447 49.4458 112.371 49.6096 112.245 49.7295C112.119 49.8494 111.951 49.9161 111.777 49.9159Z" fill="#4462AC"/>
<path d="M111.777 40.3728C111.598 40.3728 111.425 40.3014 111.298 40.1743C111.171 40.0472 111.1 39.8748 111.1 39.695V38.2716C111.1 38.0918 111.171 37.9194 111.298 37.7922C111.425 37.6651 111.598 37.5938 111.777 37.5938C111.957 37.5938 112.13 37.6651 112.257 37.7922C112.384 37.9194 112.455 38.0918 112.455 38.2716V39.695C112.455 39.8748 112.384 40.0472 112.257 40.1743C112.13 40.3014 111.957 40.3728 111.777 40.3728Z" fill="#4462AC"/>
<path d="M40.1651 60.7618C39.8901 60.7785 39.6162 60.7158 39.3759 60.5812C39.1355 60.4466 38.9389 60.2458 38.8094 60.0026C38.7699 59.9217 38.7641 59.8284 38.7934 59.7433C38.8226 59.6581 38.8845 59.588 38.9654 59.5484C39.0463 59.5089 39.1396 59.5031 39.2247 59.5324C39.3099 59.5616 39.38 59.6235 39.4195 59.7044C39.552 59.9004 39.7557 60.037 39.9874 60.0851C40.2191 60.1332 40.4604 60.089 40.6599 59.9619C40.8983 59.8498 41.09 59.658 41.2022 59.4197C41.2477 59.3268 41.2713 59.2248 41.2713 59.1214C41.2713 59.018 41.2477 58.916 41.2022 58.8232C41.0327 58.4775 40.5786 58.5046 39.8465 58.5995C39.1145 58.6944 38.1994 58.8029 37.8131 57.9962C37.6892 57.6091 37.7085 57.1903 37.8677 56.8162C38.0269 56.4422 38.3152 56.1378 38.6801 55.9586C39.045 55.7795 39.4622 55.7374 39.8555 55.8402C40.2488 55.943 40.592 56.1838 40.8226 56.5186C40.8422 56.5586 40.8537 56.6022 40.8565 56.6467C40.8592 56.6912 40.8532 56.7358 40.8387 56.7779C40.8242 56.8201 40.8016 56.859 40.7721 56.8925C40.7426 56.9259 40.7068 56.9531 40.6667 56.9727C40.6267 56.9923 40.5831 57.0038 40.5386 57.0066C40.4941 57.0093 40.4495 57.0033 40.4074 56.9888C40.3652 56.9743 40.3263 56.9517 40.2929 56.9222C40.2594 56.8927 40.2321 56.8569 40.2126 56.8168C40.0646 56.6403 39.8617 56.5185 39.6363 56.4708C39.4109 56.4231 39.1761 56.4523 38.9693 56.5538C38.7624 56.6552 38.5956 56.8231 38.4954 57.0305C38.3951 57.2379 38.3673 57.4729 38.4163 57.698C38.5858 58.0437 39.0399 58.0166 39.772 57.9217C40.504 57.8268 41.4191 57.7184 41.8055 58.525C41.8932 58.708 41.9388 58.9083 41.9388 59.1113C41.9388 59.3142 41.8932 59.5146 41.8055 59.6976C41.6274 60.0815 41.3204 60.3909 40.9378 60.572C40.6968 60.6899 40.4333 60.7547 40.1651 60.7618Z" fill="#4462AC"/>
<path d="M41.1881 61.3169C41.1245 61.317 41.0623 61.2993 41.0083 61.2657C40.9544 61.2321 40.911 61.1841 40.8831 61.1271L40.5306 60.4086C40.491 60.3277 40.4853 60.2344 40.5145 60.1492C40.5437 60.064 40.6056 59.994 40.6865 59.9544C40.7674 59.9149 40.8607 59.9091 40.9458 59.9383C41.031 59.9675 41.1011 60.0294 41.1406 60.1103L41.4931 60.8288C41.5184 60.8805 41.5302 60.9379 41.5272 60.9954C41.5243 61.0529 41.5067 61.1087 41.4762 61.1576C41.4456 61.2064 41.4032 61.2467 41.3528 61.2746C41.3024 61.3024 41.2457 61.317 41.1881 61.3169Z" fill="#4462AC"/>
<path d="M38.8697 56.5855C38.8062 56.5856 38.744 56.5679 38.69 56.5343C38.6361 56.5008 38.5927 56.4527 38.5647 56.3957L38.2123 55.684C38.1927 55.6439 38.1812 55.6004 38.1784 55.5559C38.1756 55.5114 38.1817 55.4668 38.1961 55.4246C38.2106 55.3824 38.2333 55.3435 38.2628 55.3101C38.2923 55.2767 38.3281 55.2494 38.3682 55.2298C38.4082 55.2102 38.4517 55.1987 38.4962 55.196C38.5407 55.1932 38.5853 55.1992 38.6275 55.2137C38.6697 55.2282 38.7086 55.2508 38.742 55.2804C38.7754 55.3099 38.8027 55.3457 38.8223 55.3857L39.1748 56.0974C39.2001 56.1492 39.2119 56.2065 39.2089 56.264C39.2059 56.3215 39.1883 56.3773 39.1578 56.4262C39.1273 56.475 39.0848 56.5153 39.0344 56.5431C38.984 56.571 38.9273 56.5856 38.8697 56.5855Z" fill="#4462AC"/>
<path d="M87.6667 44.1115H80.4005C80.2207 44.1115 80.0483 44.0401 79.9212 43.913C79.794 43.7859 79.7227 43.6135 79.7227 43.4337C79.7227 43.2539 79.794 43.0815 79.9212 42.9544C80.0483 42.8272 80.2207 42.7559 80.4005 42.7559H87.6667C87.8465 42.7559 88.0189 42.8272 88.146 42.9544C88.2731 43.0815 88.3446 43.2539 88.3446 43.4337C88.3446 43.6135 88.2731 43.7859 88.146 43.913C88.0189 44.0401 87.8465 44.1115 87.6667 44.1115Z" fill="#4462AC"/>
<path d="M84.0352 47.747C83.8555 47.747 83.6831 47.6755 83.556 47.5484C83.4288 47.4213 83.3574 47.2489 83.3574 47.0691V39.8028C83.3574 39.6231 83.4288 39.4507 83.556 39.3235C83.6831 39.1964 83.8555 39.125 84.0352 39.125C84.215 39.125 84.3874 39.1964 84.5145 39.3235C84.6416 39.4507 84.7131 39.6231 84.7131 39.8028V47.0691C84.7131 47.2489 84.6416 47.4213 84.5145 47.5484C84.3874 47.6755 84.215 47.747 84.0352 47.747Z" fill="#4462AC"/>
<path d="M45.6818 69.47C45.5471 69.4708 45.4153 69.4315 45.3031 69.357C45.1909 69.2826 45.1034 69.1765 45.0518 69.0521C45.0002 68.9278 44.9868 68.7909 45.0132 68.6589C45.0397 68.5269 45.1049 68.4057 45.2005 68.3109L46.0613 67.4501C46.191 67.3391 46.3578 67.281 46.5284 67.2876C46.699 67.2942 46.8608 67.3649 46.9816 67.4857C47.1023 67.6064 47.173 67.7682 47.1796 67.9388C47.1862 68.1094 47.1281 68.2762 47.0171 68.4058L46.1562 69.2667C46.0311 69.3944 45.8606 69.4675 45.6818 69.47Z" fill="#4462AC"/>
<path d="M49.465 65.6887C49.3303 65.6895 49.1985 65.6502 49.0863 65.5758C48.9741 65.5014 48.8866 65.3952 48.835 65.2708C48.7834 65.1465 48.77 65.0096 48.7964 64.8776C48.8229 64.7456 48.8881 64.6245 48.9837 64.5297L49.8445 63.6688C49.9742 63.5578 50.141 63.4998 50.3116 63.5064C50.4822 63.513 50.644 63.5837 50.7647 63.7044C50.8854 63.8251 50.9562 63.9869 50.9628 64.1575C50.9694 64.3281 50.9113 64.4949 50.8003 64.6246L49.9395 65.4854C49.8143 65.6131 49.6438 65.6862 49.465 65.6887Z" fill="#4462AC"/>
<path d="M46.5422 65.6878C46.453 65.6884 46.3646 65.6713 46.282 65.6375C46.1994 65.6038 46.1243 65.5541 46.0609 65.4913L45.2001 64.6304C45.0891 64.5008 45.031 64.334 45.0376 64.1634C45.0442 63.9928 45.1149 63.831 45.2357 63.7103C45.3564 63.5896 45.5182 63.5188 45.6888 63.5122C45.8594 63.5056 46.0262 63.5637 46.1558 63.6747L47.0167 64.5356C47.1123 64.6304 47.1774 64.7515 47.2039 64.8835C47.2304 65.0155 47.217 65.1524 47.1654 65.2767C47.1137 65.4011 47.0262 65.5073 46.914 65.5817C46.8019 65.6561 46.67 65.6954 46.5354 65.6946L46.5422 65.6878Z" fill="#4462AC"/>
<path d="M50.3251 69.4708C50.2359 69.4713 50.1475 69.4542 50.0649 69.4205C49.9823 69.3867 49.9072 69.337 49.8438 69.2742L48.983 68.4134C48.912 68.3526 48.8544 68.2778 48.8137 68.1937C48.7731 68.1096 48.7502 68.018 48.7466 67.9247C48.743 67.8313 48.7587 67.7382 48.7928 67.6513C48.8268 67.5643 48.8785 67.4853 48.9446 67.4192C49.0107 67.3532 49.0897 67.3015 49.1767 67.2674C49.2636 67.2333 49.3567 67.2176 49.4501 67.2212C49.5434 67.2248 49.635 67.2477 49.7191 67.2884C49.8032 67.329 49.878 67.3867 49.9388 67.4576L50.7996 68.3185C50.8952 68.4133 50.9604 68.5344 50.9868 68.6664C51.0133 68.7984 50.9999 68.9353 50.9483 69.0597C50.8967 69.184 50.8092 69.2901 50.697 69.3646C50.5848 69.439 50.453 69.4783 50.3183 69.4775L50.3251 69.4708Z" fill="#4462AC"/>
<path d="M133.631 51.2178C133.496 51.2186 133.365 51.1792 133.252 51.1048C133.14 51.0304 133.053 50.9242 133.001 50.7999C132.949 50.6756 132.936 50.5387 132.962 50.4067C132.989 50.2747 133.054 50.1535 133.15 50.0587L134.011 49.1979C134.071 49.1269 134.146 49.0693 134.23 49.0286C134.314 48.9879 134.406 48.965 134.499 48.9614C134.593 48.9578 134.686 48.9736 134.773 49.0077C134.86 49.0417 134.939 49.0934 135.005 49.1595C135.071 49.2255 135.122 49.3045 135.157 49.3915C135.191 49.4785 135.206 49.5716 135.203 49.6649C135.199 49.7583 135.176 49.8499 135.136 49.934C135.095 50.018 135.037 50.0928 134.966 50.1536L134.105 51.0144C133.98 51.1422 133.81 51.2152 133.631 51.2178Z" fill="#4462AC"/>
<path d="M137.412 47.4564C137.278 47.4571 137.146 47.4178 137.034 47.3434C136.921 47.2689 136.834 47.1628 136.782 47.0385C136.731 46.9141 136.717 46.7772 136.744 46.6452C136.77 46.5132 136.835 46.3921 136.931 46.2973L137.792 45.4364C137.921 45.3254 138.088 45.2674 138.259 45.2739C138.429 45.2805 138.591 45.3513 138.712 45.472C138.833 45.5927 138.903 45.7545 138.91 45.9251C138.917 46.0957 138.859 46.2625 138.748 46.3922L137.887 47.253C137.762 47.3807 137.591 47.4538 137.412 47.4564Z" fill="#4462AC"/>
<path d="M134.491 47.4571C134.402 47.4576 134.313 47.4405 134.231 47.4068C134.148 47.3731 134.073 47.3233 134.01 47.2605L133.149 46.3997C133.078 46.3389 133.02 46.2641 132.98 46.18C132.939 46.096 132.916 46.0044 132.913 45.911C132.909 45.8177 132.925 45.7246 132.959 45.6376C132.993 45.5506 133.045 45.4716 133.111 45.4055C133.177 45.3395 133.256 45.2878 133.343 45.2537C133.43 45.2196 133.523 45.2039 133.616 45.2075C133.709 45.2111 133.801 45.234 133.885 45.2747C133.969 45.3154 134.044 45.373 134.105 45.4439L134.966 46.3048C135.061 46.3996 135.126 46.5207 135.153 46.6527C135.179 46.7847 135.166 46.9216 135.114 47.046C135.063 47.1703 134.975 47.2765 134.863 47.3509C134.751 47.4253 134.619 47.4647 134.484 47.4639L134.491 47.4571Z" fill="#4462AC"/>
<path d="M138.275 51.2152C138.185 51.2157 138.097 51.1986 138.014 51.1649C137.932 51.1312 137.857 51.0815 137.793 51.0186L136.933 50.1578C136.821 50.0281 136.763 49.8613 136.77 49.6907C136.777 49.5202 136.847 49.3583 136.968 49.2376C137.089 49.1169 137.251 49.0462 137.421 49.0396C137.592 49.033 137.759 49.091 137.888 49.2021L138.749 50.0629C138.845 50.1577 138.91 50.2788 138.936 50.4108C138.963 50.5428 138.949 50.6797 138.898 50.8041C138.846 50.9284 138.759 51.0346 138.646 51.109C138.534 51.1834 138.402 51.2228 138.268 51.222L138.275 51.2152Z" fill="#4462AC"/>
<path d="M60.6886 38.007H56.6216C56.4868 38.007 56.3575 37.9534 56.2622 37.8581C56.1668 37.7627 56.1133 37.6334 56.1133 37.4986C56.1133 37.3638 56.1668 37.2345 56.2622 37.1391C56.3575 37.0438 56.4868 36.9902 56.6216 36.9902H60.6886C60.8234 36.9902 60.9527 37.0438 61.0481 37.1391C61.1434 37.2345 61.197 37.3638 61.197 37.4986C61.197 37.6334 61.1434 37.7627 61.0481 37.8581C60.9527 37.9534 60.8234 38.007 60.6886 38.007Z" fill="#4462AC"/>
<path d="M58.6549 40.0329C58.52 40.0329 58.3907 39.9793 58.2954 39.884C58.2 39.7887 58.1465 39.6594 58.1465 39.5245V35.4576C58.1465 35.3228 58.2 35.1935 58.2954 35.0981C58.3907 35.0028 58.52 34.9492 58.6549 34.9492C58.7897 34.9492 58.919 35.0028 59.0143 35.0981C59.1097 35.1935 59.1632 35.3228 59.1632 35.4576V39.5245C59.1632 39.6594 59.1097 39.7887 59.0143 39.884C58.919 39.9793 58.7897 40.0329 58.6549 40.0329Z" fill="#4462AC"/>
<path d="M46.5436 85.7853H42.4767C42.2969 85.7853 42.1245 85.7139 41.9974 85.5868C41.8703 85.4597 41.7988 85.2873 41.7988 85.1075C41.7988 84.9277 41.8703 84.7553 41.9974 84.6282C42.1245 84.5011 42.2969 84.4297 42.4767 84.4297H46.5436C46.7234 84.4297 46.8958 84.5011 47.0229 84.6282C47.15 84.7553 47.2214 84.9277 47.2214 85.1075C47.2214 85.2873 47.15 85.4597 47.0229 85.5868C46.8958 85.7139 46.7234 85.7853 46.5436 85.7853Z" fill="#4462AC"/>
<path d="M44.5177 87.8191C44.3379 87.8191 44.1655 87.7477 44.0384 87.6205C43.9113 87.4934 43.8398 87.321 43.8398 87.1413V83.0743C43.8398 82.8945 43.9113 82.7221 44.0384 82.595C44.1655 82.4679 44.3379 82.3965 44.5177 82.3965C44.6974 82.3965 44.8698 82.4679 44.997 82.595C45.1241 82.7221 45.1955 82.8945 45.1955 83.0743V87.1413C45.1955 87.321 45.1241 87.4934 44.997 87.6205C44.8698 87.7477 44.6974 87.8191 44.5177 87.8191Z" fill="#4462AC"/>
<path d="M81.907 33.9465C81.7512 33.9507 81.5988 33.9011 81.4754 33.806C81.3519 33.7109 81.2649 33.5763 81.2292 33.4246L80.3684 29.8457C80.3261 29.6686 80.3559 29.482 80.4513 29.3269C80.5466 29.1718 80.6996 29.061 80.8767 29.0187C81.0538 28.9765 81.2404 29.0063 81.3955 29.1017C81.5506 29.197 81.6614 29.35 81.7036 29.5271L82.5645 33.106C82.5857 33.1928 82.5895 33.283 82.5757 33.3712C82.5619 33.4595 82.5309 33.5442 82.4842 33.6204C82.4376 33.6966 82.3764 33.7629 82.3041 33.8154C82.2318 33.8679 82.1498 33.9055 82.0629 33.9262L81.907 33.9465Z" fill="#4462AC"/>
<path d="M62.9925 57.854C62.8662 57.8549 62.7421 57.8205 62.6343 57.7546C62.5266 57.6887 62.4393 57.594 62.3825 57.4812L59.8068 52.3298C59.7259 52.1689 59.7122 51.9824 59.7687 51.8115C59.8253 51.6405 59.9475 51.499 60.1084 51.4181C60.2693 51.3372 60.4557 51.3235 60.6267 51.3801C60.7977 51.4366 60.9391 51.5588 61.02 51.7197L63.5958 56.8712C63.6757 57.0321 63.6885 57.2181 63.6313 57.3884C63.5741 57.5588 63.4516 57.6994 63.2908 57.7794C63.1984 57.8268 63.0964 57.8523 62.9925 57.854Z" fill="#4462AC"/>
<path d="M123.828 69.6543H112.691V72.6232H123.828V69.6543Z" fill="#4462AC"/>
<path d="M119.74 65.5664H116.771V76.7031H119.74V65.5664Z" fill="#4462AC"/>
<path d="M128.52 61.0039H118.617V63.5457H128.52V61.0039Z" fill="#4462AC"/>
<path d="M124.839 57.3242H122.297V67.2272H124.839V57.3242Z" fill="#4462AC"/>
<path d="M133.568 67.8906H126.383V70.4325H133.568V67.8906Z" fill="#4462AC"/>
<path d="M131.245 65.5664H128.703V72.7513H131.245V65.5664Z" fill="#4462AC"/>
<path d="M128.612 74.793H123.332V76.4875H128.612V74.793Z" fill="#4462AC"/>
<path d="M126.82 72.9961H125.125V78.2763H126.82V72.9961Z" fill="#4462AC"/>
<path d="M118.372 57.832H112.631V59.5266H118.372V57.832Z" fill="#4462AC"/>
<path d="M116.353 55.8145H114.658V61.5556H116.353V55.8145Z" fill="#4462AC"/>
<path d="M127.117 87.2446C128.039 88.8307 130.181 93.5077 131.91 95.3785H136.329C138.057 93.5077 140.193 88.8443 141.121 87.2446C141.298 86.9373 141.402 86.5942 141.428 86.2408C141.454 85.8875 141.399 85.5328 141.269 85.2033C141.139 84.8738 140.936 84.5779 140.676 84.3375C140.415 84.0971 140.104 83.9185 139.765 83.8148C139.569 83.7578 139.361 83.7534 139.162 83.8022C138.964 83.851 138.781 83.9512 138.634 84.0927L137.38 85.2586C137.248 85.3803 137.091 85.4709 136.92 85.5237C136.749 85.5764 136.568 85.5899 136.391 85.5632C136.214 85.5365 136.045 85.4703 135.897 85.3694C135.749 85.2686 135.626 85.1357 135.536 84.9807L135.048 84.1334C134.947 83.9558 134.802 83.8071 134.628 83.7015C134.453 83.5958 134.254 83.5368 134.05 83.53C133.846 83.5232 133.644 83.5689 133.462 83.6626C133.281 83.7564 133.127 83.8952 133.014 84.0656L132.533 84.7841C132.442 84.9225 132.322 85.0401 132.182 85.1297C132.043 85.2192 131.886 85.2787 131.722 85.3042C131.558 85.3297 131.391 85.3208 131.23 85.2779C131.07 85.235 130.92 85.1592 130.791 85.0552L129.51 84.0182C129.363 83.8972 129.189 83.8136 129.002 83.7746C128.816 83.7357 128.622 83.7425 128.439 83.7945C128.1 83.9012 127.79 84.0831 127.531 84.3266C127.273 84.57 127.072 84.8687 126.945 85.2004C126.818 85.5321 126.768 85.8882 126.797 86.2422C126.827 86.5962 126.937 86.9388 127.117 87.2446Z" fill="#7393CB"/>
<path d="M137.079 96.3402H130.979C130.846 96.3402 130.715 96.3141 130.592 96.2633C130.47 96.2126 130.358 96.1382 130.265 96.0444C130.171 95.9506 130.096 95.8393 130.046 95.7168C129.995 95.5942 129.969 95.4629 129.969 95.3303C129.969 95.0624 130.075 94.8055 130.265 94.6161C130.454 94.4267 130.711 94.3203 130.979 94.3203H137.079C137.347 94.3203 137.604 94.4267 137.793 94.6161C137.983 94.8055 138.089 95.0624 138.089 95.3303C138.089 95.4629 138.063 95.5942 138.012 95.7168C137.961 95.8393 137.887 95.9506 137.793 96.0444C137.699 96.1382 137.588 96.2126 137.466 96.2633C137.343 96.3141 137.212 96.3402 137.079 96.3402Z" fill="#98A0B5"/>
<path d="M151.518 114.12C147.966 107.057 141.126 100.204 136.3 95.3848H131.861C127.035 100.211 120.195 107.057 116.643 114.12C112.421 122.505 111.458 129.215 112.624 134.394C113.04 136.132 113.114 137.935 112.841 139.701C111.892 145.347 116.23 147.835 120.643 147.835C121.164 147.834 121.685 147.798 122.202 147.726C124.42 147.456 126.667 147.527 128.865 147.937C132.318 148.513 135.843 148.513 139.296 147.937C141.494 147.527 143.741 147.456 145.959 147.726C146.476 147.798 146.997 147.834 147.518 147.835C151.951 147.835 156.269 145.347 155.32 139.701C155.047 137.935 155.121 136.132 155.537 134.394C156.703 129.215 155.734 122.505 151.518 114.12Z" fill="#7393CB"/>
<path d="M54.8469 87.2446C55.7688 88.8307 57.9107 93.5077 59.6392 95.3785H64.0789C65.8074 93.5077 67.9425 88.8443 68.8711 87.2446C69.0475 86.9373 69.1524 86.5942 69.178 86.2408C69.2036 85.8875 69.1492 85.5328 69.019 85.2033C68.8888 84.8738 68.686 84.5779 68.4257 84.3375C68.1654 84.0971 67.8543 83.9185 67.5155 83.8148C67.319 83.7578 67.111 83.7534 66.9123 83.8022C66.7136 83.851 66.5312 83.9512 66.3835 84.0927L65.1227 85.2586C64.9914 85.3803 64.8343 85.4709 64.6631 85.5237C64.492 85.5764 64.3112 85.5899 64.1341 85.5632C63.957 85.5365 63.7881 85.4703 63.6401 85.3694C63.4921 85.2686 63.3687 85.1357 63.2791 84.9807L62.791 84.1334C62.6902 83.9558 62.5456 83.8071 62.3709 83.7015C62.1962 83.5958 61.9973 83.5368 61.7933 83.53C61.5892 83.5232 61.3869 83.5689 61.2055 83.6626C61.0242 83.7564 60.8699 83.8952 60.7575 84.0656L60.2763 84.7841C60.1847 84.9225 60.0652 85.0401 59.9256 85.1297C59.7859 85.2192 59.6291 85.2787 59.4652 85.3042C59.3012 85.3297 59.1337 85.3208 58.9735 85.2779C58.8132 85.235 58.6636 85.1592 58.5343 85.0552L57.3007 84.025C57.1535 83.9039 56.9792 83.8204 56.7927 83.7814C56.6062 83.7425 56.413 83.7493 56.2297 83.8013C55.8866 83.9013 55.5707 84.078 55.3059 84.318C55.0411 84.5581 54.8343 84.8551 54.7011 85.1867C54.568 85.5184 54.5119 85.876 54.5371 86.2325C54.5624 86.589 54.6683 86.9351 54.8469 87.2446Z" fill="#D4E4F5"/>
<path d="M64.8428 96.3402H58.7424C58.6097 96.3402 58.4784 96.3141 58.3559 96.2633C58.2334 96.2126 58.122 96.1382 58.0282 96.0444C57.9344 95.9506 57.86 95.8393 57.8093 95.7168C57.7585 95.5942 57.7324 95.4629 57.7324 95.3303C57.7324 95.0624 57.8388 94.8055 58.0282 94.6161C58.2176 94.4267 58.4745 94.3203 58.7424 94.3203H64.8428C65.1107 94.3203 65.3675 94.4267 65.5569 94.6161C65.7463 94.8055 65.8527 95.0624 65.8527 95.3303C65.8527 95.4629 65.8266 95.5942 65.7759 95.7168C65.7251 95.8393 65.6507 95.9506 65.5569 96.0444C65.4632 96.1382 65.3518 96.2126 65.2293 96.2633C65.1068 96.3141 64.9754 96.3402 64.8428 96.3402Z" fill="#D4E4F5"/>
<path d="M79.2823 114.12C75.7305 107.057 68.8913 100.204 64.0652 95.3848H59.6458C54.8197 100.211 47.9872 107.057 44.4286 114.12C40.2058 122.505 39.2432 129.215 40.4091 134.394C40.8256 136.132 40.8993 137.935 40.626 139.701C39.6771 145.347 44.0151 147.835 48.4277 147.835C48.9493 147.834 49.4702 147.798 49.9868 147.726C52.2055 147.456 54.4525 147.527 56.6498 147.937C60.1031 148.513 63.6281 148.513 67.0815 147.937C69.2787 147.527 71.5258 147.456 73.7445 147.726C74.2611 147.798 74.782 147.834 75.3035 147.835C79.7365 147.835 84.0542 145.347 83.1053 139.701C82.832 137.935 82.9057 136.132 83.3222 134.394C84.4677 129.215 83.4984 122.505 79.2823 114.12Z" fill="#D4E4F5"/>
<path d="M137.187 97.419H130.985L130.382 96.7412C128.931 95.1686 127.379 92.1659 126.247 89.9629C125.874 89.2377 125.569 88.6073 125.325 88.2277C124.992 87.6525 124.794 87.0094 124.746 86.3466C124.698 85.6838 124.8 85.0186 125.046 84.4013C125.292 83.7839 125.675 83.2305 126.166 82.7826C126.657 82.3347 127.243 82.004 127.881 81.8155C128.38 81.6714 128.906 81.6504 129.415 81.7543C129.924 81.8582 130.4 82.0839 130.802 82.412L131.365 82.8661C131.669 82.4206 132.081 82.0586 132.562 81.8134C133.042 81.5681 133.577 81.4473 134.117 81.4622C134.656 81.477 135.183 81.627 135.65 81.8983C136.117 82.1696 136.508 82.5536 136.787 83.0152L137.269 82.5679C137.679 82.182 138.184 81.9117 138.733 81.7843C139.282 81.6569 139.855 81.677 140.393 81.8426C141.021 82.0411 141.595 82.378 142.075 82.8284C142.555 83.2788 142.927 83.8312 143.164 84.4448C143.402 85.0584 143.499 85.7175 143.447 86.3734C143.396 87.0294 143.198 87.6654 142.867 88.2345C142.644 88.6208 142.318 89.2512 141.939 89.9833C140.807 92.1659 139.261 95.1619 137.811 96.7615L137.187 97.419ZM132.842 93.3521H135.33C136.433 91.6852 137.427 89.9486 138.306 88.1532C138.706 87.3737 139.058 86.7026 139.329 86.2282L138.746 86.7704C138.412 87.0809 138.015 87.317 137.583 87.463C137.151 87.609 136.692 87.6617 136.238 87.6175C135.784 87.5733 135.344 87.4332 134.948 87.2066C134.552 86.9799 134.209 86.6719 133.94 86.3027C133.39 86.9213 132.622 87.3038 131.796 87.3707C130.97 87.4376 130.151 87.1838 129.507 86.6619L128.775 86.0722C128.774 86.1322 128.79 86.1913 128.823 86.2417C129.094 86.7094 129.44 87.3736 129.84 88.1464C130.728 89.9444 131.731 91.6832 132.842 93.3521Z" fill="#4462AC"/>
<path d="M137.08 98.3739H130.98C130.171 98.3739 129.395 98.0525 128.823 97.4805C128.251 96.9084 127.93 96.1326 127.93 95.3236C127.93 94.5147 128.251 93.7388 128.823 93.1668C129.395 92.5948 130.171 92.2734 130.98 92.2734H137.08C137.889 92.2734 138.665 92.5948 139.237 93.1668C139.809 93.7388 140.131 94.5147 140.131 95.3236C140.131 96.1326 139.809 96.9084 139.237 97.4805C138.665 98.0525 137.889 98.3739 137.08 98.3739Z" fill="#4462AC"/>
<path d="M134.091 150.403C132.229 150.406 130.37 150.252 128.533 149.942C126.542 149.565 124.505 149.497 122.494 149.739C121.885 149.821 121.271 149.862 120.657 149.861C117.268 149.861 114.333 148.654 112.557 146.553C111.445 145.238 110.252 142.927 110.849 139.354C111.077 137.849 111.01 136.313 110.652 134.833C109.297 128.733 110.686 121.446 114.841 113.197C118.556 105.822 125.686 98.6715 130.431 93.9402L131.028 93.3438H137.128L137.725 93.9402C142.469 98.685 149.607 105.822 153.314 113.197C157.47 121.453 158.879 128.733 157.503 134.833C157.145 136.313 157.079 137.849 157.307 139.354C157.91 142.927 156.71 145.238 155.599 146.553C153.823 148.654 150.854 149.861 147.499 149.861C146.887 149.861 146.275 149.821 145.669 149.739C143.655 149.495 141.615 149.564 139.622 149.942C137.795 150.25 135.945 150.404 134.091 150.403ZM124.71 145.523C126.222 145.531 127.729 145.667 129.218 145.929C132.445 146.465 135.738 146.465 138.965 145.929C141.366 145.481 143.821 145.405 146.245 145.706C146.669 145.764 147.097 145.793 147.526 145.794C149.661 145.794 151.532 145.116 152.521 143.93C152.937 143.381 153.225 142.746 153.363 142.072C153.502 141.397 153.487 140.7 153.321 140.032C153.002 138.003 153.083 135.93 153.558 133.932C154.718 128.774 153.423 122.409 149.702 115.014C146.428 108.513 139.995 101.939 135.467 97.3903H132.756C128.221 101.932 121.782 108.507 118.522 115.014C114.8 122.402 113.506 128.767 114.665 133.932C115.141 135.93 115.221 138.003 114.902 140.032C114.736 140.7 114.721 141.397 114.86 142.072C114.998 142.746 115.286 143.381 115.702 143.93C116.692 145.096 118.556 145.794 120.698 145.794C121.126 145.794 121.554 145.764 121.979 145.706C122.884 145.586 123.797 145.527 124.71 145.529V145.523Z" fill="#4462AC"/>
<path d="M135.453 137.896C133.645 137.913 131.888 137.299 130.484 136.16C129.79 135.601 129.227 134.895 128.834 134.094C128.442 133.293 128.23 132.416 128.214 131.524C128.214 130.985 128.428 130.468 128.809 130.086C129.191 129.705 129.708 129.491 130.247 129.491C130.786 129.491 131.304 129.705 131.685 130.086C132.066 130.468 132.281 130.985 132.281 131.524C132.295 131.82 132.374 132.11 132.513 132.372C132.651 132.634 132.845 132.863 133.08 133.042C133.768 133.561 134.606 133.84 135.466 133.836C137.188 133.836 138.639 132.765 138.639 131.504C138.639 130.555 137.5 130.013 134.789 129.084C132.077 128.155 128.2 126.82 128.193 122.828C128.206 121.937 128.413 121.06 128.8 120.257C129.188 119.455 129.747 118.748 130.437 118.185C131.841 117.033 133.603 116.409 135.419 116.422C137.227 116.405 138.984 117.019 140.387 118.157C141.082 118.717 141.645 119.423 142.037 120.224C142.43 121.025 142.642 121.902 142.658 122.794C142.658 123.333 142.444 123.85 142.063 124.232C141.681 124.613 141.164 124.827 140.625 124.827C140.085 124.827 139.568 124.613 139.187 124.232C138.805 123.85 138.591 123.333 138.591 122.794C138.577 122.498 138.497 122.208 138.359 121.946C138.221 121.684 138.027 121.455 137.791 121.275C137.113 120.74 136.269 120.46 135.405 120.482C134.543 120.47 133.703 120.755 133.026 121.289C132.792 121.469 132.599 121.698 132.462 121.961C132.325 122.223 132.247 122.512 132.233 122.807C132.233 123.756 133.372 124.299 136.083 125.227C138.795 126.156 142.672 127.491 142.678 131.483C142.678 135.008 139.445 137.882 135.453 137.889V137.896Z" fill="#4462AC"/>
<path d="M135.475 140.996C134.936 140.996 134.418 140.781 134.037 140.4C133.656 140.019 133.441 139.501 133.441 138.962V135.858C133.441 135.318 133.656 134.801 134.037 134.42C134.418 134.038 134.936 133.824 135.475 133.824C136.014 133.824 136.531 134.038 136.913 134.42C137.294 134.801 137.508 135.318 137.508 135.858V138.962C137.508 139.501 137.294 140.019 136.913 140.4C136.531 140.781 136.014 140.996 135.475 140.996Z" fill="#4462AC"/>
<path d="M135.418 120.476C134.879 120.476 134.362 120.262 133.98 119.881C133.599 119.499 133.385 118.982 133.385 118.443V115.338C133.385 114.799 133.599 114.282 133.98 113.9C134.362 113.519 134.879 113.305 135.418 113.305C135.958 113.305 136.475 113.519 136.856 113.9C137.237 114.282 137.452 114.799 137.452 115.338V118.443C137.452 118.982 137.237 119.499 136.856 119.881C136.475 120.262 135.958 120.476 135.418 120.476Z" fill="#4462AC"/>
<path d="M64.9528 97.4181H58.7508L58.1475 96.7403C56.6969 95.1609 55.1447 92.1649 54.0128 89.962C53.64 89.2367 53.3349 88.6064 53.0909 88.2336C52.758 87.6584 52.5599 87.0152 52.5116 86.3524C52.4633 85.6896 52.5661 85.0245 52.8121 84.4071C53.0581 83.7898 53.441 83.2364 53.9319 82.7885C54.4229 82.3406 55.009 82.0099 55.6463 81.8214C56.1452 81.6767 56.6717 81.6554 57.1806 81.7593C57.6895 81.8632 58.1655 82.0892 58.5677 82.4179L59.1303 82.872C59.435 82.4265 59.8465 82.0645 60.3273 81.8192C60.8081 81.5739 61.3428 81.4532 61.8823 81.468C62.4218 81.4829 62.949 81.6328 63.4156 81.9041C63.8821 82.1754 64.2732 82.5595 64.5529 83.0211L65.0342 82.5737C65.4451 82.1885 65.9504 81.9185 66.4991 81.7912C67.0478 81.6638 67.6204 81.6836 68.159 81.8485C68.7863 82.047 69.3609 82.3839 69.8406 82.8343C70.3202 83.2847 70.6925 83.837 70.93 84.4506C71.1675 85.0642 71.2641 85.7234 71.2127 86.3793C71.1613 87.0353 70.9632 87.6712 70.633 88.2403C70.4093 88.6267 70.084 89.2571 69.7044 89.9891C68.5724 92.1717 67.027 95.1677 65.5765 96.7674L64.9528 97.4181ZM60.608 93.3511H63.0956C64.1991 91.6821 65.1931 89.9432 66.0713 88.1454C66.4712 87.3659 66.8236 86.6949 67.0948 86.2204L66.5119 86.7627C66.1775 87.0732 65.781 87.3093 65.3487 87.4553C64.9163 87.6013 64.458 87.654 64.0038 87.6098C63.5496 87.5656 63.1099 87.4255 62.7139 87.1989C62.3178 86.9722 61.9743 86.6642 61.7061 86.295C61.1552 86.9136 60.3872 87.2961 59.5616 87.363C58.736 87.4299 57.9164 87.1761 57.2731 86.6543L56.541 86.0645C56.5395 86.1245 56.556 86.1835 56.5885 86.234C56.8596 86.7017 57.2053 87.3659 57.6052 88.1387C58.493 89.9389 59.496 91.68 60.608 93.3511Z" fill="#4462AC"/>
<path d="M64.844 98.3739H58.7436C57.9346 98.3739 57.1588 98.0525 56.5867 97.4805C56.0147 96.9084 55.6934 96.1326 55.6934 95.3236C55.6934 94.5147 56.0147 93.7388 56.5867 93.1668C57.1588 92.5948 57.9346 92.2734 58.7436 92.2734H64.844C65.653 92.2734 66.4288 92.5948 67.0008 93.1668C67.5728 93.7388 67.8942 94.5147 67.8942 95.3236C67.8942 96.1326 67.5728 96.9084 67.0008 97.4805C66.4288 98.0525 65.653 98.3739 64.844 98.3739Z" fill="#4462AC"/>
<path d="M61.8492 150.403C59.9868 150.406 58.1275 150.252 56.291 149.942C54.3002 149.565 52.2632 149.497 50.2516 149.739C49.6427 149.821 49.029 149.862 48.4147 149.861C45.0256 149.861 42.0906 148.654 40.3147 146.553C39.203 145.238 38.0101 142.927 38.6065 139.354C38.835 137.849 38.7683 136.313 38.41 134.833C37.0543 128.733 38.4439 121.446 42.5989 113.197C46.3134 105.822 53.4441 98.6715 58.1889 93.9402L58.7854 93.3438H64.8858L65.4823 93.9402C70.2271 98.685 77.3646 105.822 81.0723 113.197C85.2273 121.453 86.6372 128.726 85.2612 134.833C84.9148 136.309 84.8573 137.837 85.0918 139.334C85.695 142.906 84.4953 145.218 83.3836 146.533C81.6077 148.634 78.6389 149.84 75.2837 149.84C74.6716 149.841 74.0601 149.8 73.4535 149.718C71.4397 149.475 69.4003 149.543 67.4073 149.922C65.5714 150.238 63.7121 150.399 61.8492 150.403ZM52.4681 145.523C53.9793 145.531 55.4872 145.667 56.9756 145.929C60.2026 146.465 63.4958 146.465 66.7227 145.929C69.1234 145.481 71.5789 145.405 74.0026 145.706C74.4271 145.764 74.8551 145.793 75.2837 145.794C77.4256 145.794 79.2896 145.116 80.2792 143.93C80.6952 143.381 80.9829 142.746 81.1213 142.072C81.2598 141.397 81.2453 140.7 81.0791 140.032C80.7599 138.003 80.8405 135.93 81.3163 133.932C82.4754 128.774 81.1807 122.409 77.4595 115.014C74.1856 108.513 67.7462 101.939 63.2251 97.3903H60.5138C55.9792 101.932 49.5399 108.507 46.2795 115.014C42.5583 122.402 41.2636 128.767 42.4227 133.932C42.8987 135.93 42.9793 138.003 42.66 140.032C42.4937 140.7 42.4793 141.397 42.6177 142.072C42.7561 142.746 43.0438 143.381 43.4598 143.93C44.4494 145.096 46.3134 145.794 48.4554 145.794C48.8839 145.794 49.3119 145.764 49.7365 145.706C50.6442 145.585 51.5591 145.526 52.4749 145.529L52.4681 145.523Z" fill="#4462AC"/>
<path d="M60.5074 137.899C58.6998 137.916 56.9428 137.302 55.539 136.163C54.8446 135.604 54.2814 134.898 53.889 134.097C53.4967 133.296 53.2848 132.419 53.2683 131.527C53.2683 130.988 53.4825 130.471 53.8638 130.089C54.2452 129.708 54.7624 129.494 55.3017 129.494C55.841 129.494 56.3583 129.708 56.7396 130.089C57.121 130.471 57.3352 130.988 57.3352 131.527C57.3498 131.823 57.429 132.113 57.5671 132.375C57.7053 132.637 57.8991 132.866 58.135 133.045C58.812 133.573 59.6492 133.853 60.5074 133.839C61.3696 133.851 62.2097 133.566 62.8866 133.032C63.1213 132.852 63.3138 132.623 63.4508 132.36C63.5878 132.098 63.6659 131.809 63.6796 131.514C63.6796 130.565 62.5409 130.022 59.8296 129.094C57.1183 128.165 53.2412 126.83 53.2344 122.837C53.2344 119.313 56.4676 116.439 60.46 116.432C62.2676 116.415 64.0246 117.028 65.4284 118.167C66.1229 118.727 66.6861 119.432 67.0784 120.233C67.4707 121.034 67.6826 121.912 67.6992 122.804C67.6992 123.343 67.4849 123.86 67.1036 124.241C66.7222 124.623 66.205 124.837 65.6657 124.837C65.1264 124.837 64.6092 124.623 64.2278 124.241C63.8465 123.86 63.6322 123.343 63.6322 122.804C63.6176 122.507 63.5385 122.218 63.4003 121.956C63.2621 121.694 63.0683 121.465 62.8324 121.285C62.1554 120.757 61.3182 120.478 60.46 120.492C58.7315 120.492 57.281 121.563 57.281 122.824C57.281 123.773 58.4198 124.315 61.131 125.244C63.8423 126.172 67.7195 127.508 67.7263 131.5C67.714 132.391 67.5068 133.268 67.1192 134.07C66.7316 134.872 66.173 135.58 65.4827 136.143C64.0787 137.294 62.3161 137.918 60.5006 137.905L60.5074 137.899Z" fill="#4462AC"/>
<path d="M60.5276 140.996C59.9883 140.996 59.4711 140.781 59.0897 140.4C58.7084 140.019 58.4941 139.501 58.4941 138.962V135.858C58.4941 135.318 58.7084 134.801 59.0897 134.42C59.4711 134.038 59.9883 133.824 60.5276 133.824C61.0669 133.824 61.5842 134.038 61.9655 134.42C62.3469 134.801 62.5611 135.318 62.5611 135.858V138.962C62.5611 139.501 62.3469 140.019 61.9655 140.4C61.5842 140.781 61.0669 140.996 60.5276 140.996Z" fill="#4462AC"/>
<path d="M60.4749 120.476C59.9356 120.476 59.4183 120.262 59.037 119.881C58.6556 119.499 58.4414 118.982 58.4414 118.443V115.338C58.4414 114.799 58.6556 114.282 59.037 113.9C59.4183 113.519 59.9356 113.305 60.4749 113.305C61.0142 113.305 61.5314 113.519 61.9128 113.9C62.2941 114.282 62.5084 114.799 62.5084 115.338V118.443C62.5084 118.982 62.2941 119.499 61.9128 119.881C61.5314 120.262 61.0142 120.476 60.4749 120.476Z" fill="#4462AC"/>
<path d="M89.1601 78.2612C90.3192 80.2608 93.017 86.1443 95.1928 88.5031H100.758C102.94 86.1443 105.618 80.2811 106.79 78.2612C107.013 77.877 107.147 77.4476 107.182 77.0048C107.216 76.562 107.151 76.1171 106.991 75.7027C106.831 75.2884 106.58 74.9153 106.257 74.6108C105.934 74.3063 105.546 74.0783 105.123 73.9435C104.876 73.871 104.615 73.8648 104.365 73.9255C104.115 73.9862 103.885 74.1116 103.699 74.2891L102.12 75.76C101.955 75.9133 101.757 76.0274 101.542 76.0937C101.326 76.1599 101.099 76.1768 100.876 76.1429C100.653 76.1091 100.441 76.0253 100.255 75.898C100.069 75.7707 99.9141 75.603 99.802 75.4076L99.1919 74.3434C99.0664 74.1157 98.8839 73.9245 98.6621 73.7887C98.4404 73.653 98.1871 73.5773 97.9272 73.5691C97.6674 73.5609 97.4098 73.6205 97.1799 73.742C96.9501 73.8635 96.7558 74.0427 96.6162 74.262L96.0129 75.1703C95.8978 75.3442 95.7476 75.4921 95.572 75.6046C95.3964 75.7171 95.1992 75.7917 94.9931 75.8236C94.787 75.8555 94.5766 75.844 94.3752 75.7899C94.1738 75.7357 93.9859 75.6402 93.8236 75.5092L92.2103 74.2078C92.0245 74.0537 91.804 73.9472 91.5677 73.8976C91.3315 73.848 91.0868 73.8568 90.8547 73.9231C90.4262 74.0541 90.033 74.2804 89.7044 74.585C89.3758 74.8896 89.1204 75.2647 88.9574 75.682C88.7944 76.0994 88.7279 76.5482 88.763 76.9948C88.7981 77.4415 88.9339 77.8745 89.1601 78.2612Z" fill="#7393CB"/>
<path d="M101.74 89.7126H94.0263C93.6883 89.7126 93.3642 89.5784 93.1252 89.3394C92.8862 89.1005 92.752 88.7763 92.752 88.4383C92.752 88.1004 92.8862 87.7763 93.1252 87.5373C93.3642 87.2983 93.6883 87.1641 94.0263 87.1641H101.74C102.078 87.1641 102.402 87.2983 102.641 87.5373C102.88 87.7763 103.014 88.1004 103.014 88.4383C103.014 88.7763 102.88 89.1005 102.641 89.3394C102.402 89.5784 102.078 89.7126 101.74 89.7126Z" fill="#7393CB"/>
<path d="M119.905 112.093C115.431 103.2 106.823 94.5782 100.749 88.5117H95.1913C89.0909 94.6121 80.5096 103.207 76.036 112.093C70.7218 122.654 69.5085 131.072 70.9726 137.613C71.4957 139.8 71.5878 142.068 71.2437 144.29C70.044 151.4 75.4801 154.532 81.0586 154.532C81.7139 154.531 82.3684 154.486 83.0175 154.396C85.8095 154.056 88.6372 154.145 91.4022 154.661C95.7487 155.386 100.185 155.386 104.532 154.661C107.297 154.145 110.124 154.056 112.916 154.396C113.565 154.486 114.22 154.531 114.875 154.532C120.454 154.532 125.89 151.4 124.69 144.29C124.346 142.068 124.438 139.8 124.961 137.613C126.439 131.093 125.219 122.647 119.905 112.093Z" fill="#7393CB"/>
<path d="M101.643 90.5309H94.2954L93.6921 89.8531C91.9095 87.9213 89.9777 84.1796 88.5678 81.4548C88.0933 80.5397 87.6866 79.7467 87.4019 79.2519C87.0219 78.5968 86.7956 77.8641 86.7401 77.1089C86.6845 76.3537 86.8011 75.5957 87.0811 74.8921C87.3611 74.1885 87.7972 73.5577 88.3565 73.0471C88.9158 72.5366 89.5837 72.1598 90.3098 71.9449C90.8581 71.7904 91.4357 71.7714 91.993 71.8895C92.5503 72.0075 93.0706 72.2592 93.5091 72.6228L94.6614 73.5582L94.9394 73.1379C95.2718 72.636 95.7271 72.2274 96.2619 71.951C96.7967 71.6745 97.3933 71.5394 97.995 71.5584C98.5968 71.5774 99.1836 71.75 99.6999 72.0596C100.216 72.3693 100.645 72.8058 100.945 73.3277L101.223 73.809L102.314 72.799C102.76 72.3819 103.308 72.0886 103.902 71.9483C104.497 71.808 105.118 71.8255 105.703 71.9991C106.418 72.225 107.073 72.6085 107.619 73.1214C108.166 73.6342 108.59 74.2633 108.861 74.9622C109.131 75.6611 109.241 76.4118 109.183 77.159C109.125 77.9062 108.899 78.6307 108.523 79.279C108.231 79.7738 107.845 80.5736 107.344 81.5022C105.934 84.2135 104.009 87.9551 102.226 89.8869L101.643 90.5309ZM96.1459 86.4639H99.8061C101.286 84.2823 102.607 81.9966 103.758 79.6247C104.259 78.6554 104.693 77.8149 105.032 77.232C105.104 77.1142 105.148 76.9811 105.16 76.8434C105.172 76.7058 105.151 76.5673 105.1 76.4389C105.038 76.2797 104.935 76.1395 104.802 76.0322L103.5 77.2455C103.111 77.6081 102.645 77.8779 102.137 78.0351C101.629 78.1922 101.091 78.2326 100.566 78.153C100.04 78.0735 99.5384 77.8763 99.0994 77.5759C98.6604 77.2756 98.2949 76.8799 98.0302 76.4186L97.854 76.1067L97.732 76.2898C97.4601 76.6998 97.1055 77.0485 96.691 77.3135C96.2765 77.5784 95.8111 77.7539 95.3249 77.8285C94.8386 77.9032 94.3421 77.8754 93.8671 77.747C93.3922 77.6186 92.9494 77.3924 92.567 77.0828L91.2113 75.9847C91.053 76.0937 90.9304 76.247 90.8588 76.4253C90.8055 76.5541 90.7833 76.6936 90.7939 76.8326C90.8045 76.9715 90.8476 77.106 90.9198 77.2252C91.252 77.8013 91.6858 78.635 92.1806 79.5976C93.334 81.9782 94.6569 84.2729 96.1391 86.4639H96.1459Z" fill="#4462AC"/>
<path d="M101.74 91.7464H94.0265C93.5922 91.7464 93.162 91.6608 92.7607 91.4946C92.3594 91.3284 91.9947 91.0847 91.6876 90.7776C91.3804 90.4704 91.1368 90.1058 90.9705 89.7044C90.8043 89.3031 90.7188 88.873 90.7188 88.4386C90.7188 88.0042 90.8043 87.5741 90.9705 87.1728C91.1368 86.7715 91.3804 86.4068 91.6876 86.0996C91.9947 85.7925 92.3594 85.5489 92.7607 85.3826C93.162 85.2164 93.5922 85.1309 94.0265 85.1309H101.74C102.617 85.1309 103.459 85.4793 104.079 86.0996C104.699 86.72 105.048 87.5613 105.048 88.4386C105.048 89.3159 104.699 90.1572 104.079 90.7776C103.459 91.3979 102.617 91.7464 101.74 91.7464Z" fill="#4462AC"/>
<path d="M97.9688 157.242C95.6546 157.246 93.3441 157.056 91.0618 156.673C88.501 156.189 85.881 156.102 83.2939 156.415C82.5525 156.516 81.8052 156.566 81.0571 156.565C76.9901 156.565 73.4044 155.114 71.2625 152.586C69.9068 151.02 68.5105 148.248 69.229 143.95C69.5284 141.989 69.4433 139.988 68.9782 138.06C67.2769 130.495 69.0324 121.453 74.2043 111.177C78.8406 101.966 87.8014 93.0049 93.7392 87.0672L94.3357 86.4707H101.588L102.185 87.0672C108.116 92.9982 117.097 101.979 121.72 111.177C126.892 121.453 128.654 130.502 126.946 138.06C126.481 139.988 126.396 141.989 126.695 143.95C127.42 148.248 126.017 151.02 124.662 152.586C122.526 155.114 118.954 156.565 114.867 156.565C114.119 156.566 113.371 156.516 112.63 156.415C110.043 156.103 107.423 156.189 104.862 156.673C102.584 157.055 100.278 157.245 97.9688 157.242ZM86.1611 152.152C88.0338 152.164 89.9022 152.334 91.7464 152.66C95.8664 153.345 100.071 153.345 104.191 152.66C107.16 152.106 110.196 152.012 113.193 152.382C113.75 152.459 114.311 152.497 114.874 152.498C117.721 152.498 120.215 151.549 121.564 149.963C122.682 148.607 123.062 146.845 122.689 144.628C122.3 142.147 122.399 139.615 122.981 137.172C124.472 130.55 122.825 122.423 118.087 113.008C113.891 104.677 105.642 96.2856 99.9074 90.5444H96.0302C90.289 96.2856 82.0399 104.677 77.851 113.008C73.1062 122.423 71.4658 130.55 72.957 137.172C73.538 139.615 73.637 142.147 73.2485 144.628C72.8757 146.845 73.2485 148.634 74.3737 149.963C75.7294 151.549 78.217 152.498 81.0638 152.498C81.6261 152.497 82.1878 152.459 82.7448 152.382C83.8769 152.227 85.0184 152.15 86.1611 152.152Z" fill="#4462AC"/>
<path d="M97.9701 141.199C92.9746 141.199 88.9076 137.661 88.894 133.302C88.894 132.763 89.1083 132.246 89.4897 131.865C89.871 131.483 90.3882 131.269 90.9275 131.269C91.4668 131.269 91.9841 131.483 92.3654 131.865C92.7468 132.246 92.961 132.763 92.961 133.302C92.961 135.424 95.2114 137.146 97.9701 137.146C100.736 137.146 102.979 135.404 102.972 133.275C102.972 131.411 100.817 130.564 97.2787 129.324C93.5236 128.036 88.8534 126.429 88.8398 121.535C88.8472 120.433 89.1006 119.346 89.5813 118.354C90.0621 117.362 90.7582 116.49 91.6189 115.801C93.39 114.351 95.6132 113.566 97.9024 113.585C100.18 113.561 102.395 114.333 104.165 115.767C105.03 116.45 105.731 117.318 106.217 118.306C106.704 119.295 106.964 120.379 106.978 121.481C106.978 122.02 106.764 122.538 106.383 122.919C106.001 123.3 105.484 123.515 104.945 123.515C104.406 123.515 103.888 123.3 103.507 122.919C103.126 122.538 102.911 122.02 102.911 121.481C102.895 120.973 102.765 120.476 102.53 120.025C102.295 119.575 101.962 119.183 101.556 118.878C100.536 118.071 99.2708 117.636 97.9701 117.645C96.6337 117.623 95.3317 118.069 94.2895 118.905C93.8821 119.211 93.5486 119.604 93.3139 120.056C93.0792 120.507 92.9493 121.006 92.9339 121.515C92.9339 123.379 95.0893 124.226 98.6276 125.467C102.383 126.755 107.053 128.361 107.067 133.255C107.067 137.627 103 141.192 98.004 141.206L97.9701 141.199Z" fill="#4462AC"/>
<path d="M98.01 145.401C97.4707 145.401 96.9535 145.187 96.5721 144.806C96.1908 144.424 95.9766 143.907 95.9766 143.368V139.172C95.9766 138.633 96.1908 138.116 96.5721 137.734C96.9535 137.353 97.4707 137.139 98.01 137.139C98.5493 137.139 99.0666 137.353 99.4479 137.734C99.8293 138.116 100.044 138.633 100.044 139.172V143.368C100.044 143.907 99.8293 144.424 99.4479 144.806C99.0666 145.187 98.5493 145.401 98.01 145.401Z" fill="#4462AC"/>
<path d="M97.9358 117.645C97.3965 117.645 96.8793 117.431 96.4979 117.05C96.1166 116.669 95.9023 116.151 95.9023 115.612V111.416C95.9023 110.877 96.1166 110.36 96.4979 109.978C96.8793 109.597 97.3965 109.383 97.9358 109.383C98.4751 109.383 98.9924 109.597 99.3737 109.978C99.7551 110.36 99.9693 110.877 99.9693 111.416V115.612C99.9693 116.151 99.7551 116.669 99.3737 117.05C98.9924 117.431 98.4751 117.645 97.9358 117.645Z" fill="#4462AC"/>
<path d="M80.6857 82.3164C80.551 82.3172 80.4192 82.2778 80.307 82.2034C80.1948 82.129 80.1073 82.0228 80.0557 81.8985C80.0041 81.7741 79.9907 81.6373 80.0172 81.5052C80.0436 81.3732 80.1088 81.2521 80.2044 81.1573L81.7024 79.6864C81.8321 79.5754 81.9989 79.5174 82.1694 79.5239C82.34 79.5305 82.5019 79.6012 82.6226 79.7219C82.7433 79.8427 82.814 80.0045 82.8206 80.1751C82.8272 80.3457 82.7692 80.5125 82.6581 80.6421L81.1805 82.1198C81.1155 82.1843 81.0382 82.2349 80.9532 82.2687C80.8681 82.3025 80.7771 82.3187 80.6857 82.3164Z" fill="#4462AC"/>
<path d="M77.1544 85.8466C77.0198 85.8474 76.888 85.8081 76.7758 85.7336C76.6636 85.6592 76.5761 85.5531 76.5245 85.4287C76.4729 85.3044 76.4594 85.1675 76.4859 85.0355C76.5124 84.9035 76.5776 84.7823 76.6732 84.6875L78.1508 83.2099C78.2805 83.0988 78.4473 83.0408 78.6179 83.0474C78.7885 83.054 78.9503 83.1247 79.071 83.2454C79.1917 83.3661 79.2625 83.528 79.2691 83.6986C79.2756 83.8692 79.2176 84.0359 79.1065 84.1656L77.6357 85.65C77.5723 85.7129 77.4972 85.7626 77.4146 85.7963C77.332 85.83 77.2436 85.8471 77.1544 85.8466Z" fill="#4462AC"/>
<path d="M82.1688 85.8477C82.0796 85.8482 81.9911 85.831 81.9085 85.7973C81.826 85.7636 81.7508 85.7139 81.6875 85.6511L80.2098 84.1734C80.0988 84.0437 80.0408 83.877 80.0474 83.7064C80.054 83.5358 80.1247 83.374 80.2454 83.2532C80.3661 83.1325 80.5279 83.0618 80.6985 83.0552C80.8691 83.0486 81.0359 83.1067 81.1656 83.2177L82.6433 84.6954C82.7388 84.7902 82.804 84.9113 82.8305 85.0433C82.857 85.1753 82.8436 85.3122 82.7919 85.4365C82.7403 85.5609 82.6528 85.667 82.5406 85.7415C82.4284 85.8159 82.2966 85.8552 82.162 85.8544L82.1688 85.8477Z" fill="#4462AC"/>
<path d="M78.6375 82.3164C78.5483 82.3169 78.4599 82.2998 78.3773 82.2661C78.2947 82.2323 78.2196 82.1826 78.1563 82.1198L76.6786 80.6421C76.5676 80.5125 76.5095 80.3457 76.5161 80.1751C76.5227 80.0045 76.5935 79.8427 76.7142 79.7219C76.8349 79.6012 76.9967 79.5305 77.1673 79.5239C77.3379 79.5174 77.5047 79.5754 77.6344 79.6864L79.112 81.1641C79.2076 81.2589 79.2728 81.38 79.2993 81.512C79.3258 81.644 79.3123 81.7809 79.2607 81.9053C79.2091 82.0296 79.1216 82.1357 79.0094 82.2102C78.8972 82.2846 78.7654 82.3239 78.6307 82.3232L78.6375 82.3164Z" fill="#4462AC"/>
<path d="M152.235 166.963H148.168V164.93H152.235V166.963ZM144.779 166.963H140.712V164.93H144.779V166.963ZM137.323 166.963H133.256V164.93H137.323V166.963ZM129.867 166.963H125.8V164.93H129.867V166.963ZM122.411 166.963H118.344V164.93H122.411V166.963ZM114.955 166.963H110.888V164.93H114.955V166.963ZM107.499 166.963H103.432V164.93H107.499V166.963Z" fill="#4462AC"/>
<path d="M99.5283 164.936H41.9199V166.969H99.5283V164.936Z" fill="#4462AC"/>
<path d="M63.475 77.6513H63.4004C63.2217 77.6358 63.0563 77.55 62.9407 77.4128C62.8251 77.2756 62.7686 77.0981 62.7836 76.9193C62.9551 74.9562 63.6213 73.0686 64.7202 71.4328C65.819 69.797 67.3145 68.4664 69.067 67.5653C70.6025 66.7205 72.3118 66.2404 74.0626 66.1622C74.998 63.4509 77.4517 60.909 80.8883 59.289C86.4058 56.6862 95.0616 56.51 101.325 64.5829C101.379 64.6532 101.42 64.7336 101.444 64.8195C101.467 64.9055 101.474 64.9952 101.463 65.0836C101.452 65.172 101.423 65.2575 101.379 65.3349C101.335 65.4124 101.276 65.4805 101.206 65.5352C101.136 65.59 101.055 65.6303 100.969 65.654C100.884 65.6777 100.794 65.6842 100.705 65.6732C100.617 65.6621 100.532 65.6338 100.454 65.5898C100.377 65.5458 100.309 65.4869 100.254 65.4166C94.4855 57.9605 86.5278 58.13 81.4712 60.5159C78.5159 61.9122 76.374 64.027 75.4725 66.2435C76.1528 66.3385 76.8112 66.5518 77.4178 66.8739C79.8987 68.2296 79.7563 69.9309 79.5801 70.6019C79.4005 71.2409 79.016 71.8032 78.4857 72.2024C77.9555 72.6016 77.3088 72.8156 76.6451 72.8117C75.2895 72.8117 74.1982 71.7271 73.7983 69.9784C73.6194 69.1771 73.5918 68.3496 73.7169 67.5382C71.2705 67.7752 68.9807 68.8485 67.2336 70.5771C65.4864 72.3058 64.3887 74.584 64.1257 77.0277C64.1125 77.1934 64.039 77.3484 63.919 77.4633C63.7991 77.5783 63.641 77.6452 63.475 77.6513ZM75.1065 67.5585C74.9754 68.2608 74.9869 68.9823 75.1404 69.6801C75.3979 70.8121 75.947 71.4425 76.6858 71.456C77.0586 71.457 77.4211 71.3335 77.7158 71.1051C78.0105 70.8768 78.2205 70.5565 78.3126 70.1953C78.5159 69.4225 77.9872 68.6431 76.8146 68.0059C76.2809 67.7397 75.701 67.5786 75.1065 67.5314V67.5585Z" fill="#4462AC"/>
<path d="M98.5859 64.543L100.68 64.8074L100.945 62.7129L101.724 63.7161L101.46 65.8105L99.3654 65.5462L98.5859 64.543Z" fill="#4462AC"/>
</svg>
