<svg width="196" height="196" viewBox="0 0 196 196" fill="none" xmlns="http://www.w3.org/2000/svg">
<path d="M97.8568 195.714C151.902 195.714 195.714 151.902 195.714 97.8568C195.714 43.812 151.902 0 97.8568 0C43.812 0 0 43.812 0 97.8568C0 151.902 43.812 195.714 97.8568 195.714Z" fill="#98E2FF"/>
<g clip-path="url(#clip0_549_4105)">
<path d="M128.919 119.406C124.255 126.012 117.609 130.961 109.944 133.538C102.28 136.114 93.9935 136.184 86.2863 133.737C78.579 131.29 71.8506 126.454 67.0756 119.928C62.3005 113.402 59.7266 105.525 59.7266 97.439C59.7266 89.3526 62.3005 81.4762 67.0756 74.9502C71.8506 68.4243 78.579 63.5877 86.2863 61.1408C93.9935 58.694 102.28 58.7638 109.944 61.3404C117.609 63.9169 124.255 68.8663 128.919 75.4718L120.083 75.1632C115.675 70.7465 110.056 67.7367 103.938 66.5147C97.8186 65.2927 91.4747 65.9134 85.7086 68.2983C79.9426 70.6832 75.0137 74.7251 71.5457 79.9124C68.0778 85.0997 66.2267 91.1992 66.2267 97.439C66.2267 103.679 68.0778 109.778 71.5457 114.966C75.0137 120.153 79.9426 124.195 85.7086 126.58C91.4747 128.965 97.8186 129.585 103.938 128.363C110.056 127.141 115.675 124.131 120.083 119.715L128.919 119.406Z" fill="#D4E4F5"/>
<path d="M151.943 31.2411L146.961 36.2227L147.91 37.1715L152.891 32.1899L151.943 31.2411Z" fill="#4462AC"/>
<path d="M150.182 31.8857H152.268V33.979L153.161 33.0934V31H151.067L150.182 31.8857Z" fill="#4462AC"/>
<path d="M163.583 43.9839L159.08 48.4863L160.029 49.4352L164.531 44.9328L163.583 43.9839Z" fill="#4462AC"/>
<path d="M161.816 44.6005H163.91V46.6939L164.795 45.8082V43.7148H162.709L161.816 44.6005Z" fill="#4462AC"/>
<path d="M162.753 31.5769L154.863 39.4668L155.812 40.4157L163.702 32.5258L162.753 31.5769Z" fill="#4462AC"/>
<path d="M160.979 32.1736L163.072 32.1669V34.2603L163.958 33.3746V31.2812H161.871L160.979 32.1736Z" fill="#4462AC"/>
<path d="M133.061 61.2084L129.465 64.8047L130.414 65.7536L134.01 62.1573L133.061 61.2084Z" fill="#4462AC"/>
<path d="M133.243 49.7468L124.082 58.9082L125.031 59.8571L134.192 50.6957L133.243 49.7468Z" fill="#4462AC"/>
<path d="M141.095 66.5027L138.324 69.2734L139.273 70.2223L142.044 67.4516L141.095 66.5027Z" fill="#4462AC"/>
<path d="M163.065 75.4707H110.146V119.405H163.065V75.4707Z" fill="#7393CB"/>
<path d="M165.078 121.419H92.0508V117.393H161.052V77.4847H92.0508V73.459H165.078V121.419Z" fill="#4462AC"/>
<path d="M98.0149 81.4023H83.7168V85.4281H98.0149V81.4023Z" fill="#4462AC"/>
<path d="M98.0149 109.449H83.7168V113.475H98.0149V109.449Z" fill="#4462AC"/>
<path d="M148.908 113.474H125.028V109.448H147.244L153.161 103.53V91.3526L147.244 85.4281H125.021V81.4023H148.908L157.187 89.6819V105.194L148.908 113.474Z" fill="#4462AC"/>
<path d="M111.522 116.909C122.276 116.909 130.993 108.192 130.993 97.438C130.993 86.6843 122.276 77.9668 111.522 77.9668C100.768 77.9668 92.0508 86.6843 92.0508 97.438C92.0508 108.192 100.768 116.909 111.522 116.909Z" fill="#D4E4F5"/>
<path d="M111.521 118.916C107.275 118.916 103.124 117.657 99.593 115.297C96.0622 112.938 93.3102 109.585 91.6851 105.662C90.0601 101.738 89.6349 97.4214 90.4633 93.2565C91.2918 89.0916 93.3367 85.2659 96.3394 82.2632C99.3421 79.2605 103.168 77.2156 107.333 76.3872C111.498 75.5587 115.815 75.9839 119.738 77.609C123.661 79.234 127.014 81.986 129.374 85.5168C131.733 89.0476 132.992 93.1987 132.992 97.4452C132.981 103.136 130.716 108.591 126.692 112.616C122.667 116.64 117.212 118.905 111.521 118.916ZM111.521 80.0004C108.071 80.0004 104.698 81.0235 101.83 82.9403C98.9608 84.8572 96.7248 87.5817 95.4044 90.7694C94.0841 93.957 93.7386 97.4646 94.4117 100.849C95.0848 104.233 96.7463 107.341 99.186 109.781C101.626 112.22 104.734 113.882 108.118 114.555C111.502 115.228 115.01 114.883 118.197 113.562C121.385 112.242 124.109 110.006 126.026 107.137C127.943 104.268 128.966 100.896 128.966 97.4452C128.966 92.8186 127.128 88.3814 123.857 85.1099C120.585 81.8383 116.148 80.0004 111.521 80.0004Z" fill="#4462AC"/>
<path d="M109.951 111.809V108.394C107.955 108.366 105.997 107.848 104.248 106.885L105.201 103.53C106.859 104.527 108.754 105.062 110.689 105.08C112.944 105.08 114.453 103.986 114.453 102.335C114.453 100.685 113.225 99.7322 110.582 98.7794C106.925 97.4375 104.496 95.7199 104.496 92.4791C104.496 89.4531 106.61 87.1115 110.159 86.4405V83.0254H113.044V86.2594C114.733 86.2859 116.394 86.6942 117.902 87.4537L116.956 90.7347C115.491 89.9272 113.845 89.5026 112.172 89.5001C109.71 89.5001 108.817 90.7682 108.817 91.9625C108.817 93.4051 110.085 94.2505 113.111 95.4112C117.05 96.8873 118.774 98.766 118.774 101.953C118.774 104.946 116.701 107.549 112.863 108.18V111.803L109.951 111.809Z" fill="#4462AC" stroke="#4462AC"/>
<path d="M156.234 79.5523L153.758 82.0293L156.605 84.8754L159.081 82.3984L156.234 79.5523Z" fill="#4462AC"/>
<path d="M156.599 110.169L153.752 113.016L156.229 115.492L159.075 112.646L156.599 110.169Z" fill="#4462AC"/>
<path d="M145.74 95.4258H135.689V99.4515H145.74V95.4258Z" fill="#4462AC"/>
<path d="M87.4005 95.4258H77.3496V99.4515H87.4005V95.4258Z" fill="#4462AC"/>
<path d="M97.7797 137.535C90.8964 137.534 84.1291 135.762 78.1293 132.388C72.1295 129.014 67.0992 124.153 63.5227 118.272C59.9463 112.39 57.9441 105.687 57.709 98.8081C57.4738 91.9288 59.0135 85.1048 62.18 78.993C65.3465 72.8813 70.033 67.6876 75.7884 63.912C81.5438 60.1364 88.1743 57.906 95.0415 57.4356C101.909 56.9651 108.781 58.2704 114.998 61.2259C121.214 64.1814 126.566 68.6875 130.536 74.3103L127.302 76.6452C122.885 70.3873 116.591 65.6978 109.331 63.2561C102.071 60.8144 94.2219 60.7471 86.9211 63.064C79.6203 65.381 73.2466 69.9619 68.7232 76.1432C64.1998 82.3245 61.7615 89.7852 61.7615 97.4449C61.7615 105.104 64.1998 112.565 68.7232 118.747C73.2466 124.928 79.6203 129.509 86.9211 131.826C94.2219 134.143 102.071 134.075 109.331 131.634C116.591 129.192 122.885 124.502 127.302 118.245L130.59 120.566C126.876 125.812 121.959 130.091 116.25 133.044C110.541 135.996 104.207 137.536 97.7797 137.535Z" fill="#4462AC"/>
<path d="M73.9274 127.414L67.8262 121.312L60.5388 128.6L66.6401 134.701L73.9274 127.414Z" fill="#7393CB"/>
<path d="M69.9926 138.051L57.1875 125.246L34.7134 147.72L47.5185 160.525L69.9926 138.051Z" fill="#7393CB"/>
<path d="M66.642 137.549L57.6914 128.598L67.8228 118.467L76.7734 127.417L66.642 137.549ZM63.3878 128.598L66.642 131.852L71.0837 127.411L67.8295 124.156L63.3878 128.598Z" fill="#4462AC"/>
<path d="M47.5187 163.373L31.8652 147.719L57.1871 122.404L72.8406 138.058L47.5187 163.373ZM37.5616 147.719L47.5187 157.676L67.1441 138.051L57.1871 128.094L37.5616 147.719Z" fill="#4462AC"/>
<path d="M56.7924 73.459H38.7168V77.4847H56.7924V73.459Z" fill="#4462AC"/>
<path d="M52.0945 85.6484H42.2852V89.6742H52.0945V85.6484Z" fill="#4462AC"/>
<path d="M51.0884 97.8398H31V101.866H51.0884V97.8398Z" fill="#4462AC"/>
<path d="M53.4365 110.025H42.7012V114.051H53.4365V110.025Z" fill="#4462AC"/>
<path d="M97.7801 130.953C92.257 130.965 86.8163 129.614 81.941 127.018C77.0657 124.423 72.9067 120.664 69.833 116.075C66.7594 111.486 64.8662 106.209 64.3217 100.713C63.7771 95.2168 64.5979 89.6711 66.7113 84.5683C68.8247 79.4655 72.1653 74.9635 76.4365 71.4618C80.7077 67.9601 85.7773 65.5671 91.1954 64.4952C96.6136 63.4234 102.213 63.7058 107.495 65.3174C112.778 66.9291 117.581 69.8201 121.478 73.7338L118.633 76.5787C114.507 72.4437 109.247 69.6259 103.519 68.4817C97.7901 67.3376 91.851 67.9186 86.453 70.1512C81.0549 72.3838 76.4405 76.1677 73.1938 81.024C69.9472 85.8802 68.2142 91.5904 68.2142 97.432C68.2142 103.274 69.9472 108.984 73.1938 113.84C76.4405 118.696 81.0549 122.48 86.453 124.713C91.851 126.945 97.7901 127.526 103.519 126.382C109.247 125.238 114.507 122.42 118.633 118.285L121.478 121.13C118.374 124.253 114.681 126.729 110.613 128.415C106.545 130.101 102.183 130.964 97.7801 130.953Z" fill="#4462AC"/>
<path d="M156.288 143.626C155.109 142.521 153.586 141.856 151.974 141.744C150.363 141.631 148.762 142.077 147.441 143.007C146.12 143.937 145.159 145.293 144.722 146.848C144.284 148.403 144.396 150.062 145.038 151.544C145.68 153.027 146.814 154.242 148.247 154.986C149.681 155.731 151.328 155.958 152.91 155.63C154.491 155.302 155.912 154.439 156.932 153.186C157.952 151.934 158.509 150.368 158.509 148.752L156.288 143.626Z" fill="#D4E4F5"/>
<path d="M151.458 156.443C150.202 156.443 148.966 156.136 147.856 155.549C146.746 154.962 145.797 154.112 145.091 153.073C144.385 152.035 143.944 150.84 143.806 149.592C143.668 148.344 143.838 147.081 144.3 145.914C144.762 144.747 145.503 143.71 146.458 142.895C147.412 142.079 148.552 141.51 149.777 141.236C151.003 140.962 152.276 140.992 153.487 141.324C154.698 141.655 155.81 142.278 156.725 143.137C156.789 143.198 156.841 143.27 156.877 143.351C156.914 143.431 156.934 143.518 156.936 143.606C156.939 143.694 156.925 143.782 156.894 143.864C156.862 143.947 156.815 144.023 156.755 144.087C156.695 144.151 156.622 144.203 156.542 144.239C156.461 144.276 156.375 144.296 156.286 144.299C156.198 144.301 156.11 144.287 156.028 144.256C155.945 144.224 155.87 144.177 155.806 144.117C154.739 143.119 153.36 142.519 151.903 142.418C150.445 142.317 148.997 142.722 147.803 143.564C146.609 144.406 145.741 145.634 145.347 147.04C144.952 148.447 145.054 149.947 145.636 151.287C146.218 152.627 147.244 153.726 148.541 154.398C149.839 155.071 151.328 155.275 152.758 154.978C154.189 154.68 155.473 153.899 156.395 152.765C157.316 151.631 157.819 150.214 157.818 148.753C157.818 148.575 157.889 148.405 158.015 148.279C158.141 148.153 158.311 148.082 158.489 148.082C158.667 148.082 158.838 148.153 158.964 148.279C159.09 148.405 159.16 148.575 159.16 148.753C159.157 150.794 158.344 152.75 156.9 154.191C155.455 155.633 153.498 156.443 151.458 156.443Z" fill="#4462AC"/>
<path d="M151.679 152.033C151.591 152.034 151.503 152.017 151.422 151.983C151.34 151.95 151.265 151.901 151.203 151.838L147.546 148.182C147.436 148.053 147.379 147.888 147.385 147.719C147.392 147.551 147.462 147.39 147.581 147.271C147.701 147.151 147.861 147.081 148.03 147.075C148.199 147.068 148.364 147.126 148.492 147.236L151.672 150.416L158.939 143.15C159.067 143.04 159.232 142.982 159.401 142.989C159.57 142.995 159.73 143.065 159.85 143.185C159.969 143.304 160.039 143.464 160.046 143.633C160.052 143.802 159.995 143.967 159.885 144.096L152.129 151.838C152.009 151.958 151.848 152.027 151.679 152.033Z" fill="#4462AC"/>
<path d="M51.55 45.3993C52.181 41.5675 49.5861 37.9496 45.7542 37.3187C41.9224 36.6878 38.3046 39.2827 37.6736 43.1145C37.0427 46.9464 39.6376 50.5642 43.4694 51.1951C47.3013 51.8261 50.9191 49.2312 51.55 45.3993Z" fill="#D4E4F5"/>
<path d="M44.6074 51.9262C44.1824 51.9253 43.7583 51.8894 43.3393 51.8189C41.3899 51.4891 39.6435 50.4186 38.4651 48.8311C37.2866 47.2437 36.7674 45.2622 37.0159 43.3008C37.2644 41.3395 38.2614 39.55 39.7985 38.3066C41.3356 37.0633 43.2938 36.4621 45.2638 36.6289C47.2338 36.7957 49.0631 37.7174 50.3693 39.2015C51.6755 40.6856 52.3575 42.6172 52.2727 44.5924C52.188 46.5676 51.343 48.4336 49.9145 49.8004C48.4859 51.1671 46.5844 51.9288 44.6074 51.9262ZM44.6074 37.8361C43.3933 37.8377 42.205 38.1868 41.183 38.8421C40.1609 39.4973 39.3477 40.4313 38.8394 41.5339C38.3311 42.6365 38.1491 43.8615 38.3146 45.0642C38.4802 46.2669 38.9865 47.3971 39.7738 48.3214C40.561 49.2456 41.5964 49.9252 42.7575 50.2799C43.9186 50.6346 45.1569 50.6496 46.3263 50.3232C47.4956 49.9967 48.5471 49.3424 49.3566 48.4375C50.166 47.5326 50.6996 46.415 50.8942 45.2166C51.1675 43.5529 50.7691 41.8488 49.7865 40.4787C48.8039 39.1086 47.3176 38.1847 45.6541 37.9099C45.2981 37.8648 44.9391 37.849 44.5806 37.863L44.6074 37.8361Z" fill="#4462AC"/>
<path d="M41.1377 48.3504C41.0045 48.3512 40.874 48.3122 40.7629 48.2386C40.6519 48.1649 40.5653 48.0598 40.5142 47.9368C40.4631 47.8137 40.4498 47.6781 40.476 47.5475C40.5022 47.4168 40.5667 47.2969 40.6614 47.2031L47.5722 40.2922C47.7006 40.1823 47.8657 40.1248 48.0345 40.1314C48.2034 40.1379 48.3636 40.2079 48.4831 40.3274C48.6026 40.4469 48.6726 40.6071 48.6791 40.7759C48.6856 40.9448 48.6282 41.1099 48.5183 41.2382L41.6074 48.1491C41.4835 48.2756 41.3147 48.3479 41.1377 48.3504Z" fill="#4462AC"/>
<path d="M42.091 43.7679C41.6929 43.7679 41.3038 43.6499 40.9727 43.4287C40.6417 43.2075 40.3837 42.8932 40.2313 42.5254C40.079 42.1576 40.0391 41.7528 40.1168 41.3624C40.1945 40.9719 40.3862 40.6133 40.6677 40.3318C40.9492 40.0502 41.3079 39.8585 41.6983 39.7809C42.0888 39.7032 42.4935 39.7431 42.8613 39.8954C43.2291 40.0478 43.5435 40.3058 43.7646 40.6368C43.9858 40.9678 44.1039 41.357 44.1039 41.7551C44.1039 42.2889 43.8918 42.8009 43.5143 43.1784C43.1369 43.5559 42.6249 43.7679 42.091 43.7679ZM42.091 41.0841C41.9583 41.0841 41.8286 41.1235 41.7183 41.1972C41.6079 41.2709 41.5219 41.3757 41.4711 41.4983C41.4203 41.6209 41.4071 41.7558 41.433 41.886C41.4588 42.0161 41.5227 42.1357 41.6166 42.2295C41.7104 42.3233 41.83 42.3872 41.9601 42.4131C42.0903 42.439 42.2252 42.4257 42.3478 42.375C42.4704 42.3242 42.5752 42.2382 42.6489 42.1278C42.7226 42.0175 42.762 41.8878 42.762 41.7551C42.7684 41.6631 42.7558 41.5708 42.725 41.4839C42.6942 41.3969 42.6458 41.3173 42.5828 41.25C42.5199 41.1826 42.4437 41.1289 42.3591 41.0923C42.2745 41.0557 42.1832 41.0369 42.091 41.0371V41.0841Z" fill="#4462AC"/>
<path d="M47.0969 48.7542C46.6988 48.7542 46.3096 48.6362 45.9786 48.415C45.6475 48.1939 45.3896 47.8795 45.2372 47.5117C45.0849 47.1439 45.045 46.7391 45.1227 46.3487C45.2003 45.9582 45.392 45.5995 45.6735 45.318C45.9551 45.0365 46.3137 44.8449 46.7042 44.7672C47.0946 44.6895 47.4993 44.7294 47.8671 44.8817C48.2349 45.0341 48.5493 45.2921 48.7705 45.6231C48.9917 45.9541 49.1097 46.3433 49.1097 46.7414C49.1097 47.2752 48.8976 47.7872 48.5202 48.1647C48.1427 48.5422 47.6307 48.7542 47.0969 48.7542ZM47.0969 46.0704C46.9642 46.0704 46.8344 46.1098 46.7241 46.1835C46.6138 46.2572 46.5278 46.362 46.477 46.4846C46.4262 46.6072 46.4129 46.7421 46.4388 46.8722C46.4647 47.0024 46.5286 47.122 46.6224 47.2158C46.7162 47.3096 46.8358 47.3735 46.966 47.3994C47.0961 47.4253 47.231 47.412 47.3536 47.3613C47.4762 47.3105 47.581 47.2245 47.6547 47.1141C47.7284 47.0038 47.7678 46.8741 47.7678 46.7414C47.7714 46.651 47.7568 46.5609 47.7247 46.4764C47.6926 46.3918 47.6437 46.3147 47.581 46.2495C47.5184 46.1843 47.4432 46.1325 47.36 46.0971C47.2768 46.0617 47.1873 46.0435 47.0969 46.0436V46.0704Z" fill="#4462AC"/>
<path d="M120.593 42.9359L105.007 34.7637L104.524 38.2392C90.3881 36.2505 76.0233 39.6829 64.3135 47.8473L57.9395 59.6159C63.6083 53.1843 70.7684 48.2417 78.7919 45.2213C86.8155 42.2009 95.4576 41.195 103.96 42.2918L103.37 46.5524L120.593 42.9359Z" fill="#D4E4F5"/>
<path d="M90.715 153.134L91.3055 148.874L74.082 152.463L89.6683 160.635L90.1514 157.16C104.287 159.149 118.652 155.716 130.362 147.552L136.736 135.783C131.07 142.22 123.911 147.167 115.887 150.192C107.864 153.218 99.2201 154.228 90.715 153.134Z" fill="#D4E4F5"/>
<path d="M64.9032 48.6737L63.7559 47.0164C75.3949 38.9234 89.6058 35.3982 103.678 37.1131L104.221 33.2148L123.551 43.353L103.591 47.5465L103.175 45.5739L117.654 42.5344L105.832 36.3281L105.409 39.3809L104.409 39.24C90.5226 37.3023 76.416 40.6709 64.9032 48.6737Z" fill="#4462AC"/>
<path d="M57.9666 60.6219C57.7735 60.621 57.5847 60.5645 57.4228 60.4593C57.2609 60.354 57.1326 60.2044 57.0534 60.0283C56.9742 59.8522 56.9473 59.6569 56.976 59.4659C57.0047 59.275 57.0877 59.0963 57.2152 58.9512L57.6714 58.4412C57.7553 58.3295 57.8616 58.2364 57.9834 58.168C58.1053 58.0996 58.24 58.0573 58.3791 58.0438C58.5181 58.0303 58.6585 58.0459 58.7912 58.0896C58.924 58.1334 59.0461 58.2042 59.1499 58.2977C59.2537 58.3913 59.3369 58.5054 59.3942 58.6329C59.4515 58.7603 59.4816 58.8983 59.4827 59.038C59.4837 59.1778 59.4557 59.3162 59.4003 59.4445C59.3449 59.5728 59.2634 59.6881 59.161 59.7832L58.7248 60.2729C58.6308 60.3819 58.5144 60.4695 58.3836 60.5297C58.2528 60.5899 58.1106 60.6213 57.9666 60.6219Z" fill="#4462AC"/>
<path d="M61.9302 56.5971C61.7275 56.5959 61.53 56.5336 61.3634 56.4183C61.1967 56.303 61.0688 56.14 60.9963 55.9508C60.9238 55.7616 60.9101 55.5549 60.957 55.3578C61.0039 55.1606 61.1093 54.9822 61.2592 54.8459C61.6171 54.5194 61.9794 54.1973 62.3462 53.8798C62.5481 53.7018 62.8125 53.6114 63.0812 53.6284C63.3498 53.6453 63.6007 53.7684 63.7787 53.9703C63.9566 54.1723 64.047 54.4367 64.03 54.7053C64.013 54.974 63.89 55.2249 63.6881 55.4028C63.3347 55.707 62.9858 56.0156 62.6414 56.3287C62.4485 56.5077 62.1932 56.6041 61.9302 56.5971ZM66.9154 52.5714C66.7024 52.571 66.4949 52.503 66.323 52.3773C66.1511 52.2515 66.0235 52.0744 65.9586 51.8716C65.8937 51.6687 65.8949 51.4504 65.9619 51.2482C66.0289 51.046 66.1584 50.8703 66.3316 50.7464C66.7253 50.4646 67.1234 50.1895 67.5259 49.9211C67.7475 49.7835 68.0138 49.7373 68.2688 49.7922C68.5238 49.8471 68.7475 49.9988 68.8928 50.2155C69.0381 50.4321 69.0936 50.6967 69.0477 50.9534C69.0017 51.2102 68.8579 51.439 68.6465 51.5918C68.2618 51.8512 67.8793 52.1152 67.4991 52.3835C67.3298 52.5082 67.1256 52.5762 66.9154 52.5781V52.5714ZM72.3501 49.2166C72.1257 49.2177 71.9073 49.1438 71.7296 49.0066C71.552 48.8693 71.4254 48.6766 71.3699 48.4592C71.3144 48.2417 71.3331 48.0119 71.4232 47.8063C71.5133 47.6007 71.6695 47.4311 71.867 47.3245C72.292 47.0919 72.7191 46.8682 73.1485 46.6535C73.387 46.5325 73.6638 46.5112 73.918 46.5943C74.1721 46.6773 74.3829 46.8579 74.5039 47.0964C74.6249 47.3348 74.6462 47.6116 74.5632 47.8658C74.4801 48.1199 74.2995 48.3307 74.0611 48.4517C73.6451 48.6619 73.2335 48.8856 72.8265 49.1227C72.6755 49.1835 72.512 49.2065 72.3501 49.1898V49.2166ZM78.1539 46.5328C77.9182 46.5346 77.6893 46.4536 77.5072 46.304C77.3251 46.1543 77.2012 45.9455 77.1573 45.7139C77.1134 45.4823 77.1521 45.2427 77.2668 45.0367C77.3815 44.8308 77.5649 44.6716 77.7849 44.587C78.2322 44.4081 78.6795 44.2381 79.1268 44.0771C79.372 44.0098 79.6335 44.0377 79.8589 44.1554C80.0843 44.273 80.2569 44.4716 80.3418 44.7112C80.4268 44.9509 80.418 45.2138 80.317 45.4471C80.2161 45.6805 80.0306 45.867 79.7978 45.9692C79.3504 46.1258 78.9166 46.289 78.4961 46.459C78.3848 46.4898 78.269 46.5012 78.1539 46.4925V46.5328ZM84.2462 44.5602C83.9793 44.5931 83.7102 44.5186 83.4982 44.3531C83.2861 44.1877 83.1486 43.9448 83.1156 43.6779C83.0827 43.4109 83.1572 43.1419 83.3226 42.9299C83.4881 42.7178 83.731 42.5802 83.9979 42.5473L85.4069 42.2051C85.5383 42.1676 85.6759 42.1573 85.8114 42.1747C85.9469 42.1921 86.0774 42.2369 86.1951 42.3064C86.3127 42.3759 86.4149 42.4686 86.4955 42.5789C86.5762 42.6891 86.6335 42.8147 86.664 42.9478C86.6946 43.081 86.6977 43.219 86.6732 43.3533C86.6487 43.4877 86.5972 43.6157 86.5216 43.7295C86.4461 43.8433 86.3481 43.9406 86.2338 44.0153C86.1194 44.0901 85.991 44.1408 85.8565 44.1643L84.5146 44.4931C84.4242 44.5123 84.3317 44.5191 84.2395 44.5132L84.2462 44.5602ZM90.5331 43.3457C90.4009 43.3541 90.2683 43.3364 90.143 43.2935C90.0177 43.2507 89.9021 43.1836 89.8027 43.096C89.602 42.9193 89.4798 42.67 89.4629 42.4031C89.446 42.1361 89.5358 41.8734 89.7126 41.6727C89.8894 41.472 90.1387 41.3498 90.4056 41.3329C90.8842 41.2702 91.365 41.2143 91.8481 41.1651C92.1135 41.1406 92.378 41.2209 92.585 41.389C92.7919 41.557 92.9248 41.7994 92.9552 42.0642C92.9691 42.196 92.9569 42.3292 92.9192 42.4563C92.8815 42.5833 92.8192 42.7016 92.7356 42.8045C92.6521 42.9073 92.5491 42.9927 92.4324 43.0556C92.3158 43.1186 92.1879 43.1579 92.0561 43.1713L90.6673 43.3323L90.5331 43.3457ZM98.343 42.923H97.2694H96.9407C96.6738 42.923 96.4178 42.817 96.229 42.6283C96.0403 42.4395 95.9342 42.1835 95.9342 41.9166C95.9342 41.6497 96.0403 41.3937 96.229 41.2049C96.4178 41.0162 96.6738 40.9102 96.9407 40.9102H97.2762H98.3899C98.6569 40.9102 98.9129 41.0162 99.1016 41.2049C99.2903 41.3937 99.3964 41.6497 99.3964 41.9166C99.3964 42.1835 99.2903 42.4395 99.1016 42.6283C98.9129 42.817 98.6569 42.923 98.3899 42.923H98.343Z" fill="#4462AC"/>
<path d="M103.986 43.3053H103.852L103.181 43.2248C102.914 43.1936 102.67 43.0577 102.504 42.847C102.337 42.6362 102.261 42.3679 102.292 42.1009C102.323 41.834 102.459 41.5904 102.67 41.4237C102.881 41.2569 103.149 41.1808 103.416 41.2119L104.087 41.2924C104.354 41.3093 104.603 41.4316 104.78 41.6323C104.957 41.833 105.046 42.0957 105.029 42.3626C105.013 42.6295 104.89 42.8788 104.69 43.0556C104.489 43.2324 104.226 43.3222 103.959 43.3053H103.986Z" fill="#4462AC"/>
<path d="M90.399 162.333L71.1426 152.047L91.1371 148.021L91.533 149.994L77.0336 152.926L88.8223 159.22L89.2718 156.174L90.2716 156.321C104.146 158.371 118.283 155.11 129.858 147.189L130.992 148.853C119.291 156.855 105.055 160.272 90.9962 158.455L90.399 162.333Z" fill="#4462AC"/>
<path d="M136.918 137.219C136.724 137.219 136.533 137.163 136.37 137.058C136.207 136.952 136.078 136.801 135.998 136.624C135.919 136.447 135.892 136.25 135.922 136.058C135.952 135.866 136.037 135.687 136.166 135.542L136.603 135.045C136.781 134.843 137.031 134.72 137.3 134.703C137.569 134.686 137.833 134.777 138.035 134.955C138.237 135.133 138.36 135.383 138.377 135.652C138.394 135.921 138.304 136.185 138.126 136.387L137.676 136.897C137.58 137.001 137.462 137.084 137.332 137.14C137.201 137.195 137.06 137.222 136.918 137.219Z" fill="#4462AC"/>
<path d="M97.1093 154.745L95.801 154.712C95.6688 154.707 95.539 154.675 95.4189 154.62C95.2988 154.564 95.1908 154.486 95.1011 154.389C95.0114 154.291 94.9417 154.178 94.896 154.053C94.8503 153.929 94.8295 153.797 94.8348 153.665C94.8401 153.533 94.8713 153.403 94.9268 153.283C94.9823 153.163 95.0608 153.055 95.158 152.965C95.2552 152.876 95.3692 152.806 95.4933 152.76C95.6174 152.715 95.7493 152.694 95.8815 152.699H97.1362C97.4031 152.699 97.6591 152.805 97.8478 152.994C98.0366 153.183 98.1426 153.438 98.1426 153.705C98.1426 153.972 98.0366 154.228 97.8478 154.417C97.6591 154.606 97.4031 154.712 97.1362 154.712L97.1093 154.745ZM101.585 154.611C101.452 154.616 101.321 154.595 101.197 154.549C101.073 154.503 100.959 154.433 100.862 154.343C100.765 154.253 100.687 154.144 100.632 154.024C100.577 153.904 100.546 153.774 100.541 153.642C100.536 153.51 100.558 153.378 100.604 153.254C100.65 153.13 100.72 153.016 100.81 152.919C100.9 152.822 101.008 152.744 101.128 152.689C101.249 152.634 101.379 152.603 101.511 152.598L102.759 152.491C103.026 152.465 103.292 152.547 103.499 152.717C103.706 152.888 103.837 153.133 103.863 153.4C103.888 153.667 103.807 153.933 103.637 154.14C103.466 154.347 103.22 154.478 102.953 154.504L101.652 154.611H101.585ZM107.294 153.88C107.162 153.892 107.029 153.878 106.902 153.838C106.776 153.798 106.658 153.734 106.556 153.649C106.454 153.564 106.37 153.46 106.309 153.342C106.247 153.225 106.209 153.096 106.197 152.964C106.186 152.832 106.2 152.699 106.239 152.572C106.279 152.445 106.343 152.328 106.428 152.226C106.513 152.124 106.618 152.04 106.735 151.978C106.853 151.917 106.981 151.879 107.113 151.867L108.348 151.625C108.477 151.598 108.611 151.597 108.741 151.621C108.871 151.645 108.995 151.695 109.106 151.767C109.217 151.84 109.313 151.933 109.388 152.042C109.462 152.151 109.515 152.274 109.542 152.404C109.57 152.533 109.571 152.667 109.547 152.797C109.522 152.927 109.473 153.051 109.4 153.162C109.328 153.273 109.235 153.369 109.125 153.443C109.016 153.518 108.893 153.571 108.764 153.598L107.482 153.853L107.294 153.88ZM112.89 152.538C112.647 152.54 112.412 152.453 112.228 152.295C112.044 152.137 111.923 151.917 111.888 151.677C111.852 151.437 111.905 151.192 112.037 150.988C112.168 150.783 112.369 150.633 112.602 150.565L113.803 150.19C114.056 150.106 114.333 150.126 114.571 150.247C114.81 150.367 114.991 150.577 115.074 150.83C115.158 151.084 115.137 151.36 115.017 151.599C114.897 151.837 114.687 152.018 114.433 152.102L113.212 152.464C113.119 152.496 113.022 152.514 112.924 152.518L112.89 152.538ZM118.305 150.572C118.073 150.572 117.848 150.492 117.668 150.346C117.488 150.199 117.364 149.995 117.317 149.768C117.271 149.54 117.304 149.304 117.412 149.098C117.52 148.893 117.695 148.731 117.909 148.64L119.056 148.13C119.177 148.07 119.309 148.035 119.444 148.027C119.578 148.02 119.713 148.039 119.84 148.084C119.967 148.13 120.084 148.2 120.183 148.291C120.283 148.383 120.363 148.493 120.418 148.616C120.474 148.739 120.505 148.872 120.508 149.006C120.512 149.141 120.488 149.276 120.438 149.401C120.389 149.527 120.315 149.641 120.22 149.737C120.126 149.833 120.013 149.91 119.888 149.962L118.694 150.492C118.58 150.533 118.46 150.554 118.338 150.552L118.305 150.572ZM123.471 148.029C123.248 148.031 123.03 147.958 122.853 147.822C122.676 147.686 122.549 147.495 122.492 147.279C122.435 147.063 122.451 146.834 122.539 146.629C122.626 146.423 122.78 146.253 122.975 146.144L124.062 145.513C124.291 145.382 124.562 145.347 124.818 145.415C125.073 145.482 125.291 145.647 125.426 145.874C125.56 146.101 125.6 146.372 125.537 146.628C125.474 146.884 125.313 147.106 125.088 147.244L123.961 147.915C123.818 147.979 123.662 148.009 123.505 148.002L123.471 148.029ZM128.329 144.929C128.115 144.93 127.907 144.863 127.734 144.738C127.561 144.613 127.432 144.436 127.366 144.233C127.301 144.029 127.301 143.811 127.368 143.608C127.435 143.405 127.565 143.229 127.739 143.104L128.752 142.36C128.854 142.267 128.975 142.197 129.106 142.153C129.237 142.109 129.376 142.093 129.513 142.105C129.651 142.117 129.785 142.158 129.906 142.224C130.027 142.29 130.134 142.38 130.219 142.489C130.304 142.598 130.365 142.723 130.4 142.857C130.434 142.991 130.441 143.13 130.419 143.266C130.397 143.403 130.347 143.533 130.273 143.65C130.198 143.766 130.101 143.866 129.986 143.943C129.637 144.207 129.286 144.464 128.933 144.715C128.767 144.836 128.568 144.904 128.363 144.909L128.329 144.929ZM132.818 141.32C132.614 141.32 132.414 141.258 132.246 141.142C132.078 141.027 131.949 140.863 131.876 140.672C131.803 140.481 131.79 140.273 131.838 140.075C131.887 139.876 131.994 139.697 132.147 139.562L133.073 138.71C133.168 138.616 133.281 138.542 133.406 138.492C133.53 138.442 133.663 138.418 133.797 138.42C133.931 138.422 134.063 138.452 134.186 138.506C134.308 138.56 134.419 138.638 134.511 138.735C134.603 138.832 134.674 138.947 134.721 139.073C134.768 139.198 134.79 139.332 134.785 139.465C134.78 139.599 134.748 139.731 134.691 139.852C134.634 139.974 134.554 140.082 134.455 140.172C134.137 140.472 133.817 140.767 133.495 141.058C133.316 141.212 133.088 141.297 132.851 141.299L132.818 141.32Z" fill="#4462AC"/>
<path d="M91.372 154.342H91.2445L90.5736 154.255C90.3066 154.218 90.0651 154.077 89.9022 153.863C89.7392 153.648 89.6682 153.378 89.7047 153.111C89.7412 152.844 89.8822 152.602 90.0967 152.439C90.3112 152.276 90.5817 152.205 90.8486 152.242L91.5196 152.329C91.7865 152.345 92.0361 152.466 92.2136 152.666C92.391 152.867 92.4817 153.129 92.4657 153.396C92.4496 153.663 92.3282 153.912 92.1282 154.09C91.9281 154.267 91.6657 154.358 91.3988 154.342H91.372Z" fill="#4462AC"/>
<path d="M146.573 55.0938H133.838V58.0325H146.573V55.0938Z" fill="#4462AC"/>
<path d="M141.675 50.1953H138.736V62.9301H141.675V50.1953Z" fill="#4462AC"/>
<path d="M151.939 45.1699H140.613V47.686H151.939V45.1699Z" fill="#4462AC"/>
<path d="M147.532 40.7695H145.016V52.0953H147.532V40.7695Z" fill="#4462AC"/>
<path d="M157.703 53.041H149.49V55.5571H157.703V53.041Z" fill="#4462AC"/>
<path d="M154.858 50.1953H152.342V58.4078H154.858V50.1953Z" fill="#4462AC"/>
<path d="M152.041 60.8711H146.002V62.5485H152.041V60.8711Z" fill="#4462AC"/>
<path d="M149.859 58.6895H148.182V64.7281H149.859V58.6895Z" fill="#4462AC"/>
<path d="M140.338 41.4805H133.77V43.1579H140.338V41.4805Z" fill="#4462AC"/>
<path d="M137.89 39.0371H136.213V45.6058H137.89V39.0371Z" fill="#4462AC"/>
</g>
<defs>
<clipPath id="clip0_549_4105">
<rect width="134.077" height="132.373" fill="white" transform="translate(31 31)"/>
</clipPath>
</defs>
</svg>
