<svg width="196" height="196" viewBox="0 0 196 196" fill="none" xmlns="http://www.w3.org/2000/svg">
<path d="M97.8568 195.714C151.902 195.714 195.714 151.902 195.714 97.8568C195.714 43.812 151.902 0 97.8568 0C43.812 0 0 43.812 0 97.8568C0 151.902 43.812 195.714 97.8568 195.714Z" fill="#B4F5C9"/>
<path d="M142.209 103.688C135.422 103.688 129.92 105.752 129.92 108.307V145.891C129.92 148.441 135.422 150.51 142.209 150.51C148.996 150.51 154.498 148.446 154.498 145.891V108.307C154.493 105.752 148.996 103.688 142.209 103.688Z" fill="#D4E4F5"/>
<path d="M142.21 151.726C135.5 151.726 128.703 149.718 128.703 145.883V140.516H131.144V145.883C131.144 147.236 135.557 149.279 142.21 149.279C148.863 149.279 153.276 147.215 153.276 145.883V140.516H155.717V145.883C155.717 149.723 148.92 151.726 142.21 151.726Z" fill="#5834AD"/>
<path d="M142.21 146.359C135.5 146.359 128.703 144.352 128.703 140.522V135.17H131.144V140.538C131.144 141.89 135.557 143.934 142.21 143.934C148.863 143.934 153.276 141.869 153.276 140.538V135.17H155.717V140.538C155.717 144.357 148.92 146.359 142.21 146.359Z" fill="#5834AD"/>
<path d="M142.21 140.991C135.5 140.991 128.703 138.984 128.703 135.149V129.781H131.144V135.17C131.144 136.522 135.557 138.566 142.21 138.566C148.863 138.566 153.276 136.501 153.276 135.17V129.802H155.717V135.17C155.717 138.984 148.92 140.991 142.21 140.991Z" fill="#5834AD"/>
<path d="M142.21 135.622C135.5 135.622 128.703 133.615 128.703 129.78V124.412H131.144V129.78C131.144 131.132 135.557 133.176 142.21 133.176C148.863 133.176 153.276 131.111 153.276 129.78V124.412H155.717V129.78C155.717 133.62 148.92 135.622 142.21 135.622Z" fill="#5834AD"/>
<path d="M142.21 130.253C135.5 130.253 128.703 128.245 128.703 124.411V119.043H131.144V124.411C131.144 125.763 135.557 127.807 142.21 127.807C148.863 127.807 153.276 125.742 153.276 124.411V119.043H155.717V124.411C155.717 128.251 148.92 130.253 142.21 130.253Z" fill="#4462AC"/>
<path d="M142.21 124.884C135.5 124.884 128.703 122.876 128.703 119.041V113.674H131.144V119.041C131.144 120.394 135.557 122.438 142.21 122.438C148.863 122.438 153.276 120.373 153.276 119.041V113.674H155.717V119.041C155.717 122.876 148.92 124.884 142.21 124.884Z" fill="#4462AC"/>
<path d="M142.21 119.517C135.5 119.517 128.703 117.509 128.703 113.674V108.307H131.144V113.674C131.144 115.027 135.557 117.07 142.21 117.07C148.863 117.07 153.276 115.006 153.276 113.674V108.307H155.717V113.674C155.717 117.509 148.92 119.517 142.21 119.517Z" fill="#4462AC"/>
<path d="M142.21 114.144C135.5 114.144 128.703 112.136 128.703 108.302C128.703 104.467 135.5 102.459 142.21 102.459C148.92 102.459 155.717 104.467 155.717 108.302C155.717 112.136 148.92 114.144 142.21 114.144ZM142.21 104.905C135.557 104.905 131.144 106.97 131.144 108.302C131.144 109.633 135.557 111.698 142.21 111.698C148.863 111.698 153.276 109.633 153.276 108.302C153.276 106.97 148.863 104.905 142.21 104.905Z" fill="#4462AC"/>
<path d="M129.937 122.721C123.15 122.721 117.648 124.785 117.648 127.34V154.178C117.648 156.728 123.15 158.798 129.937 158.798C136.724 158.798 142.226 156.733 142.226 154.178V127.34C142.211 124.79 136.709 122.721 129.937 122.721Z" fill="#D4E4F5"/>
<path d="M129.935 160.027C123.225 160.027 116.428 158.019 116.428 154.184V148.816H118.869V154.184C118.869 155.536 123.282 157.58 129.935 157.58C136.587 157.58 141 155.516 141 154.184V148.816H143.442V154.184C143.426 158.019 136.644 160.027 129.935 160.027Z" fill="#4462AC"/>
<path d="M129.935 154.659C123.225 154.659 116.428 152.651 116.428 148.816V143.428H118.869V148.795C118.869 150.148 123.282 152.192 129.935 152.192C136.587 152.192 141 150.127 141 148.795V143.428H143.442V148.795C143.426 152.651 136.644 154.659 129.935 154.659Z" fill="#4462AC"/>
<path d="M129.935 149.284C123.225 149.284 116.428 147.277 116.428 143.442V138.074H118.869V143.426C118.869 144.779 123.282 146.822 129.935 146.822C136.587 146.822 141 144.758 141 143.426V138.059H143.442V143.426C143.426 147.282 136.644 149.284 129.935 149.284Z" fill="#4462AC"/>
<path d="M129.935 143.918C123.225 143.918 116.428 141.91 116.428 138.081V132.713H118.869V138.081C118.869 139.433 123.282 141.477 129.935 141.477C136.587 141.477 141 139.412 141 138.081V132.713H143.442V138.081C143.426 141.91 136.644 143.918 129.935 143.918Z" fill="#4462AC"/>
<path d="M129.935 138.552C123.225 138.552 116.428 136.544 116.428 132.709V127.342H118.869V132.709C118.869 134.062 123.282 136.106 129.935 136.106C136.587 136.106 141 134.041 141 132.709V127.342H143.442V132.709C143.426 136.544 136.644 138.552 129.935 138.552Z" fill="#4462AC"/>
<path d="M129.935 133.178C123.225 133.178 116.428 131.17 116.428 127.335C116.428 123.501 123.225 121.498 129.935 121.498C136.644 121.498 143.442 123.506 143.442 127.341C143.442 131.175 136.644 133.178 129.935 133.178ZM129.935 123.939C123.282 123.939 118.869 126.004 118.869 127.335C118.869 128.667 123.282 130.731 129.935 130.731C136.587 130.731 141 128.667 141 127.335C141 126.004 136.572 123.939 129.935 123.939Z" fill="#4462AC"/>
<path d="M154.492 117.184C147.705 117.184 142.203 119.248 142.203 121.803V159.387C142.203 161.937 147.705 164.006 154.492 164.006C161.279 164.006 166.781 161.942 166.781 159.387V121.803C166.781 119.253 161.279 117.184 154.492 117.184Z" fill="#D4E4F5"/>
<path d="M154.493 165.23C147.784 165.23 140.986 163.222 140.986 159.387V154.02H143.428V159.387C143.428 160.739 147.84 162.783 154.493 162.783C161.146 162.783 165.559 160.719 165.559 159.387V154.02H168V159.387C168.005 163.222 161.208 165.23 154.493 165.23Z" fill="#4462AC"/>
<path d="M154.493 159.863C147.784 159.863 140.986 157.855 140.986 154.02V148.652H143.428V154.02C143.428 155.372 147.84 157.416 154.493 157.416C161.146 157.416 165.559 155.352 165.559 154.02V148.652H168V154.02C168.005 157.855 161.208 159.863 154.493 159.863Z" fill="#4462AC"/>
<path d="M154.493 154.488C147.784 154.488 140.986 152.48 140.986 148.645V143.277H143.428V148.645C143.428 149.997 147.84 152.041 154.493 152.041C161.146 152.041 165.559 149.977 165.559 148.645V143.277H168V148.645C168.005 152.485 161.208 154.488 154.493 154.488Z" fill="#4462AC"/>
<path d="M154.493 149.107C147.784 149.107 140.986 147.099 140.986 143.264V137.896H143.428V143.264C143.428 144.616 147.84 146.66 154.493 146.66C161.146 146.66 165.559 144.596 165.559 143.264V137.896H168V143.264C168.005 147.114 161.208 149.107 154.493 149.107Z" fill="#4462AC"/>
<path d="M154.493 143.753C147.784 143.753 140.986 141.745 140.986 137.911V132.543H143.428V137.911C143.428 139.263 147.84 141.307 154.493 141.307C161.146 141.307 165.559 139.242 165.559 137.911V132.543H168V137.911C168.005 141.745 161.208 143.753 154.493 143.753Z" fill="#4462AC"/>
<path d="M154.493 138.386C147.784 138.386 140.986 136.378 140.986 132.543V127.176H143.428V132.543C143.428 133.896 147.84 135.94 154.493 135.94C161.146 135.94 165.559 133.875 165.559 132.543V127.176H168V132.543C168.005 136.378 161.208 138.386 154.493 138.386Z" fill="#4462AC"/>
<path d="M154.493 133.015C147.784 133.015 140.986 131.007 140.986 127.172V121.805H143.428V127.172C143.428 128.525 147.84 130.568 154.493 130.568C161.146 130.568 165.559 128.504 165.559 127.172V121.805H168V127.172C168.005 131.007 161.208 133.015 154.493 133.015Z" fill="#4462AC"/>
<path d="M154.493 127.646C147.784 127.646 140.986 125.638 140.986 121.803C140.986 117.969 147.784 115.961 154.493 115.961C161.203 115.961 168 117.969 168 121.803C168 125.638 161.208 127.646 154.493 127.646ZM154.493 118.407C147.84 118.407 143.428 120.472 143.428 121.803C143.428 123.135 147.84 125.2 154.493 125.2C161.146 125.2 165.559 123.135 165.559 121.803C165.559 120.472 161.146 118.407 154.493 118.407Z" fill="#4462AC"/>
<path d="M98.0099 59.8182L95.207 62.6211L96.9333 64.3473L99.7361 61.5445L98.0099 59.8182Z" fill="#4462AC"/>
<path d="M91.3265 66.5055L88.5273 69.3047L90.2536 71.0309L93.0528 68.2317L91.3265 66.5055Z" fill="#4462AC"/>
<path d="M96.9333 66.5081L95.207 68.2344L98.0099 71.0372L99.7361 69.311L96.9333 66.5081Z" fill="#4462AC"/>
<path d="M90.2519 59.8268L88.5254 61.5527L91.3241 64.3524L93.0506 62.6265L90.2519 59.8268Z" fill="#4462AC"/>
<path d="M118.984 89.3164H69.2709C67.6176 89.3164 66.2773 90.6566 66.2773 92.3099V161.016C66.2773 162.669 67.6176 164.01 69.2709 164.01H118.984C120.637 164.01 121.977 162.669 121.977 161.016V92.3099C121.977 90.6566 120.637 89.3164 118.984 89.3164Z" fill="#D4E4F5"/>
<path d="M85.0888 110.512H67.0039V128.344H85.0888V110.512Z" fill="#D4E4F5"/>
<path d="M121.31 90.4785H67.0039V108.047H121.31V90.4785Z" fill="#7393CB"/>
<path d="M103.038 128.414H84.9531V146.246H103.038V128.414Z" fill="#D4E4F5"/>
<path d="M121.312 110.512H103.227V128.344H121.312V110.512Z" fill="#D4E4F5"/>
<path d="M121.313 146.32H85.0918V163.084H121.313V146.32Z" fill="#D4E4F5"/>
<path d="M117.262 166.45H71.0017C69.1021 166.449 67.2808 165.694 65.9376 164.35C64.5945 163.007 63.8393 161.186 63.8379 159.286V94.0329C63.8393 92.1334 64.5945 90.312 65.9376 88.9689C67.2808 87.6257 69.1021 86.8705 71.0017 86.8691H117.262C119.161 86.8705 120.983 87.6257 122.326 88.9689C123.669 90.312 124.424 92.1334 124.426 94.0329V159.286C124.424 161.186 123.669 163.007 122.326 164.35C120.983 165.694 119.161 166.449 117.262 166.45ZM71.0017 91.7517C70.3984 91.753 69.8203 91.9933 69.3937 92.4198C68.9672 92.8464 68.7269 93.4245 68.7256 94.0278V159.286C68.7269 159.89 68.9672 160.468 69.3937 160.894C69.8203 161.321 70.3984 161.561 71.0017 161.562H117.262C117.865 161.561 118.443 161.321 118.87 160.894C119.296 160.468 119.536 159.89 119.538 159.286V94.0329C119.536 93.4297 119.296 92.8515 118.87 92.425C118.443 91.9984 117.865 91.7582 117.262 91.7568L71.0017 91.7517Z" fill="#4462AC"/>
<path d="M75.9655 124.775C75.5877 124.775 75.2254 124.625 74.9582 124.358C74.6911 124.091 74.541 123.729 74.541 123.351C74.5396 122.97 74.6884 122.604 74.9552 122.333C75.2219 122.061 75.5849 121.906 75.9655 121.901C76.1512 121.898 76.3355 121.932 76.5079 122.001C76.6803 122.07 76.8372 122.172 76.9697 122.303C77.1022 122.433 77.2076 122.588 77.2797 122.759C77.3519 122.93 77.3894 123.114 77.39 123.299V123.346C77.3907 123.533 77.3544 123.719 77.2831 123.892C77.2118 124.066 77.107 124.223 76.9746 124.356C76.8423 124.489 76.685 124.595 76.5118 124.666C76.3387 124.738 76.153 124.775 75.9655 124.775Z" fill="#4462AC"/>
<path d="M75.9655 117.721C75.5877 117.721 75.2254 117.571 74.9582 117.303C74.6911 117.036 74.541 116.674 74.541 116.296C74.5396 115.916 74.6884 115.55 74.9552 115.278C75.2219 115.007 75.5849 114.851 75.9655 114.846C76.1512 114.843 76.3355 114.877 76.5079 114.946C76.6803 115.015 76.8372 115.118 76.9697 115.248C77.1022 115.378 77.2076 115.533 77.2797 115.704C77.3519 115.875 77.3894 116.059 77.39 116.245V116.291C77.3907 116.479 77.3544 116.664 77.2831 116.838C77.2118 117.011 77.107 117.169 76.9746 117.302C76.8423 117.434 76.685 117.54 76.5118 117.612C76.3387 117.684 76.153 117.721 75.9655 117.721Z" fill="#4462AC"/>
<path d="M79.5203 121.025H72.4133C72.1033 121.005 71.8126 120.868 71.6002 120.641C71.3877 120.414 71.2695 120.115 71.2695 119.805C71.2695 119.494 71.3877 119.195 71.6002 118.968C71.8126 118.742 72.1033 118.604 72.4133 118.584H79.5152C79.8252 118.604 80.1159 118.742 80.3283 118.968C80.5408 119.195 80.659 119.494 80.659 119.805C80.659 120.115 80.5408 120.414 80.3283 120.641C80.1159 120.868 79.8252 121.005 79.5152 121.025H79.5203Z" fill="#4462AC"/>
<path d="M109.388 118.365C109.206 118.365 109.025 118.329 108.857 118.259C108.688 118.189 108.536 118.087 108.407 117.957L108.371 117.921C108.122 117.651 107.987 117.294 107.994 116.927C108.002 116.559 108.151 116.209 108.411 115.948C108.671 115.688 109.022 115.539 109.39 115.532C109.757 115.524 110.114 115.659 110.384 115.908C110.586 116.107 110.725 116.362 110.782 116.64C110.84 116.918 110.813 117.206 110.707 117.469C110.6 117.732 110.418 117.958 110.183 118.117C109.948 118.277 109.672 118.363 109.388 118.365Z" fill="#4462AC"/>
<path d="M114.38 123.351C114.198 123.352 114.017 123.316 113.849 123.246C113.681 123.176 113.528 123.073 113.399 122.944L113.363 122.907C113.222 122.777 113.109 122.62 113.03 122.445C112.951 122.27 112.908 122.081 112.905 121.889C112.901 121.697 112.936 121.506 113.007 121.328C113.079 121.15 113.186 120.988 113.322 120.853C113.457 120.717 113.619 120.61 113.797 120.539C113.975 120.467 114.166 120.432 114.358 120.436C114.55 120.44 114.739 120.482 114.914 120.561C115.089 120.64 115.246 120.753 115.376 120.895C115.578 121.094 115.717 121.348 115.774 121.626C115.832 121.904 115.805 122.193 115.699 122.456C115.592 122.719 115.41 122.944 115.175 123.103C114.941 123.263 114.664 123.349 114.38 123.351Z" fill="#4462AC"/>
<path d="M109.385 123.162C109.148 123.157 108.918 123.083 108.722 122.95C108.526 122.816 108.373 122.629 108.282 122.41C108.191 122.192 108.165 121.951 108.208 121.718C108.25 121.485 108.36 121.269 108.523 121.097L113.545 116.076C113.657 115.956 113.792 115.86 113.942 115.794C114.092 115.728 114.254 115.692 114.417 115.69C114.581 115.687 114.744 115.717 114.896 115.779C115.048 115.84 115.186 115.932 115.302 116.048C115.418 116.164 115.509 116.302 115.571 116.454C115.632 116.605 115.662 116.768 115.66 116.932C115.657 117.096 115.622 117.258 115.555 117.408C115.489 117.557 115.393 117.692 115.274 117.805L110.247 122.785C110.135 122.902 110.002 122.995 109.854 123.06C109.706 123.125 109.546 123.159 109.385 123.162Z" fill="#4462AC"/>
<path d="M96.6408 123.532C96.4808 123.532 96.3223 123.501 96.1744 123.44C96.0266 123.378 95.8922 123.289 95.7789 123.176L90.757 118.138C90.5396 117.907 90.4209 117.6 90.4259 117.282C90.431 116.964 90.5594 116.661 90.784 116.436C91.0087 116.212 91.3119 116.083 91.6296 116.078C91.9472 116.073 92.2544 116.192 92.4861 116.409L97.5079 121.431C97.671 121.603 97.7805 121.819 97.8233 122.052C97.8661 122.285 97.8403 122.525 97.749 122.744C97.6577 122.963 97.5049 123.15 97.3091 123.284C97.1133 123.417 96.8829 123.491 96.646 123.496L96.6408 123.532Z" fill="#4462AC"/>
<path d="M91.6193 123.531C91.3824 123.526 91.152 123.452 90.9562 123.319C90.7604 123.185 90.6076 122.998 90.5163 122.779C90.425 122.561 90.3992 122.32 90.442 122.087C90.4848 121.854 90.5943 121.638 90.7574 121.466L95.7792 116.445C96.0109 116.227 96.3181 116.108 96.6357 116.113C96.9534 116.118 97.2566 116.247 97.4813 116.472C97.7059 116.696 97.8343 116.999 97.8394 117.317C97.8444 117.635 97.7257 117.942 97.5083 118.174L92.4864 123.195C92.2531 123.417 91.9413 123.538 91.6193 123.531Z" fill="#4462AC"/>
<path d="M94.1275 142.029C93.8031 142.029 93.492 141.901 93.2626 141.671C93.0332 141.442 92.9043 141.131 92.9043 140.806V133.704C92.9245 133.394 93.0618 133.104 93.2885 132.891C93.5152 132.679 93.8143 132.561 94.1249 132.561C94.4356 132.561 94.7346 132.679 94.9613 132.891C95.188 133.104 95.3254 133.394 95.3456 133.704V140.806C95.3456 141.13 95.2174 141.44 94.9891 141.669C94.7608 141.899 94.451 142.028 94.1275 142.029Z" fill="#4462AC"/>
<path d="M97.685 138.479H90.578C90.411 138.49 90.2436 138.466 90.0861 138.41C89.9286 138.354 89.7843 138.265 89.6622 138.151C89.5401 138.037 89.4428 137.898 89.3763 137.745C89.3097 137.591 89.2754 137.426 89.2754 137.258C89.2754 137.091 89.3097 136.926 89.3763 136.772C89.4428 136.618 89.5401 136.48 89.6622 136.366C89.7843 136.251 89.9286 136.163 90.0861 136.107C90.2436 136.05 90.411 136.027 90.578 136.038H97.6799C97.8468 136.027 98.0142 136.05 98.1718 136.107C98.3293 136.163 98.4736 136.251 98.5957 136.366C98.7178 136.48 98.8151 136.618 98.8816 136.772C98.9481 136.926 98.9825 137.091 98.9825 137.258C98.9825 137.426 98.9481 137.591 98.8816 137.745C98.8151 137.898 98.7178 138.037 98.5957 138.151C98.4736 138.265 98.3293 138.354 98.1718 138.41C98.0142 138.466 97.8468 138.49 97.6799 138.479H97.685Z" fill="#4462AC"/>
<path d="M79.5203 138.48H72.4133C72.1033 138.46 71.8126 138.323 71.6002 138.096C71.3877 137.869 71.2695 137.57 71.2695 137.26C71.2695 136.949 71.3877 136.65 71.6002 136.423C71.8126 136.197 72.1033 136.059 72.4133 136.039H79.5152C79.8252 136.059 80.1159 136.197 80.3283 136.423C80.5408 136.65 80.659 136.949 80.659 137.26C80.659 137.57 80.5408 137.869 80.3283 138.096C80.1159 138.323 79.8252 138.46 79.5152 138.48H79.5203Z" fill="#4462AC"/>
<path d="M121.259 107.254H67.0039V112.136H121.259V107.254Z" fill="#4462AC"/>
<path d="M121.259 126.715H67.0039V129.972H121.259V126.715Z" fill="#4462AC"/>
<path d="M121.259 144.547H67.0039V147.804H121.259V144.547Z" fill="#4462AC"/>
<path d="M104.802 110.512H101.545V146.176H104.802V110.512Z" fill="#4462AC"/>
<path d="M86.7177 110.512H83.4609V164.013H86.7177V110.512Z" fill="#4462AC"/>
<path d="M106.712 153.75H99.6204C99.3104 153.73 99.0196 153.592 98.8072 153.366C98.5948 153.139 98.4766 152.84 98.4766 152.529C98.4766 152.219 98.5948 151.92 98.8072 151.693C99.0196 151.466 99.3104 151.329 99.6204 151.309H106.712C107.022 151.329 107.313 151.466 107.525 151.693C107.737 151.92 107.856 152.219 107.856 152.529C107.856 152.84 107.737 153.139 107.525 153.366C107.313 153.592 107.022 153.73 106.712 153.75Z" fill="#4462AC"/>
<path d="M106.712 157.771H99.6204C99.3104 157.751 99.0196 157.614 98.8072 157.387C98.5948 157.16 98.4766 156.861 98.4766 156.551C98.4766 156.24 98.5948 155.941 98.8072 155.714C99.0196 155.488 99.3104 155.35 99.6204 155.33H106.712C107.022 155.35 107.313 155.488 107.525 155.714C107.737 155.941 107.856 156.24 107.856 156.551C107.856 156.861 107.737 157.16 107.525 157.387C107.313 157.614 107.022 157.751 106.712 157.771Z" fill="#4462AC"/>
<path d="M75.9663 159.318C74.9684 159.318 74.0114 158.922 73.3058 158.216C72.6002 157.51 72.2038 156.553 72.2038 155.556V153.558C72.185 153.053 72.2684 152.549 72.4489 152.076C72.6294 151.604 72.9034 151.172 73.2544 150.808C73.6054 150.444 74.0262 150.154 74.4917 149.956C74.9572 149.758 75.4579 149.656 75.9637 149.656C76.4695 149.656 76.9702 149.758 77.4357 149.956C77.9012 150.154 78.322 150.444 78.673 150.808C79.024 151.172 79.298 151.604 79.4785 152.076C79.659 152.549 79.7424 153.053 79.7237 153.558V155.556C79.7237 156.553 79.328 157.509 78.6235 158.214C77.919 158.92 76.9633 159.317 75.9663 159.318ZM75.9663 152.242C75.6159 152.242 75.2798 152.381 75.032 152.629C74.7842 152.877 74.645 153.213 74.645 153.563V155.561C74.6337 155.741 74.6595 155.921 74.7207 156.091C74.7818 156.261 74.8771 156.416 75.0007 156.548C75.1242 156.679 75.2734 156.784 75.4391 156.856C75.6047 156.928 75.7832 156.964 75.9637 156.964C76.1442 156.964 76.3227 156.928 76.4884 156.856C76.654 156.784 76.8032 156.679 76.9267 156.548C77.0503 156.416 77.1456 156.261 77.2068 156.091C77.2679 155.921 77.2937 155.741 77.2824 155.561V153.563C77.2824 153.214 77.1439 152.878 76.8972 152.631C76.6506 152.383 76.3158 152.243 75.9663 152.242Z" fill="#4462AC"/>
<path d="M111.872 138.706C111.494 138.706 111.132 138.555 110.864 138.288C110.597 138.021 110.447 137.659 110.447 137.281C110.446 136.9 110.595 136.535 110.861 136.263C111.128 135.991 111.491 135.836 111.872 135.831C112.06 135.825 112.247 135.857 112.422 135.925C112.597 135.994 112.756 136.096 112.891 136.227C113.026 136.358 113.133 136.515 113.206 136.688C113.279 136.861 113.317 137.047 113.317 137.235V137.281C113.317 137.47 113.279 137.657 113.207 137.831C113.134 138.005 113.027 138.163 112.892 138.296C112.758 138.428 112.598 138.533 112.423 138.603C112.248 138.673 112.061 138.708 111.872 138.706Z" fill="#4462AC"/>
<path d="M154.367 54.6558L134.956 32.4625C134.61 32.0686 134.184 31.7531 133.707 31.537C133.229 31.3208 132.711 31.209 132.187 31.209C131.663 31.209 131.145 31.3208 130.667 31.537C130.19 31.7531 129.764 32.0686 129.418 32.4625L110.007 54.6558C109.541 55.1885 109.238 55.844 109.135 56.5441C109.032 57.2442 109.132 57.9592 109.425 58.6037C109.717 59.2481 110.189 59.7948 110.783 60.1784C111.378 60.5619 112.071 60.7662 112.778 60.7667H117.134V68.8956C117.134 68.8956 120.701 76.5961 130.615 78.2426C140.623 79.9045 147.25 82.7019 147.25 82.7019V60.7667H151.611C152.318 60.7632 153.008 60.5568 153.601 60.1721C154.193 59.7874 154.662 59.2405 154.953 58.5967C155.243 57.9528 155.342 57.239 155.239 56.5403C155.135 55.8416 154.832 55.1875 154.367 54.6558Z" fill="#D4E4F5"/>
<path d="M165.065 84.8394L153.911 73.753C153.408 73.2532 152.727 72.9727 152.017 72.9727C151.308 72.9727 150.627 73.2532 150.123 73.753L138.97 84.8394C138.696 85.1119 138.509 85.4597 138.433 85.8387C138.357 86.2176 138.395 86.6106 138.542 86.9678C138.69 87.325 138.94 87.6302 139.262 87.8449C139.583 88.0596 139.961 88.1739 140.348 88.1735H143.047V97.5308C143.047 97.5308 145.999 100.628 152.022 101.572C158.046 102.517 160.998 105.954 160.998 105.954V88.1735H163.697C164.083 88.1719 164.459 88.0561 164.779 87.8406C165.099 87.6252 165.348 87.3198 165.494 86.963C165.64 86.6062 165.678 86.2141 165.601 85.8361C165.525 85.4582 165.338 85.1113 165.065 84.8394Z" fill="#7393CB"/>
<path d="M141.869 45.8249L149.399 37.216C149.49 37.112 149.601 37.0286 149.727 36.9715C149.852 36.9143 149.989 36.8848 150.127 36.8848C150.265 36.8848 150.401 36.9143 150.526 36.9715C150.652 37.0286 150.764 37.112 150.854 37.216L158.385 45.8249C158.584 46.0526 158.714 46.333 158.758 46.6326C158.802 46.9321 158.759 47.238 158.634 47.5137C158.508 47.7893 158.306 48.023 158.052 48.1866C157.797 48.3503 157.5 48.4371 157.198 48.4365H143.056C142.753 48.4371 142.456 48.3503 142.202 48.1866C141.947 48.023 141.745 47.7893 141.62 47.5137C141.494 47.238 141.451 46.9321 141.495 46.6326C141.54 46.333 141.669 46.0526 141.869 45.8249Z" fill="#7393CB"/>
<path d="M148.465 76.6119H146.023V59.5798H151.613C152.086 59.5797 152.549 59.4435 152.946 59.1873C153.344 58.9312 153.659 58.566 153.854 58.1354C154.05 57.7048 154.117 57.227 154.048 56.7592C153.979 56.2913 153.777 55.8532 153.466 55.4973L148 49.2419L149.838 47.6367L155.298 53.8767C155.917 54.5853 156.319 55.4572 156.456 56.3881C156.593 57.3191 156.46 58.2698 156.071 59.1269C155.683 59.9839 155.056 60.7111 154.265 61.2215C153.475 61.732 152.554 62.0041 151.613 62.0056H148.465V76.6119Z" fill="#4462AC"/>
<path d="M148.058 99.7802H146.453V97.339H148.079L148.058 99.7802ZM148.058 94.8977H146.453V92.4564H148.079L148.058 94.8977ZM148.058 90.0152H146.453V87.5739H148.079L148.058 90.0152ZM148.058 85.1327H146.453V82.6914H148.079L148.058 85.1327Z" fill="#4462AC"/>
<path d="M118.343 68.9156H115.901V62.0048H112.769C111.826 62.0052 110.904 61.734 110.111 61.2237C109.319 60.7134 108.691 59.9855 108.301 59.1273C107.912 58.2691 107.778 57.3169 107.916 56.3846C108.054 55.4523 108.457 54.5795 109.078 53.8707L128.49 31.6774C128.95 31.1509 129.517 30.7288 130.153 30.4395C130.79 30.1502 131.481 30.0003 132.18 30C132.879 30.0003 133.57 30.1502 134.207 30.4395C134.843 30.7288 135.41 31.1509 135.87 31.6774L145.16 42.2992L143.323 43.9043L134.033 33.2825C133.802 33.0183 133.517 32.8066 133.197 32.6615C132.878 32.5164 132.531 32.4413 132.18 32.4413C131.829 32.4417 131.482 32.5169 131.163 32.662C130.843 32.807 130.558 33.0186 130.327 33.2825L110.916 55.4758C110.604 55.8318 110.402 56.2699 110.333 56.7377C110.264 57.2055 110.332 57.6833 110.527 58.1139C110.723 58.5445 111.038 58.9097 111.435 59.1659C111.833 59.422 112.296 59.5583 112.769 59.5583H118.343V68.9156Z" fill="#4462AC"/>
<path d="M131.584 39.2985L122.049 50.0684L123.27 51.1495L132.805 40.3796L131.584 39.2985Z" fill="#4462AC"/>
<path d="M131.578 45.4039L122.043 56.1738L123.264 57.255L132.799 46.485L131.578 45.4039Z" fill="#4462AC"/>
<path d="M131.573 51.5113L122.041 62.2773L123.262 63.3585L132.794 52.5924L131.573 51.5113Z" fill="#4462AC"/>
<path d="M131.575 57.6173L123.684 66.5059L124.903 67.5887L132.795 58.7001L131.575 57.6173Z" fill="#4462AC"/>
<path d="M131.568 63.7164L126.463 69.5566L127.687 70.6267L132.792 64.7864L131.568 63.7164Z" fill="#4462AC"/>
<path d="M131.572 69.8218L126.467 75.6621L127.691 76.7321L132.796 70.8919L131.572 69.8218Z" fill="#4462AC"/>
<path d="M131.568 75.9331L128.416 79.5391L129.64 80.6091L132.792 77.0031L131.568 75.9331Z" fill="#4462AC"/>
<path d="M162.211 110.825H159.77V86.9492H163.692C163.837 86.9484 163.977 86.905 164.097 86.8244C164.217 86.7438 164.31 86.6296 164.365 86.4962C164.42 86.3628 164.435 86.2161 164.407 86.0745C164.379 85.9329 164.31 85.8027 164.208 85.7002L153.055 74.6139C152.78 74.3428 152.409 74.1909 152.023 74.1909C151.636 74.1909 151.266 74.3428 150.99 74.6139L139.837 85.7002C139.735 85.8027 139.666 85.9329 139.638 86.0745C139.61 86.2161 139.625 86.3628 139.68 86.4962C139.735 86.6296 139.828 86.7438 139.948 86.8244C140.068 86.905 140.209 86.9484 140.353 86.9492H144.27V97.5298H141.809V89.3957H140.332C139.704 89.3949 139.09 89.2078 138.569 88.858C138.047 88.5082 137.641 88.0114 137.401 87.4306C137.162 86.8498 137.101 86.2111 137.225 85.5953C137.348 84.9794 137.652 84.4142 138.098 83.9712L149.251 72.8849C149.984 72.1603 150.974 71.7539 152.005 71.7539C153.035 71.7539 154.025 72.1603 154.758 72.8849L165.912 83.9712C166.357 84.4142 166.661 84.9794 166.785 85.5953C166.909 86.2111 166.847 86.8498 166.608 87.4306C166.368 88.0114 165.962 88.5082 165.44 88.858C164.919 89.2078 164.305 89.3949 163.677 89.3957H162.201L162.211 110.825Z" fill="#4462AC"/>
<path d="M157.206 49.6589H143.059C142.52 49.66 141.993 49.5056 141.54 49.2142C141.087 48.9229 140.728 48.507 140.505 48.0166C140.283 47.5261 140.207 46.9818 140.286 46.4492C140.366 45.9166 140.597 45.4182 140.953 45.0138L148.483 36.4049C148.695 36.1802 148.95 36.0012 149.233 35.8789C149.516 35.7565 149.821 35.6934 150.13 35.6934C150.438 35.6934 150.743 35.7565 151.026 35.8789C151.31 36.0012 151.565 36.1802 151.776 36.4049L159.306 45.0138C159.662 45.4182 159.893 45.9166 159.973 46.4492C160.052 46.9818 159.976 47.5261 159.754 48.0166C159.531 48.507 159.172 48.9229 158.719 49.2142C158.266 49.5056 157.739 49.66 157.201 49.6589H157.206ZM142.79 46.6293C142.746 46.6809 142.717 46.7441 142.708 46.8114C142.698 46.8788 142.708 46.9474 142.736 47.0093C142.765 47.0712 142.81 47.1237 142.867 47.1607C142.924 47.1976 142.991 47.2174 143.059 47.2177H157.206C157.274 47.2174 157.34 47.1976 157.397 47.1607C157.454 47.1237 157.5 47.0712 157.528 47.0093C157.556 46.9474 157.566 46.8788 157.557 46.8114C157.547 46.7441 157.518 46.6809 157.474 46.6293L150.135 38.2371L142.79 46.6293Z" fill="#4462AC"/>
<path d="M149.664 40.7767L145.654 45.4355L146.886 46.4961L150.897 41.8373L149.664 40.7767Z" fill="#4462AC"/>
<path d="M44.0311 129.14C52.5483 129.14 59.4529 122.236 59.4529 113.719C59.4529 105.201 52.5483 98.2969 44.0311 98.2969C35.5139 98.2969 28.6094 105.201 28.6094 113.719C28.6094 122.236 35.5139 129.14 44.0311 129.14Z" fill="#7393CB"/>
<path d="M44.0321 130.767C40.6634 130.767 37.3705 129.768 34.5696 127.897C31.7687 126.025 29.5856 123.365 28.2965 120.253C27.0074 117.141 26.6701 113.716 27.3273 110.412C27.9845 107.108 29.6066 104.074 31.9886 101.692C34.3706 99.3097 37.4054 97.6876 40.7093 97.0304C44.0132 96.3732 47.4377 96.7105 50.5499 97.9996C53.6621 99.2887 56.3222 101.472 58.1937 104.273C60.0652 107.074 61.0641 110.367 61.0641 113.735C61.0546 118.249 59.2571 122.576 56.065 125.768C52.8729 128.96 48.5463 130.758 44.0321 130.767ZM44.0321 99.9237C41.3035 99.9237 38.6362 100.733 36.3674 102.249C34.0987 103.765 32.3304 105.919 31.2863 108.44C30.2421 110.961 29.9689 113.735 30.5012 116.411C31.0335 119.087 32.3474 121.546 34.2768 123.475C36.2062 125.404 38.6644 126.718 41.3406 127.251C44.0168 127.783 46.7907 127.51 49.3115 126.466C51.8324 125.421 53.9871 123.653 55.503 121.384C57.0189 119.116 57.828 116.448 57.828 113.72C57.8239 110.062 56.3691 106.555 53.7827 103.969C51.1964 101.383 47.6897 99.9278 44.0321 99.9237Z" fill="#4462AC"/>
<path d="M44.0332 123.113C40.57 123.113 37.7571 120.641 37.7571 117.601C37.7571 117.169 37.9287 116.755 38.2341 116.449C38.5394 116.144 38.9536 115.972 39.3855 115.972C39.8173 115.972 40.2315 116.144 40.5369 116.449C40.8423 116.755 41.0139 117.169 41.0139 117.601C41.0139 118.824 42.3971 119.856 44.0332 119.856C45.6693 119.856 47.0525 118.824 47.0525 117.601C47.0525 116.641 46.0202 116.125 43.4964 115.258C41.0706 114.416 37.752 113.265 37.752 109.838C37.752 106.798 40.57 104.326 44.028 104.326C47.486 104.326 50.3041 106.798 50.3041 109.838C50.3041 110.27 50.1325 110.684 49.8271 110.99C49.5217 111.295 49.1076 111.467 48.6757 111.467C48.2438 111.467 47.8296 111.295 47.5243 110.99C47.2189 110.684 47.0473 110.27 47.0473 109.838C47.0473 108.615 45.6641 107.583 44.028 107.583C42.3919 107.583 41.0087 108.615 41.0087 109.838C41.0087 110.793 42.0409 111.314 44.5648 112.182C46.9905 113.023 50.3092 114.174 50.3092 117.606C50.3092 120.641 47.4912 123.113 44.0332 123.113Z" fill="white"/>
<path d="M44.034 125.88C43.8205 125.88 43.6091 125.838 43.4118 125.756C43.2146 125.675 43.0353 125.555 42.8844 125.404C42.7334 125.253 42.6137 125.074 42.532 124.876C42.4503 124.679 42.4082 124.468 42.4082 124.254V121.488C42.4082 121.056 42.5798 120.642 42.8851 120.336C43.1905 120.031 43.6047 119.859 44.0366 119.859C44.4684 119.859 44.8826 120.031 45.188 120.336C45.4934 120.642 45.6649 121.056 45.6649 121.488V124.254C45.6649 124.468 45.6227 124.68 45.5407 124.878C45.4587 125.075 45.3384 125.255 45.1869 125.406C45.0354 125.557 44.8556 125.676 44.6577 125.758C44.4599 125.839 44.2479 125.881 44.034 125.88Z" fill="white"/>
<path d="M44.034 107.586C43.8205 107.586 43.6091 107.544 43.4118 107.462C43.2146 107.381 43.0353 107.261 42.8844 107.11C42.7334 106.959 42.6137 106.78 42.532 106.583C42.4503 106.385 42.4082 106.174 42.4082 105.96V103.173C42.4082 102.741 42.5798 102.327 42.8851 102.022C43.1905 101.716 43.6047 101.545 44.0366 101.545C44.4684 101.545 44.8826 101.716 45.188 102.022C45.4934 102.327 45.6649 102.741 45.6649 103.173V105.94C45.6677 106.155 45.6275 106.369 45.5467 106.569C45.4659 106.769 45.3461 106.951 45.1943 107.105C45.0425 107.258 44.8618 107.379 44.6625 107.462C44.4633 107.545 44.2497 107.587 44.034 107.586Z" fill="white"/>
<path d="M34.4539 95.2388C34.0227 95.2388 33.6092 95.0675 33.3043 94.7626C32.9994 94.4577 32.8281 94.0442 32.8281 93.613V81.226C32.8281 80.7942 32.9997 80.38 33.3051 80.0746C33.6104 79.7692 34.0246 79.5977 34.4565 79.5977C34.8884 79.5977 35.3025 79.7692 35.6079 80.0746C35.9133 80.38 36.0849 80.7942 36.0849 81.226V93.613C36.0849 93.8269 36.0426 94.0387 35.9606 94.2363C35.8786 94.4339 35.7584 94.6134 35.6069 94.7644C35.4553 94.9154 35.2755 95.0351 35.0777 95.1165C34.8798 95.1979 34.6678 95.2394 34.4539 95.2388Z" fill="#4462AC"/>
<path d="M73.4637 69.7972C73.0325 69.7972 72.619 69.6259 72.3141 69.321C72.0092 69.0161 71.8379 68.6026 71.8379 68.1714V60.3315C71.8379 59.8996 72.0095 59.4854 72.3148 59.1801C72.6202 58.8747 73.0344 58.7031 73.4663 58.7031C73.8981 58.7031 74.3123 58.8747 74.6177 59.1801C74.9231 59.4854 75.0946 59.8996 75.0946 60.3315V68.1507C75.0974 68.3664 75.0572 68.5805 74.9764 68.7804C74.8956 68.9804 74.7758 69.1623 74.624 69.3156C74.4722 69.4688 74.2914 69.5903 74.0922 69.673C73.893 69.7557 73.6794 69.7979 73.4637 69.7972Z" fill="#4462AC"/>
<path d="M53.5496 103.203C53.1184 103.203 52.7049 103.031 52.4 102.726C52.0951 102.421 51.9238 102.008 51.9238 101.577V68.1733C51.9238 67.7414 52.0954 67.3272 52.4008 67.0219C52.7061 66.7165 53.1203 66.5449 53.5522 66.5449C53.9841 66.5449 54.3982 66.7165 54.7036 67.0219C55.009 67.3272 55.1806 67.7414 55.1806 68.1733V101.572C55.1812 101.786 55.1395 101.998 55.0578 102.197C54.9761 102.395 54.856 102.575 54.7044 102.726C54.5528 102.878 54.3727 102.998 54.1746 103.08C53.9764 103.162 53.764 103.203 53.5496 103.203Z" fill="#4462AC"/>
<path d="M53.5496 64.4624C53.1184 64.4624 52.7049 64.2911 52.4 63.9862C52.0951 63.6813 51.9238 63.2678 51.9238 62.8366V60.1889C51.9238 59.757 52.0954 59.3429 52.4008 59.0375C52.7061 58.7321 53.1203 58.5605 53.5522 58.5605C53.9841 58.5605 54.3982 58.7321 54.7036 59.0375C55.009 59.3429 55.1806 59.757 55.1806 60.1889V62.8366C55.1806 63.0506 55.1383 63.2624 55.0563 63.46C54.9743 63.6576 54.8541 63.837 54.7026 63.9881C54.551 64.1391 54.3712 64.2587 54.1734 64.3401C53.9755 64.4215 53.7635 64.4631 53.5496 64.4624Z" fill="#4462AC"/>
<path d="M64.3895 57.6538C64.176 57.6538 63.9645 57.6118 63.7673 57.5301C63.57 57.4484 63.3908 57.3286 63.2399 57.1776C63.0889 57.0267 62.9691 56.8474 62.8874 56.6502C62.8057 56.4529 62.7637 56.2415 62.7637 56.028V53.3803C62.7637 52.9484 62.9352 52.5343 63.2406 52.2289C63.546 51.9235 63.9602 51.752 64.392 51.752C64.8239 51.752 65.2381 51.9235 65.5435 52.2289C65.8488 52.5343 66.0204 52.9484 66.0204 53.3803V56.028C66.0204 56.242 65.9782 56.4538 65.8962 56.6514C65.8141 56.849 65.6939 57.0284 65.5424 57.1795C65.3909 57.3305 65.211 57.4501 65.0132 57.5315C64.8154 57.6129 64.6034 57.6545 64.3895 57.6538Z" fill="#4462AC"/>
<path d="M43.4598 59.5467C43.0286 59.5467 42.6151 59.3754 42.3102 59.0705C42.0053 58.7656 41.834 58.3521 41.834 57.9209V56.3725C41.834 55.9406 42.0055 55.5265 42.3109 55.2211C42.6163 54.9157 43.0305 54.7441 43.4624 54.7441C43.8942 54.7441 44.3084 54.9157 44.6138 55.2211C44.9192 55.5265 45.0907 55.9406 45.0907 56.3725V57.9209C45.0907 58.1348 45.0485 58.3466 44.9665 58.5442C44.8844 58.7418 44.7642 58.9213 44.6127 59.0723C44.4612 59.2233 44.2814 59.343 44.0835 59.4244C43.8857 59.5058 43.6737 59.5473 43.4598 59.5467Z" fill="#4462AC"/>
<path d="M34.4539 75.1599C34.0227 75.1599 33.6092 74.9887 33.3043 74.6838C32.9994 74.3789 32.8281 73.9653 32.8281 73.5342V71.9858C32.8281 71.5539 32.9997 71.1397 33.3051 70.8344C33.6104 70.529 34.0246 70.3574 34.4565 70.3574C34.8884 70.3574 35.3025 70.529 35.6079 70.8344C35.9133 71.1397 36.0849 71.5539 36.0849 71.9858V73.5342C36.0849 73.7481 36.0426 73.9599 35.9606 74.1575C35.8786 74.3551 35.7584 74.5346 35.6069 74.6856C35.4553 74.8366 35.2755 74.9563 35.0777 75.0377C34.8798 75.1191 34.6678 75.1606 34.4539 75.1599Z" fill="#4462AC"/>
<path d="M43.4598 92.6322C43.0286 92.6322 42.6151 92.4609 42.3102 92.1561C42.0053 91.8512 41.834 91.4376 41.834 91.0064V74.4389C41.834 74.007 42.0055 73.5929 42.3109 73.2875C42.6163 72.9821 43.0305 72.8105 43.4624 72.8105C43.8942 72.8105 44.3084 72.9821 44.6138 73.2875C44.9192 73.5929 45.0907 74.007 45.0907 74.4389V91.0013C45.0914 91.2157 45.0497 91.428 44.968 91.6262C44.8862 91.8244 44.7661 92.0045 44.6146 92.1561C44.463 92.3077 44.2829 92.4278 44.0847 92.5095C43.8865 92.5912 43.6741 92.6329 43.4598 92.6322Z" fill="#4462AC"/>
<path d="M43.4598 70.4065C43.0286 70.4065 42.6151 70.2352 42.3102 69.9303C42.0053 69.6254 41.834 69.2119 41.834 68.7807V63.8569C41.834 63.425 42.0055 63.0108 42.3109 62.7055C42.6163 62.4001 43.0305 62.2285 43.4624 62.2285C43.8942 62.2285 44.3084 62.4001 44.6138 62.7055C44.9192 63.0108 45.0907 63.425 45.0907 63.8569V68.7807C45.0907 68.9946 45.0485 69.2065 44.9665 69.4041C44.8844 69.6016 44.7642 69.7811 44.6127 69.9321C44.4612 70.0832 44.2814 70.2028 44.0835 70.2842C43.8857 70.3656 43.6737 70.4072 43.4598 70.4065Z" fill="#4462AC"/>
<path d="M63.1718 97.2869C70.3093 97.2869 76.0955 91.5007 76.0955 84.3632C76.0955 77.2256 70.3093 71.4395 63.1718 71.4395C56.0342 71.4395 50.248 77.2256 50.248 84.3632C50.248 91.5007 56.0342 97.2869 63.1718 97.2869Z" fill="#7393CB"/>
<path d="M57.6793 91.4711C57.3573 91.4716 57.0425 91.3766 56.7746 91.198C56.5068 91.0194 56.298 90.7652 56.1747 90.4678C56.0514 90.1704 56.0192 89.8431 56.0822 89.5274C56.1451 89.2117 56.3004 88.9217 56.5283 88.6944L67.4856 77.7267C67.7909 77.4215 68.2049 77.25 68.6366 77.25C69.0682 77.25 69.4823 77.4215 69.7875 77.7267C70.0928 78.032 70.2643 78.446 70.2643 78.8777C70.2643 79.3094 70.0928 79.7234 69.7875 80.0286L58.8199 90.9963C58.5173 91.2989 58.1073 91.4696 57.6793 91.4711Z" fill="white"/>
<path d="M59.2018 84.1654C58.4546 84.1654 57.7242 83.9438 57.1029 83.5287C56.4816 83.1136 55.9974 82.5235 55.7114 81.8332C55.4255 81.1428 55.3506 80.3832 55.4964 79.6503C55.6422 78.9175 56.002 78.2443 56.5304 77.7159C57.0587 77.1876 57.7319 76.8277 58.4648 76.682C59.1977 76.5362 59.9573 76.611 60.6476 76.897C61.338 77.1829 61.928 77.6672 62.3432 78.2884C62.7583 78.9097 62.9799 79.6402 62.9799 80.3874C62.9799 81.3894 62.5818 82.3503 61.8733 83.0589C61.1648 83.7674 60.2038 84.1654 59.2018 84.1654ZM59.2018 79.8713C59.0998 79.8713 59 79.9015 58.9151 79.9583C58.8302 80.015 58.7641 80.0956 58.725 80.1899C58.686 80.2842 58.6757 80.388 58.6956 80.4881C58.7156 80.5882 58.7647 80.6802 58.8369 80.7524C58.9091 80.8245 59.001 80.8737 59.1012 80.8936C59.2013 80.9135 59.3051 80.9033 59.3994 80.8642C59.4937 80.8252 59.5743 80.759 59.631 80.6741C59.6877 80.5893 59.718 80.4895 59.718 80.3874C59.7187 80.3192 59.7058 80.2515 59.6802 80.1883C59.6545 80.1251 59.6166 80.0676 59.5686 80.0191C59.5206 79.9706 59.4635 79.9321 59.4006 79.9059C59.3376 79.8796 59.2701 79.8661 59.2018 79.8661V79.8713Z" fill="white"/>
<path d="M67.8862 92.0291C67.0913 92.1886 66.2662 92.0881 65.5328 91.7425C64.7994 91.3969 64.1966 90.8245 63.8135 90.1099C63.4305 89.3954 63.2874 88.5766 63.4055 87.7745C63.5237 86.9724 63.8967 86.2295 64.4695 85.6558C65.0423 85.082 65.7844 84.7077 66.5863 84.5882C67.3882 84.4686 68.2073 84.6103 68.9225 84.9921C69.6377 85.3739 70.2111 85.9757 70.558 86.7085C70.9049 87.4413 71.0068 88.2662 70.8488 89.0614C70.7027 89.7931 70.3434 90.4652 69.8163 90.9933C69.2892 91.5213 68.6177 91.8817 67.8862 92.0291ZM67.1482 87.8072C67.0461 87.8072 66.9463 87.8375 66.8614 87.8942C66.7766 87.9509 66.7104 88.0316 66.6714 88.1259C66.6323 88.2202 66.6221 88.3239 66.642 88.4241C66.6619 88.5242 66.711 88.6161 66.7832 88.6883C66.8554 88.7605 66.9474 88.8097 67.0475 88.8296C67.1476 88.8495 67.2514 88.8393 67.3457 88.8002C67.44 88.7611 67.5206 88.695 67.5773 88.6101C67.634 88.5252 67.6643 88.4254 67.6643 88.3234C67.6643 88.2551 67.6508 88.1876 67.6245 88.1246C67.5983 88.0617 67.5598 88.0046 67.5113 87.9566C67.4628 87.9086 67.4053 87.8707 67.3421 87.845C67.2789 87.8194 67.2112 87.8066 67.143 87.8072H67.1482Z" fill="white"/>
<path d="M63.1706 98.9134C60.293 98.9134 57.48 98.0601 55.0873 96.4614C52.6947 94.8627 50.8298 92.5904 49.7286 89.9318C48.6274 87.2732 48.3393 84.3478 48.9007 81.5255C49.4621 78.7032 50.8478 76.1107 52.8826 74.0759C54.9173 72.0411 57.5098 70.6554 60.3321 70.094C63.1545 69.5326 66.0799 69.8208 68.7385 70.922C71.397 72.0232 73.6693 73.888 75.2681 76.2807C76.8668 78.6733 77.7201 81.4863 77.7201 84.3639C77.7146 88.221 76.18 91.9186 73.4526 94.646C70.7252 97.3733 67.0277 98.908 63.1706 98.9134ZM63.1706 73.066C60.9361 73.066 58.7517 73.7286 56.8938 74.9701C55.0359 76.2115 53.5878 77.976 52.7327 80.0404C51.8776 82.1048 51.6538 84.3765 52.0898 86.5681C52.5257 88.7597 53.6017 90.7727 55.1818 92.3528C56.7618 93.9328 58.7749 95.0089 60.9665 95.4448C63.1581 95.8807 65.4297 95.657 67.4941 94.8019C69.5586 93.9468 71.323 92.4987 72.5645 90.6407C73.8059 88.7828 74.4685 86.5985 74.4685 84.3639C74.4658 81.3684 73.2746 78.4963 71.1564 76.3781C69.0382 74.26 66.1662 73.0688 63.1706 73.066Z" fill="#4462AC"/>
<path d="M100.059 45.8926H92.0898V47.9261H100.059V45.8926Z" fill="#4462AC"/>
<path d="M97.0921 42.9277H95.0586V50.8967H97.0921V42.9277Z" fill="#4462AC"/>
</svg>
