<svg width="196" height="196" viewBox="0 0 196 196" fill="none" xmlns="http://www.w3.org/2000/svg">
<path d="M97.8568 195.714C151.902 195.714 195.714 151.902 195.714 97.8568C195.714 43.812 151.902 0 97.8568 0C43.812 0 0 43.812 0 97.8568C0 151.902 43.812 195.714 97.8568 195.714Z" fill="#FAC6A4"/>
<path d="M84.972 152.931C88.7567 152.931 91.8248 149.85 91.8248 146.05C91.8248 142.25 88.7567 139.17 84.972 139.17C81.1873 139.17 78.1191 142.25 78.1191 146.05C78.1191 149.85 81.1873 152.931 84.972 152.931Z" fill="#7393CB"/>
<path d="M62.8005 153.01C66.607 153.01 69.6928 149.912 69.6928 146.09C69.6928 142.268 66.607 139.17 62.8005 139.17C58.994 139.17 55.9082 142.268 55.9082 146.09C55.9082 149.912 58.994 153.01 62.8005 153.01Z" fill="#7393CB"/>
<path d="M40.7612 151.517C44.2623 151.517 47.1006 148.667 47.1006 145.152C47.1006 141.637 44.2623 138.787 40.7612 138.787C37.2601 138.787 34.4219 141.637 34.4219 145.152C34.4219 148.667 37.2601 151.517 40.7612 151.517Z" fill="#D4E4F5"/>
<path d="M147.74 80.9805H46.5938V124.259H147.74V80.9805Z" fill="#7393CB"/>
<path d="M62.7949 153.672C61.5631 153.672 60.3498 153.37 59.2611 152.791C58.1723 152.213 57.2411 151.376 56.5485 150.353C55.856 149.33 55.4232 148.153 55.2879 146.923C55.1526 145.694 55.3189 144.45 55.7723 143.3C56.2257 142.15 56.9524 141.129 57.8891 140.326C58.8257 139.523 59.9439 138.962 61.1461 138.692C62.3482 138.423 63.5979 138.452 64.786 138.779C65.9741 139.105 67.0646 139.719 67.9624 140.565C68.0255 140.625 68.0764 140.696 68.112 140.775C68.1477 140.854 68.1674 140.94 68.1702 141.027C68.1729 141.114 68.1586 141.2 68.1281 141.281C68.0975 141.363 68.0513 141.437 67.992 141.501C67.9328 141.564 67.8618 141.615 67.7829 141.651C67.7041 141.686 67.6189 141.706 67.5324 141.709C67.4459 141.712 67.3598 141.697 67.2788 141.667C67.1978 141.636 67.1237 141.59 67.0606 141.53C66.0138 140.547 64.6614 139.956 63.2313 139.857C61.8012 139.757 60.3807 140.156 59.2091 140.985C58.0375 141.815 57.1864 143.024 56.7992 144.41C56.4119 145.796 56.5122 147.273 57.0831 148.593C57.654 149.914 58.6606 150.996 59.9334 151.658C61.2062 152.32 62.6674 152.522 64.0709 152.229C65.4744 151.936 66.7344 151.166 67.6387 150.049C68.5429 148.932 69.0362 147.537 69.0355 146.097C69.0355 145.922 69.1048 145.754 69.2283 145.63C69.3517 145.506 69.5192 145.436 69.6937 145.436C69.8683 145.436 70.0358 145.506 70.1592 145.63C70.2827 145.754 70.352 145.922 70.352 146.097C70.3485 148.107 69.5508 150.034 68.1339 151.454C66.7171 152.874 64.7969 153.672 62.7949 153.672Z" fill="#4462AC"/>
<path d="M62.9849 149.328C62.8982 149.328 62.8123 149.311 62.7321 149.278C62.6519 149.246 62.579 149.197 62.5175 149.136L58.9298 145.534C58.8219 145.407 58.7656 145.245 58.772 145.078C58.7784 144.912 58.8471 144.754 58.9643 144.636C59.0816 144.519 59.2387 144.45 59.4044 144.443C59.57 144.437 59.732 144.494 59.858 144.602L62.9783 147.735L70.1076 140.577C70.1666 140.508 70.2392 140.451 70.3209 140.412C70.4026 140.372 70.4915 140.35 70.5822 140.346C70.6728 140.343 70.7632 140.358 70.8477 140.391C70.9322 140.424 71.0089 140.475 71.073 140.539C71.1372 140.604 71.1874 140.681 71.2205 140.766C71.2536 140.85 71.2689 140.941 71.2654 141.032C71.2619 141.123 71.2397 141.212 71.2002 141.294C71.1606 141.376 71.1047 141.449 71.0357 141.509L63.4457 149.129C63.3241 149.254 63.1585 149.325 62.9849 149.328Z" fill="#4462AC"/>
<path d="M41.9993 49.8724L39.7324 52.1484L41.1289 53.5505L43.3958 51.2745L41.9993 49.8724Z" fill="#4462AC"/>
<path d="M36.5892 55.2904L34.3223 57.5664L35.7187 58.9685L37.9856 56.6925L36.5892 55.2904Z" fill="#4462AC"/>
<path d="M41.1211 55.2952L39.7246 56.6973L41.9915 58.9733L43.388 57.5712L41.1211 55.2952Z" fill="#4462AC"/>
<path d="M35.7146 49.8555L34.3184 51.2578L36.5857 53.5334L37.9819 52.1311L35.7146 49.8555Z" fill="#4462AC"/>
<path d="M104.971 126.242H44.6191V78.998H53.1243V82.9637H48.5689V122.276H104.971V126.242Z" fill="#4462AC"/>
<path d="M149.723 126.242H141.218V122.276H145.773V82.9637H90.6875V78.998H149.723V126.242Z" fill="#4462AC"/>
<path d="M133.299 111.021V118.82C133.299 121.82 130.587 124.253 127.243 124.253H99.8379L99.9169 128.298C99.9169 130.71 101.859 135.641 103.208 137.815C104.795 140.393 105.802 144.96 106.098 146.05H131.113C131.706 144.98 131.515 140.617 134.405 138.588C138.559 135.674 141.218 128.311 141.218 122.871V111.021C141.218 109.038 139.441 107.465 137.268 107.465C135.076 107.465 133.299 109.058 133.299 111.021Z" fill="#D4E4F5"/>
<path d="M135.886 146.051H101.76V166.018H135.886V146.051Z" fill="#7393CB"/>
<path d="M132.291 148.034H104.57L104.176 146.566C104.136 146.421 104.083 146.209 104.018 145.952C103.636 144.418 102.701 140.836 101.509 138.853C100.055 136.487 97.9349 131.2 97.9349 128.278L97.8164 122.25H127.235C129.487 122.25 131.317 120.704 131.317 118.8V111.021C131.317 107.968 133.95 105.482 137.241 105.482C140.533 105.482 143.166 107.968 143.166 111.021V122.872C143.166 128.754 140.303 136.851 135.51 140.215C134.108 141.2 133.72 143.301 133.437 144.841C133.345 145.594 133.136 146.328 132.818 147.016L132.291 148.034ZM107.618 144.068H129.599C129.961 142.085 130.58 138.866 133.285 136.963C136.86 134.458 139.256 127.65 139.256 122.865V111.021C139.256 110.168 138.347 109.448 137.281 109.448C136.215 109.448 135.306 110.168 135.306 111.021V118.82C135.306 122.911 131.705 126.236 127.275 126.236H101.845L101.885 128.258C101.885 130.135 103.59 134.702 104.867 136.771C106.144 138.84 107.092 142.046 107.618 144.068Z" fill="#4462AC"/>
<path d="M137.861 168.001H99.7852V144.068H137.861V168.001ZM103.735 164.035H133.911V148.034H103.735V164.035Z" fill="#4462AC"/>
<path d="M115.999 150.445H106.52V154.411H115.999V150.445Z" fill="#4462AC"/>
<path d="M61.294 94.2197V86.4338C61.294 83.4331 64.0062 81.0009 67.3503 81.0009H94.7616L94.6825 76.9559C94.6825 74.5435 92.7406 69.6129 91.3911 67.4384C89.8046 64.8608 88.7975 60.2937 88.5012 59.2031H63.4861C62.8937 60.2738 63.0846 64.6361 60.1947 66.6651C56.0277 69.5733 53.3945 76.9295 53.3945 82.3756V94.2263C53.3945 96.2091 55.1719 97.7821 57.3443 97.7821C59.5496 97.7755 61.294 96.1827 61.294 94.2197Z" fill="#D4E4F5"/>
<path d="M58.7394 59.1895L92.8652 59.1895V39.2225H58.7394V59.1895Z" fill="#7393CB"/>
<path d="M57.3445 99.7582C54.0531 99.7582 51.4199 97.2731 51.4199 94.2196V82.3755C51.4199 76.4932 54.2835 68.3967 59.0759 65.0325C60.478 64.0477 60.8664 61.9459 61.1495 60.406C61.2408 59.653 61.4496 58.9192 61.7682 58.2315L62.3344 57.207H90.0551L90.45 58.6677C90.4895 58.8131 90.5422 59.0246 90.608 59.2823C90.9898 60.8157 91.9246 64.398 93.1161 66.3808C94.5709 68.747 96.6906 74.0345 96.6906 76.9558L96.8091 82.9836H67.3835C65.1321 82.9836 63.3021 84.5302 63.3021 86.4337V94.2262C63.2692 97.2731 60.636 99.7582 57.3445 99.7582ZM65.0137 61.1727C64.6516 63.1555 64.0328 66.3742 61.3272 68.2778C57.7527 70.7827 55.3565 77.5903 55.3565 82.3755V94.2262C55.3565 95.0788 56.2649 95.7992 57.3314 95.7992C58.3978 95.7992 59.3062 95.0788 59.3062 94.2262V86.4337C59.3062 82.3425 62.9071 79.018 67.3374 79.018H92.7343L92.6948 76.9955C92.6948 75.1184 90.9898 70.5514 89.7127 68.4826C88.4356 66.4139 87.4943 63.1951 86.9677 61.2123L65.0137 61.1727Z" fill="#4462AC"/>
<path d="M94.8675 61.1721H56.7656V37.2461H94.8675V61.1721ZM60.7417 57.2064H90.9178V41.2117H60.7154L60.7417 57.2064Z" fill="#4462AC"/>
<path d="M88.1122 50.8281H78.6328V54.7938H88.1122V50.8281Z" fill="#4462AC"/>
<path d="M97.17 121.8C107.721 121.8 116.274 113.213 116.274 102.62C116.274 92.0268 107.721 83.4395 97.17 83.4395C86.6194 83.4395 78.0664 92.0268 78.0664 102.62C78.0664 113.213 86.6194 121.8 97.17 121.8Z" fill="#D4E4F5"/>
<path d="M97.1708 123.782C93.0045 123.782 88.9317 122.542 85.4675 120.218C82.0034 117.894 79.3034 114.591 77.709 110.726C76.1146 106.862 75.6974 102.609 76.5102 98.5063C77.3231 94.4036 79.3293 90.635 82.2754 87.6771C85.2214 84.7192 88.9749 82.7049 93.0611 81.8888C97.1474 81.0727 101.383 81.4916 105.232 83.0924C109.081 84.6932 112.371 87.404 114.686 90.8821C117.001 94.3602 118.236 98.4494 118.236 102.632C118.226 108.239 116.003 113.612 112.055 117.576C108.106 121.54 102.754 123.772 97.1708 123.782ZM97.1708 85.4481C93.7857 85.4481 90.4765 86.4559 87.6619 88.3441C84.8473 90.2324 82.6535 92.9162 81.3581 96.0563C80.0626 99.1963 79.7237 102.652 80.3841 105.985C81.0445 109.318 82.6746 112.38 85.0683 114.784C87.4619 117.187 90.5116 118.824 93.8317 119.487C97.1518 120.15 100.593 119.809 103.721 118.509C106.848 117.208 109.521 115.006 111.402 112.18C113.283 109.354 114.286 106.031 114.286 102.632C114.29 100.374 113.85 98.1361 112.991 96.0482C112.133 93.9602 110.872 92.0627 109.283 90.4642C107.693 88.8656 105.805 87.5975 103.727 86.7322C101.648 85.867 99.4207 85.4216 97.1708 85.4216V85.4481Z" fill="#4462AC"/>
<path d="M95.6365 116.778V113.414C93.6781 113.386 91.7566 112.875 90.041 111.927L90.9758 108.622C92.603 109.604 94.4622 110.131 96.3606 110.149C98.5725 110.149 100.054 109.072 100.054 107.446C100.054 105.82 98.849 104.881 96.2553 103.943C92.6676 102.621 90.2846 100.929 90.2846 97.7364C90.2846 94.7556 92.3582 92.4489 95.8406 91.788V88.4238H98.6713V91.6096C100.328 91.6356 101.957 92.0378 103.437 92.786L102.502 95.9717C101.065 95.1764 99.4504 94.7581 97.8088 94.7556C95.3929 94.7556 94.5174 96.0048 94.5174 97.1813C94.5174 98.6023 95.7616 99.4351 98.7305 100.578C102.595 102.033 104.286 103.883 104.286 107.023C104.286 109.97 102.252 112.535 98.4869 113.156V116.725L95.6365 116.778Z" fill="#4462AC"/>
<path d="M83.0505 86.8691H60.2012V90.8348H83.0505V86.8691Z" fill="#4462AC"/>
<path d="M83.0506 118.369H61.5903L52.7363 109.48V96.5781H56.6861V107.841L63.2295 114.404H83.0506V118.369Z" fill="#4462AC"/>
<path d="M133.561 114.404H110.1V118.37H133.561V114.404Z" fill="#4462AC"/>
<path d="M141.606 108.052H137.656V97.3979L131.112 90.8348H111.146V86.8691H132.752L141.606 95.7588V108.052Z" fill="#4462AC"/>
<path d="M141.039 84.9686L138.609 87.4082L141.402 90.2123L143.832 87.7727L141.039 84.9686Z" fill="#4462AC"/>
<path d="M52.9372 115.119L50.5078 117.559L53.3012 120.362L55.7306 117.922L52.9372 115.119Z" fill="#4462AC"/>
<path d="M130.744 100.637H120.883V104.602H130.744V100.637Z" fill="#4462AC"/>
<path d="M73.4589 100.637H63.5977V104.602H73.4589V100.637Z" fill="#4462AC"/>
<path d="M112.517 39.3223H105.4V40.968H112.517V39.3223Z" fill="#4462AC"/>
<path d="M109.784 36.5723H108.139V43.717H109.784V36.5723Z" fill="#4462AC"/>
<path d="M118.783 30.4727H112.457V31.8871H118.783V30.4727Z" fill="#4462AC"/>
<path d="M116.327 28H114.918V34.3516H116.327V28Z" fill="#4462AC"/>
<path d="M123.213 35.9844H118.625V37.3988H123.213V35.9844Z" fill="#4462AC"/>
<path d="M121.62 34.3906H120.211V38.9974H121.62V34.3906Z" fill="#4462AC"/>
<path d="M118.678 41.9648H115.301V42.91H118.678V41.9648Z" fill="#4462AC"/>
<path d="M117.459 40.7422H116.518V44.1328H117.459V40.7422Z" fill="#4462AC"/>
<path d="M108.705 29.625H105.031V30.5701H108.705V29.625Z" fill="#4462AC"/>
<path d="M107.334 28.252H106.393V31.94H107.334V28.252Z" fill="#4462AC"/>
<path d="M159.255 42.667L137.347 44.1343C136.822 44.1707 136.319 44.3578 135.897 44.6733C135.475 44.9887 135.152 45.4193 134.967 45.9137C134.782 46.4082 134.742 46.9456 134.852 47.4621C134.963 47.9786 135.219 48.4523 135.59 48.8269L137.88 51.127L120.186 68.8931C120.186 68.8931 127.394 75.1654 133.253 74.1806C139.111 73.1958 146.491 74.3326 146.491 74.3326L153.732 67.0623L156.023 69.3623C156.396 69.7347 156.868 69.9917 157.382 70.1025C157.897 70.2133 158.432 70.1734 158.924 69.9874C159.417 69.8015 159.846 69.4774 160.16 69.0537C160.474 68.63 160.661 68.1246 160.697 67.5976L162.158 45.6016C162.184 45.2112 162.127 44.8197 161.99 44.4532C161.854 44.0867 161.641 43.7536 161.367 43.4759C161.092 43.1983 160.762 42.9826 160.398 42.8432C160.034 42.7037 159.644 42.6437 159.255 42.667Z" fill="#7393CB"/>
<path d="M129.54 56.467C129.54 55.9412 129.332 55.4368 128.961 55.065C128.591 54.6931 128.089 54.4842 127.565 54.4842L115.854 54.4512C115.566 54.4506 115.285 54.5357 115.045 54.6957C114.805 54.8558 114.619 55.0836 114.508 55.3503C114.397 55.6171 114.368 55.9107 114.424 56.1942C114.479 56.4777 114.617 56.7383 114.82 56.9429L116.242 58.3705L101.51 73.1623C102.558 73.8744 103.769 74.3084 105.029 74.424C106.29 74.5396 107.559 74.3329 108.718 73.8233C112.984 72.1379 117.934 75.6805 117.934 75.6805L125.715 67.8682L127.124 69.2496C127.328 69.4536 127.587 69.5922 127.87 69.6481C128.152 69.7039 128.444 69.6744 128.71 69.5634C128.976 69.4523 129.203 69.2646 129.362 69.0241C129.521 68.7835 129.606 68.5009 129.606 68.2119L129.54 56.467Z" fill="#7393CB"/>
<path d="M148.589 46.0627L149.155 37.53C149.162 37.4276 149.147 37.3248 149.111 37.2287C149.075 37.1326 149.019 37.0454 148.947 36.9728C148.875 36.9002 148.788 36.8439 148.692 36.8078C148.596 36.7716 148.494 36.7565 148.392 36.7633L139.893 37.3317C139.673 37.3504 139.463 37.4312 139.287 37.5646C139.11 37.6981 138.975 37.8789 138.897 38.0861C138.818 38.2933 138.8 38.5186 138.843 38.736C138.887 38.9533 138.991 39.1539 139.143 39.3146L146.588 46.7898C146.745 46.9497 146.945 47.061 147.164 47.1106C147.382 47.1601 147.61 47.1458 147.82 47.0693C148.031 46.9928 148.215 46.8573 148.352 46.679C148.488 46.5006 148.57 46.2867 148.589 46.0627Z" fill="#7393CB"/>
<path d="M130.132 60.0821L128.967 58.9122L136.715 51.133L135.023 49.4211C134.541 48.9343 134.208 48.3184 134.064 47.647C133.92 46.9755 133.972 46.2767 134.213 45.6339C134.453 44.991 134.873 44.4312 135.422 44.0211C135.97 43.611 136.625 43.3679 137.307 43.3207L143.469 42.9043L143.581 44.55L137.419 44.9664C137.048 44.9887 136.691 45.1187 136.392 45.3407C136.092 45.5626 135.864 45.867 135.733 46.2169C135.603 46.5667 135.577 46.9471 135.657 47.3117C135.738 47.6763 135.923 48.0096 136.188 48.2711L139.065 51.1594L130.132 60.0821Z" fill="#4462AC"/>
<path d="M114.247 75.8L113.299 74.8614L114.694 73.4602L115.623 74.3922L114.247 75.8ZM117.038 72.9976L116.11 72.0657L117.505 70.6645L118.433 71.5964L117.038 72.9976ZM119.829 70.1952L118.901 69.2501L120.296 67.8489L121.198 68.7874L119.829 70.1952ZM122.62 67.3928L121.692 66.4609L123.088 65.0597L124.016 65.9916L122.62 67.3928ZM125.411 64.5905L124.49 63.6453L125.885 62.2441L126.814 63.176L125.411 64.5905Z" fill="#4462AC"/>
<path d="M150.038 71.9384L148.846 70.7686L153.704 65.8908L156.581 68.7791C156.842 69.0459 157.174 69.231 157.537 69.3121C157.9 69.3931 158.279 69.3666 158.627 69.2358C158.976 69.1049 159.279 68.8753 159.5 68.5749C159.721 68.2745 159.85 67.9161 159.873 67.5432L161.354 45.5472C161.372 45.273 161.332 44.9981 161.236 44.7408C161.14 44.4835 160.991 44.2498 160.797 44.0552C160.604 43.8606 160.372 43.7096 160.116 43.6124C159.86 43.5153 159.586 43.4741 159.313 43.4917L148.846 44.1923L148.734 42.5465L159.221 41.8459C159.729 41.8118 160.238 41.8871 160.714 42.0666C161.19 42.2462 161.623 42.526 161.982 42.8871C162.342 43.2483 162.621 43.6825 162.799 44.1607C162.978 44.6389 163.053 45.1499 163.019 45.6595L161.558 67.6556C161.513 68.3483 161.269 69.013 160.854 69.5688C160.44 70.1247 159.874 70.5477 159.225 70.7864C158.575 71.0252 157.871 71.0694 157.197 70.9137C156.523 70.758 155.909 70.4091 155.429 69.9094L153.718 68.1909L150.038 71.9384Z" fill="#4462AC"/>
<path d="M156.166 47.9616L155.518 58.6953L156.832 58.7753L157.48 48.0416L156.166 47.9616Z" fill="#4462AC"/>
<path d="M152.959 51.1842L152.311 61.918L153.625 61.998L154.273 51.2643L152.959 51.1842Z" fill="#4462AC"/>
<path d="M149.742 54.4147L149.094 65.1484L150.408 65.2284L151.056 54.4947L149.742 54.4147Z" fill="#4462AC"/>
<path d="M146.507 57.6288L145.98 66.4961L147.295 66.5747L147.821 57.7074L146.507 57.6288Z" fill="#4462AC"/>
<path d="M121.331 73.3598L120.165 72.19L125.675 66.658L127.65 68.6408C127.743 68.7169 127.854 68.7663 127.972 68.7837C128.09 68.8012 128.211 68.786 128.321 68.7398C128.432 68.6936 128.527 68.6182 128.598 68.5215C128.669 68.4249 128.712 68.3108 128.723 68.1913L128.69 56.4332C128.689 56.1217 128.565 55.8235 128.345 55.6033C128.126 55.383 127.829 55.2585 127.519 55.2568L115.808 55.2237C115.689 55.2349 115.575 55.2783 115.479 55.3494C115.382 55.4205 115.307 55.5166 115.261 55.6273C115.215 55.738 115.2 55.8592 115.218 55.9779C115.235 56.0966 115.284 56.2083 115.36 56.301L117.335 58.2838L104.827 70.8417L103.662 69.6718L115.004 58.2838L114.168 57.4445C113.852 57.1247 113.636 56.718 113.549 56.2755C113.462 55.8331 113.507 55.3746 113.679 54.9578C113.85 54.541 114.141 54.1845 114.514 53.9331C114.887 53.6817 115.325 53.5466 115.775 53.5449L127.486 53.578C128.231 53.5832 128.944 53.8831 129.47 54.4127C129.996 54.9423 130.293 55.6588 130.297 56.4068L130.33 68.1649C130.33 68.617 130.198 69.0593 129.948 69.4358C129.699 69.8123 129.344 70.1061 128.928 70.2801C128.513 70.4541 128.055 70.5005 127.613 70.4134C127.171 70.3263 126.765 70.1097 126.446 69.7908L125.61 68.9448L121.331 73.3598Z" fill="#4462AC"/>
<path d="M147.411 47.8273C147.167 47.8309 146.924 47.7848 146.698 47.6916C146.472 47.5985 146.266 47.4602 146.095 47.2853L138.65 39.8101C138.401 39.5605 138.229 39.2443 138.155 38.8993C138.08 38.5543 138.107 38.1951 138.23 37.8646C138.354 37.5341 138.569 37.2464 138.852 37.0358C139.134 36.8253 139.471 36.7007 139.821 36.6772L148.32 36.1088C148.516 36.0951 148.713 36.1238 148.897 36.193C149.082 36.2623 149.249 36.3704 149.388 36.5101C149.527 36.6498 149.635 36.8178 149.704 37.0028C149.773 37.1879 149.802 37.3856 149.788 37.5827L149.241 46.1154C149.221 46.4689 149.097 46.8086 148.887 47.0928C148.676 47.3769 148.388 47.5932 148.057 47.7149C147.85 47.7904 147.631 47.8285 147.411 47.8273ZM148.392 36.7631L148.438 37.4241L139.94 37.9925C139.848 38.006 139.762 38.0441 139.69 38.1028C139.618 38.1616 139.563 38.2387 139.532 38.3261C139.5 38.4135 139.492 38.5079 139.51 38.5993C139.527 38.6906 139.569 38.7756 139.63 38.8451L147.076 46.3203C147.145 46.3904 147.234 46.4388 147.33 46.4598C147.427 46.4807 147.527 46.4733 147.62 46.4384C147.712 46.4036 147.792 46.3427 147.851 46.2631C147.91 46.1836 147.945 46.0887 147.951 45.9898L148.517 37.4571L148.392 36.7631Z" fill="#4462AC"/>
<path d="M145.813 39.5796L145.512 43.0098L146.823 43.1259L147.125 39.6957L145.813 39.5796Z" fill="#4462AC"/>
<path d="M136.998 77.6368L136.07 76.7049L143.16 69.5866C143.494 69.2518 143.682 68.7973 143.683 68.3232C143.684 67.8491 143.497 67.3942 143.163 67.0585C142.83 66.7228 142.377 66.5339 141.905 66.5333C141.433 66.5326 140.98 66.7204 140.645 67.0552L137.894 69.8179C137.313 70.4007 136.526 70.7282 135.705 70.7282C134.884 70.7282 134.097 70.4007 133.516 69.8179C132.936 69.2351 132.609 68.4445 132.609 67.6203C132.609 66.796 132.936 66.0055 133.516 65.4227L142.317 56.5859L143.246 57.5178L134.444 66.3546C134.111 66.6894 133.923 67.1435 133.923 67.617C133.923 68.0905 134.111 68.5446 134.444 68.8794C134.778 69.2142 135.23 69.4023 135.702 69.4023C136.173 69.4023 136.625 69.2142 136.959 68.8794L139.711 66.1167C139.998 65.8281 140.339 65.5991 140.715 65.4429C141.09 65.2867 141.493 65.2064 141.899 65.2064C142.306 65.2064 142.708 65.2867 143.084 65.4429C143.46 65.5991 143.801 65.8281 144.088 66.1167C144.376 66.4053 144.604 66.7479 144.759 67.1249C144.915 67.502 144.995 67.9062 144.995 68.3143C144.995 68.7224 144.915 69.1265 144.759 69.5036C144.604 69.8807 144.376 70.2233 144.088 70.5119L136.998 77.6368Z" fill="#4462AC"/>
<path d="M140.578 57.1869H142.632V59.249L143.501 58.37V56.3145H141.454L140.578 57.1869Z" fill="#4462AC"/>
<path d="M47.2918 145.813C47.1172 145.813 46.9498 145.743 46.8264 145.619C46.7029 145.495 46.6335 145.327 46.6335 145.152C46.6318 143.642 46.0334 142.193 44.9696 141.125C43.9058 140.057 42.4635 139.456 40.9591 139.455C40.7845 139.455 40.6171 139.385 40.4936 139.261C40.3701 139.137 40.3008 138.969 40.3008 138.794C40.3008 138.618 40.3701 138.45 40.4936 138.326C40.6171 138.202 40.7845 138.133 40.9591 138.133C42.8133 138.136 44.5905 138.878 45.901 140.195C47.2115 141.512 47.9484 143.297 47.9501 145.159C47.9484 145.333 47.8783 145.499 47.755 145.622C47.6318 145.744 47.4653 145.813 47.2918 145.813Z" fill="#4462AC"/>
<path d="M47.293 145.811C47.1276 145.813 46.9678 145.751 46.8453 145.64L44.3702 143.359C44.3001 143.303 44.2423 143.232 44.2005 143.152C44.1586 143.072 44.1336 142.984 44.1268 142.894C44.1201 142.804 44.1319 142.713 44.1614 142.628C44.1909 142.543 44.2376 142.464 44.2984 142.398C44.3593 142.331 44.4332 142.278 44.5154 142.241C44.5976 142.204 44.6865 142.185 44.7765 142.184C44.8665 142.183 44.9558 142.201 45.0387 142.236C45.1217 142.271 45.1966 142.322 45.2589 142.388L47.056 144.04L48.0303 141.8C48.0617 141.716 48.1099 141.639 48.1718 141.574C48.2337 141.509 48.3081 141.458 48.3904 141.423C48.4727 141.388 48.5613 141.371 48.6506 141.371C48.74 141.372 48.8283 141.39 48.9102 141.426C48.9921 141.462 49.0658 141.515 49.1269 141.58C49.188 141.646 49.2352 141.723 49.2656 141.807C49.2959 141.892 49.3089 141.981 49.3037 142.071C49.2984 142.161 49.275 142.248 49.2349 142.328L47.9184 145.422C47.8765 145.518 47.8123 145.603 47.731 145.67C47.6497 145.737 47.5537 145.783 47.451 145.805L47.293 145.811Z" fill="#4462AC"/>
<path d="M40.9455 152.17C39.7715 152.17 38.6165 151.873 37.5882 151.304C37.5125 151.261 37.4462 151.203 37.3928 151.133C37.3395 151.064 37.3002 150.985 37.2773 150.901C37.2544 150.816 37.2482 150.728 37.2592 150.642C37.2702 150.555 37.2981 150.471 37.3413 150.395C37.3846 150.319 37.4422 150.253 37.5111 150.199C37.58 150.145 37.6587 150.106 37.7428 150.083C37.8268 150.06 37.9146 150.054 38.001 150.065C38.0874 150.076 38.1708 150.104 38.2465 150.147C39.5637 150.864 41.1093 151.03 42.5478 150.609C43.9862 150.189 45.2011 149.215 45.9287 147.9C45.972 147.824 46.0297 147.757 46.0986 147.704C46.1674 147.65 46.2461 147.611 46.3302 147.588C46.4142 147.565 46.502 147.559 46.5884 147.57C46.6749 147.581 46.7582 147.609 46.8339 147.652C46.9095 147.696 46.9759 147.754 47.0293 147.823C47.0826 147.892 47.1219 147.971 47.1448 148.055C47.1677 148.14 47.1739 148.228 47.1629 148.315C47.1519 148.401 47.124 148.485 47.0807 148.561C46.4725 149.658 45.5827 150.571 44.5037 151.206C43.4247 151.841 42.196 152.174 40.9455 152.17Z" fill="#4462AC"/>
<path d="M39.9581 154.055C39.8575 154.055 39.7583 154.031 39.6682 153.987C39.5781 153.942 39.4993 153.877 39.438 153.797L37.3841 151.154C37.3198 151.07 37.2763 150.973 37.2571 150.869C37.238 150.766 37.2438 150.659 37.2741 150.558C37.3043 150.457 37.3582 150.365 37.4312 150.289C37.5041 150.213 37.5941 150.156 37.6935 150.122L40.8862 149.025C40.9695 148.991 41.059 148.973 41.1492 148.975C41.2394 148.976 41.3283 148.996 41.4105 149.033C41.4927 149.071 41.5663 149.125 41.6269 149.192C41.6874 149.259 41.7336 149.338 41.7626 149.424C41.7915 149.509 41.8026 149.6 41.7951 149.69C41.7876 149.781 41.7617 149.868 41.719 149.948C41.6763 150.028 41.6178 150.098 41.547 150.154C41.4763 150.21 41.3947 150.251 41.3075 150.275L38.9969 151.054L40.4847 152.991C40.5596 153.089 40.6058 153.205 40.618 153.328C40.6303 153.451 40.6081 153.575 40.554 153.685C40.4999 153.796 40.416 153.889 40.3119 153.955C40.2077 154.02 40.0874 154.055 39.9646 154.055H39.9581Z" fill="#4462AC"/>
<path d="M35.4501 148.959C35.3341 148.959 35.22 148.929 35.1195 148.871C35.0189 148.813 34.9354 148.729 34.8774 148.628C33.9636 147.007 33.7276 145.088 34.2213 143.293C34.715 141.497 35.8979 139.972 37.5106 139.051C37.6624 138.963 37.8428 138.94 38.0119 138.986C38.1811 139.032 38.3251 139.143 38.4124 139.296C38.4997 139.448 38.5231 139.629 38.4774 139.799C38.4317 139.969 38.3207 140.113 38.1688 140.201C36.8623 140.951 35.9053 142.19 35.5079 143.647C35.1105 145.104 35.3052 146.66 36.0492 147.974C36.1071 148.074 36.1375 148.189 36.1374 148.305C36.1372 148.421 36.1066 148.535 36.0485 148.636C35.9904 148.736 35.9069 148.82 35.8065 148.878C35.706 148.935 35.5922 148.966 35.4765 148.965L35.4501 148.959Z" fill="#4462AC"/>
<path d="M37.068 143.573H36.9231C36.8388 143.553 36.7592 143.517 36.6887 143.467C36.6183 143.416 36.5584 143.352 36.5125 143.279C36.4667 143.205 36.4357 143.123 36.4215 143.037C36.4072 142.952 36.4099 142.864 36.4294 142.779L36.9758 140.393L34.5533 140.651C34.3787 140.67 34.204 140.618 34.0676 140.507C33.9311 140.396 33.8442 140.235 33.8259 140.06C33.8076 139.884 33.8593 139.709 33.9698 139.572C34.0803 139.435 34.2404 139.348 34.415 139.329L37.7526 138.972C37.8569 138.961 37.9625 138.975 38.0603 139.014C38.1582 139.052 38.2455 139.113 38.3151 139.192C38.3847 139.27 38.4345 139.365 38.4603 139.467C38.4861 139.569 38.4872 139.676 38.4635 139.779L37.7131 143.084C37.675 143.225 37.5909 143.351 37.4741 143.439C37.3573 143.528 37.2144 143.575 37.068 143.573Z" fill="#4462AC"/>
<path d="M84.9327 153.677C83.3851 153.678 81.8746 153.202 80.6053 152.313C79.3359 151.424 78.3689 150.166 77.835 148.707C77.3012 147.249 77.2261 145.661 77.62 144.158C78.0138 142.656 78.8577 141.311 80.0374 140.305C81.2172 139.3 82.676 138.682 84.2167 138.536C85.7573 138.389 87.3056 138.721 88.6522 139.487C89.9988 140.253 91.0789 141.415 91.7464 142.817C92.4138 144.219 92.6366 145.792 92.3845 147.325C92.0904 149.098 91.1806 150.708 89.8165 151.871C88.4523 153.033 86.7221 153.673 84.9327 153.677ZM84.9327 139.797C83.3204 139.796 81.7703 140.421 80.6064 141.541C79.4425 142.661 78.7549 144.19 78.6874 145.807C78.6199 147.425 79.1778 149.005 80.2444 150.219C81.311 151.433 82.8036 152.186 84.4103 152.32C86.0169 152.455 87.6131 151.96 88.8651 150.941C90.1171 149.921 90.9279 148.454 91.128 146.848C91.3281 145.242 90.9019 143.62 89.9387 142.322C88.9755 141.024 87.5497 140.15 85.9596 139.883C85.6151 139.835 85.2673 139.815 84.9195 139.824L84.9327 139.797Z" fill="#4462AC"/>
<path d="M81.543 150.155C81.4122 150.156 81.2842 150.118 81.1753 150.045C81.0663 149.973 80.9813 149.869 80.9312 149.748C80.881 149.627 80.868 149.493 80.8937 149.364C80.9194 149.236 80.9827 149.118 81.0756 149.025L87.856 142.218C87.9819 142.109 88.1439 142.053 88.3096 142.059C88.4753 142.066 88.6324 142.134 88.7497 142.252C88.8669 142.37 88.9356 142.528 88.942 142.694C88.9484 142.86 88.892 143.023 88.7842 143.149L82.0038 149.957C81.8822 150.082 81.7166 150.153 81.543 150.155Z" fill="#4462AC"/>
<path d="M82.4788 145.62C82.0882 145.62 81.7064 145.504 81.3816 145.286C81.0568 145.068 80.8037 144.758 80.6542 144.396C80.5048 144.034 80.4657 143.635 80.5419 143.25C80.6181 142.866 80.8061 142.512 81.0823 142.235C81.3585 141.958 81.7104 141.769 82.0935 141.692C82.4766 141.616 82.8737 141.655 83.2345 141.805C83.5954 141.955 83.9038 142.209 84.1208 142.536C84.3378 142.862 84.4536 143.245 84.4536 143.637C84.4536 144.163 84.2456 144.667 83.8752 145.039C83.5049 145.411 83.0025 145.62 82.4788 145.62ZM82.4788 142.976C82.3486 142.976 82.2213 143.015 82.1131 143.088C82.0048 143.16 81.9204 143.263 81.8706 143.384C81.8207 143.505 81.8077 143.638 81.8331 143.766C81.8585 143.894 81.9212 144.012 82.0133 144.104C82.1053 144.197 82.2227 144.26 82.3503 144.285C82.478 144.311 82.6104 144.298 82.7307 144.248C82.851 144.198 82.9538 144.113 83.0261 144.004C83.0984 143.896 83.137 143.768 83.137 143.637C83.1397 143.549 83.1246 143.461 83.0927 143.378C83.0608 143.296 83.0128 143.22 82.9514 143.157C82.89 143.093 82.8165 143.043 82.7353 143.008C82.6542 142.974 82.5669 142.956 82.4788 142.956V142.976Z" fill="#4462AC"/>
<path d="M87.389 150.544C86.9984 150.544 86.6165 150.427 86.2917 150.21C85.967 149.992 85.7139 149.682 85.5644 149.32C85.4149 148.957 85.3758 148.559 85.452 148.174C85.5282 147.79 85.7163 147.436 85.9925 147.159C86.2687 146.882 86.6206 146.693 87.0037 146.616C87.3868 146.54 87.7838 146.579 88.1447 146.729C88.5055 146.879 88.814 147.133 89.031 147.459C89.248 147.785 89.3638 148.169 89.3638 148.561C89.3638 149.087 89.1557 149.591 88.7854 149.963C88.415 150.335 87.9127 150.544 87.389 150.544ZM87.389 147.9C87.2588 147.9 87.1315 147.939 87.0232 148.011C86.915 148.084 86.8306 148.187 86.7808 148.308C86.7309 148.429 86.7179 148.562 86.7433 148.69C86.7687 148.818 86.8314 148.936 86.9235 149.028C87.0155 149.121 87.1328 149.184 87.2605 149.209C87.3882 149.235 87.5206 149.222 87.6409 149.172C87.7612 149.122 87.864 149.037 87.9363 148.928C88.0086 148.819 88.0472 148.692 88.0472 148.561C88.0472 148.386 87.9779 148.218 87.8544 148.094C87.731 147.97 87.5635 147.9 87.389 147.9Z" fill="#4462AC"/>
<path d="M67.2186 168.001H63.2688V164.035H67.2186V168.001ZM59.3191 168.001H55.3693V164.035H59.3191V168.001ZM51.4196 168.001H47.4698V164.035H51.4196V168.001ZM43.5201 168.001H39.5704V164.035H43.5201V168.001ZM35.6206 168.001H32V164.035H35.6206V168.001Z" fill="#4462AC"/>
<path d="M96.1045 164.035H71.6621V168.001H96.1045V164.035Z" fill="#4462AC"/>
</svg>
