<svg width="196" height="196" viewBox="0 0 196 196" fill="none" xmlns="http://www.w3.org/2000/svg">
<path d="M97.8568 195.714C151.902 195.714 195.714 151.902 195.714 97.8568C195.714 43.812 151.902 0 97.8568 0C43.812 0 0 43.812 0 97.8568C0 151.902 43.812 195.714 97.8568 195.714Z" fill="#B4F5C9"/>
<path d="M78.2756 105.351L76.8325 111.409C76.705 111.94 76.382 112.404 75.9279 112.707C75.4738 113.011 74.922 113.132 74.3824 113.047L66.5734 111.815C66.0336 111.73 65.5458 111.444 65.2072 111.015C64.8687 110.586 64.7044 110.045 64.747 109.5L65.2431 103.292C61.8695 101.975 58.7571 100.069 56.0512 97.6625L50.745 100.932C50.2794 101.218 49.7228 101.319 49.1864 101.213C48.6501 101.107 48.1734 100.803 47.8514 100.361L43.1992 93.9722C42.877 93.5299 42.7336 92.9823 42.7977 92.4389C42.8618 91.8955 43.1286 91.3963 43.5449 91.0411L48.2874 86.9975C46.831 83.6826 45.9759 80.1349 45.762 76.5205L39.7118 75.0699C39.1806 74.9424 38.717 74.6194 38.4134 74.1653C38.1097 73.7112 37.9883 73.1594 38.0734 72.6197L39.336 64.8258C39.4213 64.286 39.707 63.7982 40.1361 63.4597C40.5651 63.1212 41.106 62.9569 41.6509 62.9995L47.859 63.4955C49.1754 60.122 51.0816 57.0095 53.4883 54.3037L50.219 48.9975C49.9325 48.5318 49.8322 47.9752 49.9381 47.4389C50.044 46.9025 50.3482 46.4258 50.7901 46.1039L57.1786 41.4516C57.6209 41.1294 58.1685 40.986 58.7119 41.0501C59.2554 41.1142 59.7546 41.3811 60.1098 41.7973L64.1383 46.5097C67.4532 45.0533 71.0009 44.1983 74.6153 43.9844L76.0584 37.9266C76.1859 37.3955 76.5089 36.9319 76.963 36.6282C77.4171 36.3246 77.9689 36.2032 78.5085 36.2882L86.3175 37.5208C86.8573 37.6061 87.3451 37.8918 87.6836 38.3209C88.0222 38.7499 88.1865 39.2908 88.1438 39.8357L87.6478 46.0438C91.0214 47.3602 94.1338 49.2664 96.8397 51.6731L102.146 48.4037C102.612 48.1173 103.168 48.017 103.704 48.1229C104.241 48.2288 104.718 48.533 105.039 48.9749L109.692 55.3634C110.014 55.8057 110.157 56.3533 110.093 56.8967C110.029 57.4402 109.762 57.9394 109.346 58.2946L104.604 62.3381C106.052 65.6545 106.9 69.2021 107.106 72.8152L113.164 74.2582C113.695 74.3858 114.159 74.7087 114.462 75.1628C114.766 75.6169 114.888 76.1688 114.803 76.7084L113.57 84.5173C113.485 85.0571 113.199 85.545 112.77 85.8835C112.341 86.222 111.8 86.3863 111.255 86.3437L105.047 85.8476C103.73 89.2211 101.824 92.3336 99.4176 95.0395L102.687 100.346C102.973 100.811 103.074 101.368 102.968 101.904C102.862 102.441 102.558 102.917 102.116 103.239L95.7048 107.914C95.2625 108.236 94.7149 108.38 94.1714 108.316C93.628 108.251 93.1288 107.985 92.7736 107.568L88.7301 102.826C85.4221 104.28 81.8824 105.135 78.2756 105.351Z" fill="#D4E4F5"/>
<path d="M76.4431 94.98C87.6505 94.98 96.7359 85.8947 96.7359 74.6873C96.7359 63.4799 87.6505 54.3945 76.4431 54.3945C65.2358 54.3945 56.1504 63.4799 56.1504 74.6873C56.1504 85.8947 65.2358 94.98 76.4431 94.98Z" fill="#7393CB"/>
<path d="M78.1413 59.5586V62.7904C80.3068 62.8244 82.4308 63.3896 84.3268 64.4364L83.2971 68.0665C81.4962 66.9837 79.4384 66.4024 77.3371 66.383C74.8944 66.383 73.2485 67.5705 73.2485 69.3893C73.2485 71.2081 74.5863 72.2153 77.4498 73.2449C81.4257 74.6955 84.0562 76.5669 84.0562 80.0844C84.0562 83.3688 81.8015 85.9317 77.9083 86.6156V89.8474H74.7742V86.8411C72.945 86.8092 71.1466 86.3647 69.5131 85.5408L70.5428 82.0234C72.1338 82.8992 73.9201 83.3594 75.7362 83.3613C78.4118 83.3613 79.3664 81.9859 79.3664 80.6856C79.3664 79.1223 77.991 78.2054 74.7065 76.9277C70.43 75.3268 68.5586 73.26 68.5586 69.8252C68.5586 66.5784 70.8134 63.7524 74.9771 63.061V59.6037L78.1413 59.5586Z" fill="#7393CB"/>
<path d="M74.7214 115.333C74.4924 115.333 74.2638 115.316 74.0375 115.28L66.2286 114.048C65.123 113.879 64.1219 113.299 63.4253 112.424C62.7287 111.549 62.3878 110.443 62.4706 109.328L62.8389 104.743C60.327 103.612 57.9683 102.168 55.8191 100.444L51.9334 102.879C50.9831 103.46 49.8491 103.663 48.7563 103.447C47.6636 103.231 46.6918 102.613 46.0335 101.714L41.3812 95.3258C40.7301 94.4235 40.4413 93.3095 40.5721 92.2044C40.703 91.0994 41.2438 90.0837 42.0877 89.3583L45.5901 86.3519C44.6108 83.7761 43.9617 81.0865 43.6585 78.3476L39.149 77.2803C38.0664 77.0183 37.1217 76.3591 36.5023 75.4334C35.8828 74.5077 35.6337 73.383 35.8044 72.2823L37.0821 64.4733C37.2546 63.3693 37.8354 62.3703 38.7096 61.6743C39.5838 60.9783 40.6875 60.6361 41.8021 60.7154L46.3868 61.0837C47.5179 58.5718 48.9624 56.2131 50.6858 54.0639L48.2732 50.1482C47.694 49.1973 47.4923 48.0639 47.708 46.9716C47.9237 45.8793 48.541 44.9076 49.4382 44.2482L55.8266 39.5959C56.729 38.9448 57.843 38.656 58.948 38.7869C60.0531 38.9177 61.0688 39.4585 61.7942 40.3024L64.8006 43.8048C67.3765 42.8258 70.066 42.1768 72.8049 41.8732L73.8722 37.3637C74.1357 36.2835 74.7941 35.3411 75.7177 34.722C76.6414 34.103 77.7634 33.8523 78.8627 34.0192L86.6867 35.3269C87.7915 35.4977 88.7915 36.0781 89.4878 36.9527C90.1841 37.8273 90.5257 38.9319 90.4446 40.0469L90.0763 44.6315C92.5882 45.7627 94.9469 47.2072 97.0961 48.9306L100.967 46.5105C101.917 45.9296 103.051 45.7269 104.144 45.9427C105.237 46.1584 106.208 46.7769 106.867 47.6754L111.519 54.0639C112.168 54.9669 112.456 56.0804 112.325 57.185C112.195 58.2896 111.655 59.3051 110.812 60.0315L107.31 63.0378C108.286 65.6116 108.933 68.2986 109.234 71.0347L113.744 72.1019C114.826 72.3639 115.771 73.0231 116.39 73.9488C117.01 74.8746 117.259 75.9992 117.088 77.0999L115.856 84.9089C115.683 86.0129 115.102 87.0119 114.228 87.7079C113.354 88.4039 112.25 88.7461 111.136 88.6668L106.551 88.2985C105.42 90.8104 103.975 93.1691 102.252 95.3183L104.665 99.2341C105.244 100.185 105.445 101.318 105.23 102.411C105.014 103.503 104.397 104.475 103.5 105.134L97.1111 109.786C96.2087 110.437 95.0948 110.726 93.9897 110.595C92.8847 110.465 91.8689 109.924 91.1435 109.08L88.1372 105.577C85.5613 106.557 82.8718 107.206 80.1329 107.509L79.0656 112.018C78.8132 112.975 78.249 113.821 77.4623 114.421C76.6755 115.021 75.711 115.342 74.7214 115.333ZM67.0102 109.644L74.6613 110.816L76.4726 103.202L78.1487 103.105C81.4962 102.908 84.7819 102.117 87.8516 100.767L89.3548 100.091L94.4355 106.051L100.704 101.496L96.6 94.8298L97.7124 93.5746C99.9428 91.0711 101.709 88.1901 102.928 85.0667L103.537 83.5034L111.339 84.1272L112.549 76.4761L104.935 74.6648L104.837 72.9888C104.641 69.6413 103.85 66.3556 102.5 63.2858L101.824 61.7827L107.784 56.702L103.221 50.3962L96.555 54.4998L95.2998 53.3875C92.7941 51.1562 89.9105 49.3899 86.7844 48.1715L85.2211 47.5627L85.8449 39.7613L78.1938 38.5512L76.3825 46.1648L74.7064 46.2625C71.3589 46.4587 68.0731 47.2502 65.0035 48.5999L63.5003 49.2763L58.4196 43.3163L52.1514 47.8709L56.2551 54.5374L55.1202 55.8076C52.889 58.3133 51.1227 61.197 49.9042 64.323L49.2954 65.8863L41.4939 65.2625L40.2839 72.9136L47.8974 74.7249L47.9951 76.401C48.1915 79.7485 48.983 83.0342 50.3326 86.1039L51.009 87.6071L45.0489 92.6878L49.6035 98.956L56.2701 94.8523L57.5252 95.9647C60.0309 98.1959 62.9146 99.9623 66.0407 101.181L67.6039 101.789L67.0102 109.644Z" fill="#4462AC"/>
<path d="M76.442 97.2435C71.9826 97.2435 67.6232 95.9211 63.9153 93.4435C60.2074 90.966 57.3174 87.4445 55.6109 83.3245C53.9043 79.2045 53.4578 74.6709 54.3278 70.2971C55.1978 65.9234 57.3452 61.9058 60.4986 58.7525C63.6519 55.5991 67.6695 53.4517 72.0433 52.5817C76.417 51.7117 80.9506 52.1582 85.0706 53.8648C89.1906 55.5713 92.7121 58.4613 95.1896 62.1692C97.6672 65.8771 98.9895 70.2365 98.9895 74.6959C98.9895 80.6759 96.614 86.411 92.3855 90.6394C88.157 94.8679 82.422 97.2435 76.442 97.2435ZM76.442 56.6579C72.8745 56.6579 69.387 57.7159 66.4207 59.6979C63.4543 61.6799 61.1424 64.4971 59.7771 67.7931C58.4119 71.0891 58.0546 74.716 58.7506 78.215C59.4466 81.714 61.1646 84.9281 63.6873 87.4507C66.2099 89.9734 69.424 91.6914 72.923 92.3874C76.422 93.0834 80.0489 92.7261 83.3449 91.3609C86.6409 89.9956 89.458 87.6837 91.4401 84.7173C93.4221 81.751 94.48 78.2635 94.48 74.6959C94.481 72.3265 94.0152 69.9801 93.1091 67.7908C92.2031 65.6015 90.8746 63.6121 89.1995 61.9363C87.5244 60.2605 85.5356 58.9312 83.3466 58.0242C81.1577 57.1172 78.8115 56.6504 76.442 56.6504V56.6579Z" fill="#4462AC"/>
<path d="M78.1413 59.5586V62.7904C80.3068 62.8244 82.4308 63.3896 84.3268 64.4364L83.2971 68.0665C81.4962 66.9837 79.4384 66.4024 77.3371 66.383C74.8944 66.383 73.2485 67.5705 73.2485 69.3893C73.2485 71.2081 74.5863 72.2153 77.4498 73.2449C81.4257 74.6955 84.0562 76.5669 84.0562 80.0844C84.0562 83.3688 81.8015 85.9317 77.9083 86.6156V89.8474H74.7742V86.8411C72.945 86.8092 71.1466 86.3647 69.5131 85.5408L70.5428 82.0234C72.1338 82.8992 73.9201 83.3594 75.7362 83.3613C78.4118 83.3613 79.3664 81.9859 79.3664 80.6856C79.3664 79.1223 77.991 78.2054 74.7065 76.9277C70.43 75.3268 68.5586 73.26 68.5586 69.8252C68.5586 66.5784 70.8134 63.7524 74.9771 63.061V59.6037L78.1413 59.5586Z" fill="#4462AC"/>
<path d="M133.415 144.967L132.265 149.815C132.164 150.241 131.906 150.614 131.542 150.858C131.178 151.102 130.736 151.199 130.303 151.13L124.057 150.146C123.626 150.077 123.237 149.849 122.967 149.506C122.697 149.164 122.566 148.732 122.599 148.297L122.998 143.329C120.299 142.274 117.81 140.747 115.647 138.819L111.401 141.435C111.028 141.664 110.583 141.744 110.153 141.659C109.724 141.574 109.343 141.33 109.086 140.976L105.366 135.866C105.108 135.512 104.993 135.073 105.044 134.639C105.096 134.204 105.31 133.804 105.644 133.521L109.402 130.289C108.236 127.637 107.551 124.8 107.38 121.909L102.532 120.759C102.106 120.658 101.733 120.4 101.489 120.036C101.246 119.672 101.148 119.23 101.217 118.797L102.201 112.552C102.27 112.121 102.498 111.731 102.841 111.461C103.183 111.191 103.615 111.06 104.05 111.093L109.018 111.492C110.073 108.794 111.6 106.305 113.528 104.141L110.912 99.8949C110.683 99.5223 110.603 99.0767 110.688 98.6475C110.773 98.2183 111.017 97.8371 111.371 97.58L116.481 93.8596C116.835 93.6017 117.274 93.487 117.708 93.5386C118.143 93.5902 118.543 93.8042 118.826 94.1377L122.058 97.8956C124.71 96.7301 127.547 96.0455 130.438 95.8739L131.588 91.0262C131.689 90.5999 131.947 90.2275 132.311 89.9836C132.675 89.7397 133.117 89.6423 133.55 89.7109L139.796 90.6955C140.226 90.7641 140.616 90.9924 140.886 91.335C141.156 91.6776 141.287 92.1094 141.254 92.5444L140.855 97.5123C143.554 98.5675 146.043 100.094 148.206 102.022L152.452 99.4063C152.825 99.177 153.27 99.0968 153.7 99.1818C154.129 99.2668 154.51 99.5107 154.767 99.8648L158.487 104.976C158.745 105.329 158.86 105.768 158.808 106.203C158.757 106.637 158.543 107.037 158.209 107.32L154.451 110.552C155.617 113.204 156.302 116.041 156.473 118.932L161.321 120.165C161.747 120.266 162.12 120.524 162.363 120.888C162.607 121.252 162.705 121.694 162.636 122.127L161.652 128.372C161.583 128.803 161.355 129.193 161.012 129.463C160.67 129.733 160.238 129.864 159.803 129.83L154.835 129.432C153.78 132.13 152.253 134.619 150.325 136.783L152.941 141.029C153.17 141.402 153.25 141.847 153.165 142.276C153.08 142.706 152.836 143.087 152.482 143.344L147.372 147.064C147.018 147.322 146.579 147.437 146.144 147.385C145.71 147.334 145.31 147.12 145.027 146.786L141.795 143.028C139.138 144.165 136.301 144.822 133.415 144.967Z" fill="#D4E4F5"/>
<path d="M131.948 133.312C139.042 133.312 144.793 127.561 144.793 120.468C144.793 113.374 139.042 107.623 131.948 107.623C124.854 107.623 119.104 113.374 119.104 120.468C119.104 127.561 124.854 133.312 131.948 133.312Z" fill="#FEFFFB"/>
<path d="M130.573 153.423C130.367 153.424 130.161 153.409 129.957 153.378L123.711 152.393C122.719 152.234 121.822 151.708 121.2 150.918C120.577 150.129 120.275 149.134 120.351 148.132L120.615 144.78C118.776 143.926 117.041 142.864 115.444 141.616L112.58 143.382C111.723 143.906 110.7 144.088 109.714 143.894C108.729 143.699 107.852 143.14 107.259 142.33L103.539 137.219C102.953 136.404 102.694 135.4 102.813 134.404C102.931 133.408 103.418 132.493 104.177 131.838L106.74 129.658C106.043 127.755 105.567 125.778 105.32 123.766L102.05 123.014C101.076 122.776 100.226 122.18 99.6689 121.345C99.1122 120.51 98.8892 119.496 99.0441 118.505L100.029 112.259C100.189 111.269 100.714 110.375 101.499 109.752C102.285 109.13 103.275 108.823 104.275 108.892L107.627 109.162C108.483 107.323 109.548 105.588 110.799 103.991L109.033 101.128C108.509 100.271 108.326 99.2478 108.521 98.2622C108.716 97.2766 109.274 96.4002 110.085 95.8068L115.196 92.0864C116.01 91.4996 117.014 91.2395 118.011 91.3578C119.007 91.4761 119.923 91.9641 120.577 92.7253L122.757 95.2882C124.66 94.5913 126.637 94.1147 128.649 93.8677L129.401 90.5983C129.641 89.6243 130.237 88.7754 131.071 88.219C131.906 87.6626 132.919 87.4388 133.91 87.592L140.156 88.5765C141.147 88.7375 142.041 89.2648 142.662 90.054C143.283 90.8432 143.585 91.8368 143.508 92.838L143.245 96.1901C145.083 97.044 146.818 98.1056 148.416 99.3542L151.279 97.588C152.137 97.0659 153.159 96.8843 154.144 97.0791C155.13 97.2739 156.006 97.8309 156.6 98.6402L160.321 103.751C160.908 104.565 161.168 105.57 161.049 106.566C160.931 107.563 160.443 108.478 159.682 109.132L157.119 111.312C157.816 113.215 158.293 115.192 158.539 117.204L161.809 117.956C162.784 118.194 163.634 118.79 164.19 119.625C164.747 120.46 164.97 121.474 164.815 122.465L163.831 128.711C163.671 129.703 163.144 130.599 162.355 131.22C161.565 131.841 160.571 132.142 159.569 132.063L156.217 131.8C155.361 133.639 154.297 135.374 153.045 136.971L154.812 139.835C155.335 140.692 155.518 141.715 155.323 142.7C155.128 143.686 154.57 144.562 153.759 145.156L148.649 148.876C147.835 149.463 146.83 149.723 145.834 149.605C144.837 149.486 143.921 148.998 143.267 148.237L141.088 145.674C139.184 146.371 137.207 146.848 135.195 147.095L134.444 150.364C134.231 151.232 133.735 152.005 133.034 152.559C132.333 153.113 131.467 153.417 130.573 153.423ZM124.891 148.012L130.152 148.846L131.58 142.833L133.286 142.713C135.911 142.559 138.486 141.938 140.892 140.879L142.395 140.203L146.401 144.908L150.738 141.751L147.499 136.49L148.611 135.235C150.36 133.271 151.744 131.011 152.7 128.561L153.308 126.997L159.464 127.486L160.298 122.225L154.285 120.797L154.188 119.121C154.034 116.497 153.413 113.921 152.354 111.515L151.677 110.012L156.382 106.006L153.226 101.669L147.965 104.908L146.71 103.796C144.746 102.047 142.486 100.663 140.035 99.7075L138.472 99.0987L138.961 92.9432L133.7 92.109L132.272 98.1216L130.596 98.2193C127.971 98.3736 125.396 98.9947 122.99 100.053L121.486 100.73L117.48 96.0247L113.144 99.1814L116.383 104.442L115.248 105.66C113.499 107.624 112.115 109.884 111.16 112.334L110.551 113.897L104.395 113.409L103.561 118.67L109.574 120.098L109.671 121.774C109.817 124.407 110.433 126.994 111.49 129.41L112.167 130.913L107.462 134.919L110.618 139.256L115.88 136.016L117.135 137.129C119.101 138.876 121.364 140.258 123.816 141.21L125.38 141.819L124.891 148.012Z" fill="#4462AC"/>
<path d="M131.947 135.566C128.961 135.566 126.041 134.68 123.558 133.021C121.075 131.362 119.14 129.004 117.997 126.245C116.854 123.486 116.555 120.45 117.138 117.521C117.72 114.592 119.158 111.901 121.27 109.79C123.382 107.678 126.072 106.24 129.001 105.657C131.93 105.075 134.966 105.374 137.725 106.517C140.484 107.659 142.842 109.595 144.502 112.078C146.161 114.561 147.046 117.48 147.046 120.467C147.04 124.469 145.448 128.306 142.617 131.137C139.787 133.967 135.95 135.56 131.947 135.566ZM131.947 109.877C129.853 109.877 127.805 110.498 126.064 111.661C124.322 112.825 122.965 114.479 122.163 116.414C121.362 118.349 121.152 120.478 121.561 122.532C121.969 124.587 122.978 126.474 124.459 127.955C125.94 129.436 127.827 130.444 129.881 130.853C131.935 131.261 134.064 131.052 136 130.25C137.935 129.449 139.588 128.091 140.752 126.35C141.916 124.608 142.537 122.561 142.537 120.467C142.533 117.659 141.416 114.968 139.431 112.983C137.446 110.998 134.754 109.881 131.947 109.877Z" fill="#4462AC"/>
<path d="M98.6151 143.4L94.9925 140.393C96.0787 137.869 96.7073 135.171 96.8489 132.427C96.8489 132.427 94.271 128.609 91.4225 124.272C88.9498 120.514 82.8018 123.039 82.8018 123.039C84.3449 124.848 85.3229 127.07 85.6144 129.429C85.9059 131.789 85.498 134.182 84.4415 136.312C83.3849 138.442 81.7262 140.214 79.6712 141.41C77.6161 142.605 75.2553 143.171 72.8816 143.036C70.508 142.902 68.2261 142.073 66.3191 140.654C64.4122 139.234 62.9642 137.285 62.1548 135.05C61.3455 132.814 61.2104 130.39 61.7664 128.079C62.3224 125.767 63.545 123.67 65.2824 122.047C65.2824 122.047 61.2689 119.041 62.1333 116.726C62.9976 114.411 57.962 113.893 57.962 113.893L53.9185 111.442C53.5633 111.227 53.1397 111.153 52.7326 111.237C52.3255 111.32 51.9652 111.555 51.7238 111.893L48.229 116.771C47.9767 117.111 47.8649 117.534 47.9166 117.954C47.9684 118.374 48.1799 118.758 48.5071 119.026L52.1297 122.032C51.0432 124.557 50.4146 127.254 50.2733 129.999L45.6811 131.126C45.2773 131.225 44.9258 131.473 44.6972 131.82C44.4685 132.167 44.3797 132.588 44.4485 132.998L45.4256 138.913C45.4923 139.322 45.7113 139.692 46.0388 139.947C46.3664 140.202 46.7782 140.324 47.1918 140.288L51.9042 139.875C52.9215 142.428 54.3849 144.779 56.2258 146.819L53.7757 150.863C53.5599 151.218 53.4865 151.642 53.5701 152.049C53.6537 152.456 53.8883 152.816 54.2266 153.058L59.1044 156.552C59.4439 156.805 59.8676 156.917 60.2874 156.865C60.7073 156.813 61.091 156.601 61.3591 156.274L64.3655 152.652C66.8899 153.738 69.5876 154.367 72.3323 154.508L73.4596 159.1C73.5583 159.504 73.8061 159.856 74.1532 160.084C74.5003 160.313 74.9212 160.402 75.3311 160.333L81.246 159.356C81.6558 159.289 82.0252 159.07 82.2802 158.742C82.5353 158.415 82.6572 158.003 82.6214 157.59L82.2081 152.877C84.7609 151.86 87.1124 150.397 89.1527 148.556L93.1962 151.006C93.5514 151.221 93.975 151.295 94.3821 151.211C94.7892 151.128 95.1495 150.893 95.3908 150.555L98.8857 145.677C99.1457 145.337 99.2628 144.909 99.2123 144.483C99.1618 144.058 98.9476 143.67 98.6151 143.4Z" fill="#7393CB"/>
<path d="M75.0833 162.555C74.212 162.543 73.3697 162.24 72.6893 161.696C72.0088 161.152 71.529 160.396 71.3254 159.549L70.5738 156.543C68.7082 156.321 66.873 155.893 65.1023 155.265L63.1031 157.648C62.4679 158.396 61.5752 158.879 60.6012 159.002C59.6272 159.124 58.6427 158.877 57.842 158.309L52.9642 154.814C52.1675 154.24 51.6156 153.387 51.4179 152.425C51.2202 151.464 51.3912 150.462 51.897 149.621L53.5054 146.96C52.3284 145.486 51.32 143.886 50.499 142.188L47.4025 142.458C46.4248 142.54 45.4521 142.251 44.6769 141.65C43.9017 141.049 43.3804 140.178 43.2162 139.211L42.2391 133.296C42.0835 132.327 42.2966 131.335 42.8365 130.516C43.3763 129.696 44.2036 129.109 45.1553 128.869L48.1616 128.118C48.3831 126.252 48.8117 124.417 49.4393 122.646L47.0568 120.647C46.3083 120.012 45.8252 119.119 45.7027 118.145C45.5803 117.171 45.8274 116.187 46.3954 115.386L49.8602 110.546C50.4354 109.751 51.2879 109.2 52.2493 109.002C53.2108 108.805 54.2114 108.975 55.0536 109.479L59.0971 111.929L56.7597 115.784L53.1972 113.627L50.3638 117.588L54.8733 121.346L54.2119 122.849C53.2301 125.128 52.6625 127.564 52.5358 130.042L52.4532 131.718L46.7787 133.116L47.5754 137.926L53.3926 137.415L54.0164 138.971C54.936 141.276 56.2595 143.399 57.9247 145.239L59.0445 146.487L56.0382 151.485L59.999 154.318L63.757 149.809L65.2601 150.47C67.5389 151.452 69.9746 152.019 72.4528 152.146L74.1288 152.229L75.5192 157.903L80.3294 157.106L79.8183 151.289L81.3741 150.665C83.6791 149.745 85.8017 148.422 87.6423 146.757L88.8899 145.637L93.8879 148.644L96.7214 144.683L92.2119 140.925L92.8733 139.422C93.8551 137.143 94.4226 134.707 94.5493 132.229L99.0588 132.462C98.9337 134.906 98.4552 137.318 97.6383 139.625L100.021 141.624C100.771 142.258 101.255 143.151 101.378 144.125C101.5 145.1 101.252 146.085 100.682 146.885L97.2099 151.808C96.6347 152.603 95.7822 153.154 94.8208 153.351C93.8593 153.549 92.8587 153.379 92.0165 152.875L89.3559 151.259C87.882 152.436 86.2812 153.444 84.5833 154.265L84.8539 157.362C84.9335 158.34 84.6435 159.313 84.041 160.088C83.4385 160.863 82.5674 161.384 81.5996 161.548L75.6846 162.525C75.4852 162.551 75.2842 162.561 75.0833 162.555Z" fill="#4462AC"/>
<path d="M73.5355 145.63C70.6187 145.622 67.7725 144.732 65.3711 143.076C62.9696 141.421 61.1252 139.077 60.0803 136.354C59.0354 133.631 58.8389 130.655 59.5167 127.818C60.1944 124.981 61.7147 122.416 63.8776 120.459L66.884 123.804C65.5884 124.978 64.6245 126.473 64.089 128.138C63.5534 129.802 63.465 131.579 63.8326 133.289C64.1551 134.795 64.8234 136.205 65.7845 137.408C66.7457 138.612 67.9735 139.575 69.3709 140.223C70.7684 140.87 72.2972 141.184 73.8367 141.139C75.3762 141.095 76.8842 140.693 78.2417 139.965C79.5992 139.237 80.769 138.204 81.6586 136.947C82.5483 135.69 83.1336 134.243 83.3681 132.721C83.6027 131.199 83.4802 129.643 83.0103 128.176C82.5404 126.709 81.736 125.372 80.6605 124.27L83.8848 121.12C85.6852 122.967 86.9585 125.261 87.5725 127.766C88.1864 130.271 88.1187 132.894 87.3763 135.364C86.6338 137.834 85.2438 140.06 83.3504 141.811C81.4571 143.562 79.1296 144.774 76.6095 145.321C75.5986 145.533 74.5682 145.636 73.5355 145.63Z" fill="#4462AC"/>
<path d="M107.349 170.628C111.807 170.628 115.421 167.014 115.421 162.556C115.421 158.098 111.807 154.484 107.349 154.484C102.891 154.484 99.2773 158.098 99.2773 162.556C99.2773 167.014 102.891 170.628 107.349 170.628Z" fill="#D4E4F5"/>
<path d="M107.342 171.378C105.901 171.382 104.482 171.033 103.207 170.363C101.933 169.692 100.841 168.72 100.029 167.53C99.2169 166.341 98.7082 164.971 98.5474 163.539C98.3865 162.108 98.5786 160.659 99.1067 159.319C99.6348 157.979 100.483 156.789 101.577 155.852C102.671 154.915 103.978 154.26 105.383 153.945C106.788 153.629 108.25 153.663 109.639 154.042C111.029 154.421 112.304 155.135 113.354 156.12C113.426 156.188 113.484 156.269 113.525 156.359C113.566 156.449 113.588 156.546 113.592 156.645C113.595 156.744 113.578 156.842 113.543 156.935C113.509 157.027 113.456 157.112 113.388 157.184C113.321 157.256 113.239 157.314 113.149 157.355C113.059 157.395 112.962 157.418 112.863 157.421C112.765 157.424 112.666 157.408 112.574 157.373C112.481 157.338 112.397 157.285 112.325 157.218C111.096 156.067 109.508 155.374 107.829 155.257C106.149 155.14 104.481 155.605 103.104 156.574C101.728 157.544 100.727 158.958 100.272 160.579C99.8162 162.2 99.9334 163.928 100.603 165.473C101.273 167.017 102.455 168.284 103.95 169.059C105.445 169.833 107.161 170.069 108.81 169.727C110.458 169.384 111.938 168.483 113 167.177C114.062 165.87 114.641 164.238 114.64 162.554C114.64 162.355 114.719 162.164 114.86 162.023C115.001 161.882 115.192 161.802 115.391 161.802C115.591 161.802 115.782 161.882 115.923 162.023C116.064 162.164 116.143 162.355 116.143 162.554C116.141 164.89 115.214 167.129 113.564 168.783C111.915 170.437 109.677 171.37 107.342 171.378Z" fill="#4462AC"/>
<path d="M107.566 166.314C107.467 166.315 107.369 166.296 107.278 166.259C107.186 166.221 107.103 166.166 107.032 166.096L102.831 161.895C102.752 161.828 102.689 161.745 102.643 161.652C102.598 161.558 102.573 161.457 102.569 161.353C102.565 161.25 102.582 161.147 102.62 161.05C102.658 160.954 102.715 160.866 102.788 160.793C102.862 160.72 102.949 160.662 103.046 160.624C103.142 160.587 103.245 160.569 103.349 160.573C103.452 160.577 103.554 160.603 103.647 160.648C103.741 160.693 103.823 160.757 103.891 160.835L107.559 164.503L115.916 156.146C115.984 156.067 116.066 156.003 116.16 155.958C116.253 155.913 116.354 155.887 116.458 155.883C116.562 155.879 116.665 155.897 116.761 155.935C116.858 155.972 116.945 156.03 117.018 156.103C117.092 156.176 117.149 156.264 117.187 156.36C117.225 156.457 117.242 156.56 117.238 156.663C117.234 156.767 117.209 156.869 117.164 156.962C117.118 157.055 117.055 157.138 116.976 157.205L108.085 166.096C107.947 166.234 107.761 166.312 107.566 166.314Z" fill="#4462AC"/>
<path d="M160.508 46.7974L142.583 26.3017C142.264 25.9375 141.87 25.6458 141.429 25.4459C140.987 25.246 140.509 25.1426 140.024 25.1426C139.54 25.1426 139.061 25.246 138.619 25.4459C138.178 25.6458 137.784 25.9375 137.465 26.3017L119.54 46.7974C119.11 47.2897 118.83 47.8955 118.735 48.5422C118.64 49.189 118.734 49.8495 119.004 50.4447C119.274 51.0399 119.71 51.5448 120.26 51.8989C120.809 52.253 121.449 52.4415 122.103 52.4418H126.123V79.837C126.123 79.837 136.428 80.4232 140.358 73.2907C144.289 66.1582 153.932 67.0525 153.932 67.0525V52.4418H157.953C158.606 52.4401 159.245 52.2506 159.793 51.8959C160.342 51.5412 160.776 51.0362 161.046 50.4413C161.315 49.8463 161.408 49.1865 161.312 48.5404C161.217 47.8943 160.938 47.2892 160.508 46.7974Z" fill="#7393CB"/>
<path d="M170.384 74.65L160.088 64.4135C159.623 63.9522 158.995 63.6934 158.34 63.6934C157.686 63.6934 157.057 63.9522 156.593 64.4135L146.296 74.65C146.043 74.9019 145.871 75.223 145.801 75.5728C145.731 75.9226 145.766 76.2853 145.902 76.6151C146.038 76.945 146.268 77.2271 146.565 77.4258C146.861 77.6245 147.21 77.7309 147.566 77.7315H150.062V84.8415C150.062 84.8415 152.978 91.7335 156.743 89.7944C160.509 87.8554 166.634 92.8008 166.634 92.8008V77.7691H169.129C169.493 77.7733 169.849 77.6676 170.151 77.466C170.454 77.2643 170.688 76.976 170.824 76.6388C170.959 76.3017 170.99 75.9314 170.912 75.5765C170.833 75.2216 170.649 74.8987 170.384 74.65Z" fill="#D4E4F5"/>
<path d="M148.971 38.6298L155.923 30.678C156.007 30.5822 156.111 30.5054 156.227 30.4528C156.343 30.4003 156.469 30.373 156.596 30.373C156.723 30.373 156.849 30.4003 156.965 30.4528C157.081 30.5054 157.185 30.5822 157.269 30.678L164.221 38.6298C164.403 38.8407 164.522 39.0997 164.562 39.3759C164.602 39.6521 164.561 39.9339 164.446 40.1879C164.33 40.4419 164.144 40.6575 163.91 40.809C163.675 40.9604 163.403 41.0414 163.123 41.0423H150.061C149.783 41.04 149.511 40.9579 149.277 40.8059C149.044 40.6539 148.859 40.4383 148.745 40.1846C148.63 39.9308 148.59 39.6495 148.63 39.374C148.671 39.0985 148.789 38.8402 148.971 38.6298Z" fill="#D4E4F5"/>
<path d="M155.081 67.051H152.826V51.3128H157.975C158.413 51.3193 158.843 51.198 159.213 50.9637C159.584 50.7295 159.878 50.3924 160.059 49.9938C160.241 49.5952 160.303 49.1523 160.237 48.7191C160.171 48.286 159.98 47.8814 159.688 47.5549L154.645 41.7903L156.344 40.2871L161.387 46.0518C161.97 46.7038 162.351 47.5115 162.483 48.3764C162.616 49.2412 162.494 50.1259 162.132 50.9226C161.77 51.7192 161.185 52.3935 160.446 52.8631C159.708 53.3328 158.849 53.5775 157.975 53.5676H155.081V67.051Z" fill="#4462AC"/>
<path d="M154.683 88.4415H153.18V86.1867H154.683V88.4415ZM154.683 83.932H153.18V81.6772H154.683V83.932ZM154.683 79.4225H153.18V77.1677H154.683V79.4225ZM154.683 74.913H153.18V72.6582H154.683V74.913Z" fill="#4462AC"/>
<path d="M127.272 59.9493H125.017V53.5684H122.123C121.248 53.5783 120.39 53.3335 119.651 52.8639C118.913 52.3943 118.328 51.72 117.966 50.9233C117.604 50.1267 117.482 49.242 117.614 48.3772C117.747 47.5123 118.128 46.7046 118.711 46.0525L136.636 25.5568C137.06 25.0682 137.583 24.6762 138.171 24.4076C138.759 24.139 139.398 24 140.045 24C140.691 24 141.33 24.139 141.918 24.4076C142.506 24.6762 143.03 25.0682 143.453 25.5568L152.036 35.3274L150.338 36.8306L141.755 27.06C141.543 26.8125 141.28 26.6137 140.984 26.4775C140.689 26.3412 140.367 26.2707 140.041 26.2707C139.715 26.2707 139.393 26.3412 139.098 26.4775C138.802 26.6137 138.539 26.8125 138.327 27.06L120.402 47.5557C120.11 47.8822 119.919 48.2868 119.853 48.7199C119.788 49.153 119.849 49.596 120.031 49.9946C120.213 50.3932 120.507 50.7303 120.877 50.9645C121.247 51.1987 121.678 51.3201 122.116 51.3136H127.272V59.9493Z" fill="#4462AC"/>
<path d="M139.471 32.6143L130.664 42.5547L131.789 43.5515L140.596 33.6111L139.471 32.6143Z" fill="#4462AC"/>
<path d="M139.467 38.2471L130.66 48.1875L131.785 49.1843L140.592 39.244L139.467 38.2471Z" fill="#4462AC"/>
<path d="M139.471 43.8858L130.664 53.8262L131.789 54.823L140.596 44.8826L139.471 43.8858Z" fill="#4462AC"/>
<path d="M139.47 49.4841L130.574 59.3047L131.688 60.3138L140.584 50.4932L139.47 49.4841Z" fill="#4462AC"/>
<path d="M139.472 55.113L130.379 64.8848L131.479 65.9088L140.572 56.137L139.472 55.113Z" fill="#4462AC"/>
<path d="M139.472 60.7498L130.379 70.5215L131.479 71.5455L140.572 61.7738L139.472 60.7498Z" fill="#4462AC"/>
<path d="M139.482 66.362L130.26 76.002L131.346 77.041L140.568 67.401L139.482 66.362Z" fill="#4462AC"/>
<path d="M167.753 92.7943H165.499V76.5751H169.121C169.254 76.5732 169.383 76.5326 169.492 76.4581C169.602 76.3837 169.687 76.2787 169.737 76.1563C169.788 76.0339 169.801 75.8993 169.776 75.7694C169.75 75.6394 169.687 75.5197 169.595 75.4252L159.298 65.1886C159.044 64.9362 158.701 64.7945 158.344 64.7945C157.986 64.7945 157.643 64.9362 157.389 65.1886L147.092 75.4252C147 75.5197 146.937 75.6394 146.911 75.7694C146.886 75.8993 146.899 76.0339 146.95 76.1563C147 76.2787 147.085 76.3837 147.195 76.4581C147.304 76.5326 147.433 76.5732 147.566 76.5751H151.188V84.8425H148.934V78.8299H147.566C146.986 78.8291 146.42 78.6564 145.938 78.3338C145.457 78.0112 145.082 77.5531 144.861 77.0174C144.639 76.4817 144.582 75.8924 144.696 75.3241C144.809 74.7557 145.089 74.2338 145.499 73.8243L155.796 63.5877C156.473 62.9172 157.387 62.541 158.34 62.541C159.293 62.541 160.207 62.9172 160.884 63.5877L171.181 73.8243C171.591 74.2338 171.87 74.7557 171.984 75.3241C172.098 75.8924 172.04 76.4817 171.819 77.0174C171.598 77.5531 171.223 78.0112 170.741 78.3338C170.26 78.6564 169.693 78.8291 169.114 78.8299H167.746L167.753 92.7943Z" fill="#4462AC"/>
<path d="M163.124 42.1689H150.061C149.565 42.1684 149.08 42.0252 148.663 41.7564C148.246 41.4876 147.915 41.1046 147.71 40.653C147.505 40.2014 147.434 39.7003 147.506 39.2095C147.577 38.7186 147.789 38.2588 148.115 37.8848L155.082 29.9331C155.277 29.7312 155.51 29.5707 155.769 29.4611C156.027 29.3514 156.305 29.2949 156.585 29.2949C156.866 29.2949 157.143 29.3514 157.402 29.4611C157.66 29.5707 157.893 29.7312 158.088 29.9331L165.04 37.8848C165.366 38.2588 165.578 38.7186 165.649 39.2095C165.721 39.7003 165.65 40.2014 165.445 40.653C165.24 41.1046 164.909 41.4876 164.492 41.7564C164.075 42.0252 163.59 42.1684 163.094 42.1689H163.124ZM149.821 39.3654C149.781 39.4134 149.756 39.4714 149.748 39.533C149.74 39.5946 149.749 39.6573 149.775 39.7138C149.801 39.7702 149.842 39.8183 149.894 39.8524C149.946 39.8865 150.007 39.9053 150.069 39.9066H163.124C163.186 39.9053 163.246 39.8865 163.298 39.8524C163.35 39.8183 163.392 39.7702 163.417 39.7138C163.443 39.6573 163.453 39.5946 163.445 39.533C163.437 39.4714 163.411 39.4134 163.372 39.3654L156.608 31.6166L149.821 39.3654Z" fill="#4462AC"/>
<path d="M156.177 34.0098L152.473 38.3086L153.611 39.2898L157.315 34.991L156.177 34.0098Z" fill="#4462AC"/>
<path d="M111.227 33.6806C111.077 33.6815 110.931 33.6379 110.807 33.5553C110.682 33.4728 110.585 33.3551 110.528 33.2172C110.471 33.0794 110.456 32.9276 110.485 32.7812C110.515 32.6348 110.587 32.5005 110.693 32.3954L113.121 29.9678C113.188 29.8891 113.271 29.8252 113.364 29.7801C113.457 29.735 113.559 29.7096 113.663 29.7056C113.766 29.7016 113.869 29.7191 113.966 29.7569C114.062 29.7946 114.15 29.852 114.223 29.9252C114.296 29.9985 114.354 30.086 114.391 30.1825C114.429 30.2789 114.447 30.3822 114.443 30.4857C114.439 30.5892 114.413 30.6907 114.368 30.784C114.323 30.8772 114.259 30.9601 114.18 31.0275L111.753 33.4551C111.614 33.5967 111.425 33.6778 111.227 33.6806Z" fill="#4462AC"/>
<path d="M105.477 39.4619C105.327 39.4628 105.181 39.4192 105.057 39.3367C104.932 39.2541 104.835 39.1364 104.778 38.9985C104.721 38.8607 104.706 38.7089 104.735 38.5625C104.765 38.4161 104.837 38.2818 104.943 38.1767L107.371 35.7491C107.514 35.626 107.699 35.5616 107.889 35.5689C108.078 35.5762 108.257 35.6546 108.391 35.7885C108.525 35.9223 108.603 36.1018 108.611 36.2909C108.618 36.4801 108.553 36.665 108.43 36.8088L106.003 39.2364C105.864 39.3781 105.675 39.4591 105.477 39.4619Z" fill="#4462AC"/>
<path d="M113.646 39.4602C113.547 39.4608 113.449 39.4419 113.357 39.4045C113.266 39.3671 113.182 39.3119 113.112 39.2423L110.685 36.8147C110.562 36.6709 110.497 36.486 110.504 36.2968C110.512 36.1076 110.59 35.9282 110.724 35.7944C110.858 35.6605 111.037 35.5821 111.226 35.5748C111.416 35.5675 111.601 35.6318 111.744 35.7549L114.172 38.1826C114.278 38.2877 114.35 38.422 114.38 38.5684C114.409 38.7147 114.394 38.8665 114.337 39.0044C114.28 39.1423 114.183 39.26 114.058 39.3425C113.934 39.425 113.788 39.4686 113.638 39.4678L113.646 39.4602Z" fill="#4462AC"/>
<path d="M107.867 33.6829C107.768 33.6835 107.67 33.6645 107.578 33.6271C107.486 33.5897 107.403 33.5346 107.333 33.465L104.905 31.0373C104.782 30.8936 104.718 30.7086 104.725 30.5195C104.732 30.3303 104.811 30.1509 104.945 30.017C105.079 29.8832 105.258 29.8047 105.447 29.7974C105.636 29.7901 105.821 29.8545 105.965 29.9776L108.393 32.4052C108.499 32.5103 108.571 32.6446 108.6 32.791C108.63 32.9374 108.615 33.0892 108.558 33.2271C108.5 33.3649 108.403 33.4826 108.279 33.5652C108.155 33.6477 108.008 33.6913 107.859 33.6904L107.867 33.6829Z" fill="#4462AC"/>
<path d="M38.7437 123.475C37.3217 123.549 35.9065 123.233 34.6518 122.559C33.397 121.886 32.3506 120.882 31.6262 119.657C30.2848 117.215 29.8231 114.386 30.3184 111.645C29.0162 110.986 27.857 110.077 26.9077 108.969C25.9583 107.861 25.2375 106.576 24.7868 105.189C23.0205 100.266 23.7796 92.7424 31.7539 87.7143C31.9224 87.6076 32.1263 87.5722 32.3208 87.6159C32.5153 87.6596 32.6845 87.7788 32.7911 87.9473C32.8978 88.1157 32.9331 88.3196 32.8894 88.5141C32.8457 88.7086 32.7266 88.8778 32.5581 88.9844C25.3505 93.4939 24.5462 100.07 26.1997 104.678C26.9578 107.007 28.5687 108.964 30.7092 110.157C30.9044 109.532 31.1851 108.938 31.5435 108.39C32.6183 106.797 34.0688 106.136 35.4066 106.632C36.0208 106.869 36.5402 107.301 36.885 107.861C37.2299 108.422 37.3812 109.081 37.3157 109.736C37.1578 111.104 36.0229 112.051 34.2717 112.276C33.4436 112.381 32.6033 112.335 31.7915 112.141C31.3995 114.46 31.802 116.843 32.9339 118.905C34.3394 121.25 36.6918 122.272 39.9086 121.911C40.0073 121.901 40.1071 121.91 40.2022 121.938C40.2974 121.967 40.3861 122.013 40.4632 122.076C40.5403 122.138 40.6044 122.215 40.6517 122.302C40.699 122.39 40.7287 122.485 40.7391 122.584C40.7495 122.683 40.7403 122.782 40.7121 122.878C40.6839 122.973 40.6373 123.061 40.5748 123.139C40.5123 123.216 40.4353 123.28 40.3481 123.327C40.2608 123.374 40.1651 123.404 40.0665 123.414C39.6269 123.458 39.1853 123.478 38.7437 123.475ZM32.1072 110.698C32.747 110.849 33.4089 110.885 34.0613 110.803C35.1135 110.668 35.7298 110.232 35.805 109.578C35.8284 109.261 35.7509 108.945 35.5835 108.675C35.416 108.405 35.1673 108.195 34.873 108.075C34.2041 107.827 33.46 108.248 32.7761 109.262C32.4883 109.702 32.2632 110.18 32.1072 110.683V110.698Z" fill="#4462AC"/>
<path d="M31.4537 90.7565L31.9723 88.4716L29.6875 87.9531L30.8825 87.209L33.1673 87.7276L32.6487 90.0124L31.4537 90.7565Z" fill="#4462AC"/>
<path d="M126.731 126.426C126.581 126.427 126.435 126.383 126.311 126.301C126.186 126.218 126.089 126.1 126.032 125.962C125.975 125.825 125.96 125.673 125.989 125.526C126.019 125.38 126.091 125.246 126.197 125.141L136.614 114.724C136.681 114.645 136.764 114.581 136.857 114.536C136.951 114.491 137.052 114.465 137.156 114.461C137.259 114.457 137.362 114.475 137.459 114.513C137.555 114.551 137.643 114.608 137.716 114.681C137.789 114.754 137.847 114.842 137.885 114.938C137.922 115.035 137.94 115.138 137.936 115.242C137.932 115.345 137.906 115.447 137.861 115.54C137.816 115.633 137.752 115.716 137.674 115.783L127.272 126.178C127.203 126.254 127.12 126.315 127.027 126.358C126.934 126.4 126.833 126.424 126.731 126.426Z" fill="#4462AC"/>
<path d="M128.175 119.48C127.622 119.48 127.081 119.316 126.621 119.009C126.162 118.702 125.803 118.265 125.592 117.754C125.38 117.244 125.325 116.681 125.433 116.139C125.541 115.597 125.807 115.099 126.198 114.708C126.589 114.317 127.087 114.05 127.629 113.942C128.172 113.835 128.734 113.89 129.245 114.101C129.756 114.313 130.192 114.671 130.499 115.131C130.807 115.591 130.971 116.132 130.971 116.685C130.971 117.426 130.676 118.137 130.152 118.662C129.627 119.186 128.916 119.48 128.175 119.48ZM128.175 115.399C127.919 115.399 127.669 115.475 127.456 115.618C127.243 115.76 127.077 115.962 126.98 116.199C126.882 116.436 126.857 116.696 126.907 116.947C126.958 117.198 127.082 117.428 127.263 117.609C127.445 117.789 127.676 117.912 127.927 117.961C128.178 118.01 128.439 117.983 128.675 117.884C128.911 117.785 129.112 117.618 129.253 117.405C129.394 117.191 129.469 116.941 129.468 116.685C129.466 116.343 129.328 116.016 129.086 115.775C128.844 115.534 128.516 115.399 128.175 115.399Z" fill="#4462AC"/>
<path d="M135.721 127.027C135.168 127.029 134.626 126.866 134.165 126.559C133.704 126.253 133.345 125.816 133.132 125.305C132.92 124.794 132.864 124.231 132.971 123.688C133.079 123.145 133.345 122.646 133.737 122.254C134.128 121.863 134.627 121.597 135.17 121.489C135.713 121.381 136.276 121.437 136.787 121.65C137.298 121.862 137.735 122.222 138.042 122.683C138.348 123.144 138.511 123.685 138.51 124.239C138.508 124.978 138.213 125.686 137.691 126.208C137.168 126.731 136.46 127.025 135.721 127.027ZM135.721 122.946C135.467 122.946 135.219 123.022 135.007 123.163C134.796 123.304 134.631 123.505 134.534 123.74C134.437 123.974 134.411 124.233 134.461 124.482C134.51 124.731 134.633 124.96 134.813 125.14C134.992 125.32 135.221 125.442 135.471 125.492C135.72 125.542 135.978 125.516 136.213 125.419C136.448 125.322 136.649 125.157 136.79 124.945C136.931 124.734 137.007 124.486 137.007 124.231C137.005 123.891 136.869 123.565 136.628 123.325C136.387 123.084 136.062 122.948 135.721 122.946Z" fill="#4462AC"/>
</svg>
