<svg width="196" height="196" viewBox="0 0 196 196" fill="none" xmlns="http://www.w3.org/2000/svg">
<path d="M97.8568 195.714C151.902 195.714 195.714 151.902 195.714 97.8568C195.714 43.812 151.902 0 97.8568 0C43.812 0 0 43.812 0 97.8568C0 151.902 43.812 195.714 97.8568 195.714Z" fill="#E9C3CE"/>
<g clip-path="url(#clip0_549_3554)">
<path d="M160.526 81.8094L143.129 62.0809C142.817 61.7294 142.434 61.448 142.005 61.2553C141.576 61.0626 141.111 60.9629 140.641 60.9629C140.17 60.9629 139.705 61.0626 139.276 61.2553C138.847 61.448 138.464 61.7294 138.152 62.0809L120.755 81.8094C120.333 82.2801 120.057 82.8623 119.959 83.4858C119.862 84.1094 119.947 84.7478 120.205 85.3241C120.463 85.9005 120.882 86.3903 121.413 86.7345C121.943 87.0787 122.563 87.2628 123.196 87.2645H127.102V104.402C127.102 104.402 136.402 110.477 140.614 104.791C144.827 99.1047 154.126 99.8773 154.126 99.8773V87.2645H158.033C158.67 87.273 159.297 87.0964 159.835 86.7562C160.374 86.4159 160.801 85.9267 161.066 85.3483C161.33 84.7699 161.42 84.1273 161.324 83.4989C161.228 82.8705 160.951 82.2834 160.526 81.8094Z" fill="#D4E4F5"/>
<path d="M176.2 97.9273L166.072 87.8949C165.615 87.443 164.997 87.1895 164.353 87.1895C163.71 87.1895 163.092 87.443 162.635 87.8949L152.507 97.9273C152.264 98.1747 152.1 98.4879 152.034 98.8279C151.968 99.1678 152.004 99.5196 152.137 99.8393C152.27 100.159 152.495 100.433 152.783 100.626C153.071 100.82 153.41 100.925 153.757 100.928H156.208V107.177C156.208 107.177 160.426 107.66 164.58 108.501C168.734 109.342 172.488 107.177 172.488 107.177V100.928H174.94C175.288 100.927 175.628 100.823 175.917 100.631C176.207 100.438 176.433 100.164 176.568 99.8441C176.702 99.5239 176.739 99.1714 176.673 98.8304C176.608 98.4895 176.443 98.1754 176.2 97.9273Z" fill="#7393CB"/>
<path d="M149.387 74.017L156.146 66.3126C156.227 66.2199 156.328 66.1457 156.441 66.0948C156.553 66.0439 156.676 66.0176 156.8 66.0176C156.923 66.0176 157.046 66.0439 157.158 66.0948C157.271 66.1457 157.372 66.2199 157.453 66.3126L164.212 74.017C164.391 74.22 164.508 74.4701 164.548 74.7374C164.589 75.0047 164.551 75.278 164.44 75.5246C164.329 75.7712 164.149 75.9806 163.921 76.128C163.694 76.2754 163.429 76.3544 163.158 76.3556H150.452C150.18 76.3564 149.913 76.2788 149.685 76.1323C149.456 75.9857 149.274 75.7763 149.162 75.5294C149.049 75.2824 149.01 75.0083 149.051 74.74C149.091 74.4717 149.207 74.2206 149.387 74.017Z" fill="#D4E4F5"/>
<path d="M112.156 106.982H49.8411C47.6981 106.982 45.9609 108.714 45.9609 110.85V148.594C45.9609 150.73 47.6981 152.462 49.8411 152.462H112.156C114.299 152.462 116.036 150.73 116.036 148.594V110.85C116.036 108.714 114.299 106.982 112.156 106.982Z" fill="#7393CB"/>
<path d="M110.401 154.753H51.5974C49.5027 154.745 47.4961 153.911 46.0149 152.435C44.5336 150.958 43.6978 148.958 43.6895 146.87V112.6C43.6978 110.512 44.5336 108.511 46.0149 107.035C47.4961 105.558 49.5027 104.725 51.5974 104.717H110.401C112.496 104.725 114.502 105.558 115.984 107.035C117.465 108.511 118.301 110.512 118.309 112.6V146.844C118.308 148.936 117.475 150.943 115.993 152.426C114.511 153.908 112.5 154.745 110.401 154.753ZM51.5974 109.273C50.7119 109.273 49.8625 109.623 49.2358 110.247C48.6092 110.871 48.2564 111.717 48.255 112.6V146.844C48.255 147.727 48.6071 148.575 49.234 149.2C49.8608 149.824 50.7109 150.176 51.5974 150.176H110.401C110.84 150.176 111.275 150.089 111.68 149.922C112.086 149.754 112.454 149.509 112.764 149.2C113.075 148.89 113.321 148.523 113.489 148.119C113.657 147.714 113.743 147.281 113.743 146.844V112.6C113.742 111.717 113.389 110.871 112.763 110.247C112.136 109.623 111.287 109.273 110.401 109.273H51.5974Z" fill="#4462AC"/>
<path d="M107.786 115.006H91.1367V124.55H107.786V115.006Z" fill="#D4E4F5"/>
<path d="M59.2088 124.55C61.8526 124.55 63.9958 122.413 63.9958 119.778C63.9958 117.142 61.8526 115.006 59.2088 115.006C56.5651 115.006 54.4219 117.142 54.4219 119.778C54.4219 122.413 56.5651 124.55 59.2088 124.55Z" fill="#D4E4F5"/>
<path d="M66.5791 115.006C65.8745 115.004 65.1782 115.158 64.5402 115.456C63.9021 115.754 63.3382 116.189 62.8887 116.73V122.81C63.4015 123.431 64.0636 123.913 64.8134 124.211C65.5632 124.509 66.3763 124.612 67.1771 124.513C67.978 124.413 68.7406 124.114 69.3941 123.641C70.0476 123.169 70.5707 122.54 70.9148 121.812C71.2589 121.085 71.4129 120.282 71.3624 119.479C71.3119 118.676 71.0585 117.899 70.6259 117.22C70.1932 116.541 69.5954 115.982 68.8879 115.594C68.1803 115.207 67.3861 115.005 66.5791 115.006Z" fill="white"/>
<path d="M107.787 126.459H91.1383C90.6308 126.459 90.144 126.258 89.7851 125.9C89.4262 125.542 89.2246 125.057 89.2246 124.551V115.007C89.2246 114.501 89.4262 114.016 89.7851 113.658C90.144 113.301 90.6308 113.1 91.1383 113.1H107.787C108.295 113.1 108.782 113.301 109.14 113.658C109.499 114.016 109.701 114.501 109.701 115.007V124.551C109.701 125.057 109.499 125.542 109.14 125.9C108.782 126.258 108.295 126.459 107.787 126.459ZM93.0521 122.643H105.873V116.915H93.0521V122.643Z" fill="#4462AC"/>
<path d="M59.2104 126.459C57.8852 126.459 56.5897 126.067 55.4877 125.333C54.3858 124.599 53.527 123.556 53.0198 122.335C52.5127 121.115 52.38 119.772 52.6385 118.476C52.8971 117.18 53.5352 115.99 54.4724 115.056C55.4095 114.122 56.6034 113.486 57.9032 113.228C59.203 112.97 60.5503 113.103 61.7747 113.608C62.9991 114.114 64.0456 114.97 64.7819 116.068C65.5181 117.167 65.9111 118.458 65.9111 119.779C65.9097 121.55 65.2033 123.248 63.947 124.501C62.6907 125.753 60.9871 126.457 59.2104 126.459ZM59.2104 116.915C58.6422 116.915 58.0867 117.083 57.6142 117.398C57.1417 117.712 56.7734 118.16 56.5559 118.683C56.3384 119.206 56.2816 119.782 56.3924 120.338C56.5033 120.894 56.7769 121.404 57.1788 121.804C57.5806 122.205 58.0926 122.478 58.6499 122.588C59.2073 122.699 59.785 122.642 60.31 122.425C60.835 122.209 61.2837 121.841 61.5994 121.37C61.9151 120.899 62.0837 120.346 62.0837 119.779C62.0837 119.403 62.0093 119.031 61.865 118.683C61.7206 118.336 61.5089 118.02 61.2421 117.754C60.9753 117.488 60.6586 117.277 60.31 117.133C59.9614 116.989 59.5878 116.915 59.2104 116.915Z" fill="#4462AC"/>
<path d="M66.5804 126.459C65.5927 126.461 64.617 126.243 63.7236 125.824C62.8303 125.404 62.0414 124.792 61.4138 124.031C61.2516 123.838 61.1293 123.615 61.0539 123.375C60.9786 123.135 60.9517 122.882 60.9748 122.631C60.998 122.38 61.0706 122.137 61.1887 121.914C61.3067 121.692 61.4678 121.495 61.6626 121.334C61.8575 121.174 62.0822 121.054 62.3239 120.981C62.5655 120.907 62.8193 120.883 63.0706 120.908C63.3219 120.933 63.5658 121.007 63.7882 121.126C64.0105 121.246 64.207 121.408 64.3662 121.603C64.7428 122.058 65.2511 122.386 65.8216 122.542C66.3921 122.698 66.997 122.675 67.5537 122.475C68.1104 122.276 68.5918 121.91 68.9321 121.427C69.2723 120.945 69.4549 120.369 69.4549 119.78C69.4549 119.19 69.2723 118.615 68.9321 118.132C68.5918 117.65 68.1104 117.284 67.5537 117.084C66.997 116.885 66.3921 116.862 65.8216 117.018C65.2511 117.174 64.7428 117.501 64.3662 117.956C64.0389 118.334 63.5761 118.569 63.0772 118.61C62.5782 118.652 62.0828 118.497 61.6972 118.178C61.3116 117.86 61.0665 117.404 61.0145 116.907C60.9626 116.411 61.1078 115.914 61.4191 115.523C62.1392 114.657 63.0671 113.986 64.1168 113.573C65.1664 113.159 66.3038 113.017 67.4233 113.159C68.5429 113.301 69.6083 113.722 70.5209 114.384C71.4334 115.046 72.1635 115.927 72.6433 116.945C73.1231 117.963 73.3372 119.086 73.2656 120.209C73.1941 121.331 72.8392 122.418 72.2339 123.367C71.6286 124.317 70.7926 125.099 69.8033 125.64C68.8141 126.182 67.7037 126.465 66.5751 126.465L66.5804 126.459Z" fill="#4462AC"/>
<path d="M62.5687 145.431H54.4235C53.9159 145.431 53.4292 145.23 53.0703 144.872C52.7114 144.514 52.5098 144.029 52.5098 143.523C52.5098 143.017 52.7114 142.532 53.0703 142.174C53.4292 141.816 53.9159 141.615 54.4235 141.615H62.5687C63.0762 141.615 63.563 141.816 63.9219 142.174C64.2808 142.532 64.4824 143.017 64.4824 143.523C64.4824 144.029 64.2808 144.514 63.9219 144.872C63.563 145.23 63.0762 145.431 62.5687 145.431Z" fill="#4462AC"/>
<path d="M77.641 145.431H69.4958C68.9882 145.431 68.5015 145.23 68.1426 144.872C67.7837 144.514 67.582 144.029 67.582 143.523C67.582 143.017 67.7837 142.532 68.1426 142.174C68.5015 141.816 68.9882 141.615 69.4958 141.615H77.641C78.1485 141.615 78.6353 141.816 78.9941 142.174C79.353 142.532 79.5547 143.017 79.5547 143.523C79.5547 144.029 79.353 144.514 78.9941 144.872C78.6353 145.23 78.1485 145.431 77.641 145.431Z" fill="#4462AC"/>
<path d="M92.7132 145.431H84.568C84.0605 145.431 83.5737 145.23 83.2148 144.872C82.8559 144.514 82.6543 144.029 82.6543 143.523C82.6543 143.017 82.8559 142.532 83.2148 142.174C83.5737 141.816 84.0605 141.615 84.568 141.615H92.7132C93.2207 141.615 93.7075 141.816 94.0664 142.174C94.4253 142.532 94.6269 143.017 94.6269 143.523C94.6269 144.029 94.4253 144.514 94.0664 144.872C93.7075 145.23 93.2207 145.431 92.7132 145.431Z" fill="#4462AC"/>
<path d="M107.786 145.431H99.6149C99.1073 145.431 98.6206 145.23 98.2617 144.872C97.9028 144.514 97.7012 144.029 97.7012 143.523C97.7012 143.017 97.9028 142.532 98.2617 142.174C98.6206 141.816 99.1073 141.615 99.6149 141.615H107.786C108.294 141.615 108.781 141.816 109.14 142.174C109.499 142.532 109.7 143.017 109.7 143.523C109.7 144.029 109.499 144.514 109.14 144.872C108.781 145.23 108.294 145.431 107.786 145.431Z" fill="#5834AD"/>
<path d="M93.9683 67.6636C93.5628 67.6636 93.174 67.5031 92.8872 67.2173C92.6005 66.9315 92.4395 66.5438 92.4395 66.1396V38.8118C92.4395 38.4069 92.6008 38.0186 92.888 37.7323C93.1752 37.446 93.5648 37.2852 93.971 37.2852C94.3771 37.2852 94.7667 37.446 95.0539 37.7323C95.3411 38.0186 95.5025 38.4069 95.5025 38.8118V66.1396C95.5025 66.3402 95.4627 66.5388 95.3856 66.724C95.3084 66.9093 95.1954 67.0775 95.0528 67.2191C94.9103 67.3607 94.7411 67.4729 94.555 67.5492C94.3689 67.6254 94.1695 67.6643 93.9683 67.6636Z" fill="#4462AC"/>
<path d="M93.9683 35.9634C93.5628 35.9634 93.174 35.8028 92.8872 35.517C92.6005 35.2312 92.4395 34.8435 92.4395 34.4393V32.2689C92.4395 31.864 92.6008 31.4757 92.888 31.1894C93.1752 30.9031 93.5648 30.7422 93.971 30.7422C94.3771 30.7422 94.7667 30.9031 95.0539 31.1894C95.3411 31.4757 95.5025 31.864 95.5025 32.2689V34.4393C95.5025 34.6399 95.4627 34.8385 95.3856 35.0238C95.3084 35.209 95.1954 35.3773 95.0528 35.5189C94.9103 35.6604 94.7411 35.7726 94.555 35.8489C94.3689 35.9252 94.1695 35.9641 93.9683 35.9634Z" fill="#4462AC"/>
<path d="M86.1711 92.4654C93.1648 92.4654 98.8343 86.8137 98.8343 79.8421C98.8343 72.8704 93.1648 67.2188 86.1711 67.2188C79.1773 67.2188 73.5078 72.8704 73.5078 79.8421C73.5078 86.8137 79.1773 92.4654 86.1711 92.4654Z" fill="#7393CB"/>
<path d="M101.892 62.6248C107.753 62.6248 112.504 57.8884 112.504 52.0458C112.504 46.2032 107.753 41.4668 101.892 41.4668C96.0307 41.4668 91.2793 46.2032 91.2793 52.0458C91.2793 57.8884 96.0307 62.6248 101.892 62.6248Z" fill="#7393CB"/>
<path d="M86.1701 93.9889C83.3621 93.9889 80.6172 93.1588 78.2824 91.6037C75.9477 90.0486 74.1279 87.8383 73.0534 85.2522C71.9788 82.6662 71.6977 79.8205 72.2455 77.0752C72.7933 74.3299 74.1455 71.8081 76.131 69.8288C78.1165 67.8495 80.6463 66.5016 83.4003 65.9555C86.1543 65.4095 89.009 65.6897 91.6032 66.7609C94.1974 67.8321 96.4148 69.6461 97.9748 71.9735C99.5348 74.3009 100.367 77.0371 100.367 79.8362C100.358 83.5868 98.8588 87.1809 96.1984 89.8329C93.538 92.485 89.9325 93.9792 86.1701 93.9889ZM86.1701 68.7632C83.9679 68.7632 81.8152 69.4142 79.9841 70.6338C78.1531 71.8534 76.726 73.5869 75.8832 75.615C75.0405 77.6431 74.82 79.8748 75.2496 82.0279C75.6792 84.1809 76.7397 86.1586 78.2969 87.7109C79.854 89.2631 81.838 90.3203 83.9979 90.7485C86.1577 91.1768 88.3965 90.957 90.431 90.1169C92.4656 89.2768 94.2045 87.8542 95.428 86.0289C96.6514 84.2037 97.3045 82.0577 97.3045 79.8625C97.3059 78.4036 97.019 76.9586 96.4602 75.6102C95.9014 74.2618 95.0816 73.0362 94.0477 72.0036C93.0137 70.971 91.7859 70.1515 90.4342 69.5919C89.0826 69.0323 87.6337 68.7436 86.1701 68.7422V68.7632Z" fill="#4462AC"/>
<path d="M86.172 87.7248C83.2249 87.7248 80.8262 85.6227 80.8262 82.995C80.8262 82.5901 80.9875 82.2018 81.2748 81.9155C81.562 81.6292 81.9515 81.4683 82.3577 81.4683C82.7639 81.4683 83.1534 81.6292 83.4406 81.9155C83.7278 82.2018 83.8892 82.5901 83.8892 82.995C83.8892 83.8937 84.9436 84.6504 86.1772 84.6504C87.4109 84.6504 88.4652 83.8937 88.4652 82.995C88.4652 82.3276 87.6428 81.9439 85.6764 81.2555C83.6309 80.546 80.8314 79.579 80.8314 76.6361C80.8314 74.0399 83.2302 71.9062 86.1772 71.9062C89.1243 71.9062 91.523 74.0084 91.523 76.6361C91.523 77.041 91.3616 77.4293 91.0744 77.7156C90.7872 78.0019 90.3977 78.1627 89.9915 78.1627C89.5853 78.1627 89.1958 78.0019 88.9086 77.7156C88.6213 77.4293 88.46 77.041 88.46 76.6361C88.46 75.7374 87.4056 74.9806 86.172 74.9806C84.9383 74.9806 83.8839 75.7374 83.8839 76.6361C83.8839 77.3035 84.7064 77.6871 86.6728 78.3756C88.7183 79.085 91.5177 80.052 91.5177 82.995C91.523 85.6122 89.1243 87.7248 86.172 87.7248Z" fill="white"/>
<path d="M86.3511 89.694C85.9457 89.694 85.5568 89.5334 85.2701 89.2476C84.9834 88.9618 84.8223 88.5741 84.8223 88.1699V85.9154C84.8223 85.5105 84.9836 85.1222 85.2709 84.8358C85.5581 84.5495 85.9476 84.3887 86.3538 84.3887C86.76 84.3887 87.1495 84.5495 87.4367 84.8358C87.7239 85.1222 87.8853 85.5105 87.8853 85.9154V88.1804C87.8825 88.5837 87.7195 88.9695 87.4319 89.2531C87.1444 89.5368 86.7557 89.6954 86.3511 89.694Z" fill="white"/>
<path d="M86.1695 75.0052C85.764 75.0052 85.3752 74.8447 85.0884 74.5588C84.8017 74.273 84.6406 73.8854 84.6406 73.4812V71.2161C84.6406 70.8112 84.802 70.4229 85.0892 70.1366C85.3764 69.8503 85.766 69.6895 86.1722 69.6895C86.5783 69.6895 86.9679 69.8503 87.2551 70.1366C87.5423 70.4229 87.7036 70.8112 87.7036 71.2161V73.4812C87.7036 73.6818 87.6639 73.8804 87.5868 74.0656C87.5096 74.2509 87.3965 74.4191 87.254 74.5607C87.1115 74.7023 86.9423 74.8144 86.7562 74.8907C86.5701 74.967 86.3707 75.0059 86.1695 75.0052Z" fill="white"/>
<path d="M78.2945 61.1459C77.889 61.1459 77.5002 60.9853 77.2134 60.6995C76.9267 60.4137 76.7656 60.0261 76.7656 59.6219V49.4896C76.7656 49.0847 76.927 48.6963 77.2142 48.41C77.5014 48.1237 77.891 47.9629 78.2971 47.9629C78.7033 47.9629 79.0929 48.1237 79.3801 48.41C79.6673 48.6963 79.8286 49.0847 79.8286 49.4896V59.6166C79.8293 59.8176 79.7901 60.0168 79.7133 60.2027C79.6364 60.3885 79.5234 60.5574 79.3808 60.6996C79.2383 60.8417 79.0689 60.9543 78.8824 61.0309C78.696 61.1075 78.4962 61.1466 78.2945 61.1459Z" fill="#4462AC"/>
<path d="M110.343 40.315C109.938 40.315 109.549 40.1544 109.262 39.8686C108.976 39.5828 108.814 39.1952 108.814 38.7909V32.3899C108.814 31.985 108.976 31.5967 109.263 31.3104C109.55 31.0241 109.94 30.8633 110.346 30.8633C110.752 30.8633 111.142 31.0241 111.429 31.3104C111.716 31.5967 111.877 31.985 111.877 32.3899V38.7909C111.877 38.9915 111.838 39.1902 111.761 39.3754C111.683 39.5607 111.57 39.7289 111.428 39.8705C111.285 40.0121 111.116 40.1242 110.93 40.2005C110.744 40.2768 110.545 40.3157 110.343 40.315Z" fill="#4462AC"/>
<path d="M102.884 30.3774C102.479 30.3774 102.09 30.2169 101.803 29.9311C101.517 29.6452 101.355 29.2576 101.355 28.8534V26.6829C101.355 26.278 101.517 25.8897 101.804 25.6034C102.091 25.3171 102.481 25.1562 102.887 25.1562C103.293 25.1562 103.683 25.3171 103.97 25.6034C104.257 25.8897 104.418 26.278 104.418 26.6829V28.8481C104.419 29.0492 104.38 29.2483 104.303 29.4342C104.226 29.6201 104.113 29.7889 103.971 29.9311C103.828 30.0732 103.659 30.1858 103.472 30.2624C103.286 30.339 103.086 30.3781 102.884 30.3774Z" fill="#4462AC"/>
<path d="M85.7027 31.928C85.2972 31.928 84.9083 31.7674 84.6216 31.4816C84.3349 31.1958 84.1738 30.8082 84.1738 30.4039V29.1321C84.1738 28.7272 84.3352 28.3389 84.6224 28.0526C84.9096 27.7663 85.2991 27.6055 85.7053 27.6055C86.1115 27.6055 86.501 27.7663 86.7882 28.0526C87.0755 28.3389 87.2368 28.7272 87.2368 29.1321V30.425C87.2313 30.8264 87.067 31.2095 86.7797 31.4909C86.4925 31.7723 86.1054 31.9294 85.7027 31.928Z" fill="#4462AC"/>
<path d="M78.2945 44.704C77.889 44.704 77.5002 44.5434 77.2134 44.2576C76.9267 43.9718 76.7656 43.5841 76.7656 43.1799V41.9134C76.7656 41.5085 76.927 41.1202 77.2142 40.8339C77.5014 40.5476 77.891 40.3867 78.2971 40.3867C78.7033 40.3867 79.0929 40.5476 79.3801 40.8339C79.6673 41.1202 79.8286 41.5085 79.8286 41.9134V43.1799C79.8286 43.3805 79.7889 43.5791 79.7118 43.7644C79.6346 43.9496 79.5215 44.1179 79.379 44.2594C79.2365 44.401 79.0673 44.5132 78.8812 44.5895C78.6951 44.6658 78.4957 44.7047 78.2945 44.704Z" fill="#4462AC"/>
<path d="M85.7027 59.008C85.2972 59.008 84.9083 58.8474 84.6216 58.5616C84.3349 58.2757 84.1738 57.8881 84.1738 57.4839V43.9251C84.1738 43.5202 84.3352 43.1319 84.6224 42.8456C84.9096 42.5593 85.2991 42.3984 85.7053 42.3984C86.1115 42.3984 86.501 42.5593 86.7882 42.8456C87.0755 43.1319 87.2368 43.5202 87.2368 43.9251V57.4839C87.2368 57.6845 87.1971 57.8831 87.1199 58.0684C87.0428 58.2536 86.9297 58.4218 86.7871 58.5634C86.6446 58.705 86.4755 58.8172 86.2894 58.8934C86.1033 58.9697 85.9039 59.0086 85.7027 59.008Z" fill="#4462AC"/>
<path d="M85.7027 40.8154C85.2972 40.8154 84.9083 40.6548 84.6216 40.369C84.3349 40.0832 84.1738 39.6955 84.1738 39.2913V35.2552C84.1738 34.8503 84.3352 34.462 84.6224 34.1757C84.9096 33.8894 85.2991 33.7285 85.7053 33.7285C86.1115 33.7285 86.501 33.8894 86.7882 34.1757C87.0755 34.462 87.2368 34.8503 87.2368 35.2552V39.2913C87.2368 39.4919 87.1971 39.6905 87.1199 39.8758C87.0428 40.061 86.9297 40.2292 86.7871 40.3708C86.6446 40.5124 86.4755 40.6246 86.2894 40.7009C86.1033 40.7771 85.9039 40.8161 85.7027 40.8154Z" fill="#4462AC"/>
<path d="M101.891 64.1472C99.493 64.1472 97.1486 63.4383 95.1546 62.1102C93.1605 60.782 91.6064 58.8942 90.6886 56.6856C89.7709 54.4769 89.5308 52.0465 89.9986 49.7018C90.4665 47.3571 91.6213 45.2034 93.3171 43.513C95.0129 41.8225 97.1735 40.6713 99.5256 40.2049C101.878 39.7385 104.316 39.9779 106.531 40.8928C108.747 41.8076 110.641 43.3569 111.973 45.3446C113.306 47.3324 114.017 49.6693 114.017 52.0599C114.008 55.2631 112.728 58.3328 110.456 60.5978C108.184 62.8628 105.104 64.1389 101.891 64.1472ZM101.891 42.9892C100.095 42.9892 98.3383 43.5203 96.8446 44.5153C95.3508 45.5102 94.1865 46.9244 93.499 48.579C92.8115 50.2336 92.6316 52.0542 92.9821 53.8107C93.3326 55.5672 94.1977 57.1806 95.4681 58.447C96.7384 59.7134 98.357 60.5758 100.119 60.9252C101.881 61.2745 103.707 61.0952 105.367 60.4099C107.027 59.7245 108.446 58.5639 109.444 57.0748C110.442 55.5858 110.975 53.8351 110.975 52.0442C110.972 49.6435 110.014 47.342 108.311 45.6444C106.608 43.9469 104.299 42.992 101.891 42.9892Z" fill="#4462AC"/>
<path d="M97.3895 58.055C97.0817 58.0604 96.7794 57.973 96.5223 57.8042C96.2651 57.6355 96.0651 57.3933 95.9483 57.1094C95.8315 56.8254 95.8034 56.513 95.8677 56.2129C95.932 55.9127 96.0857 55.639 96.3087 55.4274L105.313 46.4512C105.601 46.1648 105.99 46.0039 106.397 46.0039C106.803 46.0039 107.193 46.1648 107.48 46.4512C107.767 46.7377 107.929 47.1261 107.929 47.5312C107.929 47.9363 107.767 48.3248 107.48 48.6112L98.4755 57.5873C98.3349 57.7335 98.1664 57.8502 97.9799 57.9305C97.7934 58.0109 97.5926 58.0532 97.3895 58.055Z" fill="white"/>
<path d="M98.6349 52.077C97.9832 52.077 97.3461 51.8844 96.8042 51.5234C96.2624 51.1625 95.84 50.6496 95.5907 50.0494C95.3413 49.4492 95.276 48.7888 95.4032 48.1516C95.5303 47.5145 95.8441 46.9292 96.3049 46.4699C96.7658 46.0105 97.3529 45.6977 97.992 45.5709C98.6312 45.4442 99.2937 45.5093 99.8958 45.7579C100.498 46.0065 101.012 46.4274 101.375 46.9676C101.737 47.5077 101.93 48.1428 101.93 48.7924C101.928 49.6631 101.581 50.4978 100.963 51.1134C100.346 51.7291 99.5083 52.0756 98.6349 52.077ZM98.6349 48.5612C98.589 48.5612 98.5441 48.5747 98.506 48.6002C98.4678 48.6256 98.4381 48.6617 98.4206 48.7039C98.403 48.7462 98.3984 48.7927 98.4073 48.8375C98.4163 48.8824 98.4384 48.9236 98.4708 48.9559C98.5033 48.9882 98.5446 49.0103 98.5896 49.0192C98.6346 49.0281 98.6812 49.0235 98.7236 49.006C98.766 48.9885 98.8022 48.9589 98.8277 48.9209C98.8532 48.8829 98.8668 48.8382 98.8668 48.7924C98.8668 48.7311 98.8424 48.6723 98.7989 48.6289C98.7554 48.5855 98.6964 48.5612 98.6349 48.5612Z" fill="white"/>
<path d="M105.15 58.577C104.499 58.577 103.862 58.3843 103.32 58.0234C102.778 57.6625 102.356 57.1496 102.106 56.5494C101.857 55.9492 101.792 55.2888 101.919 54.6516C102.046 54.0145 102.36 53.4292 102.821 52.9698C103.281 52.5105 103.868 52.1977 104.508 52.0709C105.147 51.9442 105.809 52.0093 106.411 52.2579C107.013 52.5065 107.528 52.9274 107.89 53.4676C108.252 54.0077 108.445 54.6428 108.445 55.2924C108.444 56.1631 108.096 56.9978 107.479 57.6134C106.861 58.2291 106.024 58.5756 105.15 58.577ZM105.15 55.0612C105.105 55.0612 105.06 55.0747 105.022 55.1001C104.983 55.1256 104.954 55.1617 104.936 55.2039C104.919 55.2462 104.914 55.2927 104.923 55.3375C104.932 55.3824 104.954 55.4236 104.986 55.4559C105.019 55.4882 105.06 55.5103 105.105 55.5192C105.15 55.5281 105.197 55.5235 105.239 55.506C105.282 55.4885 105.318 55.4589 105.343 55.4209C105.369 55.3828 105.382 55.3381 105.382 55.2924C105.382 55.2311 105.358 55.1723 105.314 55.1289C105.271 55.0855 105.212 55.0612 105.15 55.0612Z" fill="white"/>
<path d="M150.626 117.803C149.134 117.687 131.937 106.767 127.055 106.015C123.634 105.49 119.98 106.052 116.042 108.78V135.251H101.086C99.6443 135.381 98.3039 136.044 97.3278 137.109C96.3517 138.175 95.8105 139.565 95.8105 141.008C95.8105 142.451 96.3517 143.841 97.3278 144.907C98.3039 145.972 99.6443 146.635 101.086 146.765H110.048C113.886 146.765 119.184 147.953 121.188 149.114C126.776 152.341 134.679 153.55 140.937 150.828L154.644 144.884V117.976C153.494 117.976 152.097 117.919 150.626 117.803Z" fill="#D4E4F5"/>
<path d="M133.207 154.632C128.58 154.619 124.037 153.402 120.027 151.101C118.445 150.181 113.516 149.062 110.01 149.062H101.048C98.9073 149.062 96.8543 148.214 95.3406 146.705C93.8269 145.196 92.9766 143.15 92.9766 141.016C92.9766 138.882 93.8269 136.835 95.3406 135.326C96.8543 133.818 98.9073 132.97 101.048 132.97H113.848C113.781 132.752 113.748 132.525 113.748 132.297V108.811C113.748 108.441 113.838 108.077 114.009 107.75C114.181 107.422 114.43 107.141 114.734 106.93C118.762 104.139 122.906 103.109 127.387 103.776C130.608 104.26 136.966 107.749 144.948 112.259C147.41 113.651 150.183 115.217 151.021 115.559C152.313 115.654 153.588 115.706 154.627 115.706C154.929 115.705 155.228 115.764 155.507 115.879C155.787 115.994 156.04 116.163 156.254 116.376C156.467 116.589 156.637 116.841 156.752 117.12C156.867 117.398 156.926 117.696 156.926 117.997V144.91C156.926 145.356 156.795 145.793 156.55 146.167C156.304 146.54 155.955 146.834 155.544 147.012L141.837 152.956C139.106 154.097 136.168 154.667 133.207 154.632ZM101.085 137.547C100.162 137.547 99.277 137.913 98.6245 138.563C97.972 139.214 97.6054 140.096 97.6054 141.016C97.6054 141.936 97.972 142.818 98.6245 143.468C99.277 144.119 100.162 144.484 101.085 144.484H110.047C114.144 144.484 119.89 145.725 122.341 147.144C126.907 149.771 134.145 151.295 140.018 148.72L152.334 143.391V120.21C151.722 120.178 151.084 120.142 150.441 120.089C149.46 120.01 148.274 119.385 142.681 116.221C137.693 113.399 129.343 108.674 126.707 108.286C123.794 107.828 120.814 108.449 118.329 110.03V132.302C118.33 132.53 118.296 132.757 118.229 132.975H119.721C119.944 132.975 120.164 132.931 120.369 132.847C120.574 132.762 120.761 132.638 120.918 132.481C121.075 132.324 121.2 132.138 121.285 131.934C121.37 131.729 121.414 131.51 121.414 131.288C121.442 130.7 121.696 130.145 122.124 129.739C122.551 129.333 123.119 129.107 123.71 129.107C124.3 129.107 124.868 129.333 125.295 129.739C125.723 130.145 125.977 130.7 126.005 131.288C126.004 132.949 125.342 134.542 124.163 135.716C122.985 136.891 121.388 137.551 119.721 137.553L101.085 137.547Z" fill="#4462AC"/>
<path d="M174.387 112.963H154.633V149.908H174.387V112.963Z" fill="#7393CB"/>
<path d="M176.685 152.199H152.334V110.682H176.68L176.685 152.199ZM156.931 147.621H172.093V115.249H156.931V147.621Z" fill="#4462AC"/>
<path d="M56.9736 95.2824L42.4124 78.6913C42.1531 78.3956 41.8334 78.1587 41.4747 77.9963C41.116 77.834 40.7266 77.75 40.3326 77.75C39.9387 77.75 39.5493 77.834 39.1906 77.9963C38.8319 78.1587 38.5121 78.3956 38.2528 78.6913L23.6969 95.2824C23.3473 95.6808 23.1203 96.1711 23.0431 96.6948C22.9658 97.2184 23.0416 97.7532 23.2613 98.2351C23.481 98.7169 23.8354 99.1254 24.2819 99.4117C24.7285 99.698 25.2484 99.8499 25.7794 99.8493H29.0427V111.679C29.0427 111.679 36.4973 112.688 41.2315 106.424C45.9657 100.159 51.6384 101.92 51.6384 101.92V99.8756H54.9017C55.4368 99.8787 55.9612 99.7268 56.4113 99.4384C56.8614 99.1501 57.2178 98.7376 57.4372 98.2512C57.6567 97.7647 57.7297 97.2252 57.6474 96.6982C57.5651 96.1712 57.331 95.6793 56.9736 95.2824Z" fill="#7393CB"/>
<path d="M38.3758 120.899C38.2754 120.899 38.176 120.879 38.0832 120.841C37.9905 120.803 37.9062 120.747 37.8352 120.676C37.7642 120.605 37.7079 120.521 37.6695 120.429C37.6311 120.336 37.6113 120.237 37.6113 120.137V113.358C37.6113 113.156 37.6919 112.962 37.8352 112.819C37.9786 112.676 38.173 112.596 38.3758 112.596C38.5785 112.596 38.7729 112.676 38.9163 112.819C39.0596 112.962 39.1402 113.156 39.1402 113.358V120.137C39.1402 120.339 39.0596 120.533 38.9163 120.676C38.7729 120.819 38.5785 120.899 38.3758 120.899Z" fill="#4462AC"/>
<path d="M38.3758 109.226C38.2754 109.226 38.176 109.206 38.0832 109.168C37.9905 109.13 37.9062 109.074 37.8352 109.003C37.7642 108.932 37.7079 108.848 37.6695 108.756C37.6311 108.663 37.6113 108.564 37.6113 108.464V86.9749C37.6113 86.7728 37.6919 86.579 37.8352 86.4361C37.9786 86.2932 38.173 86.2129 38.3758 86.2129C38.5785 86.2129 38.7729 86.2932 38.9163 86.4361C39.0596 86.579 39.1402 86.7728 39.1402 86.9749V108.464C39.1402 108.666 39.0596 108.86 38.9163 109.003C38.7729 109.146 38.5785 109.226 38.3758 109.226Z" fill="#4462AC"/>
<path d="M40.0557 88.8885L38.3687 87.2068L36.6816 88.8885V87.4591L38.3687 85.7773L40.0557 87.4591V88.8885Z" fill="#4462AC"/>
<path d="M56.4207 77.8745C56.3203 77.8745 56.2209 77.8548 56.1282 77.8165C56.0354 77.7782 55.9511 77.722 55.8801 77.6513C55.8092 77.5805 55.7528 77.4965 55.7144 77.4041C55.676 77.3116 55.6562 77.2125 55.6562 77.1125V67.4163C55.6562 67.2142 55.7368 67.0204 55.8801 66.8775C56.0235 66.7346 56.2179 66.6543 56.4207 66.6543C56.6234 66.6543 56.8178 66.7346 56.9612 66.8775C57.1046 67.0204 57.1851 67.2142 57.1851 67.4163V77.1125C57.1851 77.3146 57.1046 77.5084 56.9612 77.6513C56.8178 77.7942 56.6234 77.8745 56.4207 77.8745Z" fill="#4462AC"/>
<path d="M58.1065 69.328L56.4195 67.6462L54.7324 69.328V67.9038L56.4195 66.2168L58.1065 67.9038V69.328Z" fill="#4462AC"/>
<path d="M50.0906 69.648C49.8879 69.648 49.6934 69.5677 49.5501 69.4248C49.4067 69.2819 49.3262 69.0881 49.3262 68.886V56.0472C49.3262 55.8451 49.4067 55.6512 49.5501 55.5083C49.6934 55.3654 49.8879 55.2852 50.0906 55.2852C50.2934 55.2852 50.4878 55.3654 50.6312 55.5083C50.7745 55.6512 50.855 55.8451 50.855 56.0472V68.8965C50.8523 69.0968 50.7705 69.2879 50.6275 69.4286C50.4844 69.5692 50.2915 69.648 50.0906 69.648Z" fill="#4462AC"/>
<path d="M51.7705 57.9614L50.0835 56.2797L48.3965 57.9614V56.5372L50.0835 54.8555L51.7705 56.5372V57.9614Z" fill="#4462AC"/>
<path d="M28.7801 132.687C28.5773 132.687 28.3829 132.606 28.2395 132.463C28.0962 132.32 28.0156 132.127 28.0156 131.925V117.178C28.0156 116.976 28.0962 116.782 28.2395 116.639C28.3829 116.496 28.5773 116.416 28.7801 116.416C28.9828 116.416 29.1772 116.496 29.3206 116.639C29.4639 116.782 29.5445 116.976 29.5445 117.178V131.935C29.5417 132.135 29.46 132.326 29.3169 132.467C29.1739 132.608 28.981 132.687 28.7801 132.687Z" fill="#4462AC"/>
<path d="M30.4678 119.09L28.7808 117.409L27.0938 119.09V117.661L28.7808 115.984L30.4678 117.661V119.09Z" fill="#4462AC"/>
<path d="M38.3758 146.697C38.2754 146.697 38.176 146.677 38.0832 146.639C37.9905 146.601 37.9062 146.545 37.8352 146.474C37.7642 146.403 37.7079 146.319 37.6695 146.227C37.6311 146.134 37.6113 146.035 37.6113 145.935V127.305C37.6113 127.103 37.6919 126.909 37.8352 126.766C37.9786 126.623 38.173 126.543 38.3758 126.543C38.5785 126.543 38.7729 126.623 38.9163 126.766C39.0596 126.909 39.1402 127.103 39.1402 127.305V145.935C39.1402 146.137 39.0596 146.331 38.9163 146.474C38.7729 146.617 38.5785 146.697 38.3758 146.697Z" fill="#4462AC"/>
<path d="M40.0557 129.224L38.3687 127.543L36.6816 129.224V127.795L38.3687 126.113L40.0557 127.795V129.224Z" fill="#4462AC"/>
<path d="M45.4656 99.483C45.3652 99.483 45.2658 99.4633 45.1731 99.425C45.0803 99.3867 44.996 99.3306 44.9251 99.2598C44.8541 99.189 44.7978 99.1051 44.7593 99.0126C44.7209 98.9201 44.7012 98.821 44.7012 98.721V90.7171C44.7012 90.515 44.7817 90.3212 44.9251 90.1783C45.0684 90.0354 45.2628 89.9551 45.4656 89.9551C45.6683 89.9551 45.8628 90.0354 46.0061 90.1783C46.1495 90.3212 46.23 90.515 46.23 90.7171V98.721C46.23 98.9231 46.1495 99.1169 46.0061 99.2598C45.8628 99.4027 45.6683 99.483 45.4656 99.483Z" fill="#4462AC"/>
<path d="M29.0398 112.448C28.837 112.448 28.6426 112.368 28.4992 112.225C28.3559 112.082 28.2753 111.888 28.2753 111.686V100.619H25.7764C25.0999 100.615 24.4386 100.419 23.8713 100.051C23.304 99.6838 22.8546 99.1616 22.5768 98.5468C22.299 97.9319 22.2044 97.2504 22.3043 96.5834C22.4043 95.9165 22.6945 95.2922 23.1404 94.7851L37.7016 78.194C38.0327 77.816 38.4411 77.5129 38.8994 77.3053C39.3577 77.0976 39.8552 76.9902 40.3587 76.9902C40.8621 76.9902 41.3597 77.0976 41.818 77.3053C42.2763 77.5129 42.6847 77.816 43.0158 78.194L57.5769 94.7851C58.0229 95.2922 58.3131 95.9165 58.413 96.5834C58.513 97.2504 58.4184 97.9319 58.1406 98.5468C57.8627 99.1616 57.4134 99.6838 56.8461 100.051C56.2788 100.419 55.6174 100.615 54.941 100.619H52.442V101.927C52.442 102.129 52.3615 102.323 52.2181 102.466C52.0748 102.609 51.8803 102.689 51.6776 102.689C51.4749 102.689 51.2804 102.609 51.1371 102.466C50.9937 102.323 50.9132 102.129 50.9132 101.927V99.8776C50.906 99.6772 50.9783 99.482 51.1145 99.3345C51.2507 99.1869 51.4398 99.0988 51.6407 99.0893H54.904C55.2872 99.0885 55.6621 98.978 55.9841 98.7708C56.306 98.5636 56.5613 98.2684 56.7197 97.9206C56.8781 97.5728 56.9327 97.1869 56.8772 96.8089C56.8217 96.431 56.6583 96.0769 56.4065 95.7889L41.8454 79.1978C41.6526 78.9932 41.4198 78.8301 41.1614 78.7187C40.903 78.6072 40.6244 78.5497 40.3429 78.5497C40.0613 78.5497 39.7827 78.6072 39.5243 78.7187C39.2659 78.8301 39.0331 78.9932 38.8403 79.1978L24.2792 95.7889C24.0274 96.0769 23.864 96.431 23.8085 96.8089C23.753 97.1869 23.8077 97.5728 23.966 97.9206C24.1244 98.2684 24.3798 98.5636 24.7017 98.7708C25.0236 98.978 25.3985 99.0885 25.7817 99.0893H29.045C29.2478 99.0893 29.4422 99.1695 29.5856 99.3124C29.7289 99.4553 29.8095 99.6492 29.8095 99.8513V111.681C29.8102 111.782 29.7907 111.882 29.7523 111.975C29.7139 112.069 29.6572 112.154 29.5856 112.225C29.514 112.297 29.4289 112.353 29.3352 112.391C29.2414 112.43 29.141 112.449 29.0398 112.448Z" fill="#4462AC"/>
<path d="M111.504 90.323C111.353 90.3208 111.207 90.2744 111.082 90.1896C110.958 90.1047 110.862 89.9852 110.805 89.846C110.749 89.7068 110.735 89.5541 110.766 89.4071C110.796 89.26 110.869 89.1253 110.976 89.0196L112.648 87.3537C112.718 87.2801 112.802 87.2213 112.896 87.1807C112.989 87.1401 113.09 87.1185 113.192 87.1172C113.294 87.116 113.395 87.1351 113.489 87.1734C113.584 87.2118 113.67 87.2685 113.742 87.3404C113.814 87.4123 113.871 87.4978 113.909 87.5919C113.948 87.686 113.967 87.7869 113.966 87.8885C113.964 87.9901 113.943 88.0905 113.902 88.1836C113.861 88.2768 113.802 88.3609 113.728 88.431L112.057 90.097C111.985 90.1698 111.899 90.2274 111.804 90.2662C111.708 90.305 111.606 90.3243 111.504 90.323Z" fill="#4462AC"/>
<path d="M107.521 94.3006C107.371 94.2985 107.224 94.2521 107.1 94.1672C106.976 94.0824 106.879 93.9628 106.823 93.8236C106.767 93.6844 106.753 93.5317 106.783 93.3847C106.814 93.2377 106.887 93.1029 106.994 92.9972L108.665 91.3313C108.81 91.1942 109.002 91.1187 109.202 91.1212C109.401 91.1236 109.592 91.2037 109.733 91.3443C109.874 91.4849 109.954 91.675 109.957 91.8738C109.959 92.0727 109.884 92.2646 109.746 92.4086L108.048 94.0956C107.905 94.2286 107.717 94.302 107.521 94.3006Z" fill="#4462AC"/>
<path d="M113.173 94.3006C112.974 94.2964 112.785 94.2153 112.646 94.0746L110.975 92.4086C110.837 92.2646 110.761 92.0727 110.764 91.8738C110.766 91.675 110.847 91.4849 110.988 91.3443C111.129 91.2037 111.319 91.1236 111.519 91.1212C111.718 91.1187 111.911 91.1942 112.055 91.3313L113.727 92.9972C113.834 93.1029 113.907 93.2377 113.937 93.3847C113.968 93.5317 113.954 93.6844 113.898 93.8236C113.841 93.9628 113.745 94.0824 113.621 94.1672C113.496 94.2521 113.35 94.2985 113.199 94.3006H113.173Z" fill="#4462AC"/>
<path d="M109.183 90.3236C108.984 90.3193 108.795 90.2383 108.656 90.0976L106.995 88.4369C106.921 88.3668 106.862 88.2827 106.821 88.1895C106.781 88.0963 106.759 87.996 106.758 87.8944C106.757 87.7927 106.776 87.6919 106.814 87.5978C106.853 87.5036 106.91 87.4181 106.982 87.3463C107.054 87.2744 107.14 87.2176 107.234 87.1793C107.328 87.141 107.43 87.1219 107.532 87.1231C107.634 87.1243 107.734 87.1459 107.828 87.1865C107.921 87.2271 108.005 87.2859 108.076 87.3595L109.747 89.0255C109.854 89.1311 109.927 89.2659 109.958 89.4129C109.988 89.5599 109.974 89.7126 109.918 89.8518C109.862 89.9911 109.765 90.1106 109.641 90.1954C109.517 90.2803 109.37 90.3267 109.22 90.3288L109.183 90.3236Z" fill="#4462AC"/>
<path d="M63.6448 65.9952C63.5062 65.995 63.3703 65.9572 63.2516 65.8859C63.133 65.8146 63.036 65.7126 62.971 65.5906C62.906 65.4686 62.8755 65.3313 62.8828 65.1934C62.89 65.0554 62.9347 64.9221 63.0121 64.8075C64.2313 62.9197 64.7707 60.675 64.5417 58.4414C64.3128 56.2079 63.3291 54.1183 61.7521 52.5153C61.3682 53.1388 60.8775 53.6902 60.3023 54.1444C58.9316 55.2218 57.466 55.3689 56.3905 54.5333C55.8827 54.1253 55.5225 53.5631 55.3645 52.9323C55.2066 52.3015 55.2595 51.6366 55.5154 51.0385C56.0953 49.7457 57.5609 49.1782 59.4377 49.525C60.0341 49.6395 60.6076 49.8508 61.1353 50.1504C61.7205 48.0483 61.3936 45.3523 60.0809 42.6931C57.8192 38.0106 52.1729 33.2334 43.606 35.2567C43.4081 35.3027 43.2001 35.2685 43.0275 35.1616C42.855 35.0546 42.7322 34.8838 42.686 34.6865C42.6399 34.4893 42.6742 34.2819 42.7815 34.1099C42.8888 33.9379 43.0602 33.8155 43.258 33.7695C52.679 31.5675 58.9527 36.8439 61.4621 42.0309C63.0121 45.2366 63.3021 48.537 62.4164 51.0753C63.6338 52.1667 64.5888 53.5175 65.2105 55.0273C65.9682 56.7355 66.2785 58.6074 66.1126 60.4678C65.9466 62.3281 65.3097 64.116 64.2616 65.6641C64.1927 65.7643 64.1007 65.8467 63.9934 65.9043C63.8861 65.9618 63.7666 65.993 63.6448 65.9952ZM58.3728 50.9439C57.6347 50.9439 57.1286 51.191 56.9124 51.6639C56.7998 51.9504 56.7794 52.2646 56.854 52.5631C56.9287 52.8616 57.0946 53.1296 57.3289 53.3299C58.0037 53.8554 58.9105 53.3298 59.3534 52.9462C59.8322 52.5658 60.2347 52.0987 60.5396 51.5693C60.1144 51.3132 59.6465 51.1352 59.1583 51.0438C58.9 50.9873 58.6371 50.9539 58.3728 50.9439Z" fill="#4462AC"/>
<path d="M44.937 32.4316L43.677 34.4549L45.7067 35.7057L44.3149 36.0315L42.2852 34.7808L43.5399 32.7575L44.937 32.4316Z" fill="#4462AC"/>
<path d="M154.2 96.9555C154.1 96.9555 154 96.9358 153.907 96.8975C153.815 96.8592 153.73 96.8031 153.659 96.7323C153.588 96.6615 153.532 96.5775 153.494 96.4851C153.455 96.3926 153.436 96.2935 153.436 96.1935V87.4381C153.436 87.338 153.455 87.2389 153.494 87.1464C153.532 87.054 153.588 86.97 153.659 86.8992C153.73 86.8285 153.815 86.7723 153.907 86.734C154 86.6957 154.1 86.676 154.2 86.676H158.133C158.621 86.6756 159.099 86.5352 159.51 86.2715C159.92 86.0079 160.246 85.6321 160.448 85.189C160.651 84.7458 160.721 84.2541 160.651 83.7723C160.58 83.2905 160.372 82.8391 160.052 82.4718L155.144 76.8748C155.01 76.7222 154.943 76.523 154.957 76.3209C154.971 76.1189 155.064 75.9306 155.217 75.7975C155.371 75.6644 155.57 75.5974 155.773 75.6112C155.976 75.6249 156.165 75.7184 156.298 75.8711L161.185 81.4838C161.691 82.0714 162.018 82.7908 162.128 83.5574C162.238 84.324 162.126 85.1059 161.806 85.8113C161.485 86.5167 160.969 87.1161 160.318 87.5393C159.668 87.9625 158.91 88.1917 158.133 88.2001H154.97V96.1987C154.969 96.2988 154.949 96.3977 154.909 96.4899C154.87 96.5821 154.814 96.6657 154.742 96.736C154.671 96.8063 154.586 96.8618 154.493 96.8995C154.4 96.9371 154.3 96.9562 154.2 96.9555Z" fill="#4462AC"/>
<path d="M160.057 106.221C159.957 106.221 159.858 106.201 159.765 106.163C159.672 106.125 159.588 106.069 159.517 105.998C159.446 105.927 159.39 105.843 159.351 105.751C159.313 105.658 159.293 105.559 159.293 105.459V95.9573C159.293 95.7552 159.374 95.5614 159.517 95.4185C159.66 95.2756 159.855 95.1953 160.057 95.1953C160.26 95.1953 160.455 95.2756 160.598 95.4185C160.741 95.5614 160.822 95.7552 160.822 95.9573V105.459C160.822 105.661 160.741 105.855 160.598 105.998C160.455 106.141 160.26 106.221 160.057 106.221Z" fill="#4462AC"/>
<path d="M127.118 95.4822C126.915 95.4822 126.72 95.402 126.577 95.2591C126.434 95.1162 126.353 94.9223 126.353 94.7202V88.1984H123.19C122.413 88.191 121.654 87.9624 121.002 87.5396C120.351 87.1169 119.834 86.5174 119.513 85.8119C119.192 85.1063 119.08 84.324 119.189 83.557C119.299 82.7899 119.626 82.07 120.132 81.482L137.572 61.559C137.955 61.1227 138.427 60.773 138.957 60.5334C139.486 60.2939 140.061 60.1699 140.643 60.1699C141.224 60.1699 141.799 60.2939 142.329 60.5334C142.859 60.773 143.331 61.1227 143.714 61.559L152.07 71.0817C152.203 71.2343 152.271 71.4336 152.257 71.6356C152.243 71.8376 152.149 72.0259 151.996 72.159C151.843 72.2922 151.643 72.3592 151.44 72.3454C151.238 72.3316 151.049 72.2381 150.915 72.0855L142.575 62.5628C142.336 62.2905 142.041 62.0723 141.711 61.9228C141.38 61.7733 141.022 61.6959 140.659 61.6959C140.296 61.6959 139.937 61.7733 139.606 61.9228C139.276 62.0723 138.981 62.2905 138.742 62.5628L121.282 82.4595C120.961 82.8268 120.753 83.2783 120.683 83.76C120.613 84.2418 120.683 84.7336 120.885 85.1767C121.087 85.6198 121.413 85.9956 121.824 86.2593C122.234 86.523 122.712 86.6634 123.201 86.6638H127.118C127.218 86.6638 127.317 86.6835 127.41 86.7218C127.503 86.7601 127.587 86.8162 127.658 86.887C127.729 86.9577 127.785 87.0417 127.824 87.1342C127.862 87.2267 127.882 87.3257 127.882 87.4258V94.7097C127.883 94.8106 127.865 94.9109 127.827 95.0045C127.789 95.0982 127.733 95.1835 127.662 95.2553C127.591 95.3272 127.506 95.3843 127.413 95.4233C127.319 95.4622 127.219 95.4823 127.118 95.4822Z" fill="#4462AC"/>
<path d="M132.085 79.0652C131.937 79.0656 131.793 79.0235 131.669 78.944C131.545 78.8645 131.447 78.751 131.386 78.6172C131.326 78.4834 131.305 78.335 131.327 78.1898C131.349 78.0445 131.412 77.9088 131.51 77.7987L140.082 68.1446C140.217 67.9934 140.407 67.9018 140.609 67.89C140.812 67.8782 141.011 67.9471 141.163 68.0816C141.315 68.2161 141.406 68.4051 141.418 68.6072C141.43 68.8092 141.361 69.0077 141.226 69.1589L132.654 78.813C132.582 78.8925 132.494 78.9561 132.396 78.9996C132.298 79.043 132.192 79.0654 132.085 79.0652Z" fill="#4462AC"/>
<path d="M132.085 84.5361C131.937 84.5364 131.793 84.4943 131.669 84.4148C131.545 84.3354 131.447 84.2219 131.386 84.0881C131.326 83.9543 131.305 83.8058 131.327 83.6606C131.349 83.5154 131.412 83.3796 131.51 83.2696L140.087 73.5997C140.154 73.5248 140.235 73.4638 140.326 73.4201C140.416 73.3764 140.514 73.3509 140.615 73.3451C140.715 73.3392 140.816 73.3531 140.911 73.386C141.006 73.4189 141.093 73.47 141.168 73.5366C141.243 73.6032 141.304 73.684 141.348 73.7741C141.392 73.8643 141.418 73.9622 141.424 74.0622C141.429 74.1623 141.416 74.2625 141.383 74.3572C141.35 74.4518 141.298 74.5391 141.231 74.614L132.659 84.2681C132.588 84.3511 132.5 84.4181 132.401 84.4643C132.302 84.5105 132.194 84.535 132.085 84.5361Z" fill="#4462AC"/>
<path d="M132.085 90.0066C131.937 90.0069 131.793 89.9648 131.669 89.8854C131.545 89.8059 131.447 89.6924 131.386 89.5586C131.326 89.4248 131.305 89.2764 131.327 89.1312C131.349 88.9859 131.412 88.8501 131.51 88.7401L140.082 79.086C140.217 78.9348 140.407 78.8432 140.609 78.8314C140.812 78.8196 141.011 78.8885 141.163 79.023C141.315 79.1575 141.406 79.3465 141.418 79.5486C141.43 79.7506 141.361 79.9491 141.226 80.1003L132.654 89.7544C132.582 89.8339 132.494 89.8975 132.396 89.941C132.298 89.9844 132.192 90.0068 132.085 90.0066Z" fill="#4462AC"/>
<path d="M133.566 93.7976C133.418 93.7988 133.272 93.757 133.147 93.6773C133.022 93.5976 132.923 93.4833 132.862 93.3485C132.801 93.2137 132.781 93.0642 132.804 92.9181C132.827 92.772 132.892 92.6357 132.991 92.5258L140.087 84.5587C140.222 84.4075 140.412 84.3159 140.615 84.304C140.817 84.2922 141.016 84.3611 141.168 84.4956C141.32 84.6301 141.412 84.8192 141.423 85.0213C141.435 85.2233 141.366 85.4218 141.231 85.573L134.135 93.5401C134.064 93.6206 133.976 93.6851 133.878 93.7295C133.78 93.7739 133.674 93.7971 133.566 93.7976Z" fill="#4462AC"/>
<path d="M136.069 96.5336C135.922 96.5339 135.777 96.4918 135.653 96.4123C135.53 96.3329 135.431 96.2194 135.371 96.0856C135.31 95.9518 135.289 95.8033 135.311 95.6581C135.333 95.5129 135.397 95.3771 135.494 95.267L140.086 90.0117C140.152 89.9361 140.233 89.8743 140.323 89.8297C140.413 89.7851 140.511 89.7586 140.611 89.7518C140.712 89.7449 140.812 89.7579 140.908 89.7898C141.003 89.8218 141.091 89.8722 141.167 89.9381C141.243 90.004 141.305 90.0842 141.35 90.174C141.394 90.2638 141.421 90.3615 141.428 90.4616C141.435 90.5616 141.422 90.662 141.389 90.757C141.357 90.8521 141.307 90.9399 141.241 91.0155L136.649 96.2708C136.577 96.3536 136.488 96.4199 136.388 96.4653C136.288 96.5106 136.179 96.5339 136.069 96.5336Z" fill="#4462AC"/>
<path d="M136.069 102.006C135.922 102.007 135.777 101.964 135.653 101.885C135.53 101.805 135.431 101.692 135.371 101.558C135.31 101.424 135.289 101.276 135.311 101.131C135.333 100.986 135.397 100.85 135.494 100.74L140.086 95.4843C140.22 95.3317 140.409 95.2382 140.611 95.2244C140.814 95.2106 141.014 95.2777 141.167 95.4108C141.32 95.5439 141.414 95.7322 141.428 95.9342C141.442 96.1363 141.374 96.3355 141.241 96.4881L136.649 101.743C136.577 101.826 136.488 101.893 136.388 101.938C136.288 101.983 136.179 102.007 136.069 102.006Z" fill="#4462AC"/>
<path d="M137.825 105.479C137.677 105.479 137.533 105.437 137.409 105.358C137.285 105.278 137.187 105.165 137.127 105.031C137.066 104.897 137.045 104.749 137.067 104.604C137.089 104.458 137.153 104.323 137.25 104.212L140.086 100.98C140.153 100.905 140.233 100.843 140.323 100.798C140.413 100.754 140.511 100.727 140.612 100.721C140.712 100.714 140.813 100.727 140.908 100.759C141.003 100.791 141.091 100.841 141.167 100.907C141.243 100.973 141.305 101.053 141.35 101.143C141.395 101.233 141.421 101.33 141.428 101.43C141.435 101.53 141.422 101.631 141.39 101.726C141.358 101.821 141.307 101.909 141.241 101.984L138.405 105.216C138.333 105.299 138.244 105.365 138.143 105.411C138.043 105.456 137.935 105.479 137.825 105.479Z" fill="#4462AC"/>
<path d="M172.419 107.703C172.319 107.703 172.219 107.683 172.126 107.645C172.034 107.606 171.949 107.55 171.878 107.48C171.807 107.409 171.751 107.325 171.713 107.232C171.674 107.14 171.655 107.041 171.655 106.941V100.876C171.655 100.776 171.674 100.677 171.713 100.584C171.751 100.492 171.807 100.408 171.878 100.337C171.949 100.266 172.034 100.21 172.126 100.172C172.219 100.134 172.319 100.114 172.419 100.114H174.844C175.04 100.113 175.231 100.055 175.393 99.9456C175.555 99.8366 175.682 99.6822 175.756 99.5018C175.831 99.3214 175.85 99.1231 175.811 98.9318C175.773 98.7406 175.678 98.5649 175.54 98.4271L165.523 88.4892C165.214 88.1847 164.796 88.0139 164.361 88.0139C163.926 88.0139 163.508 88.1847 163.198 88.4892L153.182 98.4271C153.043 98.5649 152.949 98.7406 152.91 98.9318C152.872 99.1231 152.891 99.3214 152.965 99.5018C153.04 99.6822 153.166 99.8366 153.328 99.9456C153.491 100.055 153.682 100.113 153.877 100.114H156.303C156.505 100.114 156.7 100.194 156.843 100.337C156.986 100.48 157.067 100.674 157.067 100.876V106.941C157.067 107.143 156.986 107.337 156.843 107.48C156.7 107.622 156.505 107.703 156.303 107.703C156.1 107.703 155.905 107.622 155.762 107.48C155.619 107.337 155.538 107.143 155.538 106.941V101.638H153.877C153.378 101.638 152.891 101.49 152.476 101.214C152.061 100.937 151.738 100.544 151.548 100.084C151.358 99.624 151.308 99.1182 151.407 98.6305C151.505 98.1428 151.747 97.6952 152.101 97.3445L162.118 87.4066C162.412 87.1119 162.761 86.878 163.146 86.7184C163.531 86.5587 163.944 86.4766 164.361 86.4766C164.778 86.4766 165.191 86.5587 165.576 86.7184C165.961 86.878 166.31 87.1119 166.604 87.4066L176.621 97.3445C176.975 97.6952 177.216 98.1428 177.315 98.6305C177.413 99.1182 177.364 99.624 177.174 100.084C176.983 100.544 176.66 100.937 176.246 101.214C175.831 101.49 175.343 101.638 174.844 101.638H173.183V106.941C173.183 107.041 173.164 107.14 173.125 107.232C173.087 107.325 173.031 107.409 172.96 107.48C172.889 107.55 172.804 107.606 172.712 107.645C172.619 107.683 172.519 107.703 172.419 107.703Z" fill="#4462AC"/>
<path d="M163.158 77.1266H150.437C150.018 77.1255 149.609 77.0045 149.257 76.778C148.906 76.5515 148.627 76.2291 148.454 75.8492C148.282 75.4693 148.222 75.0479 148.283 74.6352C148.344 74.2225 148.522 73.8359 148.797 73.5214L155.571 65.8013C155.729 65.6335 155.92 65.4997 156.132 65.4082C156.343 65.3167 156.572 65.2695 156.802 65.2695C157.033 65.2695 157.262 65.3167 157.473 65.4082C157.685 65.4997 157.876 65.6335 158.033 65.8013L164.808 73.5214C165.083 73.8362 165.262 74.2233 165.322 74.6365C165.383 75.0497 165.323 75.4715 165.149 75.8516C164.976 76.2317 164.696 76.5541 164.344 76.7801C163.992 77.0062 163.582 77.1265 163.163 77.1266H163.158ZM149.946 74.4989C149.87 74.5929 149.823 74.7062 149.808 74.8259C149.793 74.9456 149.813 75.067 149.864 75.1763C149.915 75.2857 149.995 75.3786 150.097 75.4446C150.198 75.5107 150.316 75.5472 150.437 75.55H163.158C163.279 75.5472 163.396 75.5107 163.498 75.4446C163.599 75.3786 163.68 75.2857 163.731 75.1763C163.782 75.067 163.801 74.9456 163.786 74.8259C163.772 74.7062 163.724 74.5929 163.648 74.4989L156.874 66.7788C156.864 66.7677 156.852 66.7587 156.838 66.7525C156.824 66.7464 156.81 66.7432 156.795 66.7432C156.78 66.7432 156.765 66.7464 156.751 66.7525C156.738 66.7587 156.725 66.7677 156.715 66.7788L149.946 74.4989Z" fill="#4462AC"/>
<path d="M153.331 74.9144C153.185 74.9148 153.041 74.8731 152.917 74.7943C152.793 74.7155 152.695 74.6029 152.634 74.4698C152.573 74.3368 152.551 74.1891 152.572 74.0442C152.593 73.8994 152.655 73.7636 152.751 73.6531L156.357 69.4803C156.49 69.327 156.677 69.2323 156.88 69.217C157.082 69.2017 157.282 69.2672 157.436 69.3989C157.589 69.5306 157.684 69.7178 157.7 69.9194C157.715 70.1209 157.649 70.3203 157.517 70.4736L153.916 74.6516C153.844 74.7351 153.754 74.8018 153.653 74.8472C153.552 74.8925 153.442 74.9155 153.331 74.9144Z" fill="#4462AC"/>
<path d="M134.189 51.2434C134.039 51.2413 133.892 51.1949 133.768 51.11C133.644 51.0252 133.547 50.9056 133.491 50.7664C133.435 50.6272 133.421 50.4745 133.451 50.3275C133.482 50.1805 133.555 50.0457 133.662 49.94L135.244 48.3634C135.314 48.2898 135.398 48.231 135.492 48.1904C135.585 48.1498 135.686 48.1282 135.788 48.127C135.89 48.1258 135.991 48.1449 136.085 48.1832C136.18 48.2215 136.266 48.2783 136.338 48.3502C136.41 48.422 136.467 48.5075 136.505 48.6017C136.544 48.6958 136.563 48.7967 136.562 48.8983C136.56 48.9999 136.539 49.1003 136.498 49.1934C136.457 49.2866 136.398 49.3707 136.324 49.4408L134.743 51.0174C134.67 51.0902 134.584 51.1478 134.489 51.1866C134.394 51.2254 134.292 51.2448 134.189 51.2434Z" fill="#4462AC"/>
<path d="M130.371 55.0491C130.22 55.047 130.074 55.0006 129.949 54.9157C129.825 54.8309 129.729 54.7114 129.673 54.5721C129.616 54.4329 129.603 54.2802 129.633 54.1332C129.663 53.9862 129.737 53.8514 129.844 53.7458L131.425 52.1692C131.57 52.032 131.762 51.9566 131.962 51.959C132.161 51.9615 132.352 52.0415 132.493 52.1822C132.634 52.3228 132.714 52.5128 132.717 52.7117C132.719 52.9106 132.644 53.1025 132.506 53.2465L130.924 54.8231C130.852 54.896 130.766 54.9535 130.671 54.9923C130.576 55.0312 130.474 55.0505 130.371 55.0491Z" fill="#4462AC"/>
<path d="M135.79 55.0491C135.592 55.0449 135.403 54.9639 135.263 54.8231L133.682 53.2465C133.544 53.1025 133.468 52.9106 133.471 52.7117C133.473 52.5128 133.554 52.3228 133.695 52.1822C133.836 52.0415 134.026 51.9615 134.226 51.959C134.425 51.9566 134.618 52.032 134.762 52.1692L136.344 53.7458C136.451 53.8514 136.524 53.9862 136.555 54.1332C136.585 54.2802 136.571 54.4329 136.515 54.5721C136.459 54.7114 136.362 54.8309 136.238 54.9157C136.114 55.0006 135.967 55.047 135.817 55.0491H135.79Z" fill="#4462AC"/>
<path d="M131.975 51.2434C131.776 51.2392 131.587 51.1581 131.448 51.0174L129.866 49.4408C129.792 49.3707 129.733 49.2866 129.693 49.1934C129.652 49.1003 129.63 48.9999 129.629 48.8983C129.628 48.7967 129.647 48.6958 129.685 48.6017C129.724 48.5075 129.781 48.422 129.853 48.3502C129.925 48.2783 130.011 48.2215 130.105 48.1832C130.2 48.1449 130.301 48.1258 130.403 48.127C130.505 48.1282 130.605 48.1498 130.699 48.1904C130.792 48.231 130.877 48.2898 130.947 48.3634L132.528 49.94C132.635 50.0457 132.709 50.1805 132.739 50.3275C132.77 50.4745 132.756 50.6272 132.699 50.7664C132.643 50.9056 132.547 51.0252 132.423 51.11C132.298 51.1949 132.152 51.2413 132.001 51.2434H131.975Z" fill="#4462AC"/>
<path d="M167.501 167.708H163.769V165.605H167.501V167.708ZM160.215 167.708H155.244V165.605H160.242L160.215 167.708ZM151.696 167.708H146.725V165.605H151.696V167.708ZM143.176 167.708H138.205V165.605H143.176V167.708ZM134.657 167.708H129.664V165.605H134.636L134.657 167.708ZM126.137 167.708H121.166V165.605H126.137V167.708Z" fill="#4462AC"/>
<path d="M102.466 165.137H43.3242V168.039H102.466V165.137Z" fill="#4462AC"/>
</g>
<defs>
<clipPath id="clip0_549_3554">
<rect width="167" height="154" fill="white" transform="translate(14 21)"/>
</clipPath>
</defs>
</svg>
