<svg width="196" height="196" viewBox="0 0 196 196" fill="none" xmlns="http://www.w3.org/2000/svg">
<path d="M97.8568 195.714C151.902 195.714 195.714 151.902 195.714 97.8568C195.714 43.812 151.902 0 97.8568 0C43.812 0 0 43.812 0 97.8568C0 151.902 43.812 195.714 97.8568 195.714Z" fill="#FFEAA7"/>
<g clip-path="url(#clip0_549_3878)">
<path d="M75.2587 85.8549L73.6435 110.069C73.6034 110.649 73.3975 111.205 73.0502 111.672C72.7029 112.138 72.2289 112.495 71.6846 112.7C71.1403 112.904 70.5487 112.948 69.9801 112.826C69.4116 112.704 68.89 112.421 68.4776 112.011L65.9457 109.479L46.3884 129.037C46.3884 129.037 39.4836 121.07 40.5677 114.594C41.6518 108.119 40.4004 99.9627 40.4004 99.9627L48.4038 91.9593L45.879 89.391C45.4691 88.9786 45.1862 88.457 45.0642 87.8885C44.9422 87.3199 44.9862 86.7283 45.1909 86.184C45.3956 85.6397 45.7523 85.1657 46.2188 84.8184C46.6852 84.4711 47.2415 84.2652 47.8217 84.2251L72.0355 82.6099C72.4679 82.5818 72.9014 82.6466 73.3067 82.8C73.712 82.9535 74.0797 83.192 74.3851 83.4994C74.6905 83.8069 74.9264 84.1762 75.0771 84.5825C75.2278 84.9888 75.2897 85.4227 75.2587 85.8549Z" fill="#7393CB"/>
<path d="M60.0724 118.691C60.6513 118.691 61.2065 118.921 61.6159 119.331C62.0252 119.74 62.2552 120.295 62.2552 120.874L62.2915 133.818C62.2922 134.136 62.1985 134.447 62.0224 134.712C61.8462 134.976 61.5954 135.183 61.3018 135.305C61.0082 135.428 60.6848 135.46 60.3728 135.399C60.0607 135.337 59.7739 135.184 59.5486 134.96L57.977 133.388L41.7447 149.693C40.9622 148.536 40.4851 147.199 40.3579 145.807C40.2307 144.415 40.4575 143.014 41.0172 141.734C42.8725 137.019 38.9727 131.548 38.9727 131.548L47.5654 122.969L45.9865 121.405C45.762 121.18 45.6094 120.893 45.5479 120.581C45.4864 120.269 45.5188 119.946 45.6411 119.652C45.7634 119.358 45.97 119.107 46.2348 118.931C46.4996 118.755 46.8108 118.661 47.1288 118.662L60.0724 118.691Z" fill="#D4E4F5"/>
<path d="M71.5174 97.6431L80.9104 97.0174C81.0232 97.0099 81.1363 97.0266 81.2421 97.0663C81.3479 97.1061 81.444 97.168 81.5239 97.2479C81.6038 97.3278 81.6657 97.4239 81.7055 97.5297C81.7452 97.6355 81.7619 97.7486 81.7544 97.8614L81.1287 107.254C81.1081 107.498 81.0192 107.73 80.8723 107.925C80.7254 108.12 80.5264 108.269 80.2983 108.356C80.0701 108.442 79.8222 108.463 79.5829 108.415C79.3436 108.367 79.1228 108.252 78.946 108.084L70.717 99.8549C70.541 99.681 70.4184 99.4603 70.3639 99.2189C70.3093 98.9775 70.3251 98.7256 70.4093 98.4929C70.4935 98.2601 70.6426 98.0564 70.839 97.9058C71.0354 97.7552 71.2708 97.6641 71.5174 97.6431Z" fill="#D4E4F5"/>
<path d="M57.3737 119.324L56.0859 118.036L65.9373 108.185L69.1169 111.364C69.4047 111.658 69.7716 111.862 70.173 111.951C70.5744 112.04 70.9931 112.011 71.3782 111.867C71.7634 111.723 72.0984 111.47 72.3428 111.139C72.5871 110.809 72.7302 110.414 72.7548 110.003L73.2131 103.193L75.0248 103.317L74.5664 110.127C74.5145 110.881 74.2469 111.605 73.7954 112.211C73.3439 112.818 72.7276 113.282 72.02 113.548C71.3123 113.814 70.5431 113.871 69.8039 113.712C69.0647 113.553 68.3868 113.185 67.8509 112.652L65.9592 110.76L57.3737 119.324Z" fill="#4462AC"/>
<path d="M39.8169 136.627L38.791 135.601L40.3335 134.059L41.3593 135.084L39.8169 136.627ZM42.9019 133.542L41.8759 132.516L43.4184 130.974L44.4443 131.999L42.9019 133.542ZM45.9868 130.457L44.9609 129.409L46.5033 127.867L47.5292 128.893L45.9868 130.457ZM49.0717 127.372L48.0458 126.346L49.5883 124.804L50.6142 125.83L49.0717 127.372ZM52.1566 124.287L51.1308 123.261L52.6732 121.719L53.6991 122.745L52.1566 124.287Z" fill="#4462AC"/>
<path d="M75.3964 97.5034L73.5848 97.3798L74.356 85.7894C74.3764 85.487 74.3318 85.1837 74.2253 84.8999C74.1188 84.6161 73.9529 84.3584 73.7385 84.1441C73.5242 83.9297 73.2665 83.7638 72.9827 83.6573C72.6989 83.5508 72.3957 83.5062 72.0932 83.5266L47.8794 85.1419C47.4689 85.1664 47.0744 85.3095 46.7437 85.5538C46.4129 85.7982 46.1602 86.1332 46.0162 86.5184C45.8721 86.9035 45.8429 87.3222 45.9321 87.7236C46.0214 88.125 46.2252 88.4919 46.5188 88.7798L49.6983 91.9593L44.3288 97.3288L43.041 96.041L47.13 91.952L45.2383 90.0603C44.705 89.5243 44.3371 88.8464 44.1783 88.1073C44.0195 87.3681 44.0765 86.5989 44.3426 85.8912C44.6086 85.1835 45.0725 84.5672 45.6789 84.1158C46.2853 83.6643 47.0088 83.3967 47.763 83.3447L71.9768 81.7295C72.5378 81.6919 73.1004 81.7748 73.6268 81.9725C74.1531 82.1702 74.6311 82.4781 75.0287 82.8757C75.4263 83.2733 75.7343 83.7513 75.932 84.2777C76.1297 84.8041 76.2125 85.3666 76.1749 85.9277L75.3964 97.5034Z" fill="#4462AC"/>
<path d="M69.3277 87.8109L57.5117 88.5273L57.5998 89.9798L69.4158 89.2633L69.3277 87.8109Z" fill="#4462AC"/>
<path d="M65.7808 91.3597L53.9648 92.0762L54.0529 93.5287L65.8689 92.8122L65.7808 91.3597Z" fill="#4462AC"/>
<path d="M62.2183 94.9144L50.4023 95.6309L50.4904 97.0833L62.3064 96.3669L62.2183 94.9144Z" fill="#4462AC"/>
<path d="M58.6753 98.4186L48.9141 99.002L49.0009 100.455L58.7621 99.8712L58.6753 98.4186Z" fill="#4462AC"/>
<path d="M45.4626 147.235L44.1748 145.947L57.9988 132.123L60.1816 134.306C60.2837 134.389 60.4066 134.444 60.5373 134.463C60.6679 134.482 60.8014 134.465 60.9232 134.415C61.0451 134.364 61.1508 134.281 61.2291 134.174C61.3074 134.068 61.3552 133.942 61.3675 133.811L61.3893 120.904C61.3874 120.561 61.2504 120.232 61.0079 119.99C60.7655 119.747 60.4371 119.61 60.0942 119.609L47.1506 119.572C47.0191 119.584 46.8935 119.632 46.7871 119.711C46.6807 119.789 46.5977 119.895 46.5468 120.016C46.496 120.138 46.4793 120.272 46.4985 120.402C46.5177 120.533 46.5721 120.656 46.6559 120.758L48.8386 122.941L42.7488 129.031L41.4609 127.743L46.263 122.941L45.3317 122.01C44.9815 121.657 44.7433 121.21 44.6469 120.723C44.5506 120.236 44.6004 119.731 44.7902 119.272C44.9799 118.813 45.3011 118.421 45.7133 118.144C46.1256 117.867 46.6104 117.719 47.107 117.717L60.0506 117.753C60.874 117.757 61.6628 118.085 62.2458 118.667C62.8287 119.249 63.1589 120.036 63.1646 120.86L63.201 133.804C63.202 134.301 63.0554 134.788 62.7797 135.203C62.5041 135.617 62.1118 135.941 61.6524 136.132C61.193 136.324 60.6871 136.375 60.1987 136.279C59.7102 136.183 59.2612 135.944 58.9083 135.593L57.9843 134.669L45.4626 147.235Z" fill="#4462AC"/>
<path d="M79.8276 109.196C79.5574 109.2 79.289 109.149 79.0389 109.046C78.7888 108.944 78.5621 108.792 78.3725 108.599L70.1435 100.37C69.8687 100.096 69.6788 99.7474 69.5966 99.3676C69.5144 98.9878 69.5433 98.5924 69.6799 98.2286C69.8165 97.8648 70.055 97.5481 70.3669 97.3163C70.6788 97.0845 71.0509 96.9474 71.4386 96.9215L80.8316 96.2958C81.0483 96.2827 81.2653 96.3154 81.4684 96.3919C81.6715 96.4684 81.8562 96.5869 82.0104 96.7396C82.1642 96.893 82.2835 97.0775 82.36 97.2808C82.4366 97.4842 82.4687 97.7015 82.4542 97.9183L81.8285 107.311C81.8054 107.7 81.6692 108.074 81.4365 108.387C81.2039 108.7 80.8849 108.938 80.5188 109.072C80.2972 109.153 80.0634 109.195 79.8276 109.196ZM80.9117 97.0161L80.9626 97.7437L71.5696 98.3694C71.4607 98.3766 71.3563 98.415 71.2687 98.48C71.1811 98.545 71.1141 98.6339 71.0758 98.736C71.0374 98.8381 71.0293 98.9491 71.0523 99.0557C71.0754 99.1623 71.1286 99.26 71.2058 99.3371L79.4347 107.581C79.5118 107.658 79.6095 107.711 79.7161 107.734C79.8227 107.757 79.9337 107.749 80.0358 107.711C80.1379 107.672 80.2268 107.605 80.2918 107.518C80.3568 107.43 80.3952 107.326 80.4024 107.217L81.0281 97.8237L80.9117 97.0161Z" fill="#4462AC"/>
<path d="M78.5065 99.2256L74.7305 99.5586L74.8583 101.008L78.6344 100.675L78.5065 99.2256Z" fill="#4462AC"/>
<path d="M47.7997 115.316C47.1264 115.314 46.4688 115.113 45.9093 114.738C45.3499 114.364 44.9134 113.832 44.6547 113.211C44.396 112.589 44.3265 111.905 44.4549 111.244C44.5834 110.583 44.9041 109.975 45.3768 109.496L48.4181 106.454C48.6006 106.272 48.7454 106.055 48.8441 105.817C48.9429 105.578 48.9937 105.323 48.9937 105.065C48.9937 104.807 48.9429 104.551 48.8441 104.313C48.7454 104.074 48.6006 103.857 48.4181 103.675C48.2356 103.492 48.019 103.348 47.7805 103.249C47.5421 103.15 47.2865 103.099 47.0284 103.099C46.7703 103.099 46.5148 103.15 46.2763 103.249C46.0379 103.348 45.8212 103.492 45.6387 103.675L37.8027 111.511L36.7695 110.492L44.6056 102.656C44.9233 102.339 45.3004 102.087 45.7155 101.915C46.1306 101.743 46.5755 101.654 47.0248 101.654C47.4741 101.654 47.919 101.743 48.3341 101.915C48.7491 102.087 49.1263 102.339 49.444 102.656C49.7617 102.974 50.0137 103.351 50.1856 103.766C50.3575 104.181 50.4461 104.626 50.4461 105.076C50.4461 105.525 50.3575 105.97 50.1856 106.385C50.0137 106.8 49.7617 107.177 49.444 107.495L46.41 110.492C46.043 110.862 45.837 111.361 45.837 111.882C45.837 112.403 46.043 112.902 46.41 113.272C46.7847 113.628 47.2823 113.827 47.7997 113.827C48.317 113.827 48.8146 113.628 49.1893 113.272L58.917 103.544L59.9429 104.57L50.2152 114.298C49.9001 114.619 49.5243 114.874 49.1096 115.049C48.695 115.224 48.2497 115.315 47.7997 115.316Z" fill="#4462AC"/>
<path d="M57.0098 104.226H59.2798V106.489L60.2402 105.528V103.266H57.9702L57.0098 104.226Z" fill="#4462AC"/>
<path d="M159.54 113.401C158.957 112.943 158.29 112.603 157.576 112.402C156.862 112.201 156.115 112.143 155.379 112.231C154.642 112.319 153.93 112.551 153.283 112.914C152.637 113.277 152.068 113.764 151.609 114.347L146.473 120.895C141.931 126.686 136.231 131.466 129.738 134.93C128.826 135.408 127.844 135.737 126.828 135.905C126.828 134.408 126.233 132.972 125.174 131.913C124.115 130.854 122.679 130.259 121.182 130.259H115.361C110.548 130.264 105.771 129.426 101.246 127.786C96.0077 125.879 88.4409 123.9 81.8344 129.328C79.2317 131.52 77.212 134.322 75.9556 137.484C74.6273 140.848 72.6438 143.915 70.1204 146.506L69.873 146.754L87.1967 164.077L90.4854 160.789C91.658 159.614 93.1014 158.745 94.6886 158.259C96.2757 157.773 97.958 157.685 99.5874 158.002C106.259 159.297 117.624 161.203 123.394 160.403C133.58 158.991 160.5 121.31 160.5 121.31C161.418 120.133 161.833 118.64 161.653 117.157C161.473 115.675 160.713 114.325 159.54 113.401Z" fill="#D4E4F5"/>
<path d="M66.8963 143.772L56.0254 154.643L79.2797 177.897L90.1506 167.026L66.8963 143.772Z" fill="#7393CB"/>
<path d="M87.2055 167.162L66.7969 146.754L68.5867 144.964C70.9315 142.593 72.7793 139.778 74.0217 136.684C75.4146 133.185 77.6517 130.086 80.5336 127.662C88.7479 120.91 98.432 124.432 102.077 125.756C106.361 127.311 110.885 128.104 115.443 128.099H121.263C122.841 128.108 124.38 128.592 125.678 129.489C126.976 130.386 127.973 131.654 128.539 133.126L128.728 133.032C134.945 129.712 140.398 125.127 144.735 119.571L149.872 113.023C151.147 111.383 153.022 110.317 155.084 110.059C157.146 109.801 159.225 110.372 160.866 111.648C162.506 112.923 163.572 114.798 163.83 116.86C164.088 118.922 163.516 121.001 162.241 122.642C159.33 126.753 134.484 161.101 123.679 162.593C117.858 163.401 107.127 161.72 99.1523 160.17C97.8749 159.92 96.5553 159.988 95.3104 160.368C94.0655 160.749 92.9336 161.431 92.0148 162.353L87.2055 167.162ZM72.9304 146.71L87.2127 160.992L88.9589 159.246C90.3839 157.819 92.1377 156.764 94.0662 156.174C95.9947 155.584 98.0387 155.477 100.018 155.863C110.83 157.966 119.03 158.773 123.111 158.249C129.871 157.318 148.577 134.319 158.763 120.052L158.821 119.971C159.385 119.248 159.64 118.331 159.529 117.42C159.419 116.509 158.952 115.679 158.232 115.111C157.509 114.545 156.591 114.289 155.68 114.4C154.768 114.51 153.938 114.978 153.371 115.701L148.235 122.249C143.517 128.285 137.585 133.264 130.824 136.866C130.208 137.194 129.562 137.465 128.896 137.673C128.495 139.398 127.523 140.936 126.137 142.038C124.751 143.139 123.034 143.74 121.263 143.741H101.524V139.376H121.227C122.146 139.376 123.026 139.011 123.676 138.362C124.325 137.712 124.69 136.831 124.69 135.913C124.69 134.994 124.325 134.113 123.676 133.464C123.026 132.814 122.146 132.449 121.227 132.449H115.406C110.34 132.456 105.311 131.575 100.549 129.845C95.1143 127.866 88.8134 126.461 83.2693 131.023C80.9554 132.985 79.1569 135.483 78.0307 138.299C76.8066 141.367 75.0805 144.209 72.9231 146.71H72.9304Z" fill="#4462AC"/>
<path d="M79.2817 180.979L52.9434 154.641L66.8983 140.686L93.2367 167.024L79.2817 180.979ZM59.1132 154.641L79.2817 174.809L87.0668 167.024L66.8983 146.87L59.1132 154.641Z" fill="#4462AC"/>
<path d="M67.3798 150.892L64.293 153.979L69.5869 159.272L72.6738 156.186L67.3798 150.892Z" fill="#4462AC"/>
<path d="M111.724 119.877C121.742 119.877 129.863 111.756 129.863 101.738C129.863 91.7205 121.742 83.5996 111.724 83.5996C101.707 83.5996 93.5859 91.7205 93.5859 101.738C93.5859 111.756 101.707 119.877 111.724 119.877Z" fill="#7393CB"/>
<path d="M134.236 82.4061C142.63 82.4061 149.435 75.6012 149.435 67.2069C149.435 58.8127 142.63 52.0078 134.236 52.0078C125.842 52.0078 119.037 58.8127 119.037 67.2069C119.037 75.6012 125.842 82.4061 134.236 82.4061Z" fill="#D4E4F5"/>
<path d="M111.724 122.061C107.704 122.061 103.774 120.868 100.431 118.634C97.0892 116.4 94.4845 113.225 92.9471 109.511C91.4097 105.796 91.0086 101.709 91.7944 97.7667C92.5803 93.8242 94.5179 90.2033 97.3621 87.3622C100.206 84.5211 103.829 82.5874 107.773 81.8058C111.716 81.0242 115.803 81.4297 119.515 82.9711C123.228 84.5125 126.4 87.1206 128.631 90.4652C130.861 93.8099 132.049 97.741 132.045 101.761C132.026 107.143 129.878 112.298 126.07 116.101C122.263 119.905 117.105 122.047 111.724 122.061ZM111.724 85.7834C108.569 85.7834 105.485 86.7187 102.861 88.471C100.238 90.2233 98.1928 92.7139 96.9845 95.6282C95.7762 98.5425 95.4589 101.75 96.0728 104.844C96.6867 107.939 98.2042 110.782 100.433 113.014C102.663 115.246 105.504 116.768 108.597 117.386C111.691 118.004 114.899 117.691 117.815 116.487C120.73 115.282 123.224 113.241 124.98 110.62C126.736 107.999 127.675 104.916 127.679 101.761C127.679 97.5246 126 93.461 123.009 90.4606C120.018 87.4602 115.96 85.7678 111.724 85.7543V85.7834Z" fill="#4462AC"/>
<path d="M111.724 113.061C107.504 113.061 104.078 110.034 104.078 106.309C104.078 105.73 104.308 105.175 104.717 104.765C105.126 104.356 105.681 104.126 106.26 104.126C106.839 104.126 107.394 104.356 107.804 104.765C108.213 105.175 108.443 105.73 108.443 106.309C108.443 107.604 109.949 108.695 111.724 108.695C113.5 108.695 115.006 107.604 115.006 106.309C115.006 105.348 113.827 104.781 111.004 103.806C108.181 102.831 104.07 101.398 104.07 97.1777C104.07 93.4525 107.504 90.4258 111.717 90.4258C115.93 90.4258 119.364 93.4525 119.364 97.1777C119.364 97.7566 119.134 98.3118 118.725 98.7211C118.315 99.1305 117.76 99.3605 117.181 99.3605C116.602 99.3605 116.047 99.1305 115.638 98.7211C115.229 98.3118 114.999 97.7566 114.999 97.1777C114.999 95.8826 113.492 94.7913 111.717 94.7913C109.942 94.7913 108.436 95.8826 108.436 97.1777C108.436 98.1381 109.614 98.7056 112.437 99.6806C115.26 100.656 119.371 102.089 119.371 106.309C119.371 110.034 115.959 113.061 111.724 113.061Z" fill="#4462AC"/>
<path d="M111.724 116.311C111.145 116.311 110.59 116.081 110.18 115.672C109.771 115.262 109.541 114.707 109.541 114.128V110.876C109.541 110.297 109.771 109.742 110.18 109.333C110.59 108.923 111.145 108.693 111.724 108.693C112.303 108.693 112.858 108.923 113.267 109.333C113.677 109.742 113.906 110.297 113.906 110.876V114.128C113.906 114.707 113.677 115.262 113.267 115.672C112.858 116.081 112.303 116.311 111.724 116.311Z" fill="#4462AC"/>
<path d="M111.724 94.7896C111.145 94.7896 110.59 94.5597 110.18 94.1503C109.771 93.741 109.541 93.1858 109.541 92.6069V89.3546C109.541 88.7757 109.771 88.2205 110.18 87.8112C110.59 87.4018 111.145 87.1719 111.724 87.1719C112.303 87.1719 112.858 87.4018 113.267 87.8112C113.677 88.2205 113.906 88.7757 113.906 89.3546V92.6069C113.906 93.1858 113.677 93.741 113.267 94.1503C112.858 94.5597 112.303 94.7896 111.724 94.7896Z" fill="#4462AC"/>
<path d="M100.439 80.2745C99.8597 80.2745 99.3045 80.0445 98.8952 79.6352C98.4859 79.2258 98.2559 78.6706 98.2559 78.0917V63.5402C98.2559 62.9613 98.4859 62.4061 98.8952 61.9967C99.3045 61.5874 99.8597 61.3574 100.439 61.3574C101.018 61.3574 101.573 61.5874 101.982 61.9967C102.391 62.4061 102.621 62.9613 102.621 63.5402V78.0917C102.621 78.6706 102.391 79.2258 101.982 79.6352C101.573 80.0445 101.018 80.2745 100.439 80.2745Z" fill="#4462AC"/>
<path d="M146.335 50.3492C145.756 50.3492 145.201 50.1192 144.792 49.7099C144.382 49.3005 144.152 48.7453 144.152 48.1664V38.9698C144.152 38.3909 144.382 37.8358 144.792 37.4264C145.201 37.0171 145.756 36.7871 146.335 36.7871C146.914 36.7871 147.469 37.0171 147.879 37.4264C148.288 37.8358 148.518 38.3909 148.518 38.9698V48.1664C148.518 48.4531 148.461 48.7369 148.352 49.0017C148.242 49.2666 148.081 49.5072 147.879 49.7099C147.676 49.9126 147.435 50.0733 147.17 50.183C146.906 50.2927 146.622 50.3492 146.335 50.3492Z" fill="#4462AC"/>
<path d="M122.892 89.6383C122.313 89.6383 121.758 89.4083 121.348 88.999C120.939 88.5897 120.709 88.0345 120.709 87.4556V78.048C120.709 77.4691 120.939 76.9139 121.348 76.5045C121.758 76.0952 122.313 75.8652 122.892 75.8652C123.471 75.8652 124.026 76.0952 124.435 76.5045C124.844 76.9139 125.074 77.4691 125.074 78.048V87.4556C125.074 88.0345 124.844 88.5897 124.435 88.999C124.026 89.4083 123.471 89.6383 122.892 89.6383Z" fill="#4462AC"/>
<path d="M122.892 58.1058C122.313 58.1058 121.758 57.8759 121.348 57.4665C120.939 57.0572 120.709 56.502 120.709 55.9231V48.1671C120.709 47.5882 120.939 47.033 121.348 46.6237C121.758 46.2143 122.313 45.9844 122.892 45.9844C123.471 45.9844 124.026 46.2143 124.435 46.6237C124.844 47.033 125.074 47.5882 125.074 48.1671V55.9231C125.074 56.502 124.844 57.0572 124.435 57.4665C124.026 57.8759 123.471 58.1058 122.892 58.1058Z" fill="#4462AC"/>
<path d="M122.892 44.0928C122.313 44.0928 121.758 43.8628 121.348 43.4535C120.939 43.0441 120.709 42.489 120.709 41.9101V38.796C120.709 38.2171 120.939 37.6619 121.348 37.2526C121.758 36.8432 122.313 36.6133 122.892 36.6133C123.471 36.6133 124.026 36.8432 124.435 37.2526C124.844 37.6619 125.074 38.2171 125.074 38.796V41.9101C125.074 42.489 124.844 43.0441 124.435 43.4535C124.026 43.8628 123.471 44.0928 122.892 44.0928Z" fill="#4462AC"/>
<path d="M135.648 36.0674C135.069 36.0674 134.513 35.8374 134.104 35.4281C133.695 35.0188 133.465 34.4636 133.465 33.8847V30.7706C133.465 30.1917 133.695 29.6366 134.104 29.2272C134.513 28.8179 135.069 28.5879 135.648 28.5879C136.226 28.5879 136.782 28.8179 137.191 29.2272C137.6 29.6366 137.83 30.1917 137.83 30.7706V33.8847C137.83 34.4636 137.6 35.0188 137.191 35.4281C136.782 35.8374 136.226 36.0674 135.648 36.0674Z" fill="#4462AC"/>
<path d="M111.048 38.2938C110.469 38.2938 109.914 38.0638 109.505 37.6545C109.095 37.2451 108.865 36.69 108.865 36.1111V34.2921C108.865 33.7132 109.095 33.158 109.505 32.7487C109.914 32.3393 110.469 32.1094 111.048 32.1094C111.627 32.1094 112.182 32.3393 112.591 32.7487C113.001 33.158 113.231 33.7132 113.231 34.2921V36.1111C113.231 36.69 113.001 37.2451 112.591 37.6545C112.182 38.0638 111.627 38.2938 111.048 38.2938Z" fill="#4462AC"/>
<path d="M100.439 56.6512C99.8597 56.6512 99.3045 56.4213 98.8952 56.0119C98.4859 55.6026 98.2559 55.0474 98.2559 54.4685V52.6495C98.2559 52.0706 98.4859 51.5154 98.8952 51.1061C99.3045 50.6968 99.8597 50.4668 100.439 50.4668C101.018 50.4668 101.573 50.6968 101.982 51.1061C102.391 51.5154 102.621 52.0706 102.621 52.6495V54.4685C102.621 55.0474 102.391 55.6026 101.982 56.0119C101.573 56.4213 101.018 56.6512 100.439 56.6512Z" fill="#4462AC"/>
<path d="M111.048 77.2055C110.469 77.2055 109.914 76.9755 109.505 76.5662C109.095 76.1569 108.865 75.6017 108.865 75.0228V55.5382C108.865 54.9593 109.095 54.4041 109.505 53.9948C109.914 53.5854 110.469 53.3555 111.048 53.3555C111.627 53.3555 112.182 53.5854 112.591 53.9948C113.001 54.4041 113.231 54.9593 113.231 55.5382V75.0228C113.231 75.6017 113.001 76.1569 112.591 76.5662C112.182 76.9755 111.627 77.2055 111.048 77.2055Z" fill="#4462AC"/>
<path d="M111.048 51.0631C110.469 51.0631 109.914 50.8331 109.505 50.4237C109.095 50.0144 108.865 49.4592 108.865 48.8803V43.0597C108.865 42.4808 109.095 41.9256 109.505 41.5163C109.914 41.1069 110.469 40.877 111.048 40.877C111.627 40.877 112.182 41.1069 112.591 41.5163C113.001 41.9256 113.231 42.4808 113.231 43.0597V48.8803C113.231 49.4592 113.001 50.0144 112.591 50.4237C112.182 50.8331 111.627 51.0631 111.048 51.0631Z" fill="#4462AC"/>
<path d="M134.235 84.2256C130.869 84.2256 127.579 83.2275 124.78 81.3575C121.982 79.4876 119.8 76.8297 118.512 73.7201C117.224 70.6104 116.887 67.1887 117.544 63.8875C118.2 60.5863 119.821 57.554 122.201 55.1739C124.581 52.7939 127.614 51.1731 130.915 50.5165C134.216 49.8598 137.638 50.1968 140.747 51.4849C143.857 52.7729 146.515 54.9542 148.385 57.7528C150.255 60.5514 151.253 63.8417 151.253 67.2075C151.247 71.7192 149.452 76.0445 146.262 79.2348C143.072 82.425 138.747 84.2198 134.235 84.2256ZM134.235 53.8274C131.589 53.8274 129.002 54.6121 126.801 56.0823C124.601 57.5526 122.886 59.6423 121.873 62.0872C120.861 64.5321 120.596 67.2224 121.112 69.8179C121.628 72.4134 122.902 74.7975 124.774 76.6687C126.645 78.54 129.029 79.8143 131.625 80.3306C134.22 80.8469 136.91 80.5819 139.355 79.5692C141.8 78.5565 143.89 76.8415 145.36 74.6412C146.83 72.4408 147.615 69.8539 147.615 67.2075C147.611 63.6601 146.2 60.259 143.692 57.7506C141.183 55.2421 137.782 53.8312 134.235 53.8274Z" fill="#4462AC"/>
<path d="M127.789 75.4738C127.429 75.4744 127.076 75.3681 126.777 75.1682C126.477 74.9684 126.243 74.6841 126.105 74.3513C125.968 74.0186 125.931 73.6523 126.002 73.2991C126.072 72.9458 126.246 72.6214 126.501 72.367L139.401 59.467C139.743 59.1255 140.206 58.9336 140.689 58.9336C141.172 58.9336 141.635 59.1255 141.977 59.467C142.318 59.8086 142.51 60.2718 142.51 60.7548C142.51 61.2379 142.318 61.7011 141.977 62.0427L129.055 74.9426C128.719 75.2789 128.264 75.4697 127.789 75.4738Z" fill="#4462AC"/>
<path d="M129.564 65.0611C130.958 65.0611 132.088 63.9308 132.088 62.5364C132.088 61.1421 130.958 60.0117 129.564 60.0117C128.169 60.0117 127.039 61.1421 127.039 62.5364C127.039 63.9308 128.169 65.0611 129.564 65.0611Z" fill="white"/>
<path d="M129.565 66.8813C128.701 66.8813 127.857 66.6253 127.139 66.1456C126.421 65.6659 125.862 64.9841 125.532 64.1865C125.201 63.3888 125.115 62.511 125.283 61.6642C125.452 60.8174 125.867 60.0395 126.478 59.429C127.088 58.8185 127.866 58.4027 128.713 58.2343C129.56 58.0658 130.438 58.1523 131.235 58.4827C132.033 58.8131 132.715 59.3726 133.194 60.0905C133.674 60.8084 133.93 61.6525 133.93 62.5159C133.93 63.6737 133.47 64.784 132.652 65.6027C131.833 66.4214 130.722 66.8813 129.565 66.8813ZM129.565 61.8319C129.421 61.8319 129.28 61.8746 129.16 61.9546C129.041 62.0345 128.948 62.1481 128.892 62.2811C128.837 62.414 128.823 62.5603 128.851 62.7015C128.879 62.8426 128.948 62.9722 129.05 63.074C129.152 63.1757 129.282 63.245 129.423 63.2731C129.564 63.3012 129.71 63.2868 129.843 63.2317C129.976 63.1766 130.09 63.0834 130.17 62.9637C130.25 62.8441 130.292 62.7034 130.292 62.5595C130.292 62.3665 130.216 62.1815 130.079 62.045C129.943 61.9086 129.758 61.8319 129.565 61.8319Z" fill="#4462AC"/>
<path d="M138.906 74.4029C140.3 74.4029 141.43 73.2726 141.43 71.8782C141.43 70.4839 140.3 69.3535 138.906 69.3535C137.511 69.3535 136.381 70.4839 136.381 71.8782C136.381 73.2726 137.511 74.4029 138.906 74.4029Z" fill="white"/>
<path d="M138.906 76.2231C138.043 76.2231 137.199 75.9671 136.481 75.4874C135.763 75.0077 135.204 74.3259 134.873 73.5283C134.543 72.7306 134.456 71.8528 134.625 71.006C134.793 70.1592 135.209 69.3813 135.82 68.7708C136.43 68.1603 137.208 67.7445 138.055 67.5761C138.902 67.4076 139.779 67.4941 140.577 67.8245C141.375 68.1549 142.057 68.7144 142.536 69.4323C143.016 70.1502 143.272 70.9942 143.272 71.8577C143.272 73.0154 142.812 74.1258 141.993 74.9445C141.175 75.7632 140.064 76.2231 138.906 76.2231ZM138.906 71.1737C138.763 71.1737 138.622 71.2164 138.502 71.2963C138.383 71.3763 138.289 71.4899 138.234 71.6229C138.179 71.7558 138.165 71.9021 138.193 72.0433C138.221 72.1844 138.29 72.314 138.392 72.4158C138.494 72.5175 138.623 72.5868 138.765 72.6149C138.906 72.643 139.052 72.6286 139.185 72.5735C139.318 72.5184 139.432 72.4252 139.511 72.3055C139.591 72.1859 139.634 72.0452 139.634 71.9013C139.627 71.7134 139.547 71.5358 139.411 71.4055C139.275 71.2753 139.095 71.2027 138.906 71.2028V71.1737Z" fill="#4462AC"/>
<path d="M85.6991 45.9475C85.407 44.6245 84.7046 43.4275 83.692 42.5273C82.6794 41.6271 81.4084 41.0697 80.0603 40.9345C79.1432 38.6842 77.5716 36.761 75.5491 35.414C73.5265 34.067 71.1462 33.3582 68.7162 33.3794C66.2863 33.4005 63.9186 34.1507 61.9198 35.5327C59.9211 36.9147 58.3832 38.865 57.5054 41.1309H57.3526H57.1707C56.9888 41.1309 56.8069 41.0945 56.6178 41.0945C54.773 41.0945 53.0038 41.8274 51.6994 43.1318C50.3949 44.4362 49.6621 46.2054 49.6621 48.0502C49.6621 49.8949 50.3949 51.6642 51.6994 52.9686C53.0038 54.273 54.773 55.0059 56.6178 55.0059H88.5148C90.5739 55.0059 92.6547 53.7471 92.6547 51.528C92.6765 48.9597 89.7662 46.806 85.6991 45.9475Z" fill="#D4E4F5"/>
<path d="M88.5437 56.0608H56.6466C54.5124 56.0608 52.4657 55.213 50.9566 53.7039C49.4474 52.1948 48.5996 50.148 48.5996 48.0138C48.5996 45.8796 49.4474 43.8328 50.9566 42.3237C52.4657 40.8146 54.5124 39.9668 56.6466 39.9668H56.8358C57.8958 37.6753 59.5895 35.7351 61.7168 34.3753C63.8441 33.0155 66.3161 32.293 68.8409 32.293C71.3656 32.293 73.8376 33.0155 75.9649 34.3753C78.0922 35.7351 79.7859 37.6753 80.8459 39.9668C82.1773 40.2151 83.4163 40.8199 84.4311 41.7168C85.4458 42.6137 86.1983 43.7691 86.6083 45.0598C90.9738 46.1585 93.8041 48.6468 93.8041 51.5207C93.8041 54.3946 91.0757 56.0608 88.5437 56.0608ZM56.6539 42.1495C55.0986 42.1495 53.607 42.7673 52.5072 43.8671C51.4075 44.9669 50.7896 46.4585 50.7896 48.0138C50.7896 49.5691 51.4075 51.0607 52.5072 52.1605C53.607 53.2602 55.0986 53.8781 56.6539 53.8781H88.5437C89.9989 53.8781 91.5923 53.0414 91.5923 51.4916C91.5923 49.6145 89.0748 47.7737 85.4733 47.017L84.7821 46.8715L84.6293 46.1803C84.391 45.0804 83.8095 44.0847 82.9687 43.3367C82.1278 42.5887 81.0711 42.1271 79.951 42.0185L79.2962 41.9531L79.0488 41.3492C78.2107 39.3084 76.7806 37.5655 74.943 36.3449C73.1053 35.1243 70.9442 34.482 68.7381 34.5008C66.5321 34.5196 64.3823 35.1986 62.5656 36.4503C60.749 37.702 59.3489 39.4691 58.5456 41.5238L58.2327 42.3168L57.3888 42.2077C57.1427 42.175 56.8948 42.158 56.6466 42.1568L56.6539 42.1495Z" fill="#4462AC"/>
<path d="M64.6713 48.0151H62.4886C62.4791 46.4743 61.8627 44.9993 60.7732 43.9098C59.6837 42.8203 58.2088 42.204 56.668 42.1945V40.0117C58.7871 40.0232 60.8161 40.8701 62.3145 42.3685C63.813 43.867 64.6599 45.896 64.6713 48.0151Z" fill="#4462AC"/>
<path d="M56.639 48.2832H33V50.4659H56.639V48.2832Z" fill="#4462AC"/>
<path d="M47.5087 39.8652H40.7422V42.048H47.5087V39.8652Z" fill="#4462AC"/>
<path d="M38.3194 39.8652H34.0703V42.048H38.3194V39.8652Z" fill="#4462AC"/>
<path d="M97.8629 34.0957H88.4844V36.2784H97.8629V34.0957Z" fill="#4462AC"/>
<path d="M85.6115 34.0957H82.4902V36.2784H85.6115V34.0957Z" fill="#4462AC"/>
</g>
<defs>
<clipPath id="clip0_549_3878">
<rect width="130.884" height="152.391" fill="white" transform="translate(33 28.5879)"/>
</clipPath>
</defs>
</svg>
