<svg width="196" height="196" viewBox="0 0 196 196" fill="none" xmlns="http://www.w3.org/2000/svg">
<path d="M97.8568 195.714C151.902 195.714 195.714 151.902 195.714 97.8568C195.714 43.812 151.902 0 97.8568 0C43.812 0 0 43.812 0 97.8568C0 151.902 43.812 195.714 97.8568 195.714Z" fill="#FFEAA7"/>
<g clip-path="url(#clip0_549_3552)">
<path d="M36.5664 127.604V108.341L93.6283 74.3027L122.809 92.5976V111.865L65.3295 145.691L36.5664 127.604Z" fill="#BED7ED"/>
<path d="M87.7662 133.549C87.4895 133.549 87.2241 133.44 87.0285 133.246C86.8328 133.052 86.7229 132.789 86.7229 132.514V113.754L58.3615 95.9194C58.2444 95.8457 58.143 95.7498 58.0632 95.6372C57.9835 95.5246 57.9268 95.3975 57.8966 95.2631C57.8663 95.1288 57.863 94.9899 57.8868 94.8543C57.9106 94.7187 57.9612 94.5891 58.0355 94.4729C58.1098 94.3567 58.2065 94.2561 58.32 94.177C58.4335 94.0978 58.5616 94.0416 58.697 94.0116C58.8323 93.9816 58.9724 93.9783 59.109 94.0019C59.2457 94.0256 59.3763 94.0757 59.4935 94.1494L88.3452 112.294C88.4963 112.388 88.6207 112.518 88.7065 112.673C88.7924 112.828 88.8368 113.002 88.8355 113.179V132.504C88.837 132.643 88.8102 132.781 88.7568 132.909C88.7034 133.038 88.6244 133.154 88.5246 133.252C88.4248 133.349 88.3062 133.426 88.1759 133.477C88.0456 133.528 87.9063 133.553 87.7662 133.549Z" fill="#5834AD"/>
<path d="M101.739 125.383C101.462 125.383 101.197 125.274 101.001 125.08C100.806 124.886 100.696 124.622 100.696 124.348V105.572L72.1311 87.603C71.8945 87.4541 71.7272 87.218 71.6661 86.9467C71.6049 86.6755 71.6549 86.3912 71.805 86.1565C71.9551 85.9218 72.1931 85.7558 72.4665 85.6952C72.7399 85.6345 73.0264 85.6841 73.263 85.833L102.303 104.097C102.454 104.191 102.578 104.321 102.664 104.476C102.75 104.631 102.794 104.805 102.793 104.982V124.307C102.799 124.447 102.775 124.587 102.725 124.718C102.674 124.849 102.597 124.968 102.499 125.069C102.4 125.17 102.282 125.25 102.152 125.304C102.021 125.358 101.881 125.385 101.739 125.383Z" fill="#5834AD"/>
<path d="M65.3091 127.661L64.7562 127.303C54.506 120.684 45.1061 114.774 36.0192 109.231L34.543 108.331L36.0244 107.44C48.8358 99.7551 61.882 91.9921 74.5004 84.4775L93.0863 73.4074L93.6392 73.0762L94.187 73.4177C104.432 79.7627 114.693 86.2267 123.399 91.7178L124.844 92.6286L123.373 93.4981C116.358 97.6384 109.334 101.779 102.298 105.919L101.187 104.092C107.725 100.259 114.256 96.417 120.78 92.5665C112.575 87.3912 103.097 81.4137 93.6027 75.5293L75.5697 86.2733C63.4417 93.5188 50.9119 100.956 38.5804 108.346C47.0623 113.522 55.8362 119.059 65.3352 125.192C73.1598 120.534 80.7756 116.068 87.2179 112.29L88.2925 114.091C81.699 117.962 73.8744 122.563 65.8621 127.324L65.3091 127.661Z" fill="#5834AD"/>
<path d="M71.9125 120.534L71.3909 120.208C67.6299 117.931 62.883 117.683 59.3046 119.572L58.783 119.861L58.2613 119.53C54.8498 117.357 51.4435 115.214 48.1416 113.154L46.6758 112.243L48.1624 111.369C49.43 110.624 50.129 109.645 50.1394 108.621C50.1394 107.441 49.2735 106.224 47.7399 105.283L46.2637 104.377L47.7555 103.492C51.8626 101.053 55.9731 98.6184 60.087 96.1895L61.1668 97.9905L50.2125 104.491C50.8382 104.993 51.3481 105.622 51.708 106.336C52.068 107.051 52.2695 107.833 52.299 108.631C52.2812 109.307 52.1222 109.972 51.8322 110.584C51.5422 111.196 51.1274 111.742 50.6141 112.186C53.3475 113.894 56.1435 115.654 58.9603 117.439C62.9247 115.602 67.922 115.851 72.0012 118.092C75.9205 115.783 79.8414 113.48 83.7641 111.182L84.8387 112.989C80.7386 115.404 76.642 117.819 72.5489 120.234L71.9125 120.534Z" fill="#5834AD"/>
<path d="M99.6745 104.263L98.579 102.462C102.131 100.391 105.277 98.5334 108.714 96.515L109.064 96.3132C107.671 95.0452 106.915 93.5289 106.946 92.0021C106.971 91.329 107.135 90.668 107.428 90.0601C107.72 89.4522 108.135 88.9101 108.647 88.4674C105.865 86.7147 103.083 84.9654 100.3 83.2196C96.3412 85.0413 91.3231 84.798 87.1761 82.5882L75.82 89.3161L74.7402 87.5151L86.6231 80.5025L87.1448 80.1816L87.6664 80.4973C91.4848 82.7434 96.2577 82.9867 99.8362 81.1132L100.358 80.8286L100.879 81.1546C104.26 83.273 107.635 85.4001 111.004 87.5358L112.455 88.4518L110.978 89.3213C109.716 90.0614 109.012 91.0343 108.991 92.0642C108.991 93.2753 109.862 94.5536 111.448 95.568L112.882 96.484L109.726 98.3368C106.378 100.334 103.232 102.187 99.6745 104.263Z" fill="#5834AD"/>
<path d="M98.365 103.92C98.0927 103.92 97.8312 103.815 97.6363 103.626C97.4414 103.438 97.3285 103.181 97.3217 102.911C97.1913 99.5056 94.3484 95.7535 91.5837 93.8127C87.5045 90.9197 81.3439 89.2946 75.4807 89.5586C75.3437 89.565 75.2068 89.5447 75.0777 89.4986C74.9486 89.4526 74.83 89.3817 74.7285 89.2902C74.5236 89.1053 74.401 88.8472 74.3879 88.5727C74.3748 88.2982 74.4721 88.0297 74.6584 87.8264C74.8448 87.623 75.1049 87.5015 75.3816 87.4884C81.7613 87.1883 88.2921 88.9272 92.8095 92.1463C95.8715 94.3199 99.2413 98.5999 99.4082 102.87C99.4152 103.008 99.3943 103.146 99.3466 103.276C99.299 103.406 99.2256 103.525 99.1308 103.626C99.036 103.727 98.9217 103.809 98.7946 103.865C98.6676 103.922 98.5303 103.953 98.391 103.956L98.365 103.92Z" fill="#5834AD"/>
<path d="M82.5029 113.127C76.5145 113.127 70.5574 111.455 66.3687 108.505C62.2843 105.633 58.6798 100.649 59.8274 96.0015C59.8966 95.7318 60.0709 95.5004 60.312 95.3582C60.5532 95.216 60.8414 95.1747 61.1132 95.2433C61.3851 95.312 61.6183 95.4849 61.7616 95.7242C61.9049 95.9634 61.9466 96.2494 61.8774 96.5191C60.9698 100.188 64.2039 104.432 67.5894 106.813C72.0911 109.98 79.1697 111.574 85.6328 110.881C85.9094 110.85 86.1869 110.931 86.4041 111.103C86.6212 111.276 86.7604 111.527 86.7908 111.802C86.8212 112.076 86.7405 112.352 86.5664 112.567C86.3922 112.783 86.139 112.921 85.8623 112.951C84.7465 113.07 83.6251 113.128 82.5029 113.127Z" fill="#5834AD"/>
<path d="M61.1148 114.665C59.8722 114.675 58.6514 114.341 57.5885 113.703C57.0994 113.442 56.6868 113.059 56.3906 112.593C56.0944 112.127 55.9249 111.593 55.8984 111.043C55.9218 110.578 56.0669 110.127 56.3193 109.735C56.5718 109.343 56.923 109.023 57.3382 108.807C58.997 107.839 61.7095 107.979 63.5248 109.128C64.6254 109.821 65.2462 110.799 65.2305 111.803C65.2076 112.265 65.0637 112.712 64.813 113.102C64.5624 113.491 64.2136 113.809 63.8012 114.024C62.9777 114.467 62.0514 114.688 61.1148 114.665ZM59.9776 110.251C59.4338 110.235 58.895 110.358 58.4127 110.608C58.2928 110.68 58.0111 110.861 58.0111 111.074C58.0111 111.286 58.1936 111.591 58.7257 111.928C59.8733 112.652 61.7512 112.787 62.7319 112.207C62.8467 112.14 63.1179 111.959 63.1231 111.757C63.1283 111.555 62.904 111.203 62.3928 110.882C61.6613 110.456 60.8258 110.238 59.9776 110.251Z" fill="#5834AD"/>
<path d="M99.3922 92.8449C98.1496 92.8543 96.9288 92.521 95.8659 91.8823C95.3768 91.6213 94.9641 91.2391 94.6679 90.773C94.3717 90.3068 94.2022 89.7726 94.1758 89.2222C94.1991 88.7575 94.3442 88.3069 94.5967 87.9148C94.8492 87.5227 95.2003 87.2028 95.6155 86.9865C97.2691 86.0187 99.992 86.1584 101.802 87.3073C102.903 88.0008 103.524 88.979 103.508 89.983C103.485 90.4445 103.341 90.892 103.09 91.2814C102.84 91.6708 102.491 91.9885 102.079 92.2032C101.255 92.6465 100.329 92.8678 99.3922 92.8449ZM98.2758 88.4304C97.732 88.4147 97.1932 88.5377 96.7109 88.7875C96.591 88.8599 96.3093 89.0411 96.3093 89.2533C96.3093 89.4654 96.4919 89.7708 97.0239 90.1072C98.1715 90.8317 100.049 90.9663 101.035 90.3867C101.15 90.3194 101.421 90.1382 101.421 89.9364C101.421 89.7346 101.202 89.3826 100.691 89.0618C99.959 88.6374 99.1235 88.4208 98.2758 88.4355V88.4304Z" fill="#5834AD"/>
<path d="M65.3299 146.737C65.1305 146.738 64.935 146.682 64.7665 146.577L35.9826 128.489C35.8655 128.415 35.7641 128.319 35.6844 128.206C35.6046 128.094 35.5479 127.967 35.5176 127.832C35.4874 127.698 35.4841 127.559 35.5079 127.424C35.5317 127.288 35.5823 127.158 35.6566 127.042C35.7309 126.926 35.8276 126.825 35.9411 126.746C36.0546 126.667 36.1827 126.611 36.3181 126.581C36.4534 126.551 36.5935 126.548 36.7301 126.571C36.8668 126.595 36.9974 126.645 37.1146 126.719L65.3299 144.46L122.251 110.96C122.37 110.889 122.502 110.843 122.639 110.823C122.777 110.804 122.916 110.811 123.051 110.845C123.185 110.879 123.312 110.938 123.423 111.021C123.534 111.103 123.628 111.206 123.698 111.325C123.769 111.443 123.816 111.574 123.836 111.71C123.856 111.846 123.849 111.985 123.814 112.118C123.78 112.252 123.72 112.377 123.637 112.487C123.554 112.598 123.45 112.69 123.331 112.761L65.8672 146.602C65.7036 146.694 65.518 146.741 65.3299 146.737Z" fill="#4462AC"/>
<path d="M65.3299 142.886C65.1305 142.887 64.935 142.832 64.7665 142.726L35.9826 124.638C35.8655 124.564 35.7641 124.469 35.6844 124.356C35.6046 124.243 35.5479 124.116 35.5176 123.982C35.4874 123.848 35.4841 123.709 35.5079 123.573C35.5317 123.437 35.5823 123.308 35.6566 123.192C35.7309 123.075 35.8276 122.975 35.9411 122.896C36.0546 122.817 36.1827 122.76 36.3181 122.73C36.4534 122.7 36.5935 122.697 36.7301 122.721C36.8668 122.744 36.9974 122.794 37.1146 122.868L65.3299 140.609L87.2074 127.733C87.4467 127.589 87.7339 127.545 88.0059 127.611C88.2778 127.677 88.5122 127.847 88.6575 128.085C88.8028 128.322 88.847 128.607 88.7805 128.877C88.714 129.147 88.5421 129.38 88.3028 129.524L65.8724 142.726C65.7099 142.828 65.5222 142.884 65.3299 142.886Z" fill="#4462AC"/>
<path d="M101.74 121.459C101.505 121.465 101.276 121.393 101.088 121.253C100.9 121.114 100.765 120.916 100.705 120.691C100.645 120.466 100.663 120.227 100.756 120.014C100.849 119.8 101.012 119.624 101.218 119.513L122.287 107.093C122.528 106.951 122.816 106.909 123.087 106.978C123.359 107.046 123.592 107.219 123.735 107.457C123.878 107.696 123.92 107.982 123.851 108.251C123.782 108.52 123.608 108.752 123.367 108.894L102.298 121.314C102.129 121.414 101.936 121.464 101.74 121.459Z" fill="#5834AD"/>
<path d="M65.3299 139.031C65.1305 139.032 64.935 138.976 64.7665 138.871L35.9826 120.783C35.8655 120.709 35.7641 120.613 35.6844 120.5C35.6046 120.388 35.5479 120.261 35.5176 120.126C35.4874 119.992 35.4841 119.853 35.5079 119.718C35.5317 119.582 35.5823 119.452 35.6566 119.336C35.7309 119.22 35.8276 119.119 35.9411 119.04C36.0546 118.961 36.1827 118.905 36.3181 118.875C36.4534 118.845 36.5935 118.842 36.7301 118.865C36.8668 118.889 36.9974 118.939 37.1146 119.013L65.3508 136.769L87.2282 123.893C87.3474 123.823 87.4794 123.776 87.6167 123.757C87.7539 123.737 87.8937 123.744 88.0281 123.778C88.1626 123.812 88.2889 123.872 88.4001 123.954C88.5112 124.036 88.6049 124.14 88.6758 124.258C88.7467 124.376 88.7934 124.507 88.8133 124.643C88.8332 124.779 88.8258 124.918 88.7917 125.052C88.7575 125.185 88.6972 125.31 88.6143 125.421C88.5313 125.531 88.4272 125.624 88.308 125.694L65.8776 138.896C65.711 138.99 65.5215 139.037 65.3299 139.031Z" fill="#4462AC"/>
<path d="M101.74 117.62C101.505 117.625 101.276 117.553 101.088 117.413C100.9 117.274 100.765 117.076 100.705 116.851C100.645 116.626 100.663 116.387 100.756 116.174C100.849 115.96 101.012 115.784 101.218 115.674L122.287 103.253C122.528 103.111 122.816 103.069 123.087 103.138C123.359 103.206 123.592 103.379 123.735 103.618C123.878 103.856 123.92 104.142 123.851 104.411C123.782 104.681 123.608 104.912 123.367 105.054L102.298 117.475C102.129 117.574 101.936 117.624 101.74 117.62Z" fill="#5834AD"/>
<path d="M65.3299 135.179C65.1305 135.18 64.935 135.125 64.7665 135.019L35.9826 116.931C35.8655 116.857 35.7641 116.761 35.6844 116.649C35.6046 116.536 35.5479 116.409 35.5176 116.275C35.4874 116.141 35.4841 116.002 35.5079 115.866C35.5317 115.73 35.5823 115.601 35.6566 115.485C35.7309 115.368 35.8276 115.268 35.9411 115.189C36.0546 115.11 36.1827 115.053 36.3181 115.023C36.4534 114.993 36.5935 114.99 36.7301 115.014C36.8668 115.037 36.9974 115.087 37.1146 115.161L65.3299 132.902L87.2074 120.026C87.4481 119.884 87.7358 119.843 88.0073 119.911C88.2788 119.979 88.5117 120.152 88.6549 120.391C88.7981 120.63 88.8398 120.915 88.7708 121.184C88.7018 121.454 88.5279 121.685 88.2872 121.827L65.8568 135.029C65.6978 135.125 65.5159 135.177 65.3299 135.179Z" fill="#4462AC"/>
<path d="M101.74 113.754C101.505 113.76 101.276 113.688 101.088 113.548C100.9 113.409 100.765 113.21 100.705 112.986C100.645 112.761 100.663 112.522 100.756 112.309C100.849 112.095 101.012 111.919 101.218 111.808L122.287 99.3875C122.528 99.2454 122.816 99.2041 123.087 99.2725C123.359 99.3409 123.592 99.5135 123.735 99.7524C123.878 99.9912 123.92 100.277 123.851 100.546C123.782 100.815 123.608 101.046 123.367 101.189L102.298 113.609C102.129 113.709 101.936 113.759 101.74 113.754Z" fill="#5834AD"/>
<path d="M65.3299 131.324C65.1305 131.325 64.935 131.269 64.7665 131.163L35.9826 113.076C35.8655 113.002 35.7641 112.906 35.6844 112.793C35.6046 112.681 35.5479 112.554 35.5176 112.419C35.4874 112.285 35.4841 112.146 35.5079 112.011C35.5317 111.875 35.5823 111.745 35.6566 111.629C35.7309 111.513 35.8276 111.412 35.9411 111.333C36.0546 111.254 36.1827 111.198 36.3181 111.168C36.4534 111.138 36.5935 111.135 36.7301 111.158C36.8668 111.182 36.9974 111.232 37.1146 111.306L65.3299 129.047L87.2074 116.171C87.4481 116.028 87.7358 115.987 88.0073 116.056C88.2788 116.124 88.5117 116.297 88.6549 116.535C88.7981 116.774 88.8398 117.06 88.7708 117.329C88.7018 117.598 88.5279 117.829 88.2872 117.972L65.8568 131.174C65.6978 131.27 65.5159 131.321 65.3299 131.324Z" fill="#4462AC"/>
<path d="M101.74 109.899C101.505 109.905 101.276 109.832 101.088 109.693C100.9 109.553 100.765 109.355 100.705 109.13C100.645 108.905 100.663 108.667 100.756 108.453C100.849 108.239 101.012 108.063 101.218 107.953L122.287 95.532C122.528 95.39 122.816 95.3486 123.087 95.417C123.359 95.4855 123.592 95.6581 123.735 95.8969C123.878 96.1357 123.92 96.4212 123.851 96.6905C123.782 96.9599 123.608 97.191 123.367 97.3331L102.298 109.754C102.129 109.853 101.936 109.904 101.74 109.899Z" fill="#5834AD"/>
<path d="M36.5664 108.34V89.0722L93.6283 55.0391L122.809 73.3339V92.5966L65.3295 126.423L36.5664 108.34Z" fill="#BED7ED"/>
<path d="M87.7662 114.282C87.4895 114.282 87.2241 114.173 87.0285 113.979C86.8328 113.785 86.7229 113.522 86.7229 113.247V94.4919L58.3615 76.6577C58.125 76.5088 57.9577 76.2727 57.8966 76.0014C57.8354 75.7302 57.8854 75.4459 58.0355 75.2112C58.1856 74.9765 58.4235 74.8105 58.6969 74.7499C58.9704 74.6892 59.2569 74.7388 59.4935 74.8877L88.3452 93.0325C88.4963 93.1262 88.6207 93.2567 88.7065 93.4116C88.7924 93.5666 88.8368 93.7407 88.8355 93.9175V113.242C88.8363 113.381 88.809 113.518 88.7552 113.646C88.7015 113.774 88.6224 113.89 88.5227 113.987C88.4229 114.084 88.3046 114.16 88.1746 114.211C88.0447 114.262 87.9058 114.286 87.7662 114.282Z" fill="#4462AC"/>
<path d="M101.739 106.1C101.462 106.1 101.197 105.991 101.001 105.797C100.806 105.603 100.696 105.339 100.696 105.065V86.3095L72.1311 68.3511C71.8945 68.2021 71.7272 67.9661 71.6661 67.6948C71.6049 67.4235 71.6549 67.1393 71.805 66.9045C71.9551 66.6698 72.1931 66.5039 72.4665 66.4432C72.7399 66.3826 73.0264 66.4322 73.263 66.5811L102.303 84.8449C102.454 84.9386 102.578 85.0691 102.664 85.224C102.75 85.379 102.794 85.5531 102.793 85.7299V105.055C102.794 105.192 102.768 105.329 102.716 105.456C102.663 105.584 102.586 105.7 102.487 105.797C102.389 105.894 102.273 105.971 102.144 106.023C102.016 106.075 101.878 106.101 101.739 106.1Z" fill="#4462AC"/>
<path d="M65.3091 108.393L64.7562 108.036C54.4851 101.406 45.0853 95.4909 36.0192 89.9636L34.543 89.0631L36.0244 88.1729C48.8358 80.4875 61.882 72.7245 74.5004 65.2099L93.0863 54.1398L93.6392 53.8086L94.187 54.1502C104.515 60.5469 114.739 66.9902 123.399 72.4502L124.844 73.3611L123.373 74.2305C116.358 78.3708 109.334 82.5111 102.298 86.6514L101.187 84.8296C107.725 80.9964 114.256 77.1546 120.78 73.3041C112.616 68.1288 103.17 62.1927 93.6027 56.2669L75.5697 67.0109C63.4417 74.2564 50.9119 81.6934 38.5804 89.0838C47.0466 94.2591 55.7945 99.7864 65.3352 105.93C73.1598 101.272 80.7756 96.8054 87.2179 93.0274L88.2925 94.8284C81.699 98.6996 73.8744 103.3 65.8621 108.062L65.3091 108.393Z" fill="#4462AC"/>
<path d="M71.9125 101.271L71.3909 100.945C67.6299 98.6674 62.883 98.419 59.3046 100.308L58.783 100.598L58.2613 100.267C54.8342 98.0826 51.4279 95.94 48.1416 93.8906L46.6758 92.9797L48.1624 92.1051C49.43 91.3598 50.129 90.3817 50.1394 89.357C50.1394 88.177 49.2735 86.9608 47.7399 86.0189L46.2637 85.1132L47.7555 84.2282C51.8626 81.7889 55.9731 79.3547 60.087 76.9258L61.1668 78.7268L50.2125 85.227C50.8379 85.7295 51.3477 86.3589 51.7076 87.073C52.0675 87.7872 52.2691 88.5694 52.299 89.3673C52.2815 90.0434 52.1227 90.7085 51.8326 91.3205C51.5426 91.9325 51.1277 92.4781 50.6141 92.9228C53.3371 94.6255 56.133 96.3851 58.9603 98.1758C62.93 96.3385 67.922 96.5869 72.0012 98.8279C75.917 96.5196 79.8379 94.2166 83.7641 91.9188L84.8387 93.725C80.7386 96.1401 76.642 98.5553 72.5489 100.97L71.9125 101.271Z" fill="#4462AC"/>
<path d="M99.6745 85.0142L98.5791 83.1925C101.912 81.2414 104.886 79.4973 108.078 77.6186L109.064 77.039C107.671 75.771 106.915 74.2546 106.946 72.7279C106.971 72.0547 107.135 71.3936 107.427 70.7857C107.72 70.1777 108.135 69.6357 108.647 69.1931C105.865 67.4404 103.083 65.6912 100.3 63.9453C96.3412 65.7671 91.3231 65.5238 87.1761 63.314L75.82 70.0419L74.7402 68.2409L86.6648 61.2076L87.1865 60.8867L87.7081 61.2024C91.5265 63.4485 96.3047 63.6918 99.8779 61.8183L100.4 61.5336L100.921 61.8597C104.301 63.9781 107.676 66.1052 111.046 68.2409L112.491 69.1569L111.062 70.0057C109.799 70.7458 109.095 71.7187 109.074 72.7486C109.074 73.9596 109.946 75.238 111.531 76.2523L112.966 77.1684L109.173 79.3989C105.986 81.2983 103.008 83.0476 99.6745 85.0142Z" fill="#4462AC"/>
<path d="M98.365 84.6529C98.0927 84.653 97.8312 84.5475 97.6363 84.3589C97.4414 84.1704 97.3285 83.9137 97.3217 83.6437C97.1913 80.2383 94.3484 76.4862 91.5837 74.5403C87.5045 71.6472 81.3439 70.0222 75.4807 70.2861C75.204 70.2992 74.9334 70.2026 74.7285 70.0177C74.5236 69.8328 74.401 69.5747 74.3879 69.3002C74.3748 69.0257 74.4721 68.7572 74.6584 68.5539C74.8448 68.3506 75.1049 68.229 75.3816 68.216C81.7613 67.921 88.2921 69.6547 92.8095 72.8738C95.8715 75.0474 99.2413 79.3274 99.4082 83.5971C99.4152 83.7352 99.3943 83.8732 99.3466 84.0031C99.299 84.1331 99.2256 84.2522 99.1308 84.3535C99.036 84.4548 98.9217 84.5362 98.7946 84.593C98.6676 84.6497 98.5303 84.6807 98.391 84.6839L98.365 84.6529Z" fill="#4462AC"/>
<path d="M82.5029 93.8651C76.5145 93.8651 70.5574 92.1934 66.3687 89.2435C62.2843 86.3711 58.6798 81.3873 59.8274 76.7398C59.8966 76.4701 60.0709 76.2387 60.312 76.0965C60.5532 75.9543 60.8414 75.913 61.1132 75.9816C61.3851 76.0503 61.6183 76.2232 61.7616 76.4625C61.9049 76.7017 61.9466 76.9876 61.8774 77.2573C60.9698 80.9267 64.2039 85.1705 67.5893 87.5511C72.0911 90.7184 79.1697 92.3124 85.6327 91.619C85.7697 91.604 85.9084 91.616 86.0407 91.6542C86.1731 91.6924 86.2965 91.7561 86.4041 91.8416C86.5116 91.9271 86.6011 92.0329 86.6675 92.1527C86.7338 92.2726 86.7757 92.4042 86.7908 92.5402C86.8059 92.6761 86.7938 92.8136 86.7553 92.9449C86.7168 93.0762 86.6526 93.1987 86.5664 93.3054C86.4801 93.4121 86.3736 93.5009 86.2528 93.5667C86.132 93.6326 85.9993 93.6741 85.8623 93.6891C84.7465 93.8079 83.6251 93.8666 82.5029 93.8651Z" fill="#4462AC"/>
<path d="M61.1151 95.4016C59.8725 95.411 58.6517 95.0777 57.5888 94.439C56.4986 93.7507 55.8831 92.7777 55.8987 91.7789C55.9221 91.3142 56.0672 90.8635 56.3196 90.4715C56.5721 90.0794 56.9233 89.7594 57.3385 89.5431C58.9973 88.5753 61.715 88.715 63.5251 89.864C64.6257 90.5626 65.2465 91.5356 65.2308 92.5396C65.207 93.0002 65.0627 93.4467 64.812 93.8351C64.5614 94.2235 64.2132 94.5404 63.8015 94.7547C62.9787 95.2002 62.0522 95.4233 61.1151 95.4016ZM59.9779 90.987C59.4341 90.9718 58.8955 91.0948 58.413 91.3441C58.293 91.4166 58.0166 91.5977 58.0114 91.8099C58.0061 92.0221 58.1939 92.3274 58.726 92.6638C59.8736 93.3884 61.7463 93.523 62.7322 92.9433C62.8469 92.876 63.1182 92.6949 63.1234 92.4931C63.1286 92.2912 62.9043 91.9393 62.3931 91.6184C61.6616 91.1923 60.8261 90.9739 59.9779 90.987Z" fill="#4462AC"/>
<path d="M99.3922 73.5818C98.147 73.5833 96.9261 73.2411 95.8659 72.5933C95.3768 72.3322 94.9641 71.9501 94.6679 71.4839C94.3717 71.0178 94.2022 70.4835 94.1758 69.9332C94.1991 69.4685 94.3442 69.0178 94.5967 68.6258C94.8492 68.2337 95.2003 67.9137 95.6155 67.6974C97.2691 66.7296 99.9868 66.8693 101.802 68.0183C102.903 68.7169 103.524 69.6899 103.508 70.6939C103.484 71.1545 103.34 71.601 103.089 71.9894C102.838 72.3778 102.49 72.6947 102.079 72.909C101.258 73.3633 100.332 73.5954 99.3922 73.5818ZM97.0135 70.8492C98.1611 71.5737 100.039 71.7083 101.02 71.1287C101.134 71.0614 101.406 70.8802 101.411 70.6784C101.416 70.4766 101.192 70.1246 100.681 69.8038C99.5382 69.0792 97.6812 68.9498 96.7005 69.5243C96.5805 69.5968 96.3041 69.7831 96.2988 69.9901C96.2936 70.1971 96.4814 70.5076 97.0135 70.8492Z" fill="#4462AC"/>
<path d="M65.3299 127.454C65.1305 127.455 64.935 127.399 64.7665 127.293L35.9826 109.221C35.8655 109.147 35.7641 109.051 35.6844 108.939C35.6046 108.826 35.5479 108.699 35.5176 108.565C35.4874 108.431 35.4841 108.292 35.5079 108.156C35.5317 108.02 35.5823 107.891 35.6566 107.775C35.7309 107.658 35.8276 107.558 35.9411 107.479C36.0546 107.399 36.1827 107.343 36.3181 107.313C36.4534 107.283 36.5935 107.28 36.7301 107.304C36.8668 107.327 36.9974 107.377 37.1146 107.451L65.3299 125.192L122.251 91.6922C122.37 91.6218 122.502 91.5755 122.639 91.5558C122.777 91.536 122.916 91.5433 123.051 91.5772C123.185 91.6111 123.312 91.6709 123.423 91.7532C123.534 91.8355 123.628 91.9388 123.698 92.0571C123.769 92.1753 123.816 92.3063 123.836 92.4424C123.856 92.5786 123.849 92.7173 123.814 92.8507C123.78 92.9841 123.72 93.1094 123.637 93.2197C123.554 93.3299 123.45 93.4229 123.331 93.4932L65.8672 127.324C65.7031 127.415 65.5175 127.459 65.3299 127.454Z" fill="#4462AC"/>
<path d="M65.3299 123.619C65.1305 123.62 64.935 123.564 64.7665 123.458L35.9826 105.371C35.8655 105.297 35.7641 105.201 35.6844 105.088C35.6046 104.976 35.5479 104.849 35.5176 104.714C35.4874 104.58 35.4841 104.441 35.5079 104.305C35.5317 104.17 35.5823 104.04 35.6566 103.924C35.7309 103.808 35.8276 103.707 35.9411 103.628C36.0546 103.549 36.1827 103.493 36.3181 103.463C36.4534 103.433 36.5935 103.429 36.7301 103.453C36.8668 103.477 36.9974 103.527 37.1146 103.601L65.3299 121.342L87.2074 108.465C87.4481 108.323 87.7358 108.282 88.0073 108.35C88.2788 108.419 88.5117 108.591 88.6549 108.83C88.7981 109.069 88.8398 109.355 88.7708 109.624C88.7018 109.893 88.5279 110.124 88.2872 110.266L65.8568 123.469C65.6978 123.564 65.5159 123.616 65.3299 123.619Z" fill="#4462AC"/>
<path d="M101.74 102.192C101.505 102.198 101.276 102.125 101.088 101.986C100.9 101.846 100.765 101.648 100.705 101.423C100.645 101.198 100.663 100.96 100.756 100.746C100.849 100.532 101.012 100.356 101.218 100.246L122.287 87.825C122.528 87.6829 122.816 87.6416 123.087 87.71C123.359 87.7784 123.592 87.951 123.735 88.1899C123.878 88.4287 123.92 88.7142 123.851 88.9835C123.782 89.2528 123.608 89.484 123.367 89.626L102.298 102.047C102.129 102.146 101.936 102.196 101.74 102.192Z" fill="#4462AC"/>
<path d="M65.3299 119.767C65.1305 119.768 64.935 119.712 64.7665 119.606L35.9826 101.513C35.8655 101.439 35.7641 101.344 35.6844 101.231C35.6046 101.118 35.5479 100.991 35.5176 100.857C35.4874 100.723 35.4841 100.584 35.5079 100.448C35.5317 100.312 35.5823 100.183 35.6566 100.067C35.7309 99.9504 35.8276 99.8499 35.9411 99.7707C36.0546 99.6916 36.1827 99.6354 36.3181 99.6053C36.4534 99.5753 36.5935 99.572 36.7301 99.5957C36.8668 99.6193 36.9974 99.6694 37.1146 99.7432L65.3299 117.484L87.2074 104.608C87.4481 104.466 87.7358 104.425 88.0073 104.493C88.2788 104.561 88.5117 104.734 88.6549 104.973C88.7981 105.212 88.8398 105.497 88.7708 105.767C88.7018 106.036 88.5279 106.267 88.2872 106.409L65.8568 119.611C65.6983 119.709 65.5164 119.762 65.3299 119.767Z" fill="#4462AC"/>
<path d="M101.74 98.3422C101.505 98.3481 101.276 98.2755 101.088 98.136C100.9 97.9966 100.765 97.7984 100.705 97.5735C100.645 97.3486 100.663 97.11 100.756 96.8964C100.849 96.6828 101.012 96.5066 101.218 96.3962L122.287 83.9754C122.528 83.8333 122.816 83.792 123.087 83.8604C123.359 83.9288 123.592 84.1014 123.735 84.3403C123.878 84.5791 123.92 84.8646 123.851 85.1339C123.782 85.4032 123.608 85.6344 123.367 85.7764L102.298 98.1972C102.129 98.2966 101.936 98.3469 101.74 98.3422Z" fill="#4462AC"/>
<path d="M65.3299 115.912C65.1305 115.913 64.935 115.857 64.7665 115.751L35.9826 97.6636C35.8655 97.5898 35.7641 97.4939 35.6844 97.3813C35.6046 97.2687 35.5479 97.1416 35.5176 97.0073C35.4874 96.873 35.4841 96.734 35.5079 96.5985C35.5317 96.4629 35.5823 96.3333 35.6566 96.217C35.7309 96.1008 35.8276 96.0003 35.9411 95.9211C36.0546 95.842 36.1827 95.7858 36.3181 95.7557C36.4534 95.7257 36.5935 95.7224 36.7301 95.7461C36.8668 95.7697 36.9974 95.8198 37.1146 95.8936L65.3508 113.635L87.2282 100.758C87.3474 100.688 87.4794 100.642 87.6167 100.622C87.7539 100.602 87.8937 100.61 88.0281 100.643C88.1626 100.677 88.2889 100.737 88.4001 100.819C88.5112 100.902 88.6049 101.005 88.6758 101.123C88.7467 101.242 88.7934 101.372 88.8133 101.509C88.8332 101.645 88.8258 101.784 88.7917 101.917C88.7575 102.05 88.6972 102.176 88.6143 102.286C88.5313 102.396 88.4272 102.489 88.308 102.559L65.8776 115.762C65.7126 115.861 65.523 115.913 65.3299 115.912Z" fill="#4462AC"/>
<path d="M101.74 94.4867C101.505 94.4926 101.276 94.42 101.088 94.2806C100.9 94.1411 100.765 93.9429 100.705 93.718C100.645 93.4931 100.663 93.2546 100.756 93.041C100.849 92.8274 101.012 92.6512 101.218 92.5408L122.287 80.1199C122.528 79.9779 122.816 79.9365 123.087 80.0049C123.359 80.0733 123.592 80.246 123.735 80.4848C123.878 80.7236 123.92 81.0091 123.851 81.2784C123.782 81.5478 123.608 81.7789 123.367 81.9209L102.298 94.3418C102.129 94.4412 101.936 94.4914 101.74 94.4867Z" fill="#4462AC"/>
<path d="M65.3299 112.062C65.1305 112.063 64.935 112.008 64.7665 111.902L35.9826 93.8139C35.8655 93.7402 35.7641 93.6443 35.6844 93.5317C35.6046 93.4191 35.5479 93.292 35.5176 93.1577C35.4874 93.0234 35.4841 92.8844 35.5079 92.7488C35.5317 92.6133 35.5823 92.4836 35.6566 92.3674C35.7309 92.2512 35.8276 92.1507 35.9411 92.0715C36.0546 91.9924 36.1827 91.9362 36.3181 91.9061C36.4534 91.8761 36.5935 91.8728 36.7301 91.8965C36.8668 91.9201 36.9974 91.9702 37.1146 92.044L65.3299 109.785L87.2282 96.9192C87.469 96.7771 87.7567 96.7357 88.0282 96.8041C88.2996 96.8726 88.5326 97.0452 88.6758 97.284C88.819 97.5228 88.8607 97.8083 88.7917 98.0777C88.7227 98.347 88.5487 98.5781 88.308 98.7202L65.8776 111.922C65.7115 112.018 65.522 112.067 65.3299 112.062Z" fill="#4462AC"/>
<path d="M101.74 90.6312C101.505 90.6372 101.276 90.5646 101.088 90.4251C100.9 90.2856 100.765 90.0875 100.705 89.8625C100.645 89.6376 100.663 89.3991 100.756 89.1855C100.849 88.9719 101.012 88.7957 101.218 88.6853L122.287 76.2645C122.528 76.1224 122.816 76.081 123.087 76.1495C123.359 76.2179 123.592 76.3905 123.735 76.6293C123.878 76.8681 123.92 77.1536 123.851 77.423C123.782 77.6923 123.608 77.9234 123.367 78.0655L102.298 90.4863C102.129 90.5857 101.936 90.636 101.74 90.6312Z" fill="#4462AC"/>
<path d="M71.918 141.928V122.66L128.98 88.627L158.16 106.922V126.184L100.681 160.011L71.918 141.928Z" fill="#BED7ED"/>
<path d="M123.096 147.87C122.82 147.87 122.554 147.761 122.359 147.567C122.163 147.373 122.053 147.11 122.053 146.835V128.08L93.6916 110.246C93.455 110.097 93.2878 109.861 93.2266 109.589C93.1655 109.318 93.2155 109.034 93.3656 108.799C93.5157 108.564 93.7536 108.398 94.027 108.338C94.3005 108.277 94.587 108.327 94.8235 108.476L123.675 126.62C123.826 126.714 123.951 126.845 124.037 127C124.122 127.154 124.167 127.329 124.166 127.505V146.83C124.166 146.969 124.139 147.106 124.085 147.234C124.032 147.362 123.953 147.478 123.853 147.575C123.753 147.672 123.635 147.748 123.505 147.799C123.375 147.849 123.236 147.874 123.096 147.87Z" fill="#4462AC"/>
<path d="M137.091 139.688C136.814 139.688 136.549 139.579 136.353 139.385C136.157 139.191 136.047 138.927 136.047 138.653V119.897L107.483 101.939C107.365 101.865 107.264 101.769 107.184 101.657C107.105 101.544 107.048 101.417 107.018 101.283C106.987 101.148 106.984 101.009 107.008 100.874C107.032 100.738 107.082 100.609 107.157 100.492C107.231 100.376 107.328 100.276 107.441 100.196C107.555 100.117 107.683 100.061 107.818 100.031C107.953 100.001 108.093 99.9978 108.23 100.021C108.367 100.045 108.497 100.095 108.615 100.169L137.654 118.433C137.805 118.526 137.93 118.657 138.015 118.812C138.101 118.967 138.146 119.141 138.144 119.318V138.643C138.146 138.78 138.12 138.917 138.067 139.044C138.015 139.172 137.937 139.287 137.839 139.385C137.741 139.482 137.624 139.559 137.496 139.611C137.367 139.663 137.229 139.689 137.091 139.688Z" fill="#4462AC"/>
<path d="M100.665 141.981L100.112 141.624C89.8674 135.01 80.4675 129.099 71.3753 123.551L69.8887 122.656L71.3701 121.766C84.1763 114.086 97.2225 106.318 109.841 98.803L128.432 87.7277L128.985 87.3965L129.533 87.7381C139.809 94.0986 150.054 100.557 158.744 106.038L160.189 106.949L158.718 107.818C151.704 111.959 144.679 116.099 137.644 120.239L136.57 118.438C143.107 114.605 149.638 110.763 156.162 106.913C147.972 101.737 138.5 95.7754 128.985 89.8755L110.947 100.619C98.8187 107.865 86.2941 115.297 73.9627 122.687C82.4497 127.863 91.2236 133.405 100.717 139.528C108.683 134.803 116.575 130.16 122.6 126.626L123.675 128.427C117.509 132.049 109.387 136.821 101.244 141.66L100.665 141.981Z" fill="#4462AC"/>
<path d="M107.264 134.859L106.743 134.533C102.982 132.256 98.2346 132.008 94.6562 133.897L94.1345 134.186L93.6129 133.855C90.2327 131.702 86.8316 129.554 83.4931 127.484L82.0273 126.573L83.514 125.699C84.7816 124.954 85.4806 123.975 85.491 122.951C85.491 121.771 84.6251 120.555 83.0915 119.613L81.6152 118.707L83.1071 117.822C87.2142 115.383 91.3246 112.948 95.4386 110.52L96.5184 112.321L85.564 118.821C86.1895 119.323 86.6993 119.953 87.0592 120.667C87.419 121.381 87.6207 122.163 87.6506 122.961C87.6327 123.637 87.4738 124.302 87.1838 124.914C86.8938 125.526 86.479 126.072 85.9657 126.517C88.7199 128.235 91.5159 130 94.3119 131.77C98.2815 129.932 103.274 130.181 107.353 132.422C111.272 130.113 115.193 127.81 119.116 125.513L120.19 127.319C116.09 129.734 111.994 132.149 107.901 134.564L107.264 134.859Z" fill="#4462AC"/>
<path d="M135.026 118.587L133.951 116.781C137.488 114.711 140.623 112.869 144.04 110.861L144.431 110.628C143.038 109.36 142.282 107.843 142.313 106.317C142.338 105.643 142.502 104.982 142.794 104.374C143.087 103.766 143.502 103.224 144.014 102.782C141.232 101.029 138.45 99.2798 135.668 97.534C131.708 99.3557 126.69 99.1125 122.543 96.9026L111.187 103.631L110.107 101.83L121.99 94.817L122.512 94.4961L123.034 94.8118C126.852 97.0579 131.625 97.3011 135.203 95.4277L135.725 95.143L136.247 95.4691C139.627 97.5875 143.002 99.7146 146.372 101.85L147.822 102.766L146.346 103.636C145.083 104.376 144.379 105.349 144.358 106.379C144.358 107.59 145.229 108.868 146.815 109.882L148.25 110.798L145.047 112.682C141.698 114.675 138.568 116.517 135.026 118.587Z" fill="#4462AC"/>
<path d="M133.716 118.241C133.444 118.242 133.183 118.136 132.988 117.947C132.793 117.759 132.68 117.502 132.673 117.232C132.543 113.827 129.7 110.075 126.935 108.134C122.856 105.241 116.69 103.621 110.832 103.88C110.695 103.886 110.558 103.866 110.429 103.82C110.3 103.774 110.182 103.703 110.08 103.611C109.979 103.52 109.896 103.409 109.838 103.286C109.779 103.163 109.746 103.03 109.739 102.894C109.733 102.758 109.753 102.622 109.8 102.494C109.846 102.366 109.918 102.248 110.01 102.148C110.102 102.047 110.214 101.965 110.338 101.907C110.462 101.849 110.596 101.816 110.733 101.81C117.118 101.515 123.644 103.248 128.161 106.468C131.223 108.641 134.598 112.921 134.76 117.191C134.767 117.329 134.746 117.467 134.698 117.597C134.651 117.727 134.577 117.846 134.482 117.947C134.387 118.049 134.273 118.13 134.146 118.187C134.019 118.243 133.882 118.274 133.743 118.278L133.716 118.241Z" fill="#4462AC"/>
<path d="M117.88 127.453C111.892 127.453 105.934 125.781 101.746 122.831C97.6612 119.959 94.0567 114.975 95.2043 110.328C95.2735 110.058 95.4478 109.827 95.689 109.684C95.9301 109.542 96.2183 109.501 96.4902 109.57C96.762 109.638 96.9953 109.811 97.1386 110.05C97.2819 110.29 97.3235 110.576 97.2544 110.845C96.3467 114.52 99.5809 118.758 102.966 121.139C107.468 124.306 114.547 125.906 121.01 125.207C121.286 125.177 121.564 125.257 121.781 125.429C121.998 125.602 122.137 125.854 122.168 126.128C122.198 126.403 122.117 126.678 121.943 126.893C121.769 127.109 121.516 127.247 121.239 127.277C120.123 127.396 119.002 127.454 117.88 127.453Z" fill="#4462AC"/>
<path d="M96.4918 129.005C95.2492 129.014 94.0284 128.681 92.9655 128.043C92.4764 127.781 92.0637 127.399 91.7675 126.933C91.4714 126.467 91.3018 125.933 91.2754 125.382C91.2987 124.918 91.4438 124.467 91.6963 124.075C91.9487 123.683 92.2999 123.363 92.7151 123.147C94.3739 122.179 97.0916 122.319 98.9017 123.467C100.002 124.166 100.623 125.139 100.607 126.143C100.584 126.603 100.441 127.049 100.191 127.438C99.9413 127.826 99.594 128.143 99.1834 128.358C98.3588 128.804 97.4306 129.027 96.4918 129.005ZM94.0974 126.273C95.245 126.997 97.123 127.126 98.1036 126.552C98.2184 126.485 98.4896 126.304 98.4896 126.102C98.4896 125.9 98.2705 125.548 97.7593 125.227C96.617 124.508 94.7599 124.373 93.7792 124.948C93.6593 125.02 93.3828 125.201 93.3776 125.413C93.3724 125.626 93.5602 125.931 94.0922 126.273H94.0974Z" fill="#4462AC"/>
<path d="M134.744 107.171C133.501 107.18 132.28 106.847 131.217 106.209C130.728 105.947 130.316 105.565 130.019 105.099C129.723 104.633 129.554 104.099 129.527 103.548C129.551 103.084 129.696 102.633 129.948 102.241C130.201 101.849 130.552 101.529 130.967 101.313C132.621 100.345 135.344 100.485 137.154 101.634C138.254 102.332 138.875 103.305 138.859 104.309C138.836 104.77 138.691 105.216 138.441 105.605C138.19 105.993 137.842 106.31 137.43 106.524C136.607 106.97 135.681 107.193 134.744 107.171ZM132.349 104.439C133.497 105.163 135.375 105.298 136.356 104.718C136.47 104.651 136.742 104.47 136.747 104.268C136.752 104.066 136.528 103.714 136.017 103.393C134.874 102.669 133.017 102.539 132.036 103.114C131.916 103.186 131.64 103.372 131.635 103.579C131.63 103.786 131.817 104.097 132.349 104.433V104.439Z" fill="#4462AC"/>
<path d="M100.665 161.061C100.466 161.062 100.27 161.007 100.102 160.901L71.3439 142.813C71.1074 142.664 70.9401 142.428 70.879 142.157C70.8178 141.885 70.8678 141.601 71.0179 141.366C71.168 141.132 71.406 140.966 71.6794 140.905C71.9528 140.844 72.2393 140.894 72.4759 141.043L100.691 158.784L157.612 125.284C157.853 125.142 158.141 125.101 158.412 125.169C158.684 125.237 158.917 125.41 159.06 125.649C159.203 125.888 159.245 126.173 159.176 126.443C159.107 126.712 158.933 126.943 158.692 127.085L101.218 160.911C101.052 161.011 100.86 161.063 100.665 161.061Z" fill="#4462AC"/>
<path d="M100.665 157.207C100.466 157.208 100.27 157.152 100.102 157.046L71.3439 138.958C71.1074 138.81 70.9401 138.573 70.879 138.302C70.8178 138.031 70.8678 137.747 71.0179 137.512C71.168 137.277 71.406 137.111 71.6794 137.051C71.9528 136.99 72.2393 137.04 72.4759 137.189L100.691 154.93L122.574 142.053C122.693 141.983 122.825 141.937 122.962 141.917C123.1 141.897 123.239 141.904 123.374 141.938C123.508 141.972 123.635 142.032 123.746 142.114C123.857 142.197 123.951 142.3 124.021 142.418C124.092 142.536 124.139 142.667 124.159 142.804C124.179 142.94 124.172 143.078 124.137 143.212C124.103 143.345 124.043 143.471 123.96 143.581C123.877 143.691 123.773 143.784 123.654 143.854L101.223 157.057C101.055 157.158 100.862 157.21 100.665 157.207Z" fill="#4462AC"/>
<path d="M137.092 135.78C136.857 135.786 136.627 135.713 136.44 135.574C136.252 135.434 136.117 135.236 136.057 135.011C135.996 134.786 136.014 134.548 136.107 134.334C136.2 134.12 136.363 133.944 136.57 133.834L157.639 121.413C157.879 121.271 158.167 121.229 158.439 121.298C158.71 121.366 158.943 121.539 159.086 121.778C159.23 122.017 159.271 122.302 159.202 122.571C159.133 122.841 158.959 123.072 158.719 123.214L137.65 135.635C137.481 135.734 137.288 135.784 137.092 135.78Z" fill="#4462AC"/>
<path d="M100.665 153.33C100.466 153.331 100.27 153.275 100.102 153.169L71.3439 135.082C71.1074 134.933 70.9401 134.697 70.879 134.425C70.8178 134.154 70.8678 133.87 71.0179 133.635C71.168 133.4 71.406 133.234 71.6794 133.174C71.9528 133.113 72.2393 133.163 72.4759 133.312L100.691 151.053L122.574 138.202C122.693 138.132 122.825 138.086 122.962 138.066C123.1 138.046 123.239 138.053 123.374 138.087C123.508 138.121 123.635 138.181 123.746 138.263C123.857 138.346 123.951 138.449 124.021 138.567C124.092 138.685 124.139 138.816 124.159 138.953C124.179 139.089 124.172 139.227 124.137 139.361C124.103 139.494 124.043 139.619 123.96 139.73C123.877 139.84 123.773 139.933 123.654 140.003L101.223 153.206C101.053 153.298 100.859 153.341 100.665 153.33Z" fill="#4462AC"/>
<path d="M137.092 131.93C136.857 131.936 136.627 131.863 136.44 131.724C136.252 131.584 136.117 131.386 136.057 131.161C135.996 130.936 136.014 130.698 136.107 130.484C136.2 130.271 136.363 130.095 136.57 129.984L157.639 117.563C157.758 117.493 157.89 117.447 158.027 117.427C158.164 117.407 158.304 117.414 158.439 117.448C158.573 117.482 158.7 117.542 158.811 117.624C158.922 117.707 159.015 117.81 159.086 117.928C159.157 118.046 159.204 118.177 159.224 118.314C159.244 118.45 159.236 118.588 159.202 118.722C159.168 118.855 159.108 118.981 159.025 119.091C158.942 119.201 158.838 119.294 158.719 119.364L137.65 131.785C137.481 131.885 137.288 131.935 137.092 131.93Z" fill="#4462AC"/>
<path d="M100.665 149.5C100.466 149.501 100.27 149.445 100.102 149.339L71.3439 131.251C71.2268 131.178 71.1255 131.082 71.0457 130.969C70.9659 130.857 70.9092 130.729 70.879 130.595C70.8487 130.461 70.8454 130.322 70.8692 130.186C70.8931 130.051 70.9436 129.921 71.0179 129.805C71.0922 129.689 71.1889 129.588 71.3024 129.509C71.4159 129.43 71.544 129.374 71.6794 129.344C71.8148 129.314 71.9548 129.31 72.0915 129.334C72.2281 129.358 72.3588 129.408 72.4759 129.481L100.691 147.223L122.574 134.346C122.693 134.276 122.825 134.23 122.962 134.21C123.1 134.19 123.239 134.197 123.374 134.231C123.508 134.265 123.635 134.325 123.746 134.407C123.857 134.49 123.951 134.593 124.021 134.711C124.092 134.829 124.139 134.96 124.159 135.097C124.179 135.233 124.172 135.371 124.137 135.505C124.103 135.638 124.043 135.764 123.96 135.874C123.877 135.984 123.773 136.077 123.654 136.147L101.223 149.35C101.055 149.451 100.862 149.503 100.665 149.5Z" fill="#4462AC"/>
<path d="M137.092 128.075C136.857 128.081 136.627 128.008 136.44 127.868C136.252 127.729 136.117 127.531 136.057 127.306C135.996 127.081 136.014 126.842 136.107 126.629C136.2 126.415 136.363 126.239 136.57 126.129L157.639 113.708C157.879 113.566 158.167 113.524 158.439 113.593C158.71 113.661 158.943 113.834 159.086 114.073C159.23 114.312 159.271 114.597 159.202 114.866C159.133 115.136 158.959 115.367 158.719 115.509L137.65 127.93C137.481 128.029 137.288 128.079 137.092 128.075Z" fill="#4462AC"/>
<path d="M100.666 145.65C100.467 145.651 100.272 145.595 100.103 145.49L71.3557 127.402C71.1191 127.253 70.9518 127.017 70.8907 126.746C70.8296 126.474 70.8795 126.19 71.0296 125.955C71.1797 125.721 71.4177 125.555 71.6911 125.494C71.9645 125.433 72.251 125.483 72.4876 125.632L100.703 143.373L122.575 130.497C122.694 130.426 122.826 130.38 122.964 130.36C123.101 130.341 123.241 130.348 123.375 130.382C123.51 130.416 123.636 130.475 123.747 130.558C123.858 130.64 123.952 130.743 124.023 130.862C124.094 130.98 124.14 131.111 124.16 131.247C124.18 131.383 124.173 131.522 124.139 131.655C124.104 131.789 124.044 131.914 123.961 132.024C123.878 132.134 123.774 132.227 123.655 132.298L101.225 145.5C101.057 145.601 100.863 145.653 100.666 145.65Z" fill="#4462AC"/>
<path d="M137.092 124.219C136.857 124.225 136.627 124.152 136.44 124.013C136.252 123.874 136.117 123.675 136.057 123.45C135.996 123.226 136.014 122.987 136.107 122.773C136.2 122.56 136.363 122.384 136.57 122.273L157.639 109.852C157.879 109.71 158.167 109.669 158.439 109.737C158.71 109.806 158.943 109.978 159.086 110.217C159.23 110.456 159.271 110.742 159.202 111.011C159.133 111.28 158.959 111.511 158.719 111.653L137.65 124.074C137.481 124.174 137.288 124.224 137.092 124.219Z" fill="#4462AC"/>
<path d="M71.9241 142.978C71.6474 142.978 71.3821 142.869 71.1864 142.675C70.9908 142.481 70.8809 142.218 70.8809 141.943V122.66C70.8809 122.386 70.9908 122.122 71.1864 121.928C71.3821 121.734 71.6474 121.625 71.9241 121.625C72.2008 121.625 72.4662 121.734 72.6618 121.928C72.8575 122.122 72.9674 122.386 72.9674 122.66V141.943C72.9674 142.218 72.8575 142.481 72.6618 142.675C72.4662 142.869 72.2008 142.978 71.9241 142.978Z" fill="#4462AC"/>
<path d="M62.8258 36.543C62.7825 36.5484 62.7387 36.5484 62.6954 36.543C62.6278 36.5267 62.5643 36.4972 62.5084 36.4562C62.4525 36.4152 62.4054 36.3636 62.3699 36.3043C62.3345 36.2449 62.3113 36.1792 62.3018 36.1109C62.2923 36.0426 62.2966 35.9731 62.3146 35.9064C62.9146 33.672 64.1315 31.6481 65.8282 30.0626C67.5248 28.4771 69.6339 27.393 71.9179 26.9324C73.5073 26.6158 75.1577 26.8286 76.6127 27.5379C78.2715 24.7277 81.6099 22.5799 85.4179 22.1141C91.6775 21.3637 97.0191 25.1107 99.7525 32.1595C99.7775 32.2237 99.7895 32.2922 99.7878 32.361C99.7861 32.4299 99.7708 32.4977 99.7427 32.5607C99.7146 32.6236 99.6743 32.6805 99.6241 32.7279C99.5738 32.7754 99.5146 32.8127 99.4499 32.8375C99.3852 32.8623 99.3162 32.8742 99.2468 32.8725C99.1774 32.8709 99.109 32.8557 99.0456 32.8278C98.9821 32.7999 98.9248 32.7599 98.8769 32.7101C98.8291 32.6602 98.7916 32.6015 98.7666 32.5373C96.2262 25.9491 91.2759 22.4402 85.5379 23.1337C82.0272 23.5581 78.9705 25.5247 77.489 28.0761C78.0268 28.4868 78.4936 28.9815 78.8713 29.5408C79.6016 30.6172 79.659 31.7092 79.0278 32.4597C78.747 32.7879 78.3681 33.019 77.9461 33.1195C77.5241 33.22 77.0809 33.1846 76.6805 33.0186C75.8198 32.646 75.392 31.7248 75.5433 30.5448C75.6376 29.8184 75.836 29.1091 76.1327 28.4384C74.8768 27.8374 73.4586 27.6559 72.09 27.9209C70.0113 28.3575 68.0941 29.3541 66.549 30.8012C65.0039 32.2483 63.8907 34.09 63.3318 36.1238C63.309 36.2408 63.2462 36.3464 63.154 36.4228C63.0618 36.4991 62.9459 36.5416 62.8258 36.543ZM77.03 29.0388C76.8157 29.5651 76.6702 30.1164 76.597 30.6793C76.5083 31.3935 76.6909 31.8852 77.1186 32.0663C77.3101 32.1405 77.5198 32.1545 77.7195 32.1064C77.9192 32.0582 78.0992 31.9503 78.2349 31.7972C78.5531 31.4142 78.4749 30.8087 78.0159 30.1308C77.7415 29.7235 77.4115 29.3559 77.0352 29.0388H77.03Z" fill="#4462AC"/>
<path d="M65.3392 36.663C65.6936 35.2925 64.8611 33.8965 63.4798 33.5449C62.0985 33.1933 60.6914 34.0192 60.337 35.3897C59.9826 36.7601 60.8151 38.1561 62.1964 38.5078C63.5777 38.8594 64.9848 38.0334 65.3392 36.663Z" fill="#5834AD"/>
<path d="M97.7031 31.5168L99.2107 32.1793L99.8784 30.6836L100.233 31.5996L99.5654 33.0901L98.0578 32.4277L97.7031 31.5168Z" fill="#5834AD"/>
<path d="M29.3216 70.948C29.225 70.9508 29.1288 70.9339 29.0391 70.8983C28.9493 70.8627 28.8679 70.8091 28.8 70.7409L27.1829 69.1366C27.1175 69.0717 27.0656 68.9946 27.0302 68.9098C26.9948 68.825 26.9766 68.7341 26.9766 68.6423C26.9766 68.5505 26.9948 68.4597 27.0302 68.3748C27.0656 68.29 27.1175 68.213 27.1829 68.1481C27.2483 68.0832 27.326 68.0317 27.4115 67.9966C27.4969 67.9614 27.5886 67.9434 27.6811 67.9434C27.7736 67.9434 27.8652 67.9614 27.9507 67.9966C28.0362 68.0317 28.1138 68.0832 28.1792 68.1481L29.7963 69.7524C29.8955 69.8517 29.9624 69.9782 29.9884 70.1155C30.0144 70.2529 29.9983 70.3948 29.9421 70.523C29.8859 70.6512 29.7923 70.7597 29.6733 70.8345C29.5543 70.9094 29.4155 70.9471 29.2747 70.9428L29.3216 70.948Z" fill="#4462AC"/>
<path d="M38.9713 80.517C38.8747 80.5198 38.7785 80.5029 38.6887 80.4673C38.599 80.4317 38.5176 80.3781 38.4496 80.3099L30.5521 72.4745C30.42 72.3434 30.3457 72.1656 30.3457 71.9802C30.3457 71.7948 30.42 71.6171 30.5521 71.486C30.6842 71.3549 30.8634 71.2812 31.0502 71.2812C31.2371 71.2812 31.4163 71.3549 31.5484 71.486L39.4668 79.3215C39.566 79.4207 39.633 79.5472 39.6589 79.6845C39.6849 79.8219 39.6688 79.9638 39.6127 80.092C39.5565 80.2202 39.4629 80.3287 39.3439 80.4035C39.2249 80.4784 39.086 80.5161 38.9452 80.5118L38.9713 80.517Z" fill="#4462AC"/>
<path d="M47.5726 68.5059C47.4556 68.5059 47.3405 68.4771 47.2376 68.422C47.1347 68.3669 47.0473 68.2872 46.9832 68.1902L40.7235 58.6675C40.6671 58.5908 40.6269 58.5036 40.6056 58.411C40.5843 58.3185 40.5822 58.2226 40.5995 58.1292C40.6168 58.0358 40.653 57.9469 40.7061 57.8679C40.7592 57.7889 40.8279 57.7214 40.9081 57.6696C40.9883 57.6179 41.0784 57.5829 41.1727 57.5668C41.267 57.5507 41.3636 57.5538 41.4567 57.576C41.5497 57.5982 41.6372 57.639 41.7139 57.6958C41.7905 57.7527 41.8546 57.8244 41.9024 57.9067L48.162 67.4294C48.2317 67.5348 48.2713 67.6569 48.2766 67.7829C48.282 67.9088 48.2529 68.0338 48.1925 68.1447C48.1321 68.2555 48.0426 68.3481 47.9335 68.4126C47.8243 68.4771 47.6996 68.5111 47.5726 68.511V68.5059Z" fill="#4462AC"/>
<path d="M50.8797 73.629C50.7627 73.629 50.6476 73.6002 50.5447 73.5451C50.4418 73.49 50.3543 73.4103 50.2902 73.3133L48.4071 70.4409C48.3506 70.3643 48.3105 70.277 48.2892 70.1845C48.2679 70.0919 48.2658 69.996 48.2831 69.9026C48.3003 69.8092 48.3366 69.7203 48.3897 69.6413C48.4428 69.5623 48.5115 69.4948 48.5917 69.4431C48.6719 69.3913 48.762 69.3563 48.8563 69.3402C48.9506 69.3241 49.0472 69.3272 49.1403 69.3494C49.2333 69.3716 49.3208 69.4124 49.3975 69.4693C49.4741 69.5261 49.5383 69.5979 49.586 69.6802L51.4691 72.5525C51.5387 72.6579 51.5783 72.78 51.5837 72.906C51.5891 73.0319 51.56 73.1569 51.4996 73.2678C51.4392 73.3786 51.3496 73.4712 51.2405 73.5357C51.1314 73.6002 51.0067 73.6342 50.8797 73.6341V73.629Z" fill="#4462AC"/>
<path d="M35.5335 67.0404C35.2796 67.0505 35.0278 66.9894 34.8073 66.8639C34.5868 66.7385 34.4064 66.5539 34.2868 66.3313C34.2663 66.2902 34.2541 66.2455 34.251 66.1997C34.2479 66.1539 34.2538 66.108 34.2686 66.0645C34.2834 66.021 34.3066 65.9808 34.3371 65.9462C34.3675 65.9117 34.4045 65.8834 34.4459 65.863C34.4874 65.8426 34.5325 65.8305 34.5786 65.8274C34.6248 65.8243 34.6711 65.8302 34.7149 65.8449C34.7588 65.8596 34.7992 65.8826 34.8341 65.9128C34.8689 65.943 34.8975 65.9797 34.918 66.0208C35.0445 66.1778 35.221 66.2873 35.4185 66.3315C35.6161 66.3757 35.8229 66.3518 36.005 66.2639C36.1871 66.176 36.3336 66.0292 36.4205 65.8477C36.5073 65.6662 36.5294 65.4608 36.4829 65.2652C36.3421 64.9806 35.9613 65.0065 35.304 65.0841C34.6468 65.1617 33.7808 65.2704 33.4053 64.52C33.3236 64.3494 33.2812 64.1629 33.2812 63.974C33.2812 63.7851 33.3236 63.5986 33.4053 63.428C33.5707 63.0716 33.8568 62.7841 34.2138 62.6155C34.5502 62.4236 34.949 62.3704 35.3245 62.4671C35.7001 62.5639 36.0223 62.803 36.2221 63.133C36.2427 63.1741 36.2548 63.2188 36.258 63.2646C36.2611 63.3104 36.2551 63.3564 36.2403 63.3999C36.2255 63.4434 36.2023 63.4835 36.1719 63.5181C36.1414 63.5527 36.1045 63.581 36.063 63.6014C36.0216 63.6217 35.9765 63.6338 35.9303 63.6369C35.8842 63.64 35.8379 63.6341 35.794 63.6194C35.7502 63.6048 35.7097 63.5817 35.6748 63.5515C35.64 63.5213 35.6115 63.4846 35.5909 63.4435C35.4761 63.284 35.3048 63.1735 35.1113 63.1341C34.9178 63.0948 34.7164 63.1295 34.5476 63.2313C34.3388 63.3284 34.1708 63.495 34.073 63.7023C34.0326 63.7826 34.0115 63.8712 34.0115 63.961C34.0115 64.0509 34.0326 64.1394 34.073 64.2198C34.2138 64.5045 34.5946 64.4786 35.2518 64.4009C35.9091 64.3233 36.775 64.2146 37.1506 64.9651C37.2959 65.3235 37.2931 65.7244 37.1427 66.0808C36.9924 66.4372 36.7066 66.7206 36.3473 66.8696C36.0941 66.9913 35.8148 67.0499 35.5335 67.0404Z" fill="#4462AC"/>
<path d="M36.4628 67.5385C36.3973 67.5381 36.3332 67.5194 36.2778 67.4847C36.2225 67.4499 36.1781 67.4004 36.1498 67.3418L35.8316 66.7001C35.7901 66.617 35.7835 66.521 35.8134 66.4332C35.8432 66.3453 35.907 66.2729 35.9907 66.2317C36.0744 66.1905 36.1711 66.184 36.2597 66.2136C36.3482 66.2432 36.4213 66.3065 36.4628 66.3895L36.781 67.0313C36.8115 67.0847 36.8271 67.1452 36.8264 67.2065C36.8256 67.2679 36.8084 67.328 36.7766 67.3806C36.7447 67.4332 36.6994 67.4765 36.6452 67.5061C36.591 67.5356 36.5298 67.5504 36.468 67.5488L36.4628 67.5385Z" fill="#4462AC"/>
<path d="M34.3542 63.2784C34.2878 63.279 34.2226 63.2608 34.1662 63.226C34.1099 63.1912 34.0647 63.1411 34.036 63.0817L33.7178 62.4348C33.6904 62.3932 33.6722 62.3463 33.6645 62.2972C33.6567 62.2481 33.6595 62.1979 33.6726 62.15C33.6858 62.102 33.7091 62.0574 33.7409 62.019C33.7727 61.9806 33.8124 61.9493 33.8573 61.9273C33.9022 61.9052 33.9512 61.8928 34.0013 61.8909C34.0514 61.889 34.1013 61.8976 34.1477 61.9162C34.1942 61.9349 34.2361 61.963 34.2708 61.9989C34.3055 62.0347 34.3321 62.0775 34.349 62.1243L34.6671 62.7712C34.707 62.8544 34.7124 62.9498 34.6821 63.0369C34.6519 63.1239 34.5885 63.1958 34.5054 63.237C34.4587 63.2617 34.4071 63.2758 34.3542 63.2784Z" fill="#4462AC"/>
<path d="M40.5422 74.9292C40.4014 74.9335 40.2626 74.8958 40.1436 74.8209C40.0246 74.7461 39.931 74.6376 39.8748 74.5094C39.8186 74.3812 39.8025 74.2393 39.8285 74.1019C39.8545 73.9646 39.9214 73.8381 40.0206 73.7388L40.8031 72.9625C40.9352 72.8315 41.1144 72.7578 41.3012 72.7578C41.4881 72.7578 41.6673 72.8315 41.7994 72.9625C41.9315 73.0936 42.0057 73.2714 42.0057 73.4568C42.0057 73.6422 41.9315 73.8199 41.7994 73.951L41.0169 74.7273C40.8905 74.8523 40.7206 74.9245 40.5422 74.9292Z" fill="#4462AC"/>
<path d="M43.9739 71.5229C43.8331 71.5272 43.6942 71.4895 43.5752 71.4147C43.4562 71.3398 43.3626 71.2313 43.3064 71.1032C43.2503 70.975 43.2341 70.833 43.2601 70.6957C43.2861 70.5583 43.3531 70.4318 43.4523 70.3326L44.2347 69.5563C44.3668 69.4252 44.546 69.3516 44.7329 69.3516C44.9197 69.3516 45.0989 69.4252 45.231 69.5563C45.3631 69.6874 45.4374 69.8652 45.4374 70.0505C45.4374 70.2359 45.3631 70.4137 45.231 70.5448L44.4486 71.3211C44.3221 71.446 44.1523 71.5182 43.9739 71.5229Z" fill="#4462AC"/>
<path d="M41.3249 71.5222C41.2283 71.5251 41.1321 71.5082 41.0424 71.4726C40.9526 71.437 40.8712 71.3834 40.8033 71.3152L40.0208 70.5389C39.8887 70.4078 39.8145 70.23 39.8145 70.0447C39.8145 69.8593 39.8887 69.6815 40.0208 69.5504C40.1529 69.4193 40.3321 69.3457 40.519 69.3457C40.7058 69.3457 40.885 69.4193 41.0171 69.5504L41.7996 70.3267C41.8988 70.426 41.9657 70.5524 41.9917 70.6898C42.0177 70.8272 42.0016 70.9691 41.9454 71.0973C41.8892 71.2255 41.7956 71.334 41.6766 71.4088C41.5576 71.4836 41.4188 71.5213 41.278 71.5171L41.3249 71.5222Z" fill="#4462AC"/>
<path d="M44.7565 74.9285C44.6599 74.9313 44.5637 74.9144 44.474 74.8788C44.3843 74.8432 44.3029 74.7896 44.2349 74.7215L43.4524 73.9452C43.3203 73.8141 43.2461 73.6363 43.2461 73.4509C43.2461 73.2655 43.3203 73.0878 43.4524 72.9567C43.5846 72.8256 43.7638 72.752 43.9506 72.752C44.1375 72.752 44.3166 72.8256 44.4488 72.9567L45.2312 73.733C45.3304 73.8322 45.3973 73.9587 45.4233 74.0961C45.4493 74.2334 45.4332 74.3754 45.377 74.5035C45.3209 74.6317 45.2272 74.7402 45.1082 74.8151C44.9893 74.8899 44.8504 74.9276 44.7096 74.9233L44.7565 74.9285Z" fill="#4462AC"/>
<path d="M49.5911 56.9023H45.8927C45.7544 56.9023 45.6217 56.8477 45.5239 56.7507C45.4261 56.6536 45.3711 56.522 45.3711 56.3847C45.3711 56.2475 45.4261 56.1158 45.5239 56.0188C45.6217 55.9217 45.7544 55.8672 45.8927 55.8672H49.5755C49.7138 55.8672 49.8465 55.9217 49.9443 56.0188C50.0422 56.1158 50.0971 56.2475 50.0971 56.3847C50.0971 56.522 50.0422 56.6536 49.9443 56.7507C49.8465 56.8477 49.7138 56.9023 49.5755 56.9023H49.5911Z" fill="#4462AC"/>
<path d="M47.7502 58.7299C47.6118 58.7299 47.4791 58.6754 47.3813 58.5783C47.2835 58.4813 47.2285 58.3496 47.2285 58.2124V54.5586C47.2285 54.4213 47.2835 54.2897 47.3813 54.1926C47.4791 54.0955 47.6118 54.041 47.7502 54.041C47.8885 54.041 48.0212 54.0955 48.119 54.1926C48.2168 54.2897 48.2718 54.4213 48.2718 54.5586V58.2124C48.2718 58.3496 48.2168 58.4813 48.119 58.5783C48.0212 58.6754 47.8885 58.7299 47.7502 58.7299Z" fill="#4462AC"/>
<path d="M32.9162 83.2391H29.2335C29.0467 83.2391 28.8676 83.1655 28.7355 83.0345C28.6035 82.9035 28.5293 82.7258 28.5293 82.5405C28.5293 82.3552 28.6035 82.1775 28.7355 82.0464C28.8676 81.9154 29.0467 81.8418 29.2335 81.8418H32.9162C33.0087 81.8418 33.1003 81.8599 33.1857 81.895C33.2712 81.9301 33.3488 81.9816 33.4142 82.0464C33.4796 82.1113 33.5315 82.1883 33.5669 82.2731C33.6023 82.3579 33.6204 82.4487 33.6204 82.5405C33.6204 82.6322 33.6023 82.7231 33.5669 82.8078C33.5315 82.8926 33.4796 82.9696 33.4142 83.0345C33.3488 83.0994 33.2712 83.1508 33.1857 83.186C33.1003 83.2211 33.0087 83.2391 32.9162 83.2391Z" fill="#4462AC"/>
<path d="M31.0734 85.0668C30.9809 85.0668 30.8893 85.0487 30.8039 85.0136C30.7184 84.9785 30.6408 84.927 30.5754 84.8621C30.51 84.7973 30.4581 84.7202 30.4228 84.6355C30.3874 84.5507 30.3691 84.4598 30.3691 84.3681V80.7143C30.3691 80.529 30.4433 80.3513 30.5754 80.2203C30.7075 80.0892 30.8866 80.0156 31.0734 80.0156C31.2601 80.0156 31.4393 80.0892 31.5713 80.2203C31.7034 80.3513 31.7776 80.529 31.7776 80.7143V84.3681C31.7776 84.5534 31.7034 84.7311 31.5713 84.8621C31.4393 84.9932 31.2601 85.0668 31.0734 85.0668Z" fill="#4462AC"/>
<path d="M56.2638 64.4644C56.1326 64.4645 56.004 64.4281 55.8925 64.3596C55.7809 64.291 55.6909 64.1929 55.6326 64.0762L53.2905 59.4184C53.2175 59.2544 53.2108 59.0688 53.2719 58.9C53.333 58.7312 53.4572 58.5922 53.6187 58.5118C53.7802 58.4313 53.9668 58.4156 54.1397 58.4678C54.3126 58.52 54.4587 58.6361 54.5476 58.7922L56.8898 63.45C56.9493 63.5574 56.9793 63.6785 56.9767 63.8011C56.9741 63.9236 56.9391 64.0433 56.8752 64.1482C56.8112 64.2531 56.7206 64.3394 56.6124 64.3986C56.5041 64.4577 56.3821 64.4875 56.2586 64.4851L56.2638 64.4644Z" fill="#4462AC"/>
<path d="M125.364 41.3301H112.49V44.3887H125.364V41.3301Z" fill="#4462AC"/>
<path d="M120.472 36.4707H117.389V49.2435H120.472V36.4707Z" fill="#4462AC"/>
<path d="M117.102 29.9863H105.652V32.6051H117.102V29.9863Z" fill="#4462AC"/>
<path d="M112.7 25.6172H110.061V36.9771H112.7V25.6172Z" fill="#4462AC"/>
<path d="M108.83 39.5449H100.525V41.6409H108.83V39.5449Z" fill="#4462AC"/>
<path d="M105.73 36.4707H103.617V44.7099H105.73V36.4707Z" fill="#4462AC"/>
<path d="M112.36 47.8516H106.252V49.5957H112.36V47.8516Z" fill="#4462AC"/>
<path d="M110.18 45.6934H108.422V51.7537H110.18V45.6934Z" fill="#4462AC"/>
<path d="M125.433 27.7031H118.793V29.4472H125.433V27.7031Z" fill="#4462AC"/>
<path d="M122.986 25.2812H121.229V31.8695H122.986V25.2812Z" fill="#4462AC"/>
<path d="M76.1908 41.8429L75.6326 41.7239L75.5127 41.1753C75.2836 40.1278 74.7252 39.1795 73.918 38.4671C73.1109 37.7547 72.0966 37.3148 71.0213 37.211L70.4997 37.1592L70.2963 36.6727C69.5098 34.7502 68.159 33.1065 66.4192 31.955C64.6794 30.8035 62.631 30.1974 60.5397 30.2152C58.4484 30.2331 56.4108 30.8741 54.6913 32.0551C52.9717 33.2361 51.6497 34.9026 50.8966 36.8383L50.6462 37.4749L49.9681 37.3869C49.7313 37.3543 49.4925 37.337 49.2534 37.3352C47.7648 37.3352 46.3372 37.9219 45.2846 38.9662C44.232 40.0105 43.6406 41.427 43.6406 42.9039C43.6406 44.3808 44.232 45.7972 45.2846 46.8415C46.3372 47.8858 47.7648 48.4725 49.2534 48.4725H79.0337C80.4839 48.4725 82.0227 47.6497 82.0227 46.1229C82.0122 44.2909 79.6753 42.5778 76.1908 41.8429Z" fill="#D4E4F5"/>
<path d="M77.0875 40.2531C76.7173 39.0525 76.0195 37.977 75.0712 37.1458C74.1228 36.3145 72.9611 35.76 71.7146 35.5435C70.7375 33.4341 69.1699 31.6477 67.1984 30.3972C65.2269 29.1468 62.9347 28.4848 60.5948 28.4903C58.2549 28.4957 55.9658 29.1683 54.0003 30.428C52.0348 31.6877 50.4756 33.4813 49.5085 35.5953H49.2425C47.287 35.5953 45.4115 36.366 44.0288 37.7379C42.646 39.1098 41.8691 40.9705 41.8691 42.9106C41.8691 44.8508 42.646 46.7115 44.0288 48.0833C45.4115 49.4552 47.287 50.226 49.2425 50.226H79.0227C81.3232 50.226 83.7696 48.7924 83.7696 46.1323C83.7696 43.4721 81.1667 41.2467 77.0875 40.2531ZM79.028 48.4715H49.2425C47.7539 48.4715 46.3262 47.8848 45.2736 46.8405C44.221 45.7962 43.6297 44.3798 43.6297 42.9028C43.6297 41.4259 44.221 40.0095 45.2736 38.9652C46.3262 37.9209 47.7539 37.3342 49.2425 37.3342C50.7279 37.3355 52.1521 37.9216 53.2025 38.9637C54.2528 40.0058 54.8435 41.4188 54.8449 42.8925H56.6028C56.5981 41.318 56.0813 39.787 55.1292 38.5273C54.1772 37.2675 52.8407 36.3463 51.3186 35.9006C52.2223 34.1286 53.6207 32.652 55.347 31.6468C57.0733 30.6417 59.0546 30.1505 61.0546 30.2317C63.0545 30.313 64.9887 30.9634 66.6263 32.1053C68.264 33.2472 69.536 34.8324 70.2906 36.6717L70.494 37.1582L71.0156 37.21C72.0909 37.3138 73.1052 37.7536 73.9123 38.4661C74.7195 39.1785 75.2778 40.1268 75.5069 41.1743L75.6269 41.7229L76.185 41.8419C79.6696 42.5665 82.0065 44.2898 82.0065 46.1271C82.0117 47.6486 80.4729 48.4767 79.0227 48.4767L79.028 48.4715Z" fill="#4462AC"/>
<path d="M49.2319 43.2871H27.1562V45.0312H49.2319V43.2871Z" fill="#4462AC"/>
<path d="M40.7037 35.4922H34.3867V37.2363H40.7037V35.4922Z" fill="#4462AC"/>
<path d="M32.1279 35.4922H28.1582V37.2363H32.1279V35.4922Z" fill="#4462AC"/>
<path d="M150.956 70.6644H148.869V59.4132H153.079C153.389 59.4141 153.693 59.326 153.954 59.1597C154.216 58.9933 154.423 58.7557 154.551 58.4753C154.679 58.1949 154.723 57.8837 154.678 57.5791C154.632 57.2745 154.499 56.9895 154.294 56.7582L150.34 52.2712L151.905 50.8945L155.859 55.3816C156.33 55.9157 156.636 56.5731 156.74 57.2751C156.844 57.9771 156.743 58.694 156.447 59.3403C156.152 59.9865 155.675 60.5347 155.074 60.9193C154.473 61.3039 153.773 61.5087 153.058 61.5092H150.971L150.956 70.6644Z" fill="#4462AC"/>
<path d="M156.428 93.3936H155.02V91.3234H156.428V93.3936ZM156.428 89.2015H155.02V87.1314H156.428V89.2015ZM156.428 85.0095H155.02V82.9394H156.428V85.0095ZM156.428 80.8175H155.02V78.7473H156.428V80.8175ZM156.428 76.6254H155.02V74.5553H156.428V76.6254ZM156.428 72.4334H155.02V70.3633H156.428V72.4334Z" fill="#4462AC"/>
<path d="M129.137 69.6651H127.051V61.5088H124.964C124.249 61.5083 123.549 61.3035 122.948 60.9189C122.347 60.5343 121.87 59.9861 121.575 59.3399C121.279 58.6937 121.178 57.9767 121.282 57.2747C121.386 56.5727 121.692 55.9154 122.163 55.3812L136.247 39.4308C136.596 39.0344 137.027 38.7168 137.51 38.499C137.993 38.2812 138.518 38.1683 139.048 38.168C139.579 38.1683 140.103 38.2812 140.586 38.499C141.07 38.7168 141.5 39.0344 141.85 39.4308L148.579 47.0644L147.014 48.441L140.285 40.8074C140.135 40.6327 139.949 40.4929 139.739 40.398C139.529 40.3032 139.3 40.2557 139.069 40.2588C138.839 40.2574 138.611 40.3058 138.401 40.4005C138.191 40.4952 138.004 40.634 137.854 40.8074L123.77 56.7578C123.565 56.9891 123.431 57.2742 123.386 57.5788C123.34 57.8834 123.384 58.1945 123.513 58.4749C123.641 58.7553 123.848 58.9929 124.109 59.1593C124.371 59.3257 124.675 59.4137 124.985 59.4128H129.195L129.137 69.6651Z" fill="#4462AC"/>
<path d="M138.468 44.9415L131.562 52.6797L132.617 53.606L139.522 45.8678L138.468 44.9415Z" fill="#4462AC"/>
<path d="M138.468 49.3282L131.562 57.0664L132.617 57.9927L139.522 50.2545L138.468 49.3282Z" fill="#4462AC"/>
<path d="M138.468 53.7169L131.562 61.4551L132.617 62.3814L139.522 54.6431L138.468 53.7169Z" fill="#4462AC"/>
<path d="M138.476 58.126L132.762 64.5117L133.815 65.4395L139.529 59.0538L138.476 58.126Z" fill="#4462AC"/>
<path d="M138.455 62.4833L134.758 66.6797L135.818 67.5994L139.516 63.4029L138.455 62.4833Z" fill="#4462AC"/>
<path d="M138.457 66.8739L134.76 71.0703L135.82 71.99L139.518 67.7936L138.457 66.8739Z" fill="#4462AC"/>
<path d="M138.451 71.2605L136.168 73.8516L137.228 74.7712L139.511 72.1802L138.451 71.2605Z" fill="#4462AC"/>
<path d="M165.63 96.5152H163.543V73.2262H166.553C166.623 73.2246 166.691 73.2028 166.749 73.1635C166.807 73.1241 166.851 73.069 166.878 73.0047C166.905 72.9404 166.912 72.8699 166.898 72.8016C166.885 72.7334 166.852 72.6705 166.803 72.6206L158.723 64.6558C158.556 64.4924 158.33 64.4008 158.095 64.4008C157.86 64.4008 157.634 64.4924 157.466 64.6558L149.386 72.6206C149.337 72.6705 149.304 72.7334 149.291 72.8016C149.278 72.8699 149.285 72.9404 149.311 73.0047C149.338 73.069 149.383 73.1241 149.441 73.1635C149.498 73.2028 149.566 73.2246 149.636 73.2262H152.646V88.3485H150.56V75.3377H149.662C149.173 75.3388 148.694 75.1955 148.287 74.9259C147.88 74.6564 147.563 74.2728 147.376 73.8239C147.189 73.3751 147.141 72.8813 147.238 72.4053C147.335 71.9293 147.573 71.4926 147.92 71.1509L155.959 63.186C156.522 62.6338 157.282 62.3242 158.074 62.3242C158.866 62.3242 159.626 62.6338 160.189 63.186L168.269 71.156C168.617 71.4978 168.854 71.9345 168.951 72.4104C169.048 72.8864 169 73.3803 168.813 73.8291C168.626 74.278 168.309 74.6616 167.902 74.9311C167.495 75.2007 167.016 75.344 166.527 75.3429H165.63V96.5152Z" fill="#4462AC"/>
<path d="M157.112 52.6327H146.867C146.443 52.6344 146.028 52.5145 145.672 52.2874C145.315 52.0603 145.032 51.7357 144.858 51.3527C144.683 50.9698 144.623 50.5449 144.687 50.1292C144.75 49.7135 144.933 49.3248 145.214 49.01L150.67 42.7996C150.84 42.6205 151.045 42.4778 151.272 42.3803C151.499 42.2827 151.745 42.2324 151.992 42.2324C152.24 42.2324 152.485 42.2827 152.713 42.3803C152.94 42.4778 153.145 42.6205 153.315 42.7996L158.771 49.01C159.052 49.3248 159.235 49.7135 159.298 50.1292C159.361 50.5449 159.302 50.9698 159.127 51.3527C158.952 51.7357 158.669 52.0603 158.313 52.2874C157.956 52.5145 157.541 52.6344 157.117 52.6327H157.112ZM151.99 44.5126L146.799 50.397C146.79 50.4096 146.784 50.4251 146.784 50.441C146.784 50.4569 146.79 50.4723 146.799 50.485C146.804 50.5013 146.815 50.5155 146.829 50.525C146.843 50.5345 146.861 50.5386 146.878 50.5367H157.123C157.139 50.5371 157.155 50.5326 157.169 50.5239C157.183 50.5151 157.194 50.5025 157.201 50.4876C157.208 50.4726 157.21 50.456 157.207 50.4399C157.204 50.4238 157.197 50.4089 157.185 50.397L151.99 44.5126Z" fill="#4462AC"/>
<path d="M151.551 45.9842L148.645 49.334L149.712 50.2456L152.618 46.8958L151.551 45.9842Z" fill="#4462AC"/>
<path d="M148.572 174H135.166V171.93H148.572C148.793 171.959 149.017 171.94 149.23 171.876C149.443 171.811 149.639 171.703 149.807 171.557C149.974 171.411 150.108 171.232 150.199 171.031C150.291 170.83 150.339 170.611 150.339 170.391C150.339 170.17 150.291 169.952 150.199 169.75C150.108 169.549 149.974 169.37 149.807 169.224C149.639 169.078 149.443 168.97 149.23 168.905C149.017 168.841 148.793 168.823 148.572 168.851H144.399C143.431 168.851 142.502 168.469 141.817 167.79C141.132 167.11 140.748 166.189 140.748 165.228C140.748 164.267 141.132 163.346 141.817 162.667C142.502 161.987 143.431 161.605 144.399 161.605H157.732V163.676H144.42C144.199 163.647 143.975 163.666 143.762 163.73C143.549 163.794 143.353 163.903 143.185 164.049C143.018 164.195 142.884 164.374 142.793 164.575C142.701 164.776 142.653 164.994 142.653 165.215C142.653 165.436 142.701 165.654 142.793 165.855C142.884 166.057 143.018 166.236 143.185 166.382C143.353 166.527 143.549 166.636 143.762 166.7C143.975 166.765 144.199 166.783 144.42 166.755H148.593C149.561 166.755 150.49 167.137 151.175 167.816C151.86 168.495 152.244 169.417 152.244 170.378C152.244 171.339 151.86 172.26 151.175 172.939C150.49 173.619 149.561 174 148.593 174H148.572Z" fill="#4462AC"/>
<path d="M155.078 160.301L157.405 162.609L155.078 164.917H157.055L159.382 162.609L157.055 160.301H155.078Z" fill="#4462AC"/>
<path d="M100.16 166.734H37.0781V168.83H100.16V166.734Z" fill="#4462AC"/>
<path d="M133.529 168.83H128.73V166.76H133.529V168.83ZM125.209 168.83H120.279V166.76H125.183L125.209 168.83ZM116.763 168.83H111.834V166.76H116.763V168.83ZM108.318 168.83H103.389V166.76H108.318V168.83Z" fill="#4462AC"/>
<path d="M83.2954 160.797H44.1152V162.893H83.2954V160.797Z" fill="#4462AC"/>
<path d="M100.666 86.3091L72.696 68.7129L60.8652 75.7617L88.3138 93.0215C88.5126 93.1636 88.6651 93.3604 88.7522 93.5877C88.8394 93.8149 88.8575 94.0625 88.8041 94.2998C88.6476 95.1848 88.8041 111.322 88.8041 111.322L100.666 104.257V86.3091Z" fill="#7393CB"/>
<path d="M136.179 119.903L108.209 102.307L96.373 109.34L123.827 126.626C124.026 126.768 124.178 126.965 124.265 127.192C124.352 127.419 124.37 127.667 124.317 127.904C124.161 128.789 124.317 144.926 124.317 144.926L136.179 137.856V119.903Z" fill="#7393CB"/>
</g>
<defs>
<clipPath id="clip0_549_3552">
<rect width="142" height="152" fill="white" transform="translate(27 22)"/>
</clipPath>
</defs>
</svg>
