<svg width="196" height="196" viewBox="0 0 196 196" fill="none" xmlns="http://www.w3.org/2000/svg">
<path d="M97.8568 195.714C151.902 195.714 195.714 151.902 195.714 97.8568C195.714 43.812 151.902 0 97.8568 0C43.812 0 0 43.812 0 97.8568C0 151.902 43.812 195.714 97.8568 195.714Z" fill="#E9C3CE"/>
<g clip-path="url(#clip0_549_4487)">
<path d="M164.122 56.6802L161.572 57.1872C160.864 55.9286 159.963 54.7888 158.901 53.8093L159.98 51.4455C160.176 51.0173 160.203 50.5309 160.056 50.0835C159.909 49.6361 159.599 49.2605 159.187 49.0317L157.087 47.8606C156.677 47.6323 156.196 47.5665 155.74 47.6763C155.283 47.7861 154.885 48.0635 154.624 48.4533L153.195 50.5957C151.802 50.2082 150.356 50.0419 148.91 50.103L148.003 47.6678C147.84 47.2265 147.516 46.8632 147.096 46.6501C146.677 46.437 146.192 46.3898 145.74 46.518L143.426 47.175C142.979 47.3038 142.595 47.5947 142.351 47.9909C142.107 48.387 142.019 48.86 142.105 49.3174L142.612 51.8669C141.353 52.5753 140.213 53.4765 139.234 54.5378L136.877 53.4594C136.449 53.2635 135.963 53.2363 135.515 53.3833C135.068 53.5302 134.692 53.8405 134.463 54.2521L133.292 56.3517C133.064 56.7618 132.998 57.2428 133.108 57.6992C133.218 58.1556 133.495 58.554 133.885 58.8155L136.027 60.2438C135.64 61.6375 135.474 63.0833 135.535 64.5286L133.099 65.4356C132.658 65.5992 132.295 65.923 132.082 66.3426C131.869 66.7621 131.821 67.2466 131.95 67.6994L132.607 70.0132C132.735 70.4604 133.026 70.8436 133.422 71.0879C133.819 71.3322 134.292 71.4201 134.749 71.3344L137.299 70.8273C138.007 72.0859 138.908 73.2256 139.969 74.2052L138.977 76.6261C138.781 77.0544 138.754 77.5408 138.901 77.9882C139.048 78.4356 139.358 78.8112 139.769 79.0399L141.833 80.1968C142.243 80.4251 142.724 80.4908 143.181 80.381C143.637 80.2712 144.036 79.9939 144.297 79.6041L145.725 77.4617C147.119 77.8513 148.565 78.02 150.01 77.9616L150.917 80.3968C151.081 80.838 151.405 81.2014 151.824 81.4145C152.244 81.6275 152.728 81.6747 153.181 81.5466L155.495 80.8895C155.942 80.7607 156.325 80.4698 156.569 80.0737C156.814 79.6775 156.902 79.2046 156.816 78.7471L156.309 76.2048C157.567 75.4964 158.707 74.5951 159.687 73.5339L162.043 74.6122C162.472 74.8081 162.958 74.8353 163.406 74.6884C163.853 74.5415 164.229 74.2312 164.457 73.8196L165.628 71.72C165.857 71.3098 165.922 70.8289 165.813 70.3725C165.703 69.9161 165.426 69.5177 165.036 69.2562L162.893 67.8279C163.281 66.4342 163.447 64.9883 163.386 63.5431L165.821 62.6361C166.262 62.4725 166.626 62.1486 166.839 61.7291C167.052 61.3095 167.099 60.8251 166.971 60.3723L166.314 58.0585C166.197 57.5904 165.903 57.1856 165.495 56.9288C165.086 56.6719 164.594 56.5829 164.122 56.6802ZM151.446 70.963C150.066 71.3537 148.602 71.3267 147.238 70.8852C145.874 70.4437 144.671 69.6076 143.783 68.4826C142.894 67.3577 142.359 65.9945 142.245 64.5653C142.131 63.1362 142.443 61.7053 143.142 60.4537C143.841 59.2021 144.896 58.1859 146.173 57.5338C147.45 56.8816 148.891 56.6227 150.315 56.7898C151.739 56.9569 153.081 57.5425 154.172 58.4725C155.263 59.4026 156.054 60.6353 156.445 62.0148C156.709 62.9329 156.79 63.8943 156.681 64.8436C156.573 65.7929 156.278 66.7115 155.813 67.5464C155.349 68.3813 154.724 69.1162 153.974 69.7086C153.225 70.3011 152.365 70.7395 151.446 70.9987V70.963Z" fill="#D4E4F5"/>
<path d="M152.682 82.6467C152.082 82.6461 151.496 82.4627 151.002 82.1208C150.508 81.7789 150.13 81.2948 149.918 80.7328L149.276 79.0118C148.245 78.9992 147.218 78.8796 146.212 78.6547L145.191 80.1972C144.778 80.8091 144.151 81.2444 143.433 81.4175C142.716 81.5906 141.96 81.489 141.313 81.1327L139.213 79.9615C138.57 79.5988 138.086 79.0086 137.856 78.3068C137.626 77.605 137.667 76.8425 137.971 76.1695L138.735 74.4984C138.015 73.7622 137.374 72.9533 136.821 72.0846L135.014 72.4488C134.29 72.5904 133.538 72.4556 132.908 72.071C132.277 71.6864 131.814 71.0799 131.608 70.3706L130.951 68.0568C130.75 67.3435 130.824 66.5806 131.158 65.9193C131.493 65.258 132.064 64.7465 132.758 64.4861L134.486 63.8434C134.498 62.8126 134.618 61.7858 134.843 60.7797L133.308 59.7585C132.696 59.3456 132.26 58.7188 132.087 58.0012C131.914 57.2836 132.016 56.5272 132.372 55.8808L133.55 53.774C133.913 53.1307 134.503 52.6465 135.205 52.4165C135.907 52.1865 136.669 52.2275 137.342 52.5314L139.014 53.2956C139.75 52.5756 140.558 51.9342 141.427 51.3817L141.063 49.5749C140.922 48.8501 141.056 48.0986 141.441 47.4682C141.825 46.8378 142.432 46.3741 143.141 46.1684L145.455 45.5114C146.168 45.3102 146.931 45.3843 147.593 45.7189C148.254 46.0535 148.765 46.6243 149.026 47.3182L149.668 49.0464C150.699 49.0588 151.726 49.1785 152.732 49.4035L153.753 47.8752C154.166 47.2634 154.793 46.8281 155.511 46.655C156.228 46.4819 156.985 46.5834 157.631 46.9397L159.731 48.1109C160.374 48.4736 160.858 49.0639 161.088 49.7657C161.318 50.4675 161.277 51.2299 160.973 51.903L160.209 53.5741C160.929 54.3102 161.57 55.1192 162.123 55.9879L163.93 55.6237C164.655 55.4804 165.407 55.6144 166.038 55.9992C166.669 56.3841 167.132 56.9917 167.336 57.7018L167.993 60.0156C168.195 60.7289 168.12 61.4918 167.786 62.1531C167.451 62.8144 166.88 63.3259 166.187 63.5863L164.458 64.2291C164.446 65.2599 164.326 66.2866 164.101 67.2927L165.637 68.3139C166.249 68.7268 166.684 69.3537 166.857 70.0713C167.03 70.7889 166.928 71.5452 166.572 72.1917L165.401 74.277C165.038 74.9203 164.448 75.4046 163.746 75.6345C163.044 75.8645 162.282 75.8235 161.609 75.5196L159.938 74.7555C159.201 75.4751 158.393 76.1164 157.524 76.6694L157.881 78.4762C158.023 79.2009 157.888 79.9524 157.503 80.5828C157.119 81.2132 156.512 81.6769 155.803 81.8826L153.489 82.5396C153.227 82.6131 152.955 82.6491 152.682 82.6467ZM150.747 76.8265L151.925 79.9901C151.996 80.1772 152.134 80.3311 152.312 80.4222C152.49 80.5132 152.696 80.5349 152.889 80.4829L155.203 79.8258C155.395 79.7706 155.56 79.6454 155.664 79.4749C155.769 79.3044 155.805 79.1009 155.767 78.9046L155.103 75.5982L155.782 75.2197C156.942 74.5662 157.992 73.7348 158.895 72.7559L159.424 72.1846L162.487 73.6129C162.67 73.6942 162.876 73.7049 163.066 73.6429C163.256 73.5808 163.416 73.4505 163.516 73.2772L164.687 71.1776C164.783 71.0022 164.81 70.7971 164.762 70.6027C164.715 70.4084 164.596 70.239 164.43 70.1279L161.623 68.2568L161.83 67.5427C162.187 66.2606 162.342 64.9304 162.287 63.6006V62.8222L165.451 61.6439C165.638 61.5728 165.791 61.4345 165.881 61.2561C165.971 61.0777 165.991 60.8721 165.937 60.6798L165.28 58.366C165.223 58.1747 165.097 58.0112 164.927 57.907C164.757 57.8028 164.554 57.7653 164.358 57.8018L161.052 58.4659L160.673 57.7875C160.02 56.6274 159.188 55.5768 158.21 54.6739L157.638 54.1454L159.067 51.0817C159.15 50.8994 159.161 50.6926 159.099 50.5022C159.037 50.3118 158.905 50.1516 158.731 50.0534L156.574 48.7751C156.399 48.6788 156.194 48.6519 155.999 48.6995C155.805 48.747 155.636 48.8657 155.524 49.0321L153.653 51.8387L152.939 51.6316C151.657 51.2746 150.327 51.1204 148.997 51.1746H148.219L147.012 48.0609C146.942 47.8729 146.804 47.7179 146.626 47.6266C146.447 47.5353 146.241 47.5145 146.048 47.5682L143.734 48.2252C143.542 48.2804 143.377 48.4056 143.273 48.5761C143.168 48.7467 143.132 48.9501 143.17 49.1464L143.834 52.4529L143.156 52.8314C141.995 53.4848 140.945 54.3161 140.042 55.2952L139.513 55.8665L136.45 54.4382C136.267 54.3552 136.061 54.3436 135.87 54.4058C135.68 54.4679 135.52 54.5993 135.421 54.7738L134.25 56.8734C134.154 57.0488 134.127 57.254 134.175 57.4483C134.222 57.6426 134.341 57.8121 134.507 57.9232L137.314 59.7942L137.107 60.5084C136.75 61.7905 136.595 63.1206 136.65 64.4504V65.2288L133.486 66.4072C133.299 66.4782 133.146 66.6165 133.056 66.7949C132.966 66.9733 132.946 67.1789 133 67.3712L133.657 69.6851C133.714 69.8764 133.84 70.0398 134.01 70.144C134.18 70.2482 134.383 70.2857 134.579 70.2493L137.885 69.5851L138.264 70.2635C138.917 71.4237 139.749 72.4744 140.727 73.3772L141.299 73.9056L139.87 76.9693C139.788 77.1516 139.776 77.3584 139.838 77.5488C139.9 77.7392 140.032 77.8994 140.206 77.9977L142.306 79.1688C142.481 79.2651 142.686 79.292 142.881 79.2444C143.075 79.1968 143.244 79.0782 143.355 78.9118L145.227 76.1052L145.941 76.3123C147.223 76.6701 148.553 76.8243 149.883 76.7694L150.747 76.8265ZM149.469 72.3417C147.361 72.3401 145.333 71.5392 143.794 70.1005C142.255 68.6618 141.318 66.6925 141.174 64.5904C141.03 62.4882 141.689 60.4098 143.018 58.7746C144.347 57.1395 146.247 56.0695 148.334 55.7807C150.421 55.4919 152.541 56.0058 154.264 57.2187C155.987 58.4316 157.185 60.253 157.617 62.3153C158.05 64.3776 157.683 66.527 156.592 68.3297C155.501 70.1323 153.767 71.4538 151.739 72.0275C151.001 72.2367 150.236 72.3424 149.469 72.3417ZM149.469 57.8446C148.174 57.8424 146.911 58.2471 145.859 59.0014C144.807 59.7557 144.018 60.8215 143.604 62.0484C143.191 63.2752 143.173 64.601 143.554 65.8384C143.935 67.0758 144.694 68.1624 145.726 68.9445C146.758 69.7267 148.009 70.1649 149.303 70.1973C150.598 70.2297 151.869 69.8546 152.939 69.1251C154.009 68.3955 154.822 67.3484 155.264 66.1315C155.706 64.9147 155.755 63.5897 155.403 62.3437C155.036 61.0534 154.259 59.9175 153.19 59.1072C152.121 58.297 150.817 57.8563 149.476 57.8518L149.469 57.8446Z" fill="#4462AC"/>
<path d="M142.298 64.4844H91.5942C90.8953 64.4844 90.225 64.762 89.7308 65.2562C89.2366 65.7504 88.959 66.4207 88.959 67.1196V141.033C88.959 141.732 89.2366 142.402 89.7308 142.896C90.225 143.391 90.8953 143.668 91.5942 143.668H142.298C142.997 143.668 143.667 143.391 144.161 142.896C144.656 142.402 144.933 141.732 144.933 141.033V67.1267C144.934 66.78 144.867 66.4366 144.735 66.1161C144.603 65.7955 144.409 65.5042 144.164 65.2587C143.919 65.0133 143.628 64.8185 143.308 64.6857C142.988 64.5528 142.645 64.4844 142.298 64.4844Z" fill="#7393CB"/>
<path d="M76.5614 71.8984V121.495H49.5098C52.5315 126.19 56.7225 130.017 61.6709 132.601C66.6194 135.185 72.155 136.438 77.7339 136.236C83.3129 136.033 88.7432 134.383 93.4914 131.447C98.2396 128.511 102.142 124.39 104.816 119.489C107.49 114.589 108.842 109.076 108.741 103.495C108.64 97.9131 107.089 92.4537 104.239 87.653C101.39 82.8523 97.3405 78.8755 92.4891 76.1134C87.6377 73.3512 82.1512 71.8986 76.5685 71.8984H76.5614Z" fill="#D4E4F5"/>
<path d="M76.5615 129.922C90.8352 129.922 102.406 118.351 102.406 104.077C102.406 89.8035 90.8352 78.2324 76.5615 78.2324C62.2879 78.2324 50.7168 89.8035 50.7168 104.077C50.7168 118.351 62.2879 129.922 76.5615 129.922Z" fill="#D4E4F5"/>
<path d="M142.298 145.811H91.594C90.3269 145.811 89.1117 145.308 88.2157 144.412C87.3197 143.516 86.8164 142.301 86.8164 141.034V133.756H91.1012V140.998C91.1012 141.129 91.1532 141.254 91.2456 141.346C91.338 141.439 91.4633 141.491 91.594 141.491H142.298C142.429 141.491 142.554 141.439 142.646 141.346C142.739 141.254 142.791 141.129 142.791 140.998V67.1272C142.791 66.9965 142.739 66.8712 142.646 66.7788C142.554 66.6864 142.429 66.6344 142.298 66.6344H91.594C91.4633 66.6344 91.338 66.6864 91.2456 66.7788C91.1532 66.8712 91.1012 66.9965 91.1012 67.1272V74.3686H86.8164V67.1272C86.8164 65.8601 87.3197 64.6449 88.2157 63.7489C89.1117 62.853 90.3269 62.3496 91.594 62.3496H142.298C143.565 62.3496 144.78 62.853 145.676 63.7489C146.572 64.6449 147.076 65.8601 147.076 67.1272V141.034C147.076 142.301 146.572 143.516 145.676 144.412C144.78 145.308 143.565 145.811 142.298 145.811Z" fill="#4462AC"/>
<path d="M76.562 138.405C72.0509 138.419 67.5819 137.537 63.4141 135.811C59.2462 134.085 55.4622 131.549 52.2812 128.35L55.3092 125.322C59.4373 129.452 64.6794 132.29 70.3944 133.488C76.1094 134.685 82.0497 134.192 87.4887 132.068C92.9277 129.943 97.6298 126.28 101.02 121.525C104.41 116.771 106.341 111.132 106.577 105.297C106.813 99.4628 105.344 93.686 102.349 88.6733C99.3542 83.6606 94.9634 79.6293 89.7138 77.0724C84.4642 74.5155 78.5832 73.5437 72.7901 74.276C66.997 75.0083 61.5428 77.4129 57.0945 81.1957L54.3165 77.9321C58.5275 74.349 63.5416 71.836 68.9323 70.6069C74.323 69.3779 79.9309 69.4691 85.2788 70.8728C90.6267 72.2766 95.5564 74.9513 99.6485 78.6695C103.741 82.3877 106.874 87.0392 108.783 92.2286C110.691 97.4179 111.317 102.991 110.609 108.475C109.901 113.958 107.878 119.19 104.714 123.724C101.55 128.258 97.3369 131.96 92.4342 134.516C87.5315 137.073 82.0839 138.407 76.5549 138.405H76.562Z" fill="#4462AC"/>
<path d="M76.5623 132.072C72.8855 132.082 69.2434 131.362 65.8466 129.955C62.4498 128.548 59.3659 126.481 56.7734 123.874L59.8014 120.846C62.5577 123.602 65.951 125.635 69.681 126.767C73.4109 127.898 77.3623 128.092 81.1852 127.332C85.008 126.571 88.5843 124.88 91.5973 122.407C94.6103 119.934 96.967 116.757 98.4586 113.155C99.9503 109.554 100.531 105.641 100.149 101.762C99.7669 97.8832 98.4343 94.1582 96.2689 90.9173C94.1036 87.6763 91.1724 85.0194 87.735 83.1818C84.2975 81.3443 80.46 80.3828 76.5623 80.3825V76.0977C83.9849 76.0977 91.1035 79.0463 96.3522 84.2949C101.601 89.5435 104.549 96.6622 104.549 104.085C104.549 111.507 101.601 118.626 96.3522 123.875C91.1035 129.123 83.9849 132.072 76.5623 132.072Z" fill="#4462AC"/>
<path d="M50.346 130.294L61.7509 118.896L47.918 116.461L50.346 130.294Z" fill="#D4E4F5"/>
<path d="M48.9519 134.727L45.2812 113.824L66.177 117.495L48.9519 134.727ZM50.5587 119.109L51.7514 125.879L57.3288 120.301L50.5587 119.109Z" fill="#4462AC"/>
<path d="M52.1941 84.002H40.8535V88.2868H52.1941V84.002Z" fill="#4462AC"/>
<path d="M47.86 94.1582H27V98.443H47.86V94.1582Z" fill="#4462AC"/>
<path d="M47.439 104.312H32.6777V108.597H47.439V104.312Z" fill="#4462AC"/>
<path d="M87.0654 106.22H74.418V87.9883H78.7028V101.935H87.0654V106.22Z" fill="#4462AC"/>
<path d="M133.857 84.5176H116.146V88.8024H133.857V84.5176Z" fill="#4462AC"/>
<path d="M127.866 91.166H116.146V95.4509H127.866V91.166Z" fill="#4462AC"/>
<path d="M132.272 101.936H116.146V106.22H132.272V101.936Z" fill="#4462AC"/>
<path d="M126.28 108.584H116.146V112.869H126.28V108.584Z" fill="#4462AC"/>
<path d="M133.857 119.354H116.146V123.638H133.857V119.354Z" fill="#4462AC"/>
<path d="M127.866 126.002H116.146V130.287H127.866V126.002Z" fill="#4462AC"/>
<path d="M149.469 116.404C156.276 116.404 161.795 110.886 161.795 104.078C161.795 97.2705 156.276 91.752 149.469 91.752C142.661 91.752 137.143 97.2705 137.143 104.078C137.143 110.886 142.661 116.404 149.469 116.404Z" fill="#FEFFFB"/>
<path d="M149.468 118.552C147.106 118.556 144.779 117.981 142.69 116.877C140.601 115.774 138.814 114.176 137.485 112.223C136.156 110.27 135.326 108.021 135.066 105.673C134.807 103.325 135.126 100.95 135.996 98.7534C136.866 96.5572 138.261 94.6076 140.059 93.0747C141.856 91.5419 144.002 90.4725 146.308 89.9599C148.614 89.4474 151.01 89.5072 153.288 90.1343C155.565 90.7614 157.655 91.9366 159.373 93.5573L156.438 96.6209C154.731 95.0179 152.523 94.0525 150.186 93.8873C147.85 93.7221 145.528 94.3673 143.612 95.7142C141.696 97.061 140.303 99.0273 139.667 101.281C139.031 103.536 139.192 105.94 140.122 108.09C141.052 110.239 142.695 112.002 144.773 113.082C146.851 114.162 149.238 114.493 151.532 114.018C153.825 113.543 155.885 112.293 157.364 110.477C158.843 108.66 159.651 106.39 159.652 104.048H163.937C163.94 107.89 162.418 111.576 159.705 114.296C156.992 117.015 153.31 118.547 149.468 118.552Z" fill="#4462AC"/>
<path d="M149.804 111.704L141.877 103.77L144.905 100.742L149.804 105.641L161.88 93.5723L164.908 96.6002L149.804 111.704Z" fill="#4462AC"/>
<path d="M106.806 61.0431H127.066C127.378 61.0422 127.686 61.1032 127.974 61.2226C128.262 61.3421 128.523 61.5175 128.742 61.7388C128.962 61.9601 129.135 62.2228 129.252 62.5117C129.368 62.8005 129.427 63.1097 129.423 63.4212V66.7063H104.428V63.4212C104.424 63.1079 104.483 62.7969 104.601 62.5067C104.719 62.2164 104.894 61.9527 105.116 61.7311C105.337 61.5095 105.601 61.3345 105.891 61.2164C106.182 61.0982 106.493 61.0393 106.806 61.0431Z" fill="#D4E4F5"/>
<path d="M131.565 68.8562H102.285V63.4001C102.287 62.2094 102.761 61.0679 103.603 60.2259C104.445 59.384 105.586 58.9101 106.777 58.9082H127.037C128.228 58.9101 129.369 59.384 130.211 60.2259C131.053 61.0679 131.527 62.2094 131.529 63.4001L131.565 68.8562ZM106.57 64.5713H127.28V63.4001C127.28 63.3452 127.258 63.2926 127.219 63.2537C127.181 63.2149 127.128 63.193 127.073 63.193H106.841C106.786 63.193 106.734 63.2149 106.695 63.2537C106.656 63.2926 106.634 63.3452 106.634 63.4001L106.57 64.5713Z" fill="#4462AC"/>
<path d="M122.795 61.0428H111.09V59.2217C111.09 58.519 111.369 57.8451 111.866 57.3483C112.363 56.8514 113.037 56.5723 113.739 56.5723H120.167C120.869 56.5723 121.543 56.8514 122.04 57.3483C122.537 57.8451 122.816 58.519 122.816 59.2217L122.795 61.0428Z" fill="white"/>
<path d="M124.937 63.185H108.947V59.2216C108.949 57.9513 109.455 56.7335 110.353 55.8353C111.251 54.937 112.469 54.4316 113.739 54.4297H120.166C121.437 54.4316 122.654 54.937 123.553 55.8353C124.451 56.7335 124.956 57.9513 124.958 59.2216L124.937 63.185ZM113.354 58.9002H120.538C120.49 58.8421 120.43 58.7953 120.362 58.7631C120.294 58.731 120.22 58.7144 120.145 58.7145H113.718C113.646 58.7175 113.576 58.7356 113.512 58.7676C113.448 58.7996 113.392 58.8448 113.346 58.9002H113.354Z" fill="#4462AC"/>
<path d="M86.5309 43.8184C86.0584 43.8184 85.5906 43.7247 85.1545 43.5425C84.7185 43.3604 84.3229 43.0936 83.9908 42.7574C83.6587 42.4213 83.3965 42.0226 83.2196 41.5844C83.0427 41.1463 82.9546 40.6773 82.9602 40.2048L82.2461 28.0645H90.9015L90.1516 40.2048C90.1574 40.6816 90.0676 41.1546 89.8876 41.5961C89.7076 42.0376 89.441 42.4386 89.1036 42.7754C88.7661 43.1122 88.3646 43.378 87.9228 43.5571C87.4809 43.7363 87.0077 43.8251 86.5309 43.8184Z" fill="#D4E4F5"/>
<path d="M86.5514 55.4794C87.0239 55.4851 87.4929 55.3969 87.931 55.22C88.3692 55.0431 88.7679 54.781 89.104 54.4489C89.4402 54.1167 89.707 53.7212 89.8891 53.2852C90.0713 52.8491 90.165 52.3813 90.165 51.9087C90.1706 51.4362 90.0825 50.9673 89.9056 50.5291C89.7287 50.091 89.4666 49.6922 89.1344 49.3561C88.8023 49.02 88.4067 48.7531 87.9707 48.571C87.5347 48.3889 87.0668 48.2951 86.5943 48.2952C86.1218 48.2895 85.6528 48.3777 85.2147 48.5546C84.7765 48.7315 84.3778 48.9936 84.0417 49.3257C83.7055 49.6579 83.4387 50.0534 83.2566 50.4895C83.0745 50.9255 82.9807 51.3933 82.9807 51.8659C82.9751 52.3384 83.0632 52.8073 83.2401 53.2455C83.417 53.6837 83.6792 54.0824 84.0113 54.4185C84.3434 54.7546 84.739 55.0215 85.175 55.2036C85.611 55.3857 86.0789 55.4795 86.5514 55.4794Z" fill="#D4E4F5"/>
<path d="M69.5049 53.3733H56.3576C54.9579 53.3733 53.6155 52.8173 52.6258 51.8276C51.6361 50.8379 51.0801 49.4955 51.0801 48.0958C51.0801 46.6962 51.6361 45.3538 52.6258 44.3641C53.6155 43.3744 54.9579 42.8184 56.3576 42.8184H69.5049C70.9046 42.8184 72.2469 43.3744 73.2366 44.3641C74.2264 45.3538 74.7824 46.6962 74.7824 48.0958C74.7824 49.4955 74.2264 50.8379 73.2366 51.8276C72.2469 52.8173 70.9046 53.3733 69.5049 53.3733Z" fill="#7393CB"/>
<path d="M116.674 48.7319H98.0488V46.5895H116.674C116.928 46.6052 117.182 46.5688 117.422 46.4824C117.661 46.396 117.88 46.2616 118.065 46.0873C118.251 45.913 118.399 45.7026 118.5 45.469C118.601 45.2354 118.653 44.9836 118.653 44.7291C118.653 44.4746 118.601 44.2229 118.5 43.9893C118.399 43.7557 118.251 43.5453 118.065 43.371C117.88 43.1967 117.661 43.0622 117.422 42.9759C117.182 42.8895 116.928 42.8531 116.674 42.8688H111.996C110.964 42.8252 109.988 42.3844 109.273 41.6385C108.558 40.8926 108.159 39.8993 108.159 38.866C108.159 37.8328 108.558 36.8395 109.273 36.0936C109.988 35.3477 110.964 34.9069 111.996 34.8633H128.55V37.0057H111.996C111.523 37.0351 111.078 37.2438 110.753 37.5895C110.428 37.9351 110.247 38.3917 110.247 38.866C110.247 39.3404 110.428 39.7969 110.753 40.1426C111.078 40.4883 111.523 40.697 111.996 40.7264H116.674C117.213 40.7036 117.752 40.7902 118.258 40.9811C118.763 41.172 119.225 41.4631 119.615 41.8371C120.005 42.211 120.316 42.66 120.528 43.157C120.74 43.654 120.849 44.1888 120.849 44.7291C120.849 45.2695 120.74 45.8043 120.528 46.3013C120.316 46.7983 120.005 47.2473 119.615 47.6212C119.225 47.9951 118.763 48.2863 118.258 48.4772C117.752 48.6681 117.213 48.7547 116.674 48.7319Z" fill="#4462AC"/>
<path d="M125.865 33.5625L128.229 35.9263L125.865 38.283H127.872L130.229 35.9263L127.872 33.5625H125.865Z" fill="#4462AC"/>
<path d="M136.249 166.999H121.174V164.857H136.249C136.723 164.827 137.167 164.619 137.492 164.273C137.817 163.927 137.998 163.471 137.998 162.996C137.998 162.522 137.817 162.065 137.492 161.72C137.167 161.374 136.723 161.165 136.249 161.136H131.572C131.032 161.159 130.493 161.072 129.987 160.881C129.482 160.69 129.02 160.399 128.63 160.025C128.24 159.651 127.93 159.202 127.718 158.705C127.506 158.208 127.396 157.674 127.396 157.133C127.396 156.593 127.506 156.058 127.718 155.561C127.93 155.064 128.24 154.615 128.63 154.241C129.02 153.867 129.482 153.576 129.987 153.385C130.493 153.194 131.032 153.108 131.572 153.131H146.569V155.273H131.572C131.318 155.257 131.063 155.294 130.824 155.38C130.584 155.466 130.365 155.601 130.18 155.775C129.994 155.949 129.847 156.16 129.746 156.393C129.645 156.627 129.592 156.879 129.592 157.133C129.592 157.388 129.645 157.64 129.746 157.873C129.847 158.107 129.994 158.317 130.18 158.491C130.365 158.666 130.584 158.8 130.824 158.887C131.063 158.973 131.318 159.009 131.572 158.994H136.249C137.282 159.037 138.257 159.478 138.972 160.224C139.687 160.97 140.087 161.963 140.087 162.996C140.087 164.03 139.687 165.023 138.972 165.769C138.257 166.515 137.282 166.955 136.249 166.999Z" fill="#4462AC"/>
<path d="M143.855 151.832L146.219 154.196L143.855 156.552H145.862L148.226 154.196L145.862 151.832H143.855Z" fill="#4462AC"/>
<path d="M86.544 44.8892C85.9274 44.892 85.3162 44.7729 84.7458 44.5386C84.1753 44.3044 83.6568 43.9596 83.2201 43.5242C82.7833 43.0888 82.437 42.5714 82.201 42.0016C81.9651 41.4319 81.8441 40.8211 81.845 40.2044L81.1309 27H92.0572L91.2359 40.2616C91.2172 41.4878 90.7169 42.6575 89.843 43.518C88.9691 44.3785 87.7919 44.8608 86.5655 44.8606L86.544 44.8892ZM83.3804 29.1781L84.0088 40.1687C83.9982 40.5102 84.0558 40.8504 84.1785 41.1692C84.3011 41.4881 84.4862 41.7792 84.723 42.0255C84.96 42.2567 85.2404 42.4388 85.548 42.5614C85.8556 42.684 86.1844 42.7445 86.5155 42.7396C87.1866 42.7396 87.8304 42.4735 88.3056 41.9996C88.7809 41.5257 89.0488 40.8827 89.0507 40.2116L89.7648 29.1567L83.3804 29.1781Z" fill="#4462AC"/>
<path d="M86.5596 56.5506C85.6351 56.5473 84.7324 56.2702 83.9653 55.7542C83.1982 55.2382 82.6012 54.5065 82.2497 53.6514C81.8982 52.7964 81.808 51.8563 81.9904 50.95C82.1728 50.0437 82.6197 49.2118 83.2746 48.5593C84.1577 47.6881 85.3476 47.1983 86.5882 47.1953C87.8287 47.1953 89.0185 47.6881 89.8957 48.5654C90.773 49.4426 91.2658 50.6323 91.2658 51.8729C91.2658 53.1135 90.773 54.3033 89.8957 55.1805C89.0185 56.0577 87.8287 56.5506 86.5882 56.5506H86.5596ZM86.5596 54.4081C86.891 54.415 87.2203 54.3553 87.5282 54.2327C87.8361 54.11 88.1162 53.9268 88.3521 53.694C88.7057 53.3403 88.9469 52.8899 89.0451 52.3995C89.1434 51.9091 89.0944 51.4006 88.9043 50.9379C88.7142 50.4753 88.3915 50.0792 87.9768 49.7996C87.5622 49.5199 87.074 49.3692 86.5739 49.3663C85.9015 49.3663 85.2567 49.6334 84.7812 50.1088C84.3058 50.5843 84.0387 51.2291 84.0387 51.9015C84.0387 52.5739 84.3058 53.2187 84.7812 53.6941C85.2567 54.1696 85.9015 54.4367 86.5739 54.4367L86.5596 54.4081Z" fill="#4462AC"/>
<path d="M88.9516 158.988H33.0059V161.131H88.9516V158.988Z" fill="#4462AC"/>
<path d="M113.89 161.137H108.891V158.994H113.89V161.137ZM105.321 161.137H100.322V158.994H105.321V161.137ZM96.7509 161.137H91.752V158.994H96.7509V161.137Z" fill="#4462AC"/>
<path d="M69.1549 152.26H32.998V154.402H69.1549V152.26Z" fill="#4462AC"/>
<path d="M69.5058 54.4438H56.3585C55.5073 54.4724 54.6591 54.3294 53.8643 54.0234C53.0696 53.7174 52.3445 53.2546 51.7323 52.6626C51.1201 52.0705 50.6332 51.3614 50.3007 50.5773C49.9682 49.7933 49.7969 48.9503 49.7969 48.0987C49.7969 47.247 49.9682 46.4041 50.3007 45.6201C50.6332 44.836 51.1201 44.1268 51.7323 43.5348C52.3445 42.9428 53.0696 42.48 53.8643 42.174C54.6591 41.868 55.5073 41.725 56.3585 41.7536H69.5058C70.357 41.725 71.2052 41.868 71.9999 42.174C72.7947 42.48 73.5198 42.9428 74.132 43.5348C74.7442 44.1268 75.231 44.836 75.5635 45.6201C75.896 46.4041 76.0674 47.247 76.0674 48.0987C76.0674 48.9503 75.896 49.7933 75.5635 50.5773C75.231 51.3614 74.7442 52.0705 74.132 52.6626C73.5198 53.2546 72.7947 53.7174 71.9999 54.0234C71.2052 54.3294 70.357 54.4724 69.5058 54.4438ZM56.3585 43.896C55.792 43.8726 55.2266 43.964 54.6964 44.1647C54.1661 44.3654 53.6819 44.6712 53.2728 45.0637C52.8637 45.4563 52.5382 45.9275 52.3159 46.4491C52.0935 46.9706 51.9789 47.5317 51.9789 48.0987C51.9789 48.6657 52.0935 49.2268 52.3159 49.7483C52.5382 50.2699 52.8637 50.7411 53.2728 51.1336C53.6819 51.5262 54.1661 51.832 54.6964 52.0327C55.2266 52.2333 55.792 52.3248 56.3585 52.3014H69.5058C70.0723 52.3248 70.6376 52.2333 71.1679 52.0327C71.6982 51.832 72.1824 51.5262 72.5915 51.1336C73.0005 50.7411 73.326 50.2699 73.5484 49.7483C73.7707 49.2268 73.8854 48.6657 73.8854 48.0987C73.8854 47.5317 73.7707 46.9706 73.5484 46.4491C73.326 45.9275 73.0005 45.4563 72.5915 45.0637C72.1824 44.6712 71.6982 44.3654 71.1679 44.1647C70.6376 43.964 70.0723 43.8726 69.5058 43.896H56.3585Z" fill="#4462AC"/>
<path d="M68.598 49.1737H66.8126C66.5285 49.1737 66.256 49.0608 66.0552 48.8599C65.8543 48.659 65.7414 48.3866 65.7414 48.1025C65.7414 47.8184 65.8543 47.5459 66.0552 47.345C66.256 47.1441 66.5285 47.0312 66.8126 47.0312H68.598C68.8821 47.0312 69.1545 47.1441 69.3554 47.345C69.5563 47.5459 69.6692 47.8184 69.6692 48.1025C69.6692 48.3866 69.5563 48.659 69.3554 48.8599C69.1545 49.0608 68.8821 49.1737 68.598 49.1737ZM63.2419 49.1737H61.4566C61.1725 49.1737 60.9 49.0608 60.6991 48.8599C60.4982 48.659 60.3853 48.3866 60.3853 48.1025C60.3853 47.8184 60.4982 47.5459 60.6991 47.345C60.9 47.1441 61.1725 47.0312 61.4566 47.0312H63.2419C63.526 47.0312 63.7985 47.1441 63.9994 47.345C64.2003 47.5459 64.3131 47.8184 64.3131 48.1025C64.3131 48.3866 64.2003 48.659 63.9994 48.8599C63.7985 49.0608 63.526 49.1737 63.2419 49.1737ZM57.8859 49.1737H56.1005C55.8164 49.1737 55.5439 49.0608 55.3431 48.8599C55.1422 48.659 55.0293 48.3866 55.0293 48.1025C55.0293 47.8184 55.1422 47.5459 55.3431 47.345C55.5439 47.1441 55.8164 47.0312 56.1005 47.0312H57.8859C58.17 47.0312 58.4424 47.1441 58.6433 47.345C58.8442 47.5459 58.9571 47.8184 58.9571 48.1025C58.9571 48.3866 58.8442 48.659 58.6433 48.8599C58.4424 49.0608 58.17 49.1737 57.8859 49.1737Z" fill="#4462AC"/>
</g>
<defs>
<clipPath id="clip0_549_4487">
<rect width="141.078" height="140" fill="white" transform="translate(27 27)"/>
</clipPath>
</defs>
</svg>
