<svg width="196" height="196" viewBox="0 0 196 196" fill="none" xmlns="http://www.w3.org/2000/svg">
<path d="M97.8568 195.714C151.902 195.714 195.714 151.902 195.714 97.8568C195.714 43.812 151.902 0 97.8568 0C43.812 0 0 43.812 0 97.8568C0 151.902 43.812 195.714 97.8568 195.714Z" fill="#98E2FF"/>
<path d="M122.345 68.2754H67.5023C65.1786 68.2754 63.2949 70.1591 63.2949 72.4827V153.525C63.2949 155.849 65.1786 157.732 67.5023 157.732H122.345C124.668 157.732 126.552 155.849 126.552 153.525V72.4827C126.552 70.1591 124.668 68.2754 122.345 68.2754Z" fill="#D4E4F5"/>
<path d="M122.336 160.175H67.502C65.7368 160.173 64.0445 159.47 62.7963 158.222C61.5481 156.974 60.8459 155.282 60.8438 153.517V72.4824C60.8459 70.7172 61.5481 69.0249 62.7963 67.7768C64.0445 66.5286 65.7368 65.8264 67.502 65.8242H122.336C124.101 65.8264 125.794 66.5286 127.042 67.7768C128.29 69.0249 128.992 70.7172 128.994 72.4824V153.557C128.981 155.315 128.275 156.997 127.028 158.237C125.781 159.476 124.094 160.173 122.336 160.175ZM67.502 70.7178C67.0361 70.7178 66.5894 70.9029 66.26 71.2323C65.9306 71.5617 65.7455 72.0084 65.7455 72.4743V153.557C65.7455 154.023 65.9306 154.47 66.26 154.799C66.5894 155.129 67.0361 155.314 67.502 155.314H122.336C122.802 155.314 123.249 155.129 123.578 154.799C123.908 154.47 124.093 154.023 124.093 153.557V72.4824C124.09 72.0173 123.905 71.5717 123.576 71.2428C123.247 70.9139 122.801 70.7281 122.336 70.726L67.502 70.7178Z" fill="#4462AC"/>
<path d="M118.114 98.9512H70.8281V103.036H118.114V98.9512Z" fill="#4462AC"/>
<path d="M116.888 105.666H70.8281V109.751H116.888V105.666Z" fill="#4462AC"/>
<path d="M112.044 113.258H70.8281V117.343H112.044V113.258Z" fill="#4462AC"/>
<path d="M99.3971 119.973H70.8281V124.057H99.3971V119.973Z" fill="#4462AC"/>
<path d="M118.104 74.7285H75.4102V78.8133H118.104V74.7285Z" fill="#4462AC"/>
<path d="M76.4328 83.6172H71V87.702H76.4328V83.6172Z" fill="#4462AC"/>
<path d="M35.7724 106.428H24V109.287H35.7724V106.428Z" fill="#4462AC"/>
<path d="M31.3125 101.977H28.4531V113.749H31.3125V101.977Z" fill="#4462AC"/>
<path d="M43.4363 116.469H32.9629V119.328H43.4363V116.469Z" fill="#4462AC"/>
<path d="M39.6269 112.66H36.7676V123.125H39.6269V112.66Z" fill="#4462AC"/>
<path d="M48.7696 108.045H41.1719V110.496H48.7696V108.045Z" fill="#4462AC"/>
<path d="M46.197 105.473H43.7461V113.07H46.197V105.473Z" fill="#4462AC"/>
<path d="M42.1857 101.607H36.5977V103.241H42.1857V101.607Z" fill="#4462AC"/>
<path d="M40.2081 99.6309H38.5742V105.219H40.2081V99.6309Z" fill="#4462AC"/>
<path d="M31.3591 120.881H25.2891V122.515H31.3591V120.881Z" fill="#4462AC"/>
<path d="M29.1378 118.658H27.5039V124.728H29.1378V118.658Z" fill="#4462AC"/>
<path d="M134.984 174.326L126.545 171.499L118.105 174.326V158.918H134.984V174.326Z" fill="#D4E4F5"/>
<path d="M136.21 176.024L126.545 172.756L116.881 176.024V157.691H136.21V176.024ZM126.545 170.199L133.759 172.65V160.142H119.332V172.625L126.545 170.199Z" fill="#4462AC"/>
<path d="M140.089 153.344L143.071 150.297C143.287 150.084 143.459 149.829 143.576 149.549C143.693 149.268 143.754 148.967 143.754 148.663C143.754 148.359 143.693 148.058 143.576 147.778C143.459 147.497 143.287 147.243 143.071 147.029L140.023 144.047C139.806 143.834 139.634 143.58 139.516 143.299C139.399 143.019 139.338 142.718 139.337 142.413L139.296 138.149C139.293 137.848 139.231 137.55 139.112 137.272C138.994 136.995 138.822 136.744 138.607 136.533C138.391 136.322 138.136 136.156 137.857 136.043C137.577 135.931 137.278 135.875 136.976 135.878L132.712 135.919C132.41 135.923 132.11 135.867 131.83 135.755C131.549 135.643 131.294 135.476 131.078 135.265L127.998 132.316C127.784 132.1 127.53 131.928 127.249 131.81C126.969 131.693 126.668 131.633 126.364 131.633C126.06 131.633 125.759 131.693 125.478 131.81C125.198 131.928 124.944 132.1 124.73 132.316L121.748 135.363C121.535 135.58 121.281 135.752 121 135.87C120.72 135.988 120.418 136.049 120.114 136.049L115.85 136.09C115.548 136.093 115.25 136.156 114.973 136.274C114.696 136.393 114.444 136.564 114.234 136.78C114.023 136.995 113.856 137.25 113.744 137.53C113.631 137.81 113.575 138.109 113.578 138.41L113.619 142.675C113.623 142.977 113.567 143.277 113.455 143.557C113.343 143.837 113.177 144.093 112.966 144.309L109.984 147.356C109.768 147.57 109.596 147.824 109.478 148.105C109.361 148.385 109.301 148.686 109.301 148.99C109.301 149.294 109.361 149.595 109.478 149.876C109.596 150.156 109.768 150.41 109.984 150.624L113.031 153.606C113.248 153.819 113.42 154.073 113.538 154.354C113.656 154.634 113.717 154.936 113.717 155.24L113.758 159.504C113.761 159.806 113.824 160.104 113.942 160.381C114.061 160.658 114.232 160.91 114.448 161.12C114.663 161.331 114.918 161.498 115.198 161.61C115.478 161.722 115.777 161.779 116.078 161.775L120.343 161.735C120.645 161.731 120.945 161.786 121.225 161.899C121.505 162.011 121.761 162.177 121.977 162.388L125.024 165.37C125.238 165.586 125.492 165.758 125.773 165.875C126.053 165.993 126.354 166.053 126.658 166.053C126.962 166.053 127.263 165.993 127.543 165.875C127.824 165.758 128.078 165.586 128.292 165.37L131.274 162.323C131.487 162.106 131.741 161.933 132.022 161.816C132.302 161.698 132.604 161.637 132.908 161.637L137.172 161.596C137.474 161.592 137.772 161.53 138.049 161.412C138.326 161.293 138.578 161.121 138.788 160.906C138.999 160.691 139.166 160.436 139.278 160.156C139.39 159.876 139.447 159.577 139.443 159.276L139.403 155.011C139.399 154.701 139.457 154.394 139.575 154.108C139.693 153.821 139.868 153.562 140.089 153.344Z" fill="#D4E4F5"/>
<path d="M126.701 167.25C125.784 167.248 124.905 166.887 124.25 166.245L121.203 163.263C121.001 163.069 120.732 162.96 120.451 162.961L116.187 163.002C115.259 163.002 114.368 162.635 113.708 161.982C113.049 161.329 112.674 160.442 112.666 159.513L112.625 155.249C112.621 154.966 112.507 154.696 112.306 154.497L109.259 151.515C108.593 150.862 108.214 149.971 108.205 149.038C108.196 148.105 108.557 147.207 109.21 146.54L112.192 143.493C112.389 143.29 112.498 143.016 112.494 142.733L112.453 138.469C112.449 138.006 112.536 137.547 112.709 137.119C112.882 136.69 113.138 136.299 113.461 135.969C113.785 135.639 114.171 135.376 114.597 135.195C115.022 135.014 115.479 134.919 115.942 134.915L120.206 134.874C120.346 134.873 120.485 134.844 120.614 134.79C120.743 134.735 120.86 134.655 120.958 134.555L123.883 131.5C124.528 130.838 125.409 130.46 126.333 130.446C126.796 130.437 127.256 130.521 127.686 130.693C128.115 130.866 128.506 131.124 128.833 131.451L131.881 134.433C131.978 134.534 132.097 134.614 132.228 134.666C132.359 134.718 132.499 134.742 132.64 134.735L136.905 134.694C137.833 134.694 138.724 135.061 139.383 135.714C140.043 136.367 140.417 137.254 140.426 138.183L140.467 142.447C140.468 142.587 140.496 142.726 140.551 142.855C140.606 142.984 140.685 143.101 140.785 143.199L143.898 146.205C144.564 146.859 144.943 147.75 144.952 148.683C144.961 149.615 144.6 150.514 143.947 151.18L140.957 154.228C140.76 154.431 140.652 154.704 140.655 154.987L140.696 159.252C140.7 159.714 140.613 160.173 140.44 160.602C140.267 161.031 140.011 161.421 139.687 161.751C139.363 162.081 138.978 162.344 138.552 162.525C138.127 162.706 137.67 162.801 137.207 162.806L132.943 162.847C132.802 162.847 132.664 162.876 132.535 162.931C132.406 162.985 132.289 163.065 132.191 163.165L129.209 166.212C128.881 166.543 128.49 166.805 128.059 166.983C127.629 167.161 127.167 167.252 126.701 167.25ZM120.443 160.502C121.36 160.502 122.24 160.863 122.894 161.507L125.941 164.489C126.142 164.689 126.414 164.801 126.697 164.801C126.98 164.801 127.252 164.689 127.453 164.489L130.435 161.441C131.08 160.78 131.961 160.401 132.885 160.388L137.15 160.347C137.294 160.352 137.437 160.329 137.572 160.277C137.707 160.226 137.83 160.148 137.933 160.048C138.037 159.948 138.12 159.828 138.176 159.696C138.232 159.563 138.261 159.421 138.261 159.276L138.22 155.012C138.214 154.55 138.3 154.09 138.472 153.661C138.645 153.232 138.901 152.842 139.225 152.512L142.207 149.465C142.407 149.264 142.519 148.992 142.519 148.709C142.519 148.426 142.407 148.154 142.207 147.953L139.16 144.963C138.498 144.318 138.119 143.437 138.106 142.512L138.065 138.248C138.063 137.966 137.949 137.695 137.749 137.496C137.548 137.298 137.277 137.186 136.995 137.186L132.73 137.227C131.814 137.221 130.936 136.861 130.279 136.222L127.232 133.24C127.031 133.044 126.761 132.935 126.48 132.938C126.34 132.939 126.202 132.967 126.073 133.022C125.944 133.077 125.827 133.156 125.729 133.256L122.747 136.304C122.101 136.965 121.22 137.344 120.296 137.357L116.032 137.398C115.891 137.399 115.752 137.428 115.623 137.483C115.493 137.538 115.376 137.617 115.277 137.718C115.179 137.818 115.101 137.936 115.048 138.067C114.995 138.197 114.968 138.336 114.97 138.477L115.01 142.741C115.017 143.204 114.931 143.663 114.758 144.092C114.586 144.521 114.33 144.912 114.006 145.241L111.024 148.288C110.824 148.489 110.711 148.761 110.711 149.044C110.711 149.327 110.824 149.599 111.024 149.8L114.071 152.782C114.732 153.427 115.111 154.308 115.125 155.233L115.166 159.497C115.168 159.779 115.281 160.05 115.482 160.249C115.682 160.447 115.953 160.559 116.236 160.559L120.5 160.518L120.443 160.502Z" fill="#4462AC"/>
<path d="M126.544 158.876C132.08 158.876 136.568 154.388 136.568 148.852C136.568 143.316 132.08 138.828 126.544 138.828C121.007 138.828 116.52 143.316 116.52 148.852C116.52 154.388 121.007 158.876 126.544 158.876Z" fill="#7393CB"/>
<path d="M126.545 160.093C124.319 160.094 122.144 159.436 120.293 158.201C118.442 156.966 116.998 155.209 116.146 153.154C115.293 151.098 115.069 148.836 115.502 146.654C115.935 144.471 117.006 142.466 118.579 140.892C120.152 139.317 122.157 138.245 124.339 137.811C126.521 137.376 128.784 137.598 130.84 138.449C132.896 139.3 134.653 140.742 135.89 142.592C137.126 144.443 137.786 146.618 137.786 148.843C137.784 151.825 136.599 154.684 134.492 156.793C132.384 158.902 129.526 160.088 126.545 160.093ZM126.545 140.053C124.804 140.051 123.102 140.566 121.653 141.532C120.205 142.498 119.076 143.872 118.409 145.481C117.742 147.089 117.567 148.858 117.907 150.566C118.246 152.274 119.084 153.842 120.315 155.073C121.546 156.304 123.115 157.142 124.822 157.481C126.53 157.821 128.299 157.646 129.908 156.979C131.516 156.312 132.89 155.183 133.856 153.735C134.822 152.286 135.337 150.584 135.335 148.843C135.331 146.513 134.403 144.28 132.756 142.632C131.108 140.985 128.875 140.057 126.545 140.053Z" fill="#4462AC"/>
<path d="M126.545 145.953L127.485 147.857L129.593 148.167L128.073 149.654L128.432 151.754L126.545 150.757L124.666 151.754L125.026 149.654L123.498 148.167L125.606 147.857L126.545 145.953Z" fill="#7393CB"/>
<path d="M130.09 153.983L126.577 152.136L123.064 153.983L123.734 150.069L120.891 147.3L124.812 146.728L126.569 143.166L128.325 146.728L132.246 147.3L129.403 150.069L130.09 153.983ZM126.577 149.367L126.83 149.497L126.781 149.211L126.985 149.007L126.699 148.966L126.569 148.705L126.438 148.966L126.152 149.007L126.356 149.211L126.307 149.497L126.577 149.367Z" fill="white"/>
<path d="M47.0555 38.3039L44.2422 41.1172L45.9752 42.8502L48.7885 40.0369L47.0555 38.3039Z" fill="#4462AC"/>
<path d="M40.3465 45.0129L37.5332 47.8262L39.2662 49.5592L42.0795 46.7459L40.3465 45.0129Z" fill="#4462AC"/>
<path d="M45.9791 45.0228L44.2461 46.7559L47.0594 49.5691L48.7924 47.8361L45.9791 45.0228Z" fill="#4462AC"/>
<path d="M39.2701 38.3158L37.5371 40.0488L40.3504 42.8621L42.0834 41.1291L39.2701 38.3158Z" fill="#4462AC"/>
<path d="M156.479 46.0149C156.217 44.8279 155.587 43.7538 154.679 42.9456C153.771 42.1374 152.631 41.6362 151.422 41.5135C150.596 39.5002 149.186 37.7805 147.374 36.5761C145.561 35.3716 143.43 34.7378 141.254 34.7563C139.078 34.7747 136.957 35.4446 135.166 36.6796C133.374 37.9146 131.993 39.658 131.202 41.685H130.908C130.744 41.685 130.581 41.685 130.41 41.685C129.59 41.685 128.778 41.8465 128.021 42.1602C127.264 42.4738 126.576 42.9336 125.996 43.5131C125.417 44.0927 124.957 44.7808 124.643 45.5381C124.329 46.2953 124.168 47.107 124.168 47.9266C124.168 48.7463 124.329 49.5579 124.643 50.3151C124.957 51.0724 125.417 51.7605 125.996 52.34C126.576 52.9196 127.264 53.3794 128.021 53.6931C128.778 54.0067 129.59 54.1682 130.41 54.1682H159.003C160.849 54.1682 162.72 53.0408 162.72 51.0474C162.769 48.719 160.147 46.7828 156.479 46.0149Z" fill="#7393CB"/>
<path d="M159.025 55.3348H130.432C128.451 55.3348 126.552 54.5481 125.152 53.1478C123.752 51.7474 122.965 49.8482 122.965 47.8678C122.965 45.8874 123.752 43.9882 125.152 42.5878C126.552 41.1875 128.451 40.4008 130.432 40.4008C131.42 38.3422 132.969 36.6048 134.902 35.3887C136.834 34.1726 139.071 33.5273 141.355 33.5273C143.638 33.5273 145.875 34.1726 147.807 35.3887C149.74 36.6048 151.289 38.3422 152.277 40.4008C153.468 40.6453 154.574 41.1969 155.485 42.0009C156.397 42.8049 157.082 43.8332 157.473 44.9839C161.452 46.0133 164.009 48.3253 164.009 50.9886C163.968 53.8153 161.427 55.3348 159.025 55.3348ZM130.432 42.8517C129.101 42.8517 127.826 43.3801 126.885 44.3208C125.944 45.2616 125.416 46.5374 125.416 47.8678C125.416 49.1981 125.944 50.474 126.885 51.4147C127.826 52.3554 129.101 52.8839 130.432 52.8839H159.025C159.989 52.8839 161.517 52.3692 161.517 50.9886C161.517 49.42 159.336 47.8678 156.223 47.2142L155.447 47.0508L155.276 46.2747C155.072 45.3376 154.577 44.4893 153.86 43.852C153.144 43.2148 152.243 42.8216 151.289 42.7291L150.553 42.6556L150.276 41.9775C149.547 40.1819 148.296 38.6466 146.684 37.5711C145.072 36.4955 143.174 35.9294 141.236 35.9461C139.299 35.9629 137.411 36.5617 135.818 37.6649C134.225 38.7681 133 40.3247 132.303 42.1327L131.951 43.0232L131.004 42.9007C130.803 42.8724 130.601 42.856 130.399 42.8517H130.432Z" fill="#4462AC"/>
<path d="M137.851 47.867H135.401C135.398 46.5395 134.87 45.267 133.931 44.3283C132.993 43.3896 131.72 42.8612 130.393 42.8591V40.4082C132.37 40.4104 134.266 41.1969 135.664 42.5952C137.063 43.9936 137.849 45.8895 137.851 47.867Z" fill="#4462AC"/>
<path d="M130.394 47.8594H109.178V50.3102H130.394V47.8594Z" fill="#4462AC"/>
<path d="M122.199 40.3105H116.121V42.7614H122.199V40.3105Z" fill="#4462AC"/>
<path d="M113.946 40.3105H110.131V42.7614H113.946V40.3105Z" fill="#4462AC"/>
<path d="M167.393 35.123H158.979V37.5739H167.393V35.123Z" fill="#4462AC"/>
<path d="M156.396 35.123H153.594V37.5739H156.396V35.123Z" fill="#4462AC"/>
<path d="M51.7458 93.5912C53.0497 93.5912 54.1068 92.5341 54.1068 91.2302C54.1068 89.9262 53.0497 88.8691 51.7458 88.8691C50.4418 88.8691 49.3848 89.9262 49.3848 91.2302C49.3848 92.5341 50.4418 93.5912 51.7458 93.5912Z" fill="#D4E4F5"/>
<path d="M41.5986 139.203C43.3628 139.203 44.7929 137.773 44.7929 136.009C44.7929 134.245 43.3628 132.814 41.5986 132.814C39.8344 132.814 38.4043 134.245 38.4043 136.009C38.4043 137.773 39.8344 139.203 41.5986 139.203Z" fill="#D4E4F5"/>
<path d="M51.7447 94.8194C51.0353 94.8194 50.3419 94.609 49.7521 94.2149C49.1623 93.8209 48.7027 93.2607 48.4312 92.6054C48.1598 91.9501 48.0887 91.2289 48.2271 90.5332C48.3655 89.8375 48.7071 89.1985 49.2086 88.6969C49.7102 88.1954 50.3493 87.8538 51.045 87.7154C51.7407 87.577 52.4618 87.648 53.1171 87.9195C53.7725 88.1909 54.3326 88.6506 54.7267 89.2404C55.1208 89.8302 55.3311 90.5236 55.3311 91.2329C55.3289 92.1834 54.9504 93.0944 54.2783 93.7665C53.6062 94.4387 52.6952 94.8172 51.7447 94.8194ZM51.7447 90.0892C51.5201 90.0892 51.3005 90.1558 51.1138 90.2806C50.927 90.4053 50.7815 90.5827 50.6955 90.7902C50.6096 90.9977 50.5871 91.226 50.6309 91.4463C50.6747 91.6666 50.7829 91.8689 50.9417 92.0277C51.1005 92.1866 51.3028 92.2947 51.5231 92.3385C51.7434 92.3823 51.9717 92.3598 52.1792 92.2739C52.3867 92.1879 52.5641 92.0424 52.6888 91.8556C52.8136 91.6689 52.8802 91.4494 52.8802 91.2248C52.8781 90.925 52.7575 90.6383 52.5447 90.4271C52.332 90.2159 52.0444 90.0974 51.7447 90.0974V90.0892Z" fill="#4462AC"/>
<path d="M41.5975 140.429C40.7233 140.429 39.8688 140.17 39.142 139.685C38.4152 139.199 37.8487 138.509 37.5142 137.701C37.1797 136.893 37.0921 136.005 37.2627 135.147C37.4332 134.29 37.8541 133.503 38.4722 132.884C39.0904 132.266 39.8779 131.845 40.7352 131.675C41.5926 131.504 42.4812 131.592 43.2888 131.926C44.0964 132.261 44.7867 132.827 45.2724 133.554C45.758 134.281 46.0172 135.135 46.0172 136.01C46.0172 137.182 45.5516 138.306 44.7227 139.135C43.8938 139.964 42.7697 140.429 41.5975 140.429ZM41.5975 134.049C41.2081 134.049 40.8274 134.164 40.5036 134.381C40.1798 134.597 39.9275 134.905 39.7785 135.264C39.6295 135.624 39.5905 136.02 39.6664 136.402C39.7424 136.784 39.9299 137.135 40.2053 137.41C40.4806 137.685 40.8314 137.873 41.2134 137.949C41.5953 138.025 41.9912 137.986 42.3509 137.837C42.7107 137.688 43.0182 137.435 43.2345 137.112C43.4509 136.788 43.5663 136.407 43.5663 136.018C43.5674 135.759 43.5173 135.502 43.4188 135.262C43.3204 135.022 43.1755 134.804 42.9926 134.62C42.8096 134.437 42.5922 134.291 42.3528 134.191C42.1134 134.092 41.8567 134.041 41.5975 134.041V134.049Z" fill="#4462AC"/>
<path d="M147.384 96.3713C147.221 96.3712 147.065 96.3065 146.951 96.1916L146.436 95.6769C146.328 95.5608 146.269 95.4071 146.272 95.2484C146.274 95.0897 146.339 94.9382 146.451 94.8259C146.563 94.7137 146.715 94.6494 146.873 94.6466C147.032 94.6438 147.186 94.7027 147.302 94.8109L147.817 95.3256C147.902 95.4113 147.96 95.5204 147.984 95.6392C148.008 95.758 147.995 95.8811 147.949 95.993C147.903 96.1049 147.824 96.2005 147.724 96.2679C147.623 96.3352 147.505 96.3712 147.384 96.3713Z" fill="#4462AC"/>
<path d="M145.114 94.0744C144.952 94.0743 144.796 94.0097 144.681 93.8947L144.166 93.38C144.058 93.2639 143.999 93.1103 144.002 92.9515C144.005 92.7928 144.069 92.6413 144.181 92.5291C144.294 92.4168 144.445 92.3525 144.604 92.3497C144.763 92.3469 144.916 92.4058 145.032 92.5141L145.547 93.0287C145.633 93.1144 145.691 93.2235 145.715 93.3423C145.738 93.4611 145.726 93.5842 145.68 93.6961C145.633 93.808 145.555 93.9037 145.454 93.971C145.354 94.0383 145.235 94.0743 145.114 94.0744Z" fill="#4462AC"/>
<path d="M144.593 96.3713C144.472 96.3712 144.353 96.3352 144.253 96.2679C144.152 96.2005 144.073 96.1049 144.027 95.993C143.981 95.8811 143.969 95.758 143.992 95.6392C144.016 95.5204 144.074 95.4113 144.16 95.3256L144.674 94.8109C144.79 94.7027 144.944 94.6438 145.103 94.6466C145.262 94.6494 145.413 94.7137 145.525 94.8259C145.638 94.9382 145.702 95.0897 145.705 95.2484C145.707 95.4071 145.649 95.5608 145.54 95.6769L145.026 96.1916C144.911 96.3065 144.755 96.3712 144.593 96.3713Z" fill="#4462AC"/>
<path d="M146.862 94.0757C146.741 94.0756 146.623 94.0396 146.522 93.9723C146.421 93.9049 146.343 93.8093 146.297 93.6974C146.25 93.5855 146.238 93.4624 146.262 93.3436C146.285 93.2248 146.344 93.1157 146.429 93.03L146.944 92.5153C147 92.4551 147.068 92.4069 147.143 92.3734C147.218 92.3399 147.299 92.3219 147.381 92.3204C147.464 92.319 147.545 92.3341 147.622 92.3649C147.698 92.3957 147.767 92.4416 147.825 92.4998C147.884 92.5579 147.929 92.6273 147.96 92.7036C147.991 92.7799 148.006 92.8616 148.005 92.9438C148.003 93.0261 147.985 93.1072 147.952 93.1824C147.918 93.2576 147.87 93.3252 147.81 93.3813L147.295 93.896C147.18 94.0109 147.025 94.0756 146.862 94.0757Z" fill="#4462AC"/>
<path d="M156.397 78.5113C156.234 78.5111 156.078 78.4465 155.964 78.3316L155.449 77.8169C155.389 77.7608 155.34 77.6931 155.307 77.618C155.273 77.5428 155.255 77.4617 155.254 77.3794C155.253 77.2971 155.268 77.2154 155.299 77.1391C155.329 77.0628 155.375 76.9935 155.433 76.9353C155.492 76.8772 155.561 76.8313 155.637 76.8005C155.713 76.7696 155.795 76.7545 155.877 76.756C155.96 76.7574 156.041 76.7754 156.116 76.8089C156.191 76.8424 156.259 76.8907 156.315 76.9509L156.83 77.4656C156.915 77.5512 156.973 77.6604 156.997 77.7792C157.021 77.898 157.008 78.0211 156.962 78.1329C156.916 78.2448 156.837 78.3405 156.737 78.4078C156.636 78.4752 156.518 78.5112 156.397 78.5113Z" fill="#4462AC"/>
<path d="M154.125 76.232C153.963 76.2318 153.807 76.1672 153.692 76.0522L153.177 75.5376C153.117 75.4815 153.069 75.4138 153.035 75.3386C153.002 75.2635 152.984 75.1823 152.983 75.1001C152.981 75.0178 152.996 74.9361 153.027 74.8598C153.058 74.7835 153.104 74.7142 153.162 74.656C153.22 74.5978 153.289 74.552 153.366 74.5212C153.442 74.4903 153.524 74.4752 153.606 74.4767C153.688 74.4781 153.769 74.4961 153.844 74.5296C153.92 74.5631 153.987 74.6114 154.043 74.6716L154.558 75.1863C154.644 75.272 154.702 75.3811 154.726 75.4999C154.749 75.6186 154.737 75.7418 154.691 75.8537C154.644 75.9656 154.566 76.0612 154.465 76.1285C154.365 76.1959 154.246 76.2319 154.125 76.232Z" fill="#4462AC"/>
<path d="M153.602 78.5119C153.481 78.5118 153.363 78.4758 153.262 78.4085C153.162 78.3412 153.083 78.2455 153.037 78.1336C152.991 78.0217 152.978 77.8986 153.002 77.7798C153.026 77.661 153.084 77.5519 153.169 77.4662L153.684 76.9516C153.8 76.8433 153.954 76.7844 154.113 76.7872C154.271 76.79 154.423 76.8543 154.535 76.9666C154.647 77.0788 154.712 77.2303 154.714 77.389C154.717 77.5477 154.658 77.7014 154.55 77.8175L154.035 78.3322C153.921 78.4472 153.765 78.5118 153.602 78.5119Z" fill="#4462AC"/>
<path d="M155.882 76.232C155.761 76.2319 155.642 76.1959 155.542 76.1285C155.441 76.0612 155.362 75.9656 155.316 75.8537C155.27 75.7418 155.258 75.6186 155.281 75.4999C155.305 75.3811 155.363 75.272 155.449 75.1863L155.963 74.6716C156.019 74.6114 156.087 74.5631 156.162 74.5296C156.237 74.4961 156.319 74.4781 156.401 74.4767C156.483 74.4752 156.565 74.4903 156.641 74.5212C156.717 74.552 156.787 74.5978 156.845 74.656C156.903 74.7142 156.949 74.7835 156.98 74.8598C157.011 74.9361 157.026 75.0178 157.024 75.1001C157.023 75.1823 157.005 75.2635 156.971 75.3386C156.938 75.4138 156.89 75.4815 156.829 75.5376L156.315 76.0522C156.2 76.1672 156.044 76.2318 155.882 76.232Z" fill="#4462AC"/>
<path d="M142.237 83.2998H141.012V71.4539C141.012 70.7129 141.306 70.0022 141.83 69.4782C142.354 68.9542 143.065 68.6599 143.806 68.6599C144.547 68.6599 145.257 68.9542 145.781 69.4782C146.305 70.0022 146.6 70.7129 146.6 71.4539V74.9259C146.6 75.3419 146.765 75.7409 147.059 76.0351C147.353 76.3292 147.752 76.4945 148.168 76.4945C148.584 76.4945 148.983 76.3292 149.277 76.0351C149.572 75.7409 149.737 75.3419 149.737 74.9259V58.791H150.962V74.9504C150.962 75.6915 150.668 76.4021 150.144 76.9261C149.62 77.4501 148.909 77.7445 148.168 77.7445C147.427 77.7445 146.717 77.4501 146.193 76.9261C145.669 76.4021 145.374 75.6915 145.374 74.9504V71.4539C145.374 71.0379 145.209 70.6389 144.915 70.3447C144.621 70.0506 144.222 69.8853 143.806 69.8853C143.39 69.8853 142.991 70.0506 142.697 70.3447C142.402 70.6389 142.237 71.0379 142.237 71.4539V83.2998Z" fill="#4462AC"/>
<path d="M140.277 81.7793L141.625 83.1273L142.981 81.7793V82.923L141.625 84.2792L140.277 82.923V81.7793Z" fill="#4462AC"/>
<path d="M137.329 58.7754H136.104V71.3892H137.329V58.7754Z" fill="#4462AC"/>
<path d="M141.995 104.352H140.77V96.7382C140.77 96.5746 140.705 96.4177 140.589 96.302C140.473 96.1863 140.316 96.1213 140.153 96.1213C139.989 96.1213 139.832 96.1863 139.717 96.302C139.601 96.4177 139.536 96.5746 139.536 96.7382V98.6989C139.536 99.1874 139.342 99.656 138.996 100.002C138.651 100.347 138.182 100.541 137.694 100.541C137.205 100.541 136.737 100.347 136.391 100.002C136.046 99.656 135.852 99.1874 135.852 98.6989V86.2402H137.077V98.6989C137.077 98.8624 137.142 99.0193 137.258 99.135C137.373 99.2507 137.53 99.3157 137.694 99.3157C137.857 99.3157 138.014 99.2507 138.13 99.135C138.246 99.0193 138.311 98.8624 138.311 98.6989V96.7382C138.311 96.2496 138.505 95.781 138.85 95.4355C139.196 95.09 139.664 94.8959 140.153 94.8959C140.641 94.8959 141.11 95.09 141.456 95.4355C141.801 95.781 141.995 96.2496 141.995 96.7382V104.352Z" fill="#4462AC"/>
<path d="M140.031 102.816L141.379 104.164L142.727 102.816V103.96L141.379 105.308L140.031 103.96V102.816Z" fill="#4462AC"/>
<path d="M146.602 82.3516H145.377V88.9608H146.602V82.3516Z" fill="#4462AC"/>
<path d="M159.975 58.7754H158.75V65.1313H159.975V58.7754Z" fill="#4462AC"/>
<path d="M155.905 62.6973H154.68V69.6823H155.905V62.6973Z" fill="#4462AC"/>
<path d="M146.602 99.4512H145.377V112.302H146.602V99.4512Z" fill="#4462AC"/>
<path d="M144.641 110.758L145.989 112.114L147.337 110.758V111.91L145.989 113.258L144.641 111.91V110.758Z" fill="#4462AC"/>
<path d="M143.759 60.4082H142.533V64.9342H143.759V60.4082Z" fill="#4462AC"/>
<path d="M130.866 58.7754H129.641V64.9353H130.866V58.7754Z" fill="#4462AC"/>
<path d="M151.249 95.3248H150.023V84.1978C150.023 83.4568 150.318 82.7461 150.842 82.2221C151.366 81.6982 152.076 81.4038 152.817 81.4038C153.558 81.4038 154.269 81.6982 154.793 82.2221C155.317 82.7461 155.611 83.4568 155.611 84.1978V87.6699C155.611 88.0859 155.777 88.4848 156.071 88.779C156.365 89.0732 156.764 89.2384 157.18 89.2384C157.596 89.2384 157.995 89.0732 158.289 88.779C158.583 88.4848 158.749 88.0859 158.749 87.6699V72.5234H159.974V87.6699C159.974 88.4109 159.68 89.1215 159.156 89.6455C158.632 90.1695 157.921 90.4638 157.18 90.4638C156.439 90.4638 155.728 90.1695 155.204 89.6455C154.68 89.1215 154.386 88.4109 154.386 87.6699V84.1978C154.386 83.7818 154.221 83.3828 153.927 83.0886C153.632 82.7945 153.233 82.6292 152.817 82.6292C152.401 82.6292 152.002 82.7945 151.708 83.0886C151.414 83.3828 151.249 83.7818 151.249 84.1978V95.3248Z" fill="#4462AC"/>
<path d="M151.991 93.7891L150.635 95.137L149.287 93.7891V94.9328L150.635 96.289L151.991 94.9328V93.7891Z" fill="#4462AC"/>
<path d="M137.077 77.1973H135.852V80.9716H137.077V77.1973Z" fill="#4462AC"/>
<path d="M138.349 78.4707H134.574V79.6961H138.349V78.4707Z" fill="#4462AC"/>
<path d="M36.6701 78.0063C36.4719 78.0083 36.2797 77.9381 36.1294 77.8088C35.9791 77.6795 35.8809 77.5 35.8532 77.3037C35.3695 73.9414 35.7461 70.5113 36.9476 67.334C38.1491 64.1566 40.1364 61.3356 42.7238 59.1346C44.9955 57.0863 47.7149 55.5979 50.6646 54.7884C50.9097 49.9356 53.6956 44.8296 58.5074 41.0144C65.8601 35.1895 79.1193 32.1831 92.2642 42.8935C92.3534 42.9589 92.4285 43.0419 92.4847 43.1372C92.5409 43.2326 92.5772 43.3384 92.5913 43.4482C92.6054 43.558 92.597 43.6695 92.5667 43.776C92.5364 43.8824 92.4848 43.9817 92.4149 44.0676C92.3451 44.1535 92.2585 44.2243 92.1605 44.2757C92.0625 44.3271 91.955 44.3581 91.8446 44.3667C91.7343 44.3753 91.6233 44.3614 91.5185 44.3259C91.4136 44.2903 91.3171 44.2338 91.2348 44.1597C78.8497 34.0703 66.726 36.5784 59.5205 42.2889C55.2151 45.6956 52.6662 50.1889 52.3231 54.4616C53.6857 54.2607 55.0748 54.3357 56.4079 54.6822C60.9338 55.9321 61.3096 58.6853 61.3096 59.8208C61.2476 60.8967 60.8419 61.9242 60.1521 62.7522C59.4624 63.5802 58.525 64.1649 57.4781 64.4203C56.4242 64.6491 53.7691 64.7634 51.8983 60.9156C51.2274 59.5247 50.8255 58.0196 50.7137 56.4795C48.1661 57.254 45.8185 58.5756 43.8349 60.3519C41.4538 62.3748 39.6242 64.9681 38.517 67.8897C37.4098 70.8113 37.0611 73.9658 37.5035 77.0586C37.5338 77.2731 37.4776 77.4909 37.3474 77.664C37.2172 77.8371 37.0235 77.9514 36.809 77.9818L36.6701 78.0063ZM52.2986 56.1282C52.3706 57.546 52.7262 58.9349 53.3443 60.213C54.3164 62.2145 55.6563 63.1459 57.1105 62.8354C57.8022 62.6594 58.4205 62.269 58.8769 61.7202C59.3332 61.1714 59.6043 60.4922 59.6512 59.78C59.692 58.2114 58.344 56.9288 55.9422 56.2671C54.75 55.9698 53.5089 55.9253 52.2986 56.1364V56.1282Z" fill="#4462AC"/>
<path d="M37.218 81.1663C39.4019 80.8524 40.9179 78.8275 40.6039 76.6436C40.29 74.4597 38.2651 72.9438 36.0812 73.2578C33.8973 73.5717 32.3814 75.5966 32.6954 77.7804C33.0093 79.9643 35.0342 81.4803 37.218 81.1663Z" fill="#4462AC"/>
<path d="M89.0215 43.6374L91.5622 43.3841L91.3008 40.8516L92.4854 41.8156L92.7468 44.3481L90.2143 44.6096L89.0215 43.6374Z" fill="#4462AC"/>
<path d="M105.222 142.896H88.3027V150.167H105.222V142.896Z" fill="#4462AC"/>
</svg>
