<svg width="196" height="196" viewBox="0 0 196 196" fill="none" xmlns="http://www.w3.org/2000/svg">
<path d="M97.8568 195.714C151.902 195.714 195.714 151.902 195.714 97.8568C195.714 43.812 151.902 0 97.8568 0C43.812 0 0 43.812 0 97.8568C0 151.902 43.812 195.714 97.8568 195.714Z" fill="#FAC6A4"/>
<g clip-path="url(#clip0_549_3996)">
<path d="M147.4 49.5909L130.394 30.1465C130.091 29.7999 129.717 29.5221 129.298 29.3318C128.879 29.1415 128.424 29.043 127.963 29.043C127.503 29.043 127.048 29.1415 126.629 29.3318C126.209 29.5221 125.836 29.7999 125.533 30.1465L108.526 49.5909C108.118 50.0577 107.853 50.6322 107.763 51.2457C107.673 51.8592 107.761 52.4857 108.017 53.0503C108.274 53.615 108.687 54.0938 109.209 54.4296C109.73 54.7655 110.337 54.944 110.957 54.944H114.774V62.0641C114.774 62.0641 122.163 68.2523 130.133 65.1582C138.103 62.0641 141.16 67.3949 141.16 67.3949V54.9365H144.955C145.575 54.9382 146.182 54.7613 146.704 54.4269C147.226 54.0926 147.641 53.615 147.899 53.0512C148.157 52.4874 148.247 51.8613 148.158 51.2477C148.07 50.634 147.807 50.0588 147.4 49.5909Z" fill="#D4E4F5"/>
<path d="M162.476 68.8793L152.702 59.1869C152.261 58.7494 151.664 58.5039 151.043 58.5039C150.422 58.5039 149.825 58.7494 149.384 59.1869L139.61 68.8793C139.368 69.1176 139.203 69.4226 139.136 69.7552C139.068 70.0878 139.101 70.433 139.231 70.7467C139.361 71.0603 139.581 71.3282 139.863 71.5162C140.146 71.7041 140.478 71.8036 140.818 71.8019H143.181V80.0031C143.181 80.0031 145.954 83.798 149.995 81.8521C154.036 79.9061 158.905 84.2677 158.905 84.2677V71.8019H161.268C161.608 71.8036 161.94 71.7041 162.222 71.5162C162.505 71.3282 162.725 71.0603 162.855 70.7467C162.984 70.433 163.018 70.0878 162.95 69.7552C162.883 69.4226 162.718 69.1176 162.476 68.8793Z" fill="#7393CB"/>
<path d="M150.919 41.8289L144.321 34.2838C144.241 34.1934 144.143 34.121 144.033 34.0714C143.923 34.0217 143.804 33.9961 143.684 33.9961C143.563 33.9961 143.444 34.0217 143.334 34.0714C143.224 34.121 143.126 34.1934 143.046 34.2838L136.448 41.8289C136.273 42.0282 136.159 42.2736 136.12 42.5359C136.081 42.7981 136.119 43.066 136.228 43.3074C136.338 43.5489 136.514 43.7538 136.737 43.8975C136.96 44.0412 137.219 44.1177 137.484 44.1178H149.875C150.141 44.1192 150.402 44.0437 150.626 43.9005C150.849 43.7574 151.027 43.5526 151.137 43.3108C151.248 43.0691 151.286 42.8006 151.247 42.5377C151.208 42.2748 151.095 42.0287 150.919 41.8289Z" fill="#7393CB"/>
<path d="M87.2414 41.4558C86.9329 40.0534 86.1907 38.7838 85.1201 37.827C84.0495 36.8701 82.7049 36.2747 81.2768 36.125C80.2981 33.7409 78.6277 31.7047 76.4809 30.2789C74.3342 28.8531 71.8095 28.103 69.2325 28.1255C66.6554 28.148 64.1442 28.9419 62.0226 30.4049C59.901 31.868 58.2663 33.933 57.3294 36.3337C56.3278 36.2057 55.3106 36.2843 54.3406 36.5647C53.3706 36.8451 52.4684 37.3213 51.6896 37.964C50.9109 38.6067 50.2721 39.4022 49.8127 40.3013C49.3534 41.2005 49.0832 42.1843 49.0189 43.192C48.9546 44.1996 49.0975 45.2098 49.4388 46.1601C49.7801 47.1103 50.3125 47.9806 51.0033 48.7171C51.694 49.4535 52.5284 50.0406 53.4548 50.4421C54.3813 50.8435 55.3802 51.0508 56.3899 51.0512H90.2907C92.4827 51.0512 94.697 49.7166 94.697 47.3233C94.6672 44.6468 91.5805 42.3653 87.2414 41.4558Z" fill="#7393CB"/>
<path d="M90.261 52.1629H56.3602C54.1031 52.1629 51.9383 51.2662 50.3423 49.6702C48.7463 48.0741 47.8496 45.9094 47.8496 43.6523C47.8496 41.3951 48.7463 39.2304 50.3423 37.6344C51.9383 36.0383 54.1031 35.1417 56.3602 35.1417H56.5913C57.7117 32.7147 59.5027 30.6587 61.7532 29.2162C64.0036 27.7737 66.6196 27.0047 69.2926 27C71.9657 26.9953 74.5844 27.7551 76.8399 29.1897C79.0953 30.6243 80.8936 32.6739 82.0225 35.0969C83.4398 35.3561 84.7596 35.9972 85.8395 36.951C86.9195 37.9048 87.7187 39.1353 88.151 40.5097C92.8108 41.6653 95.7856 44.3046 95.7856 47.3465C95.7856 50.3884 92.9376 52.1629 90.261 52.1629ZM56.3602 37.3783C54.6963 37.3783 53.1005 38.0393 51.9239 39.2159C50.7473 40.3925 50.0863 41.9883 50.0863 43.6523C50.0863 45.3162 50.7473 46.912 51.9239 48.0886C53.1005 49.2652 54.6963 49.9262 56.3602 49.9262H90.261C91.8565 49.9262 93.5489 49.024 93.5489 47.3465C93.5489 45.326 90.8649 43.3578 87.0103 42.5451L86.302 42.396L86.1455 41.6877C85.8932 40.5068 85.2718 39.4369 84.371 38.6327C83.4703 37.8284 82.3371 37.3317 81.1353 37.2143L80.4643 37.1472L80.2108 36.5284C79.3167 34.3521 77.7915 32.4933 75.8316 31.1917C73.8716 29.89 71.5668 29.2051 69.214 29.2251C66.8613 29.2452 64.5685 29.9693 62.631 31.3042C60.6936 32.6391 59.2002 34.5235 58.3434 36.7148L58.0228 37.5275L57.158 37.4156C56.8931 37.3862 56.6267 37.3737 56.3602 37.3783Z" fill="#4462AC"/>
<path d="M64.8451 43.6479H62.6084C62.6065 41.9875 61.946 40.3957 60.7719 39.2216C59.5979 38.0476 58.0061 37.3871 56.3457 37.3851V35.1484C58.5993 35.1504 60.76 36.0465 62.3535 37.64C63.9471 39.2336 64.8431 41.3943 64.8451 43.6479Z" fill="#4462AC"/>
<path d="M56.3442 43.9688H31.2188V46.2054H56.3442V43.9688Z" fill="#4462AC"/>
<path d="M46.6459 35.0293H39.4512V37.266H46.6459V35.0293Z" fill="#4462AC"/>
<path d="M36.8775 35.0293H32.3594V37.266H36.8775V35.0293Z" fill="#4462AC"/>
<path d="M100.169 28.8867H90.2012V31.1234H100.169V28.8867Z" fill="#4462AC"/>
<path d="M87.1517 28.8867H83.834V31.1234H87.1517V28.8867Z" fill="#4462AC"/>
<path d="M110.763 91.8272C109.131 91.8342 107.529 91.3821 106.141 90.5225C105.491 90.166 104.944 89.6481 104.552 89.0186C104.16 88.3892 103.937 87.6695 103.904 86.9289C103.937 86.3082 104.131 85.7068 104.467 85.1838C104.803 84.6609 105.27 84.2345 105.82 83.9466C108.012 82.6568 111.599 82.8432 114.022 84.3716C114.672 84.724 115.22 85.2389 115.612 85.8661C116.004 86.4933 116.227 87.2113 116.258 87.9503C116.228 88.5793 116.034 89.1895 115.695 89.7204C115.356 90.2513 114.885 90.6846 114.327 90.9773C113.236 91.5729 112.006 91.8664 110.763 91.8272ZM109.325 86.0566C108.628 86.0333 107.937 86.19 107.319 86.5113C107.051 86.6679 106.879 86.8543 106.879 86.9885C106.879 87.1227 107.058 87.5626 107.759 88.0174C109.198 88.9419 111.539 89.1208 112.769 88.3976C113.052 88.2261 113.231 88.0398 113.231 87.8906C113.231 87.7415 112.97 87.2569 112.374 86.8767C111.452 86.3294 110.397 86.0458 109.325 86.0566Z" fill="#4462AC"/>
<path d="M103.741 67.9023L31.7715 111.167L31.8013 138.679L67.0963 161.053L139.476 118.123V90.478L103.741 67.9023Z" fill="#D4E4F5"/>
<path d="M58.791 94.9502L96.1512 118.629V143.844L114.239 133.168V107.953L76.6398 84.1172L58.791 94.9502Z" fill="#7393CB"/>
<path d="M96.1432 145.337C95.7477 145.337 95.3685 145.179 95.0888 144.9C94.8092 144.62 94.6521 144.241 94.6521 143.845V119.451L57.9927 96.2114C57.7769 96.0777 57.5989 95.8911 57.4754 95.6693C57.3519 95.4475 57.2871 95.1978 57.2871 94.944C57.2871 94.6901 57.3519 94.4405 57.4754 94.2186C57.5989 93.9968 57.7769 93.8102 57.9927 93.6765L75.8415 82.8435C76.0777 82.6969 76.3501 82.6191 76.6281 82.6191C76.9061 82.6191 77.1785 82.6969 77.4147 82.8435L115.013 106.702C115.226 106.836 115.401 107.022 115.522 107.242C115.643 107.463 115.707 107.71 115.707 107.962V133.176C115.705 133.437 115.636 133.692 115.505 133.917C115.374 134.142 115.187 134.329 114.961 134.459L96.8739 145.135C96.6517 145.264 96.4 145.334 96.1432 145.337ZM61.6162 94.9813L96.941 117.348C97.1534 117.483 97.3284 117.669 97.4496 117.889C97.5708 118.109 97.6344 118.357 97.6343 118.608V141.214L112.739 132.267V108.767L76.6169 85.8779L61.6162 94.9813Z" fill="#4462AC"/>
<path d="M67.066 137.672L66.3205 137.165C53.0495 128.524 40.8819 120.815 29.1169 113.583L27.0293 112.301L29.1243 111.033C45.6982 101.013 62.5778 90.9031 78.9056 81.084L103.002 66.6201L103.748 66.1504L104.493 66.635C117.772 74.9257 131.05 83.358 142.286 90.493L144.329 91.7903L142.249 93.028C133.004 98.5377 123.677 104.062 114.968 109.207L113.477 106.642C121.529 101.878 130.118 96.8005 138.67 91.7307C128.113 85.0206 115.93 77.2742 103.718 69.6471L80.4042 83.6488C64.7474 93.0354 48.6208 102.72 32.6881 112.323C43.5957 119.033 54.8836 126.213 67.0959 134.153C77.3921 127.995 87.5765 121.956 95.3602 117.356L96.8513 119.92C88.8738 124.64 78.3613 130.865 67.7743 137.188L67.066 137.672Z" fill="#4462AC"/>
<path d="M75.6171 128.373L74.8716 127.904C70.0403 124.922 63.9416 124.631 59.3489 127.076L58.6034 127.486L57.8578 127.017C53.4217 124.169 49.0154 121.373 44.7583 118.704L42.6856 117.406L44.7881 116.161C46.391 115.214 47.2783 113.977 47.2857 112.679C47.2857 111.188 46.1898 109.637 44.2364 108.43L42.1562 107.14L44.2587 105.88L60.2213 96.3516L61.7124 98.9163L47.6436 107.274C48.429 107.942 49.0651 108.768 49.5108 109.698C49.9565 110.628 50.2018 111.641 50.2307 112.672C50.2099 113.543 50.0129 114.401 49.6515 115.195C49.2902 115.988 48.772 116.699 48.1282 117.287C51.5951 119.471 55.1514 121.76 58.7227 123.997C61.4193 122.84 64.3462 122.321 67.2761 122.478C70.2061 122.636 73.0603 123.467 75.6171 124.907C80.6671 121.924 85.722 118.942 90.7819 115.96L92.273 118.532C86.9646 121.663 81.6612 124.805 76.3627 127.956L75.6171 128.373Z" fill="#4462AC"/>
<path d="M111.628 107.103L110.137 104.531C114.752 101.81 118.845 99.3868 123.311 96.74L123.564 96.5909C122.752 95.8958 122.095 95.0372 121.636 94.0712C121.178 93.1051 120.928 92.0533 120.903 90.9843C120.932 90.1156 121.136 89.2618 121.501 88.473C121.865 87.6842 122.385 86.9765 123.028 86.3916C119.504 84.145 115.975 81.9083 112.441 79.6815C107.311 82.0375 100.825 81.7169 95.4641 78.8614L80.8212 87.5696L79.3301 85.0049L94.711 75.8493L95.4566 75.3945L96.2022 75.8493C101.108 78.757 107.244 79.0776 111.859 76.6545L112.605 76.2519L113.35 76.7142C117.729 79.4777 122.098 82.2537 126.457 85.0421L128.5 86.3469L126.412 87.5845C125.287 88.2555 123.937 89.3962 123.9 91.0588C123.9 92.5947 125.011 94.2275 127.024 95.5322L129.052 96.8369L124.824 99.3122C120.351 101.959 116.243 104.382 111.628 107.103Z" fill="#4462AC"/>
<path d="M109.861 106.671C109.476 106.671 109.106 106.522 108.828 106.255C108.55 105.988 108.386 105.624 108.37 105.239C108.206 100.833 104.553 95.9793 101.026 93.4593C95.7628 89.7315 87.8002 87.5768 80.2551 87.9272C80.0592 87.9363 79.8635 87.9066 79.6791 87.8398C79.4948 87.7731 79.3254 87.6707 79.1807 87.5384C79.0359 87.4061 78.9187 87.2466 78.8357 87.069C78.7527 86.8914 78.7055 86.6991 78.6969 86.5032C78.6879 86.3074 78.7176 86.1116 78.7843 85.9273C78.851 85.7429 78.9534 85.5735 79.0857 85.4288C79.218 85.284 79.3775 85.1668 79.5551 85.0838C79.7328 85.0008 79.925 84.9536 80.1209 84.945C88.4265 84.5573 96.8961 86.8313 102.764 91.0288C106.752 93.8843 111.144 99.5058 111.36 105.12C111.374 105.514 111.231 105.898 110.963 106.187C110.695 106.477 110.323 106.648 109.929 106.663L109.861 106.671Z" fill="#4462AC"/>
<path d="M89.3292 118.69C81.5529 118.69 73.8065 116.498 68.3639 112.636C63.0406 108.864 58.3435 102.31 59.8496 96.1892C59.9485 95.8056 60.1956 95.477 60.5368 95.2757C60.878 95.0743 61.2852 95.0168 61.6688 95.1156C62.0524 95.2145 62.381 95.4617 62.5823 95.8029C62.7837 96.144 62.8412 96.5512 62.7424 96.9348C61.5793 101.669 65.7246 107.149 70.0862 110.236C75.8941 114.351 84.9974 116.431 93.3626 115.522C93.7581 115.479 94.1543 115.596 94.464 115.845C94.7737 116.095 94.9716 116.457 95.0141 116.853C95.0566 117.248 94.9403 117.644 94.6907 117.954C94.4411 118.264 94.0787 118.461 93.6833 118.504C92.2363 118.645 90.7828 118.707 89.3292 118.69Z" fill="#4462AC"/>
<path d="M61.6381 120.695C60.0065 120.707 58.4036 120.266 57.0082 119.42C56.3584 119.067 55.8109 118.552 55.419 117.925C55.027 117.298 54.804 116.58 54.7715 115.841C54.8004 115.213 54.9931 114.603 55.3306 114.072C55.668 113.541 56.1384 113.107 56.695 112.814C58.9317 111.51 62.4135 111.689 64.8366 113.232C65.4877 113.589 66.0356 114.108 66.4274 114.739C66.8192 115.37 67.0417 116.091 67.0733 116.833C67.0411 117.453 66.8482 118.054 66.5136 118.577C66.179 119.099 65.7141 119.526 65.1646 119.815C64.0861 120.411 62.8703 120.714 61.6381 120.695ZM60.1917 114.939C59.5 114.917 58.8143 115.073 58.2011 115.394C57.9178 115.558 57.7463 115.752 57.7388 115.901C57.7314 116.05 58.0072 116.527 58.6037 116.915C60.0948 117.839 62.421 118.011 63.666 117.28C63.9345 117.124 64.1059 116.937 64.1059 116.796C64.1059 116.654 63.927 116.214 63.2187 115.767C62.3045 115.218 61.2579 114.93 60.1917 114.932V114.939Z" fill="#4462AC"/>
<path d="M67.0735 162.804L27.0293 137.425L33.21 133.69L34.7533 136.24L32.6956 137.485L67.1257 159.307L138.67 116.87L136.635 115.573L138.238 113.053L144.366 116.959L67.0735 162.804Z" fill="#4462AC"/>
<path d="M67.0735 157.772L27.0293 132.393L33.21 128.658L34.7533 131.215L32.6956 132.453L67.1257 154.276L95.39 137.515L96.9109 140.08L67.0735 157.772Z" fill="#4462AC"/>
<path d="M114.998 129.35L113.477 126.786L138.669 111.837L136.634 110.547L138.237 108.027L144.365 111.934L114.998 129.35Z" fill="#4462AC"/>
<path d="M67.0735 152.747L27.0293 127.368L33.21 123.633L34.7533 126.19L32.6956 127.428L67.1257 149.25L95.39 132.49L96.9109 135.055L67.0735 152.747Z" fill="#4462AC"/>
<path d="M114.998 124.318L113.477 121.753L138.669 106.812L136.634 105.514L138.237 103.002L144.365 106.901L114.998 124.318Z" fill="#4462AC"/>
<path d="M67.0735 147.722L27.0293 122.343L33.21 118.607L34.7533 121.157L32.6956 122.402L67.1257 144.218L95.39 127.457L96.9109 130.022L67.0735 147.722Z" fill="#4462AC"/>
<path d="M114.998 119.294L113.477 116.729L138.669 101.788L136.634 100.491L138.237 97.9707L144.365 101.877L114.998 119.294Z" fill="#4462AC"/>
<path d="M67.0735 142.688L27.0293 117.309L33.21 113.574L34.7533 116.132L32.6956 117.369L67.1257 139.192L95.39 122.432L96.9109 124.996L67.0735 142.688Z" fill="#4462AC"/>
<path d="M114.999 114.268L113.508 111.704L138.7 96.7923L136.665 95.495L138.268 92.9824L142.354 95.5845L144.359 96.837L114.999 114.268Z" fill="#4462AC"/>
<path d="M145.268 85.7285C139.125 85.7285 134.145 87.5999 134.145 89.9111V123.931C134.145 126.242 139.125 128.114 145.268 128.114C151.412 128.114 156.392 126.242 156.392 123.931V89.9111C156.385 87.5999 151.404 85.7285 145.268 85.7285Z" fill="#D4E4F5"/>
<path d="M145.267 129.605C138.997 129.605 132.652 127.659 132.652 123.931V119.07H135.635V123.931C135.635 124.625 138.945 126.623 145.267 126.623C151.59 126.623 154.9 124.625 154.9 123.931V119.07H157.882V123.931C157.875 127.652 151.53 129.605 145.267 129.605Z" fill="#4462AC"/>
<path d="M145.267 124.744C138.997 124.744 132.652 122.798 132.652 119.07V114.209H135.635V119.07C135.635 119.763 138.945 121.762 145.267 121.762C151.59 121.762 154.9 119.763 154.9 119.07V114.209H157.882V119.07C157.875 122.79 151.53 124.744 145.267 124.744Z" fill="#4462AC"/>
<path d="M145.267 119.882C138.997 119.882 132.652 117.937 132.652 114.209V109.348H135.635V114.209C135.635 114.902 138.945 116.9 145.267 116.9C151.59 116.9 154.9 114.902 154.9 114.209V109.348H157.882V114.209C157.875 117.937 151.53 119.882 145.267 119.882Z" fill="#4462AC"/>
<path d="M145.267 115.021C138.997 115.021 132.652 113.075 132.652 109.347V104.486H135.635V109.347C135.635 110.041 138.945 112.039 145.267 112.039C151.59 112.039 154.9 110.041 154.9 109.347V104.486H157.882V109.347C157.875 113.075 151.53 115.021 145.267 115.021Z" fill="#4462AC"/>
<path d="M145.267 110.16C138.997 110.16 132.652 108.214 132.652 104.486V99.625H135.635V104.486C135.635 105.179 138.945 107.178 145.267 107.178C151.59 107.178 154.9 105.179 154.9 104.486V99.625H157.882V104.486C157.875 108.214 151.53 110.16 145.267 110.16Z" fill="#4462AC"/>
<path d="M145.267 105.298C138.997 105.298 132.652 103.353 132.652 99.6247V94.7637H135.635V99.6247C135.635 100.318 138.945 102.316 145.267 102.316C151.59 102.316 154.9 100.318 154.9 99.6247V94.7637H157.882V99.6247C157.875 103.353 151.53 105.298 145.267 105.298Z" fill="#4462AC"/>
<path d="M145.267 100.437C138.997 100.437 132.652 98.4912 132.652 94.7634V89.9023H135.635V94.7634C135.635 95.4568 138.945 97.4549 145.267 97.4549C151.59 97.4549 154.9 95.4568 154.9 94.7634V89.9023H157.882V94.7634C157.875 98.4912 151.53 100.437 145.267 100.437Z" fill="#4462AC"/>
<path d="M145.267 95.5838C138.997 95.5838 132.652 93.6379 132.652 89.9101C132.652 86.1822 138.997 84.2363 145.267 84.2363C151.537 84.2363 157.882 86.1822 157.882 89.9101C157.882 93.6379 151.53 95.5838 145.267 95.5838ZM145.267 87.226C139.012 87.226 135.635 89.1347 135.635 89.9175C135.635 90.7004 138.945 92.609 145.267 92.609C151.59 92.609 154.9 90.6109 154.9 89.9175C154.9 89.2241 151.523 87.2186 145.267 87.2186V87.226Z" fill="#4462AC"/>
<path d="M134.145 102.959C128.002 102.959 123.021 104.83 123.021 107.142V131.44C123.021 133.751 128.002 135.622 134.145 135.622C140.289 135.622 145.269 133.751 145.269 131.44V107.142C145.269 104.83 140.289 102.959 134.145 102.959Z" fill="#D4E4F5"/>
<path d="M134.144 137.097C127.874 137.097 121.529 135.151 121.529 131.424V126.562H124.512V131.424C124.512 132.117 127.822 134.115 134.144 134.115C140.467 134.115 143.777 132.117 143.777 131.424V126.562H146.759V131.424C146.759 135.159 140.414 137.097 134.144 137.097Z" fill="#4462AC"/>
<path d="M134.144 132.252C127.874 132.252 121.529 130.306 121.529 126.578V121.717H124.512V126.578C124.512 127.271 127.822 129.269 134.144 129.269C140.467 129.269 143.777 127.271 143.777 126.578V121.717H146.759V126.578C146.759 130.306 140.414 132.252 134.144 132.252Z" fill="#4462AC"/>
<path d="M134.144 127.406C127.874 127.406 121.529 125.46 121.529 121.732V116.871H124.512V121.732C124.512 122.426 127.822 124.424 134.144 124.424C140.467 124.424 143.777 122.426 143.777 121.732V116.871H146.759V121.732C146.759 125.445 140.414 127.406 134.144 127.406Z" fill="#4462AC"/>
<path d="M134.144 122.529C127.874 122.529 121.529 120.583 121.529 116.855V111.994H124.512V116.855C124.512 117.549 127.822 119.547 134.144 119.547C140.467 119.547 143.777 117.549 143.777 116.855V111.994H146.759V116.855C146.759 120.583 140.414 122.529 134.144 122.529Z" fill="#4462AC"/>
<path d="M134.144 117.668C127.874 117.668 121.529 115.722 121.529 111.994V107.133H124.512V111.994C124.512 112.687 127.822 114.685 134.144 114.685C140.467 114.685 143.777 112.687 143.777 111.994V107.133H146.759V111.994C146.759 115.722 140.414 117.668 134.144 117.668Z" fill="#4462AC"/>
<path d="M134.144 112.814C127.874 112.814 121.529 110.868 121.529 107.141C121.529 103.413 127.874 101.467 134.144 101.467C140.414 101.467 146.759 103.413 146.759 107.141C146.759 110.868 140.414 112.814 134.144 112.814ZM134.144 104.449C127.822 104.449 124.512 106.447 124.512 107.141C124.512 107.834 127.822 109.832 134.144 109.832C140.467 109.832 143.777 107.834 143.777 107.141C143.777 106.447 140.482 104.449 134.144 104.449Z" fill="#4462AC"/>
<path d="M145.268 102.131V136.151C145.268 138.462 150.248 140.334 156.391 140.334C162.535 140.334 167.515 138.462 167.515 136.151V102.131H145.268Z" fill="#D4E4F5"/>
<path d="M156.384 141.816C150.114 141.816 143.77 139.87 143.77 136.142V131.281H146.752V136.142C146.752 136.836 150.062 138.834 156.384 138.834C162.707 138.834 166.017 136.836 166.017 136.142V131.281H168.999V136.142C168.999 139.87 162.655 141.816 156.384 141.816Z" fill="#4462AC"/>
<path d="M156.384 136.963C150.114 136.963 143.77 135.017 143.77 131.289V126.428H146.752V131.289C146.752 131.982 150.062 133.98 156.384 133.98C162.707 133.98 166.017 131.982 166.017 131.289V126.428H168.999V131.289C168.999 135.009 162.655 136.963 156.384 136.963Z" fill="#4462AC"/>
<path d="M156.384 132.101C150.114 132.101 143.77 130.155 143.77 126.427V121.566H146.752V126.427C146.752 127.121 150.062 129.119 156.384 129.119C162.707 129.119 166.017 127.121 166.017 126.427V121.566H168.999V126.427C168.999 130.148 162.655 132.101 156.384 132.101Z" fill="#4462AC"/>
<path d="M156.384 127.242C150.114 127.242 143.77 125.296 143.77 121.568V116.707H146.752V121.568C146.752 122.262 150.062 124.26 156.384 124.26C162.707 124.26 166.017 122.262 166.017 121.568V116.707H168.999V121.568C168.999 125.296 162.655 127.242 156.384 127.242Z" fill="#4462AC"/>
<path d="M156.384 122.381C150.114 122.381 143.77 120.435 143.77 116.707V111.846H146.752V116.707C146.752 117.4 150.062 119.398 156.384 119.398C162.707 119.398 166.017 117.4 166.017 116.707V111.846H168.999V116.707C168.999 120.435 162.655 122.381 156.384 122.381Z" fill="#4462AC"/>
<path d="M156.384 117.519C150.114 117.519 143.77 115.573 143.77 111.845V106.984H146.752V111.845C146.752 112.539 150.062 114.537 156.384 114.537C162.707 114.537 166.017 112.539 166.017 111.845V106.984H168.999V111.845C168.999 115.573 162.655 117.519 156.384 117.519Z" fill="#4462AC"/>
<path d="M156.384 112.658C150.114 112.658 143.77 110.712 143.77 106.984V102.131H146.752V106.992C146.752 107.685 150.062 109.683 156.384 109.683C162.707 109.683 166.017 107.685 166.017 106.992V102.131H168.999V106.992C168.999 110.712 162.655 112.658 156.384 112.658Z" fill="#4462AC"/>
<path d="M156.391 106.307C162.535 106.307 167.515 104.434 167.515 102.124C167.515 99.814 162.535 97.9414 156.391 97.9414C150.248 97.9414 145.268 99.814 145.268 102.124C145.268 104.434 150.248 106.307 156.391 106.307Z" fill="#D4E4F5"/>
<path d="M156.384 107.797C150.114 107.797 143.77 105.851 143.77 102.123C143.77 98.3951 150.114 96.4492 156.384 96.4492C162.655 96.4492 168.999 98.3951 168.999 102.123C168.999 105.851 162.655 107.797 156.384 107.797ZM156.384 99.4315C150.062 99.4315 146.752 101.43 146.752 102.123C146.752 102.816 150.062 104.814 156.384 104.814C162.707 104.814 166.017 102.816 166.017 102.123C166.017 101.43 162.707 99.4389 156.384 99.4389V99.4315Z" fill="#4462AC"/>
<path d="M142.278 67.3802H140.041V53.8258H144.954C145.359 53.8254 145.755 53.7085 146.096 53.4891C146.436 53.2697 146.706 52.957 146.873 52.5884C147.041 52.2197 147.098 51.8107 147.04 51.4101C146.981 51.0095 146.808 50.6343 146.542 50.3291L141.763 44.8642L143.448 43.373L148.227 48.838C148.778 49.4666 149.135 50.2403 149.257 51.0667C149.379 51.8931 149.26 52.7372 148.915 53.4978C148.569 54.2584 148.012 54.9034 147.31 55.3556C146.607 55.8078 145.79 56.0481 144.954 56.0476H142.255L142.278 67.3802Z" fill="#4462AC"/>
<path d="M147.608 82.6705H146.117V80.4338H147.608V82.6705ZM147.608 78.1971H146.117V75.9604H147.608V78.1971ZM147.608 73.7237H146.117V71.4871H147.608V73.7237ZM147.608 69.2504H146.117V67.0137H147.608V69.2504Z" fill="#4462AC"/>
<path d="M115.877 62.0648H113.641V56.063H110.956C110.121 56.0635 109.303 55.8232 108.601 55.371C107.899 54.9188 107.342 54.2738 106.996 53.5131C106.651 52.7525 106.532 51.9085 106.654 51.0821C106.776 50.2557 107.133 49.4819 107.683 48.8534L124.69 29.4091C125.097 28.9414 125.6 28.5663 126.165 28.3091C126.729 28.0519 127.342 27.9185 127.963 27.918C128.583 27.9181 129.196 28.0512 129.761 28.3085C130.326 28.5657 130.829 28.941 131.236 29.4091L139.377 38.6839L137.692 40.175L129.551 30.8704C129.355 30.6395 129.112 30.4534 128.838 30.3247C128.564 30.1961 128.265 30.1279 127.963 30.1248C127.66 30.1279 127.362 30.1961 127.088 30.3247C126.814 30.4534 126.57 30.6395 126.375 30.8704L109.368 50.3147C109.102 50.6198 108.93 50.9951 108.871 51.3957C108.812 51.7963 108.87 52.2053 109.038 52.5739C109.205 52.9426 109.475 53.2552 109.815 53.4747C110.155 53.6941 110.552 53.811 110.956 53.8114H115.877V62.0648Z" fill="#4462AC"/>
<path d="M127.405 36.049L119.055 45.4844L120.171 46.4726L128.522 37.0372L127.405 36.049Z" fill="#4462AC"/>
<path d="M127.413 41.4528L119.061 50.8867L120.177 51.8752L128.529 42.4412L127.413 41.4528Z" fill="#4462AC"/>
<path d="M127.401 46.7482L119.051 56.1836L120.167 57.1718L128.518 47.7364L127.401 46.7482Z" fill="#4462AC"/>
<path d="M127.419 52.1488L120.504 59.9375L121.619 60.9275L128.534 53.1388L127.419 52.1488Z" fill="#4462AC"/>
<path d="M127.406 57.4724L122.936 62.5859L124.058 63.5673L128.528 58.4538L127.406 57.4724Z" fill="#4462AC"/>
<path d="M127.41 62.8356L122.939 67.9492L124.062 68.9306L128.532 63.8171L127.41 62.8356Z" fill="#4462AC"/>
<path d="M127.413 68.1835L124.65 71.3438L125.773 72.3252L128.536 69.1649L127.413 68.1835Z" fill="#4462AC"/>
<path d="M160.031 84.2668H157.794V70.6826H161.276C161.395 70.6846 161.511 70.6508 161.61 70.5858C161.709 70.5207 161.786 70.4274 161.831 70.3179C161.876 70.2085 161.887 70.088 161.862 69.9722C161.838 69.8563 161.779 69.7506 161.694 69.6686L151.919 59.9763C151.688 59.7459 151.374 59.6166 151.047 59.6166C150.72 59.6166 150.407 59.7459 150.175 59.9763L140.4 69.6686C140.315 69.7506 140.256 69.8563 140.232 69.9722C140.207 70.088 140.219 70.2085 140.264 70.3179C140.309 70.4274 140.386 70.5207 140.485 70.5858C140.583 70.6508 140.7 70.6846 140.818 70.6826H144.3V80.0021H142.063V72.9193H140.818C140.258 72.9193 139.711 72.7531 139.246 72.4416C138.781 72.1302 138.419 71.6877 138.205 71.1701C137.992 70.6525 137.937 70.0833 138.048 69.5345C138.159 68.9858 138.43 68.4824 138.827 68.088L148.602 58.3957C149.254 57.7506 150.134 57.3887 151.051 57.3887C151.968 57.3887 152.848 57.7506 153.5 58.3957L163.274 68.088C163.672 68.4824 163.943 68.9858 164.054 69.5345C164.164 70.0833 164.11 70.6525 163.896 71.1701C163.683 71.6877 163.321 72.1302 162.856 72.4416C162.391 72.7531 161.843 72.9193 161.284 72.9193H160.039L160.031 84.2668Z" fill="#4462AC"/>
<path d="M149.883 45.2365H137.499C137.019 45.2369 136.549 45.0987 136.145 44.8386C135.741 44.5785 135.421 44.2074 135.223 43.7699C135.024 43.3324 134.957 42.8471 135.027 42.372C135.098 41.8968 135.304 41.4522 135.621 41.0912L142.219 33.5461C142.409 33.34 142.639 33.1756 142.896 33.0631C143.153 32.9506 143.43 32.8926 143.71 32.8926C143.99 32.8926 144.267 32.9506 144.524 33.0631C144.781 33.1756 145.011 33.34 145.201 33.5461L151.799 41.0912C152.116 41.4522 152.322 41.8968 152.393 42.372C152.463 42.8471 152.395 43.3324 152.197 43.7699C151.999 44.2074 151.679 44.5785 151.275 44.8386C150.871 45.0987 150.401 45.2369 149.921 45.2365H149.883ZM137.291 42.5674C137.258 42.605 137.237 42.6511 137.229 42.7004C137.222 42.7497 137.229 42.8001 137.249 42.8456C137.27 42.8911 137.303 42.9298 137.344 42.9571C137.386 42.9845 137.435 42.9993 137.485 42.9998H149.876C149.926 42.9993 149.974 42.9845 150.016 42.9571C150.058 42.9298 150.091 42.8911 150.111 42.8456C150.131 42.8001 150.138 42.7497 150.131 42.7004C150.124 42.6511 150.102 42.605 150.07 42.5674L143.673 35.2609L137.291 42.5674Z" fill="#4462AC"/>
<path d="M143.254 37.3772L139.742 41.457L140.872 42.4298L144.384 38.35L143.254 37.3772Z" fill="#4462AC"/>
<path d="M123.02 113.24C116.877 113.24 111.896 115.112 111.896 117.423V141.721C111.896 144.032 116.877 145.903 123.02 145.903C129.164 145.903 134.144 144.032 134.144 141.721V117.43C134.144 115.119 129.164 113.24 123.02 113.24Z" fill="#D4E4F5"/>
<path d="M123.021 147.402C116.751 147.402 110.406 145.456 110.406 141.728V136.867H113.389V141.728C113.389 142.422 116.699 144.42 123.021 144.42C129.344 144.42 132.654 142.422 132.654 141.728V136.867H135.636V141.728C135.636 145.456 129.299 147.402 123.021 147.402Z" fill="#4462AC"/>
<path d="M123.021 142.541C116.751 142.541 110.406 140.595 110.406 136.867V132.006H113.389V136.867C113.389 137.56 116.699 139.558 123.021 139.558C129.344 139.558 132.654 137.56 132.654 136.867V132.006H135.636V136.867C135.636 140.595 129.299 142.541 123.021 142.541Z" fill="#4462AC"/>
<path d="M123.021 137.679C116.751 137.679 110.406 135.733 110.406 132.006V127.145H113.389V132.006C113.389 132.699 116.699 134.697 123.021 134.697C129.344 134.697 132.654 132.699 132.654 132.006V127.145H135.636V132.006C135.636 135.733 129.299 137.679 123.021 137.679Z" fill="#4462AC"/>
<path d="M123.021 132.826C116.751 132.826 110.406 130.88 110.406 127.152V122.291H113.389V127.152C113.389 127.845 116.699 129.844 123.021 129.844C129.344 129.844 132.654 127.845 132.654 127.152V122.291H135.636V127.152C135.636 130.872 129.299 132.826 123.021 132.826Z" fill="#4462AC"/>
<path d="M123.021 127.964C116.751 127.964 110.406 126.019 110.406 122.291V117.43H113.389V122.291C113.389 122.984 116.699 124.982 123.021 124.982C129.344 124.982 132.654 122.984 132.654 122.291V117.43H135.636V122.291C135.636 126.011 129.299 127.964 123.021 127.964Z" fill="#4462AC"/>
<path d="M123.021 123.103C116.751 123.103 110.406 121.157 110.406 117.43C110.406 113.702 116.751 111.756 123.021 111.756C129.291 111.756 135.636 113.702 135.636 117.43C135.636 121.157 129.299 123.103 123.021 123.103ZM123.021 114.738C116.699 114.738 113.389 116.736 113.389 117.43C113.389 118.123 116.699 120.121 123.021 120.121C129.344 120.121 132.654 118.123 132.654 117.43C132.654 116.736 129.344 114.731 123.021 114.731V114.738Z" fill="#4462AC"/>
<path d="M139.468 122.686C133.324 122.686 128.344 124.557 128.344 126.868V146.305C128.344 148.616 133.324 150.488 139.468 150.488C145.611 150.488 150.591 148.616 150.591 146.305V126.868C150.591 124.557 145.611 122.686 139.468 122.686Z" fill="#D4E4F5"/>
<path d="M139.468 152.009C133.198 152.009 126.854 150.064 126.854 146.336V141.475H129.836V146.336C129.836 147.029 133.146 149.027 139.468 149.027C145.791 149.027 149.101 147.029 149.101 146.336V141.475H152.083V146.336C152.083 150.034 145.701 152.009 139.468 152.009Z" fill="#4462AC"/>
<path d="M139.468 147.117C133.198 147.117 126.854 145.171 126.854 141.443V136.582H129.836V141.443C129.836 142.136 133.146 144.135 139.468 144.135C145.791 144.135 149.101 142.136 149.101 141.443V136.582H152.083V141.443C152.083 145.171 145.701 147.117 139.468 147.117Z" fill="#4462AC"/>
<path d="M139.468 142.256C133.198 142.256 126.854 140.31 126.854 136.582V131.729H129.836V136.59C129.836 137.283 133.146 139.281 139.468 139.281C145.791 139.281 149.101 137.283 149.101 136.59V131.729H152.083V136.59C152.083 140.31 145.701 142.256 139.468 142.256Z" fill="#4462AC"/>
<path d="M139.468 137.396C133.198 137.396 126.854 135.45 126.854 131.722V126.861H129.836V131.722C129.836 132.416 133.146 134.414 139.468 134.414C145.791 134.414 149.101 132.416 149.101 131.722V126.861H152.083V131.722C152.083 135.45 145.701 137.396 139.468 137.396Z" fill="#4462AC"/>
<path d="M139.468 132.543C133.198 132.543 126.854 130.597 126.854 126.869C126.854 123.141 133.198 121.195 139.468 121.195C145.739 121.195 152.083 123.141 152.083 126.869C152.083 130.597 145.701 132.543 139.468 132.543ZM139.468 124.178C133.146 124.178 129.836 126.176 129.836 126.869C129.836 127.562 133.146 129.561 139.468 129.561C145.791 129.561 149.101 127.562 149.101 126.869C149.101 126.176 145.791 124.178 139.468 124.178Z" fill="#4462AC"/>
<path d="M117.169 130.947C111.025 130.947 106.045 132.819 106.045 135.13V149.713C106.045 152.024 111.025 153.896 117.169 153.896C123.312 153.896 128.293 152.024 128.293 149.713V135.13C128.293 132.819 123.335 130.947 117.169 130.947Z" fill="#D4E4F5"/>
<path d="M117.168 155.386C110.897 155.386 104.553 153.44 104.553 149.713V144.852H107.535V149.713C107.535 150.406 110.845 152.404 117.168 152.404C123.49 152.404 126.8 150.406 126.8 149.713V144.852H129.783V149.713C129.783 153.433 123.438 155.386 117.168 155.386Z" fill="#4462AC"/>
<path d="M117.168 150.517C110.897 150.517 104.553 148.571 104.553 144.844V139.982H107.535V144.844C107.535 145.537 110.845 147.535 117.168 147.535C123.49 147.535 126.8 145.537 126.8 144.844V139.982H129.783V144.844C129.783 148.571 123.438 150.517 117.168 150.517Z" fill="#4462AC"/>
<path d="M117.168 145.664C110.897 145.664 104.553 143.718 104.553 139.99V135.129H107.535V139.99C107.535 140.683 110.845 142.681 117.168 142.681C123.49 142.681 126.8 140.683 126.8 139.99V135.129H129.783V139.99C129.783 143.71 123.438 145.664 117.168 145.664Z" fill="#4462AC"/>
<path d="M117.168 140.826C110.897 140.826 104.553 138.88 104.553 135.152C104.553 131.424 110.897 129.479 117.168 129.479C123.438 129.479 129.783 131.424 129.783 135.152C129.783 138.88 123.438 140.826 117.168 140.826ZM117.168 132.461C110.845 132.461 107.535 134.459 107.535 135.152C107.535 135.846 110.845 137.844 117.168 137.844C123.49 137.844 126.8 135.846 126.8 135.152C126.8 134.459 123.49 132.438 117.168 132.438V132.461Z" fill="#4462AC"/>
<path d="M54.6746 75.1641H41.1426V78.4296H54.6746V75.1641Z" fill="#4462AC"/>
<path d="M49.5449 70.0273H46.2793V83.5593H49.5449V70.0273Z" fill="#4462AC"/>
<path d="M60.3791 64.6289H48.3457V67.4248H60.3791V64.6289Z" fill="#4462AC"/>
<path d="M55.7627 60.0137H52.9668V72.0471H55.7627V60.0137Z" fill="#4462AC"/>
<path d="M66.5138 72.9941H57.7832V75.79H66.5138V72.9941Z" fill="#4462AC"/>
<path d="M63.5478 70.0273H60.752V78.7579H63.5478V70.0273Z" fill="#4462AC"/>
<path d="M60.4974 81.3359H54.0781V83.1998H60.4974V81.3359Z" fill="#4462AC"/>
<path d="M58.2155 79.0547H56.3516V85.474H58.2155V79.0547Z" fill="#4462AC"/>
<path d="M48.0546 60.7285H41.0762V62.5924H48.0546V60.7285Z" fill="#4462AC"/>
<path d="M45.4967 58.1719H43.6328V65.1503H45.4967V58.1719Z" fill="#4462AC"/>
<path d="M102.623 38.7273C102.475 38.7281 102.33 38.6849 102.206 38.603C102.083 38.5211 101.987 38.4044 101.93 38.2676C101.873 38.1308 101.858 37.9802 101.888 37.835C101.917 37.6899 101.988 37.5566 102.094 37.4523L103.652 35.8941C103.794 35.772 103.978 35.7082 104.166 35.7154C104.353 35.7226 104.531 35.8004 104.664 35.9332C104.797 36.066 104.875 36.244 104.882 36.4316C104.889 36.6193 104.825 36.8027 104.703 36.9454L103.145 38.5036C103.007 38.6441 102.82 38.7245 102.623 38.7273Z" fill="#4462AC"/>
<path d="M98.9081 42.4102C98.76 42.411 98.615 42.3678 98.4916 42.2859C98.3682 42.204 98.272 42.0873 98.2152 41.9505C98.1584 41.8137 98.1436 41.6631 98.1728 41.518C98.2019 41.3728 98.2736 41.2395 98.3787 41.1352L99.937 39.577C100.004 39.499 100.086 39.4356 100.179 39.3908C100.271 39.3461 100.372 39.3209 100.474 39.317C100.577 39.313 100.68 39.3303 100.775 39.3678C100.871 39.4053 100.958 39.4621 101.03 39.5348C101.103 39.6074 101.16 39.6943 101.197 39.79C101.235 39.8857 101.252 39.9881 101.248 40.0907C101.244 40.1934 101.219 40.2942 101.174 40.3867C101.13 40.4792 101.066 40.5614 100.988 40.6282L99.43 42.1865C99.2923 42.327 99.1047 42.4074 98.9081 42.4102Z" fill="#4462AC"/>
<path d="M104.18 42.4105C104.082 42.4111 103.985 42.3923 103.894 42.3552C103.803 42.3181 103.721 42.2634 103.651 42.1943L102.093 40.6361C102.015 40.5692 101.951 40.487 101.906 40.3945C101.862 40.302 101.837 40.2012 101.833 40.0986C101.829 39.9959 101.846 39.8935 101.883 39.7978C101.921 39.7021 101.978 39.6152 102.05 39.5426C102.123 39.4699 102.21 39.4131 102.306 39.3756C102.401 39.3381 102.504 39.3208 102.606 39.3248C102.709 39.3287 102.81 39.3539 102.902 39.3986C102.995 39.4434 103.077 39.5068 103.144 39.5848L104.702 41.143C104.807 41.2473 104.879 41.3806 104.908 41.5258C104.937 41.671 104.922 41.8215 104.866 41.9583C104.809 42.0951 104.713 42.2118 104.589 42.2937C104.466 42.3756 104.321 42.4188 104.173 42.418L104.18 42.4105Z" fill="#4462AC"/>
<path d="M100.468 38.7276C100.37 38.7282 100.273 38.7094 100.182 38.6723C100.091 38.6352 100.008 38.5805 99.9387 38.5114L98.3805 36.9532C98.2583 36.8105 98.1945 36.6271 98.2017 36.4394C98.209 36.2518 98.2868 36.0738 98.4195 35.941C98.5523 35.8082 98.7303 35.7305 98.918 35.7232C99.1056 35.716 99.2891 35.7798 99.4317 35.9019L100.99 37.4601C101.095 37.5644 101.167 37.6977 101.196 37.8429C101.225 37.9881 101.21 38.1386 101.153 38.2754C101.097 38.4122 101 38.5289 100.877 38.6108C100.754 38.6927 100.609 38.7359 100.461 38.7351L100.468 38.7276Z" fill="#4462AC"/>
<path d="M111.538 169.947C105.171 169.947 97.0447 166.354 94.5098 156.124C94.4819 156.028 94.4738 155.927 94.4859 155.827C94.498 155.728 94.5301 155.632 94.5803 155.545C94.6305 155.458 94.6977 155.382 94.7778 155.322C94.858 155.261 94.9496 155.218 95.047 155.194C95.1444 155.17 95.2456 155.165 95.3447 155.181C95.4437 155.197 95.5386 155.233 95.6235 155.287C95.7084 155.34 95.7816 155.41 95.8388 155.493C95.8959 155.575 95.9359 155.668 95.9562 155.767C98.3345 165.354 106.036 168.613 111.911 168.441C115.318 168.359 118.256 167.248 120.068 165.518C119.463 165.138 118.928 164.656 118.487 164.094C116.66 161.716 117.533 160.121 117.995 159.547C118.446 159.006 119.062 158.627 119.748 158.467C120.434 158.307 121.153 158.374 121.797 158.659C123.132 159.278 123.713 160.769 123.348 162.633C123.18 163.47 122.859 164.269 122.401 164.989C124.845 165.793 127.491 165.73 129.893 164.81C132.296 163.891 134.308 162.172 135.59 159.942C135.639 159.856 135.705 159.781 135.783 159.72C135.861 159.66 135.95 159.616 136.045 159.59C136.14 159.564 136.24 159.557 136.337 159.569C136.435 159.582 136.53 159.613 136.615 159.662C136.701 159.711 136.776 159.776 136.837 159.854C136.897 159.932 136.942 160.022 136.968 160.117C136.994 160.212 137 160.311 136.988 160.409C136.976 160.507 136.944 160.602 136.895 160.687C135.891 162.507 134.441 164.043 132.683 165.151C130.924 166.26 128.913 166.904 126.837 167.025C125.005 167.192 123.158 166.936 121.44 166.279C119.382 168.471 115.937 169.88 111.941 170.007L111.538 169.947ZM120.485 159.882C120.229 159.879 119.976 159.932 119.743 160.038C119.51 160.144 119.302 160.299 119.136 160.493C118.621 161.135 118.8 162.096 119.643 163.2C120.022 163.675 120.487 164.075 121.015 164.378C121.427 163.767 121.713 163.08 121.857 162.357C122.088 161.172 121.857 160.344 121.111 160.024C120.922 159.937 120.716 159.889 120.508 159.882H120.485Z" fill="#4462AC"/>
<path d="M97.2843 157.362L95.2937 156.169L94.0933 158.16L93.7578 156.803L94.9582 154.812L96.9488 156.013L97.2843 157.362Z" fill="#4462AC"/>
</g>
<defs>
<clipPath id="clip0_549_3996">
<rect width="142" height="142.947" fill="white" transform="translate(27 27)"/>
</clipPath>
</defs>
</svg>
