<svg width="196" height="196" viewBox="0 0 196 196" fill="none" xmlns="http://www.w3.org/2000/svg">
<path d="M97.8568 195.714C151.902 195.714 195.714 151.902 195.714 97.8568C195.714 43.812 151.902 0 97.8568 0C43.812 0 0 43.812 0 97.8568C0 151.902 43.812 195.714 97.8568 195.714Z" fill="#E9C3CE"/>
<path d="M158.953 126.622C157.578 126.621 156.222 126.303 154.991 125.693C153.759 125.083 152.684 124.197 151.851 123.104C151.017 122.011 150.446 120.741 150.183 119.392C149.92 118.043 149.971 116.651 150.333 115.325C150.695 113.999 151.358 112.774 152.27 111.746C153.183 110.718 154.32 109.914 155.593 109.396C156.867 108.879 158.242 108.662 159.613 108.762C160.984 108.863 162.313 109.278 163.498 109.976C163.758 110.136 163.945 110.393 164.018 110.69C164.092 110.987 164.045 111.301 163.889 111.565C163.733 111.828 163.48 112.019 163.184 112.098C162.888 112.176 162.573 112.135 162.307 111.983C161.076 111.255 159.642 110.946 158.22 111.102C156.798 111.258 155.465 111.87 154.421 112.847C153.377 113.825 152.677 115.114 152.427 116.522C152.177 117.931 152.391 119.382 153.036 120.659C153.68 121.936 154.721 122.969 156.003 123.604C157.284 124.239 158.737 124.442 160.144 124.182C161.55 123.922 162.834 123.213 163.804 122.161C164.773 121.11 165.376 119.772 165.521 118.349C165.552 118.04 165.705 117.755 165.946 117.558C166.186 117.361 166.496 117.268 166.805 117.299C167.115 117.33 167.399 117.482 167.596 117.723C167.793 117.964 167.887 118.273 167.856 118.583C167.639 120.79 166.606 122.838 164.96 124.325C163.313 125.811 161.171 126.63 158.953 126.622Z" fill="#4462AC"/>
<path d="M159.171 121.743C159.018 121.743 158.866 121.713 158.725 121.654C158.583 121.595 158.454 121.509 158.346 121.4L154.3 117.354C154.093 117.132 153.981 116.84 153.987 116.537C153.992 116.235 154.114 115.946 154.328 115.732C154.542 115.518 154.831 115.396 155.133 115.391C155.435 115.385 155.728 115.498 155.949 115.704L159.171 118.926L166.953 111.143C167.175 110.937 167.467 110.825 167.77 110.83C168.072 110.836 168.361 110.958 168.575 111.172C168.789 111.386 168.911 111.674 168.916 111.977C168.922 112.279 168.809 112.572 168.603 112.793L160.043 121.354C159.933 121.476 159.799 121.574 159.649 121.641C159.498 121.708 159.336 121.743 159.171 121.743Z" fill="#4462AC"/>
<path d="M168.347 68.9854C168.038 68.9854 167.741 68.8624 167.522 68.6435C167.303 68.4246 167.18 68.1277 167.18 67.8181C167.178 66.023 166.464 64.3021 165.195 63.0329C163.925 61.7636 162.205 61.0496 160.41 61.0475C160.1 61.0475 159.803 60.9246 159.584 60.7057C159.365 60.4867 159.242 60.1898 159.242 59.8802C159.242 59.5706 159.365 59.2737 159.584 59.0548C159.803 58.8359 160.1 58.7129 160.41 58.7129C162.824 58.715 165.138 59.6749 166.846 61.382C168.553 63.0891 169.513 65.4039 169.515 67.8181C169.515 68.1277 169.392 68.4246 169.173 68.6435C168.954 68.8624 168.657 68.9854 168.347 68.9854Z" fill="#4462AC"/>
<path d="M168.346 68.9878C168.057 68.984 167.78 68.873 167.568 68.6765L164.455 65.8283C164.266 65.613 164.162 65.3356 164.164 65.049C164.166 64.7623 164.274 64.4864 164.466 64.2739C164.658 64.0614 164.922 63.9271 165.207 63.8965C165.492 63.866 165.778 63.9414 166.011 64.1084L167.902 65.8438L168.93 63.5092C169.054 63.2254 169.285 63.0024 169.573 62.8893C169.862 62.7762 170.183 62.7822 170.467 62.906C170.75 63.0299 170.973 63.2614 171.087 63.5496C171.2 63.8378 171.194 64.1592 171.07 64.443L169.389 68.3341C169.315 68.5044 169.202 68.6547 169.058 68.7724C168.915 68.8902 168.745 68.972 168.564 69.0111C168.491 69.0101 168.418 69.0023 168.346 68.9878Z" fill="#4462AC"/>
<path d="M160.394 76.9235C158.868 76.9241 157.366 76.5386 156.028 75.8028C155.757 75.6532 155.556 75.4019 155.47 75.1041C155.384 74.8064 155.419 74.4866 155.569 74.2152C155.719 73.9438 155.97 73.743 156.268 73.6569C156.565 73.5708 156.885 73.6065 157.157 73.7561C158.73 74.618 160.581 74.8209 162.304 74.3206C164.026 73.8202 165.481 72.6574 166.347 71.0868C166.497 70.8154 166.748 70.6145 167.046 70.5284C167.344 70.4423 167.664 70.478 167.935 70.6277C168.206 70.7773 168.407 71.0286 168.493 71.3264C168.579 71.6241 168.544 71.9438 168.394 72.2153C167.605 73.6448 166.446 74.8361 165.039 75.6643C163.631 76.4926 162.027 76.9275 160.394 76.9235Z" fill="#4462AC"/>
<path d="M159.156 79.2758C158.978 79.2764 158.801 79.236 158.641 79.1578C158.48 79.0795 158.34 78.9655 158.23 78.8244L155.662 75.4936C155.548 75.3463 155.471 75.1738 155.437 74.9906C155.404 74.8074 155.414 74.6188 155.468 74.4405C155.522 74.2623 155.618 74.0996 155.748 73.966C155.878 73.8324 156.038 73.7318 156.214 73.6726L160.199 72.3263C160.492 72.2231 160.814 72.2405 161.094 72.3748C161.375 72.5091 161.59 72.7492 161.693 73.0423C161.796 73.3353 161.779 73.6574 161.645 73.9376C161.51 74.2178 161.27 74.4332 160.977 74.5364L158.541 75.3613L160.098 77.4003C160.232 77.5731 160.315 77.7801 160.337 77.9978C160.359 78.2155 160.32 78.435 160.223 78.6313C160.127 78.8277 159.977 78.993 159.791 79.1083C159.605 79.2236 159.39 79.2843 159.172 79.2835L159.156 79.2758Z" fill="#4462AC"/>
<path d="M153.514 72.9156C153.308 72.9149 153.106 72.8599 152.928 72.756C152.75 72.6522 152.603 72.5031 152.502 72.3241C151.905 71.284 151.519 70.1361 151.367 68.9464C151.214 67.7567 151.299 66.5486 151.615 65.3916C151.931 64.2346 152.472 63.1514 153.208 62.2043C153.944 61.2572 154.86 60.4648 155.903 59.8726C156.036 59.797 156.183 59.7484 156.335 59.7295C156.487 59.7107 156.642 59.7221 156.789 59.7629C156.937 59.8037 157.076 59.8732 157.196 59.9675C157.317 60.0618 157.419 60.1789 157.494 60.3123C157.57 60.4457 157.618 60.5926 157.637 60.7448C157.656 60.8969 157.645 61.0513 157.604 61.1991C157.563 61.3469 157.494 61.4852 157.399 61.6061C157.305 61.727 157.188 61.8282 157.054 61.9038C155.496 62.793 154.354 64.2646 153.88 65.9952C153.405 67.7258 153.638 69.5739 154.525 71.1335C154.626 71.3108 154.678 71.5113 154.677 71.7151C154.676 71.919 154.622 72.119 154.519 72.2953C154.417 72.4716 154.27 72.618 154.094 72.72C153.917 72.822 153.717 72.876 153.514 72.8767V72.9156Z" fill="#4462AC"/>
<path d="M155.538 66.1922C155.45 66.2024 155.362 66.2024 155.274 66.1922C155.124 66.1582 154.982 66.095 154.857 66.0062C154.731 65.9173 154.625 65.8046 154.543 65.6744C154.461 65.5443 154.406 65.3993 154.381 65.2478C154.355 65.0963 154.36 64.9412 154.394 64.7914L155.001 62.2233L152.441 62.4957C152.131 62.5287 151.821 62.4374 151.579 62.2418C151.337 62.0463 151.182 61.7625 151.149 61.4529C151.116 61.1433 151.208 60.8332 151.403 60.591C151.599 60.3487 151.882 60.194 152.192 60.161L156.379 59.7097C156.564 59.69 156.751 59.7148 156.925 59.7822C157.098 59.8495 157.253 59.9573 157.376 60.0967C157.5 60.2361 157.588 60.4029 157.634 60.5833C157.68 60.7637 157.682 60.9525 157.64 61.1338L156.698 65.235C156.648 65.5056 156.505 65.75 156.293 65.9252C156.081 66.1003 155.813 66.1949 155.538 66.1922Z" fill="#4462AC"/>
<path d="M133.638 102.754H146.58C147.099 102.755 147.607 102.598 148.035 102.305C148.464 102.013 148.794 101.597 148.983 101.113C149.171 100.629 149.209 100.1 149.092 99.5942C148.974 99.0885 148.706 98.6302 148.323 98.2794L106.852 60.2945C105.84 59.3664 104.517 58.8516 103.144 58.8516C101.771 58.8516 100.447 59.3664 99.4355 60.2945L57.9564 98.2794C57.5737 98.6302 57.3059 99.0885 57.1882 99.5942C57.0705 100.1 57.1083 100.629 57.2968 101.113C57.4853 101.597 57.8156 102.013 58.2443 102.305C58.6731 102.598 59.1804 102.755 59.6996 102.754H72.6414V130.832C72.6414 132.213 73.1899 133.537 74.1663 134.514C75.1427 135.49 76.4669 136.039 77.8477 136.039H128.432C129.813 136.039 131.137 135.49 132.113 134.514C133.09 133.537 133.638 132.213 133.638 130.832V102.754Z" fill="#7393CB"/>
<path d="M133.295 66.0918H121.66V73.8584L133.295 84.5123V66.0918Z" fill="#7393CB"/>
<path d="M100.523 122.364V117.477C96.8269 117.36 93.1304 116.302 91.0137 114.956L92.5701 109.384C95.3358 111.045 98.4955 111.938 101.722 111.967C105.481 111.967 108.002 110.146 108.002 107.391C108.002 104.637 105.948 103.049 101.543 101.461C95.4417 99.2279 91.4261 96.3563 91.4261 90.9554C91.4261 85.9126 94.9437 81.9748 100.874 80.9242V76.0059H105.683V80.6285C108.486 80.6682 111.244 81.3385 113.753 82.5896L112.197 87.9904C109.751 86.6444 107.004 85.9377 104.212 85.9359C100.103 85.9359 98.6402 88.0527 98.6402 90.0449C98.6402 92.4496 100.749 93.8582 105.8 95.796C112.376 98.2629 115.247 101.43 115.247 106.691C115.247 111.679 111.784 116.03 105.387 117.08V122.349L100.523 122.364Z" fill="#7393CB"/>
<path d="M128.425 138.381H77.8407C75.8407 138.379 73.923 137.584 72.508 136.171C71.093 134.757 70.2962 132.84 70.292 130.84V105.089H59.6927C58.6969 105.095 57.7228 104.798 56.8996 104.238C56.0764 103.678 55.4429 102.88 55.0833 101.952C54.7237 101.023 54.6549 100.007 54.8861 99.0387C55.1172 98.0701 55.6373 97.1946 56.3775 96.5285L97.8488 58.5436C99.2869 57.2134 101.174 56.4746 103.133 56.4746C105.092 56.4746 106.979 57.2134 108.417 58.5436L149.888 96.5285C150.628 97.1946 151.149 98.0701 151.38 99.0387C151.611 100.007 151.542 101.023 151.182 101.952C150.823 102.88 150.189 103.678 149.366 104.238C148.543 104.798 147.569 105.095 146.573 105.089H135.974V130.832C135.972 132.834 135.176 134.753 133.76 136.168C132.345 137.583 130.426 138.379 128.425 138.381ZM103.141 61.1817C102.35 61.1784 101.588 61.4761 101.008 62.0144L59.537 99.9993C59.5008 100.032 59.4753 100.075 59.464 100.123C59.4528 100.17 59.4562 100.22 59.4739 100.266C59.4916 100.311 59.5228 100.35 59.5633 100.378C59.6037 100.405 59.6515 100.42 59.7004 100.42H74.9769V130.832C74.979 131.595 75.2833 132.325 75.823 132.863C76.3628 133.402 77.094 133.704 77.8563 133.704H128.441C129.202 133.702 129.931 133.399 130.469 132.861C131.007 132.323 131.31 131.593 131.312 130.832V100.42H146.589C146.638 100.42 146.685 100.405 146.726 100.378C146.766 100.35 146.797 100.311 146.815 100.266C146.833 100.22 146.836 100.17 146.825 100.123C146.814 100.075 146.788 100.032 146.752 99.9993L105.273 62.0144C104.694 61.4761 103.931 61.1784 103.141 61.1817Z" fill="#4462AC"/>
<path d="M135.63 89.8185L119.326 74.8845V63.7793H135.63V89.8185ZM123.995 72.83L130.961 79.2114V68.4486H123.995V72.83Z" fill="#4462AC"/>
<path d="M100.523 122.364V117.477C96.8269 117.36 93.1304 116.302 91.0137 114.956L92.5701 109.384C95.3358 111.045 98.4955 111.938 101.722 111.967C105.481 111.967 108.002 110.146 108.002 107.391C108.002 104.637 105.948 103.049 101.543 101.461C95.4417 99.2279 91.4261 96.3563 91.4261 90.9554C91.4261 85.9126 94.9437 81.9748 100.874 80.9242V76.0059H105.683V80.6285C108.486 80.6682 111.244 81.3385 113.753 82.5896L112.197 87.9904C109.751 86.6444 107.004 85.9377 104.212 85.9359C100.103 85.9359 98.6402 88.0527 98.6402 90.0449C98.6402 92.4496 100.749 93.8582 105.8 95.796C112.376 98.2629 115.247 101.43 115.247 106.691C115.247 111.679 111.784 116.03 105.387 117.08V122.349L100.523 122.364Z" fill="#4462AC"/>
<path d="M126.944 171.377H73.0603C72.6476 171.377 72.2516 171.213 71.9598 170.921C71.6679 170.629 71.5039 170.233 71.5039 169.82C71.5039 169.407 71.6679 169.011 71.9598 168.72C72.2516 168.428 72.6476 168.264 73.0603 168.264H126.944C127.357 168.264 127.753 168.428 128.045 168.72C128.337 169.011 128.501 169.407 128.501 169.82C128.501 170.233 128.337 170.629 128.045 170.921C127.753 171.213 127.357 171.377 126.944 171.377Z" fill="#4462AC"/>
<path d="M133.123 162.83H101.123C100.71 162.83 100.314 162.666 100.022 162.374C99.7304 162.082 99.5664 161.686 99.5664 161.273C99.5664 160.86 99.7304 160.465 100.022 160.173C100.314 159.881 100.71 159.717 101.123 159.717H133.123C133.536 159.717 133.932 159.881 134.224 160.173C134.516 160.465 134.68 160.86 134.68 161.273C134.68 161.686 134.516 162.082 134.224 162.374C133.932 162.666 133.536 162.83 133.123 162.83Z" fill="#4462AC"/>
<path d="M131.477 33.4312H122.06C121.648 33.4312 121.252 33.2672 120.96 32.9753C120.668 32.6835 120.504 32.2876 120.504 31.8748C120.504 31.462 120.668 31.0661 120.96 30.7743C121.252 30.4824 121.648 30.3184 122.06 30.3184H131.477C131.89 30.3184 132.285 30.4824 132.577 30.7743C132.869 31.0661 133.033 31.462 133.033 31.8748C133.033 32.2876 132.869 32.6835 132.577 32.9753C132.285 33.2672 131.89 33.4312 131.477 33.4312Z" fill="#4462AC"/>
<path d="M143.037 33.4312H138.547C138.134 33.4312 137.738 33.2672 137.446 32.9753C137.154 32.6835 136.99 32.2876 136.99 31.8748C136.99 31.462 137.154 31.0661 137.446 30.7743C137.738 30.4824 138.134 30.3184 138.547 30.3184H143.037C143.45 30.3184 143.846 30.4824 144.138 30.7743C144.429 31.0661 144.593 31.462 144.593 31.8748C144.593 32.2876 144.429 32.6835 144.138 32.9753C143.846 33.2672 143.45 33.4312 143.037 33.4312Z" fill="#4462AC"/>
<path d="M51.9402 133.944C52.2125 132.966 52.2691 131.941 52.1059 130.939C51.9428 129.937 51.5639 128.983 50.9954 128.142C50.427 127.301 49.6825 126.594 48.8137 126.069C47.9448 125.545 46.9723 125.215 45.9635 125.104C44.8124 124.97 43.6462 125.122 42.568 125.547C41.4898 125.972 40.5328 126.656 39.7818 127.538C39.0309 128.421 38.509 129.475 38.2624 130.607C38.0158 131.739 38.0521 132.915 38.3681 134.03C38.7875 135.438 38.8758 136.925 38.6261 138.373C38.3763 139.822 37.7953 141.193 36.9284 142.38C35.557 144.224 34.8543 146.48 34.9361 148.777C35.0732 151.421 36.2311 153.908 38.1657 155.715C40.1004 157.522 42.6609 158.508 45.3078 158.464C47.9548 158.421 50.4816 157.352 52.3561 155.483C54.2305 153.613 55.3062 151.089 55.3566 148.442C55.364 146.189 54.619 143.998 53.2398 142.217C52.3987 141.032 51.8436 139.668 51.6181 138.233C51.3926 136.798 51.5028 135.33 51.9402 133.944Z" fill="#D4E4F5"/>
<path d="M64.9759 149.735C64.4015 148.925 64.0224 147.994 63.8685 147.014C63.7146 146.034 63.79 145.031 64.0888 144.085C64.2703 143.417 64.3058 142.719 64.1928 142.036C64.0798 141.354 63.8209 140.704 63.4338 140.131C63.0468 139.557 62.5406 139.074 61.9499 138.715C61.3592 138.355 60.6978 138.127 60.0109 138.046C59.2466 137.954 58.4715 138.048 57.751 138.319C57.0304 138.59 56.3856 139.03 55.8708 139.602L53.3727 142.38C54.8398 144.364 55.5372 146.813 55.3354 149.271C55.1336 151.73 54.0463 154.032 52.2754 155.75L54.3065 158.653C55.5198 159.963 57.1898 160.757 58.9717 160.871C60.7536 160.985 62.5112 160.41 63.8816 159.266C65.2519 158.121 66.1303 156.494 66.3354 154.72C66.5406 152.946 66.0567 151.162 64.9837 149.735H64.9759Z" fill="#D4E4F5"/>
<path d="M45.1479 160.006H44.6887C41.7699 159.878 39.0067 158.654 36.9509 156.578C34.8952 154.502 33.6982 151.727 33.5991 148.807C33.5062 146.202 34.3051 143.643 35.8637 141.554C36.6061 140.536 37.1027 139.36 37.3147 138.118C37.5267 136.876 37.4482 135.601 37.0855 134.394C36.7305 133.148 36.6685 131.837 36.9044 130.562C37.1403 129.288 37.6676 128.086 38.4452 127.049C39.2227 126.012 40.2295 125.17 41.3868 124.587C42.544 124.003 43.8204 123.696 45.1163 123.688C46.4121 123.68 47.6923 123.971 48.8568 124.54C50.0212 125.108 51.0384 125.939 51.8289 126.966C52.6194 127.992 53.1616 129.188 53.4134 130.459C53.6652 131.731 53.6196 133.043 53.2802 134.293C52.8991 135.476 52.7971 136.731 52.9821 137.959C53.167 139.188 53.634 140.357 54.3464 141.375C55.6623 143.088 56.4727 145.134 56.6858 147.284C56.899 149.433 56.5065 151.599 55.5526 153.537C54.5987 155.474 53.1215 157.107 51.2883 158.248C49.455 159.39 47.3388 159.996 45.179 159.998L45.1479 160.006ZM45.1479 126.41C43.7548 126.405 42.4096 126.918 41.3735 127.85C40.5776 128.561 39.9978 129.482 39.7006 130.507C39.4033 131.532 39.4006 132.621 39.6925 133.647C40.1633 135.255 40.2572 136.949 39.967 138.598C39.6768 140.247 39.0103 141.807 38.0194 143.157C36.8296 144.754 36.2202 146.708 36.2917 148.698C36.393 150.925 37.319 153.035 38.8897 154.617C40.4604 156.2 42.5635 157.141 44.7899 157.259C46.4708 157.326 48.1361 156.913 49.5905 156.067C51.045 155.222 52.2283 153.98 53.0018 152.486C53.7753 150.992 54.1069 149.308 53.9577 147.633C53.8085 145.957 53.1848 144.359 52.1596 143.025C51.1853 141.677 50.5375 140.122 50.2674 138.481C49.9973 136.84 50.1122 135.158 50.6031 133.57C50.8181 132.782 50.8606 131.957 50.7278 131.151C50.595 130.345 50.2899 129.577 49.8334 128.9C49.377 128.222 48.7798 127.651 48.0827 127.226C47.3855 126.8 46.6048 126.53 45.7938 126.433C45.5763 126.416 45.3581 126.411 45.1401 126.418L45.1479 126.41Z" fill="#4462AC"/>
<path d="M45.1392 167.284C44.778 167.284 44.4316 167.14 44.1762 166.885C43.9208 166.63 43.7773 166.283 43.7773 165.922V135.711C43.7773 135.35 43.9208 135.004 44.1762 134.749C44.4316 134.493 44.778 134.35 45.1392 134.35C45.5004 134.35 45.8468 134.493 46.1022 134.749C46.3576 135.004 46.5011 135.35 46.5011 135.711V165.93C46.4991 166.29 46.3546 166.634 46.0995 166.888C45.8443 167.141 45.4991 167.284 45.1392 167.284Z" fill="#4462AC"/>
<path d="M45.1394 153.976C44.8679 153.978 44.6018 153.899 44.3754 153.749C44.149 153.599 43.9726 153.385 43.8689 153.134C43.7652 152.883 43.7388 152.607 43.7933 152.341C43.8477 152.075 43.9805 151.831 44.1745 151.641L49.2251 146.59C49.4849 146.361 49.8223 146.24 50.1685 146.251C50.5147 146.262 50.8438 146.404 51.0888 146.649C51.3337 146.894 51.4761 147.223 51.487 147.569C51.4979 147.915 51.3764 148.253 51.1473 148.513L46.0966 153.563C45.9722 153.692 45.8236 153.794 45.6593 153.865C45.495 153.936 45.3183 153.974 45.1394 153.976Z" fill="#4462AC"/>
<path d="M45.1391 147.984C44.96 147.984 44.7825 147.95 44.6168 147.882C44.4512 147.814 44.3008 147.713 44.1741 147.587L40.6021 144.03C40.373 143.77 40.2515 143.433 40.2624 143.087C40.2733 142.74 40.4157 142.411 40.6606 142.166C40.9056 141.921 41.2346 141.779 41.5809 141.768C41.9271 141.757 42.2645 141.879 42.5243 142.108L46.0807 145.664C46.2747 145.854 46.4075 146.098 46.4619 146.364C46.5164 146.63 46.49 146.906 46.3863 147.157C46.2826 147.408 46.1062 147.623 45.8798 147.773C45.6534 147.923 45.3873 148.001 45.1158 147.999L45.1391 147.984Z" fill="#4462AC"/>
<path d="M59.4488 162.319H59.1142C58.01 162.269 56.9265 162.001 55.9261 161.531C54.9258 161.061 54.0283 160.398 53.2853 159.579C53.1647 159.447 53.0714 159.292 53.0106 159.124C52.9499 158.955 52.9228 158.777 52.9312 158.598C52.9395 158.419 52.9829 158.243 53.0591 158.081C53.1352 157.919 53.2424 157.774 53.3748 157.653C53.5071 157.533 53.662 157.439 53.8304 157.379C53.9988 157.318 54.1775 157.291 54.3564 157.299C54.5353 157.307 54.7107 157.351 54.8728 157.427C55.0348 157.503 55.1803 157.61 55.3009 157.743C55.8018 158.301 56.4101 158.753 57.0895 159.071C57.769 159.389 58.5056 159.567 59.2553 159.594C60.0051 159.621 60.7525 159.496 61.453 159.228C62.1534 158.959 62.7926 158.552 63.3321 158.031C64.3275 157.074 64.935 155.783 65.0383 154.406C65.1417 153.029 64.7337 151.663 63.8924 150.568C63.191 149.592 62.7248 148.468 62.5304 147.283C62.3359 146.097 62.4186 144.883 62.7718 143.735C62.891 143.286 62.9201 142.818 62.8574 142.357C62.7677 141.705 62.4933 141.093 62.0667 140.592C61.64 140.091 61.0789 139.723 60.4496 139.53C59.8204 139.338 59.1492 139.33 58.5154 139.507C57.8816 139.684 57.3117 140.038 56.8729 140.529C56.7553 140.669 56.6108 140.783 56.448 140.866C56.2851 140.949 56.1072 140.999 55.9249 141.011C55.7425 141.024 55.5595 141 55.3867 140.94C55.2139 140.881 55.0548 140.787 54.9189 140.665C54.7831 140.543 54.6732 140.394 54.5959 140.229C54.5186 140.063 54.4755 139.884 54.469 139.701C54.4625 139.518 54.4928 139.336 54.5582 139.166C54.6236 138.995 54.7227 138.839 54.8495 138.708C55.7778 137.675 57.027 136.986 58.3954 136.751C59.7638 136.516 61.1714 136.75 62.3906 137.414C63.6099 138.078 64.5696 139.134 65.1146 140.411C65.6597 141.688 65.7583 143.111 65.3944 144.451C65.1525 145.194 65.0856 145.983 65.199 146.757C65.3124 147.53 65.603 148.267 66.0481 148.91C66.9972 150.144 67.5818 151.619 67.7357 153.168C67.8896 154.716 67.6067 156.278 66.919 157.674C66.2313 159.07 65.1664 160.246 63.8448 161.069C62.5231 161.891 60.9976 162.327 59.441 162.326L59.4488 162.319Z" fill="#4462AC"/>
<path d="M59.442 167.283C59.0808 167.283 58.7343 167.139 58.4789 166.884C58.2235 166.628 58.0801 166.282 58.0801 165.921V148.94C58.0801 148.579 58.2235 148.232 58.4789 147.977C58.7343 147.722 59.0808 147.578 59.442 147.578C59.8032 147.578 60.1495 147.722 60.405 147.977C60.6604 148.232 60.8038 148.579 60.8038 148.94V165.929C60.8018 166.288 60.6574 166.633 60.4022 166.887C60.147 167.14 59.8018 167.283 59.442 167.283Z" fill="#4462AC"/>
<path d="M59.4422 158.201C59.1706 158.204 58.9046 158.125 58.6782 157.975C58.4518 157.825 58.2754 157.611 58.1716 157.36C58.0679 157.109 58.0416 156.833 58.096 156.567C58.1505 156.3 58.2832 156.057 58.4771 155.867L60.7262 153.618C60.986 153.389 61.3234 153.267 61.6696 153.278C62.0159 153.289 62.345 153.431 62.5899 153.676C62.8349 153.921 62.9773 154.25 62.9881 154.596C62.999 154.943 62.8775 155.28 62.6484 155.54L60.3994 157.789C60.275 157.918 60.1263 158.02 59.962 158.091C59.7978 158.162 59.6211 158.199 59.4422 158.201Z" fill="#4462AC"/>
<path d="M140.024 49.1424L137.344 51.8223L138.995 53.4731L141.675 50.7932L140.024 49.1424Z" fill="#4462AC"/>
<path d="M133.637 55.5311L130.957 58.2109L132.608 59.8618L135.288 57.1819L133.637 55.5311Z" fill="#4462AC"/>
<path d="M138.993 55.521L137.342 57.1719L140.022 59.8518L141.673 58.2009L138.993 55.521Z" fill="#4462AC"/>
<path d="M132.61 49.1382L130.959 50.7891L133.639 53.4689L135.29 51.8181L132.61 49.1382Z" fill="#4462AC"/>
<path d="M113.964 36.262C113.706 35.0913 113.084 34.0321 112.189 33.2355C111.293 32.4389 110.168 31.9456 108.975 31.8262C108.162 29.8408 106.773 28.1447 104.986 26.9569C103.199 25.7691 101.098 25.1441 98.9522 25.1625C96.8069 25.1809 94.7163 25.842 92.9503 27.0603C91.1844 28.2786 89.8241 29.9983 89.0451 31.9973H88.7494C88.586 31.9973 88.4226 31.9973 88.2591 31.9973C86.6654 32.054 85.1559 32.727 84.0485 33.8745C82.9411 35.022 82.3223 36.5545 82.3223 38.1492C82.3223 39.7439 82.9411 41.2764 84.0485 42.4239C85.1559 43.5714 86.6654 44.2443 88.2591 44.301H116.477C118.298 44.301 120.143 43.1881 120.143 41.1881C120.143 38.9313 117.575 37.0247 113.964 36.262Z" fill="#D4E4F5"/>
<path d="M116.477 45.4138H88.2586C86.3174 45.4138 84.4558 44.6427 83.0832 43.27C81.7106 41.8974 80.9395 40.0358 80.9395 38.0946C80.9395 36.1535 81.7106 34.2918 83.0832 32.9192C84.4558 31.5466 86.3174 30.7755 88.2586 30.7755H88.2975C89.2651 28.7473 90.7873 27.0345 92.6879 25.8354C94.5885 24.6364 96.7897 24 99.0369 24C101.284 24 103.485 24.6364 105.386 25.8354C107.287 27.0345 108.809 28.7473 109.776 30.7755C110.951 31.0121 112.043 31.5538 112.942 32.3461C113.84 33.1385 114.515 34.1535 114.897 35.2892C118.788 36.2931 121.302 38.5577 121.302 41.1725C121.31 43.9274 118.819 45.4138 116.477 45.4138ZM88.2586 33.1102C86.9366 33.1102 85.6688 33.6353 84.734 34.5701C83.7993 35.5049 83.2741 36.7727 83.2741 38.0946C83.2741 39.4166 83.7993 40.6845 84.734 41.6192C85.6688 42.554 86.9366 43.0792 88.2586 43.0792H116.477C117.691 43.0792 118.975 42.4099 118.975 41.1725C118.975 39.6161 116.819 38.0596 113.722 37.4059L112.983 37.2502L112.819 36.511C112.616 35.58 112.124 34.7373 111.412 34.1039C110.7 33.4705 109.806 33.079 108.858 32.9856L108.158 32.9156L107.893 32.2697C107.167 30.5014 105.929 28.9911 104.337 27.9336C102.745 26.8761 100.872 26.3198 98.9609 26.3366C97.0497 26.3533 95.1873 26.9423 93.614 28.0276C92.0407 29.1128 90.8286 30.6446 90.1341 32.4253L89.7994 33.2736L88.8967 33.1569C88.6852 33.1276 88.4721 33.112 88.2586 33.1102Z" fill="#4462AC"/>
<path d="M95.5594 38.0985H93.2248C93.2227 36.7803 92.6981 35.5166 91.766 34.5845C90.8339 33.6523 89.5702 33.1277 88.252 33.1257V30.791C90.1894 30.7931 92.0469 31.5637 93.4169 32.9336C94.7868 34.3036 95.5574 36.1611 95.5594 38.0985Z" fill="#4462AC"/>
<path d="M131.63 147.424C140.054 147.424 146.883 140.595 146.883 132.171C146.883 123.747 140.054 116.918 131.63 116.918C123.206 116.918 116.377 123.747 116.377 132.171C116.377 140.595 123.206 147.424 131.63 147.424Z" fill="#D4E4F5"/>
<path d="M131.654 149.384C128.25 149.385 124.922 148.377 122.091 146.487C119.261 144.597 117.054 141.91 115.751 138.765C114.447 135.621 114.106 132.161 114.77 128.822C115.433 125.484 117.072 122.417 119.479 120.01C121.886 117.604 124.953 115.965 128.291 115.301C131.629 114.637 135.09 114.979 138.234 116.282C141.378 117.585 144.066 119.792 145.956 122.623C147.846 125.453 148.854 128.781 148.852 132.185C148.846 136.744 147.032 141.115 143.808 144.339C140.584 147.563 136.213 149.377 131.654 149.384ZM131.654 118.87C129.02 118.868 126.445 119.648 124.254 121.11C122.063 122.572 120.355 124.651 119.346 127.084C118.337 129.517 118.073 132.194 118.585 134.778C119.098 137.361 120.366 139.735 122.228 141.598C124.09 143.46 126.462 144.729 129.045 145.244C131.628 145.758 134.306 145.495 136.74 144.487C139.173 143.48 141.253 141.773 142.717 139.583C144.18 137.393 144.961 134.819 144.961 132.185C144.961 128.654 143.56 125.268 141.064 122.77C138.569 120.271 135.184 118.866 131.654 118.862V118.87Z" fill="#4462AC"/>
<path d="M125.155 140.2C124.849 140.198 124.549 140.106 124.294 139.935C124.039 139.764 123.841 139.522 123.724 139.238C123.606 138.954 123.575 138.642 123.635 138.341C123.695 138.04 123.842 137.764 124.058 137.546L137 124.596C137.146 124.452 137.318 124.337 137.508 124.259C137.698 124.182 137.901 124.142 138.107 124.143C138.312 124.143 138.515 124.184 138.704 124.264C138.894 124.343 139.065 124.459 139.21 124.604C139.355 124.75 139.469 124.923 139.547 125.112C139.625 125.302 139.665 125.506 139.664 125.711C139.663 125.916 139.622 126.119 139.543 126.309C139.464 126.498 139.348 126.67 139.202 126.814L126.26 139.764C125.964 140.05 125.567 140.206 125.155 140.2Z" fill="#4462AC"/>
<path d="M126.947 131.578C126.137 131.578 125.346 131.337 124.673 130.888C124 130.438 123.475 129.799 123.165 129.051C122.855 128.303 122.774 127.48 122.932 126.685C123.09 125.891 123.48 125.162 124.052 124.59C124.625 124.017 125.354 123.627 126.148 123.469C126.942 123.311 127.765 123.392 128.513 123.702C129.261 124.012 129.901 124.537 130.351 125.21C130.8 125.883 131.04 126.674 131.04 127.484C131.04 128.57 130.609 129.611 129.841 130.379C129.074 131.146 128.033 131.578 126.947 131.578ZM126.947 126.504C126.753 126.504 126.563 126.561 126.402 126.669C126.241 126.777 126.115 126.93 126.041 127.109C125.967 127.288 125.947 127.485 125.985 127.675C126.023 127.866 126.116 128.04 126.254 128.177C126.391 128.315 126.565 128.408 126.756 128.446C126.946 128.484 127.143 128.464 127.322 128.39C127.501 128.316 127.655 128.19 127.762 128.029C127.87 127.868 127.928 127.678 127.928 127.484C127.928 127.224 127.824 126.975 127.64 126.791C127.456 126.607 127.207 126.504 126.947 126.504Z" fill="#4462AC"/>
<path d="M136.322 140.949C135.512 140.949 134.721 140.709 134.048 140.259C133.375 139.809 132.85 139.17 132.54 138.422C132.23 137.674 132.149 136.851 132.307 136.057C132.465 135.263 132.855 134.533 133.427 133.961C134 133.388 134.729 132.998 135.523 132.84C136.317 132.682 137.14 132.763 137.888 133.073C138.636 133.383 139.276 133.908 139.726 134.581C140.175 135.254 140.415 136.046 140.415 136.855C140.415 137.941 139.984 138.982 139.216 139.75C138.449 140.517 137.408 140.949 136.322 140.949ZM136.322 135.875C136.128 135.875 135.938 135.932 135.777 136.04C135.616 136.148 135.49 136.301 135.416 136.48C135.342 136.659 135.322 136.856 135.36 137.046C135.398 137.237 135.491 137.411 135.629 137.548C135.766 137.686 135.94 137.779 136.131 137.817C136.321 137.855 136.518 137.835 136.697 137.761C136.876 137.687 137.03 137.561 137.137 137.4C137.245 137.239 137.303 137.049 137.303 136.855C137.3 136.596 137.196 136.349 137.013 136.167C136.829 135.985 136.581 135.882 136.322 135.882V135.875Z" fill="#4462AC"/>
<path d="M52.0045 52.1732L46.2266 57.9512L47.3271 59.0517L53.1051 53.2738L52.0045 52.1732Z" fill="#4462AC"/>
<path d="M49.9629 52.9159H52.3832V55.344L53.4182 54.3089V51.8887H50.9901L49.9629 52.9159Z" fill="#4462AC"/>
<path d="M65.5034 66.938L60.2812 72.1602L61.3818 73.2607L66.604 68.0385L65.5034 66.938Z" fill="#4462AC"/>
<path d="M63.457 67.664H65.8851V70.092L66.9123 69.0648V66.6367H64.4921L63.457 67.664Z" fill="#4462AC"/>
<path d="M64.5301 52.5285L55.3789 61.6797L56.4795 62.7803L65.6307 53.629L64.5301 52.5285Z" fill="#4462AC"/>
<path d="M62.4863 53.2421H64.9144V55.6701L65.9416 54.6429V52.2148H63.5214L62.4863 53.2421Z" fill="#4462AC"/>
<path d="M30.0989 86.9597L25.9277 91.1309L27.0283 92.2314L31.1995 88.0603L30.0989 86.9597Z" fill="#4462AC"/>
<path d="M30.3157 73.6179L25 78.9336L26.1006 80.0342L31.4163 74.7184L30.3157 73.6179Z" fill="#4462AC"/>
<path d="M39.4123 93.033L27.6582 104.787L28.7588 105.888L40.5128 94.1336L39.4123 93.033Z" fill="#4462AC"/>
<path d="M45.7765 79.8281H31.0059V83.2367H45.7765V79.8281Z" fill="#4462AC"/>
<path d="M40.0883 74.1445H36.6797V88.9151H40.0883V74.1445Z" fill="#4462AC"/>
<path d="M52.0016 68.3262H38.8652V71.2445H52.0016V68.3262Z" fill="#4462AC"/>
<path d="M46.889 63.2129H43.9707V76.3492H46.889V63.2129Z" fill="#4462AC"/>
<path d="M58.6895 77.4531H49.1641V80.3714H58.6895V77.4531Z" fill="#4462AC"/>
<path d="M55.389 74.1445H52.4707V83.6699H55.389V74.1445Z" fill="#4462AC"/>
<path d="M52.1192 86.5352H45.1152V88.4807H52.1192V86.5352Z" fill="#4462AC"/>
<path d="M49.5901 83.998H47.6445V91.002H49.5901V83.998Z" fill="#4462AC"/>
<path d="M38.5465 64.0449H30.9277V65.9905H38.5465V64.0449Z" fill="#4462AC"/>
<path d="M35.7073 61.2109H33.7617V68.8297H35.7073V61.2109Z" fill="#4462AC"/>
</svg>
