<svg width="101" height="101" viewBox="0 0 101 101" fill="none" xmlns="http://www.w3.org/2000/svg">
<rect width="100.337" height="100.337" rx="20" fill="url(#paint0_linear_281_61844)"/>
<path d="M47.5 40C47.5 45.525 43.025 50 37.5 50C31.975 50 27.5 45.525 27.5 40C27.5 34.475 31.975 30 37.5 30C43.025 30 47.5 34.475 47.5 40ZM47.5 56.8V70H20V65C20 59.475 27.825 55 37.5 55C41.25 55 44.675 55.675 47.5 56.8ZM80 70H52.5V27.5H80V70ZM60 48.75C60 47.0924 60.6585 45.5027 61.8306 44.3306C63.0027 43.1585 64.5924 42.5 66.25 42.5C67.9076 42.5 69.4973 43.1585 70.6694 44.3306C71.8415 45.5027 72.5 47.0924 72.5 48.75C72.5 50.4076 71.8415 51.9973 70.6694 53.1694C69.4973 54.3415 67.9076 55 66.25 55C64.5924 55 63.0027 54.3415 61.8306 53.1694C60.6585 51.9973 60 50.4076 60 48.75ZM75 37.5C73.6739 37.5 72.4021 36.9732 71.4645 36.0355C70.5268 35.0979 70 33.8261 70 32.5H62.5C62.5 35.275 60.275 37.5 57.5 37.5V60C58.8261 60 60.0979 60.5268 61.0355 61.4645C61.9732 62.4021 62.5 63.6739 62.5 65H70C70 62.25 72.25 60 75 60V37.5Z" fill="white"/>
<defs>
<linearGradient id="paint0_linear_281_61844" x1="50.1685" y1="0" x2="50.1685" y2="100.337" gradientUnits="userSpaceOnUse">
<stop stop-color="#F4A17C"/>
<stop offset="1" stop-color="#F5C0A9"/>
</linearGradient>
</defs>
</svg>
