<svg width="101" height="101" viewBox="0 0 101 101" fill="none" xmlns="http://www.w3.org/2000/svg">
<rect width="100.337" height="100.337" rx="20" fill="url(#paint0_linear_340_61847)"/>
<path d="M52.5 53C52.5 54.1046 51.6046 55 50.5 55H49.5C48.3954 55 47.5 54.1046 47.5 53V44.5C47.5 43.3954 48.3954 42.5 49.5 42.5H50.5C51.6046 42.5 52.5 43.3954 52.5 44.5V53ZM52.5 63C52.5 64.1046 51.6046 65 50.5 65H49.5C48.3954 65 47.5 64.1046 47.5 63V62C47.5 60.8954 48.3954 60 49.5 60H50.5C51.6046 60 52.5 60.8954 52.5 62V63ZM24.238 69.4979C23.4661 70.8313 24.4282 72.5 25.9689 72.5H74.0311C75.5718 72.5 76.5339 70.8313 75.762 69.4979L51.7309 27.9897C50.9605 26.6591 49.0395 26.6591 48.2691 27.9897L24.238 69.4979Z" fill="white"/>
<defs>
<linearGradient id="paint0_linear_340_61847" x1="50.1685" y1="0" x2="50.1685" y2="100.337" gradientUnits="userSpaceOnUse">
<stop stop-color="#F8D047"/>
<stop offset="1" stop-color="#FCE88E"/>
</linearGradient>
</defs>
</svg>
