<svg width="101" height="101" viewBox="0 0 101 101" fill="none" xmlns="http://www.w3.org/2000/svg">
<rect y="0.490723" width="100.337" height="100.337" rx="20" fill="#8C8C8C"/>
<path d="M62.8 45.1907C61.3944 43.7851 59.4879 42.9954 57.5 42.9954C55.5121 42.9954 53.6056 43.7851 52.2 45.1907C50.7944 46.5964 50.0047 48.5028 50.0047 50.4907C50.0047 52.4786 50.7944 54.3851 52.2 55.7907C52.896 56.4867 53.7223 57.0388 54.6317 57.4155C55.541 57.7922 56.5157 57.9861 57.5 57.9861C58.4843 57.9861 59.459 57.7922 60.3683 57.4155C61.2777 57.0388 62.104 56.4867 62.8 55.7907C63.496 55.0947 64.0481 54.2684 64.4248 53.3591C64.8015 52.4497 64.9953 51.475 64.9953 50.4907C64.9953 49.5064 64.8015 48.5318 64.4248 47.6224C64.0481 46.713 63.496 45.8867 62.8 45.1907ZM37.5 35.4907V65.4907H77.5V35.4907H37.5ZM72.5 55.4907C71.175 55.4907 69.9 56.0157 68.975 56.9657C68.025 57.8907 67.5 59.1657 67.5 60.4907H47.5C47.5 59.1657 46.975 57.8907 46.025 56.9657C45.1 56.0157 43.825 55.4907 42.5 55.4907V45.4907C43.825 45.4907 45.1 44.9657 46.025 44.0157C46.975 43.0907 47.5 41.8157 47.5 40.4907H67.5C67.5 41.8157 68.025 43.0907 68.975 44.0157C69.9 44.9657 71.175 45.4907 72.5 45.4907V55.4907ZM32.5 40.4907H27.5C26.125 40.4907 25 39.3657 25 37.9907C25 36.6157 26.125 35.4907 27.5 35.4907H32.5V40.4907ZM32.5 52.9907H25C23.625 52.9907 22.5 51.8657 22.5 50.4907C22.5 49.1157 23.625 47.9907 25 47.9907H32.5V52.9907ZM32.5 65.4907H22.5C21.12 65.4907 20 64.3657 20 62.9907C20 61.6157 21.12 60.4907 22.5 60.4907H32.5V65.4907Z" fill="white"/>
</svg>
