<svg width="101" height="101" viewBox="0 0 101 101" fill="none" xmlns="http://www.w3.org/2000/svg">
<rect width="100.337" height="100.337" rx="20" fill="#8C8C8C"/>
<path d="M60.45 70L55.425 61.3C57.875 59.5 59.575 56.7 59.925 53.5H70C69.7936 56.8017 68.8236 60.0105 67.1664 62.8737C65.5093 65.7369 63.2101 68.1763 60.45 70ZM52.5 38.575V28.5C63.25 29.15 71.85 37.75 72.5 48.5H62.425C62.1458 45.9636 61.0104 43.5982 59.2061 41.7939C57.4018 39.9896 55.0364 38.8542 52.5 38.575ZM37.5 52.25C37.5 53.85 37.825 55.375 38.45 56.75L29.75 61.775C28.2621 58.8209 27.4912 55.5577 27.5 52.25C27.5 40.925 36.35 31.675 47.5 31V41.075C41.875 41.7 37.5 46.45 37.5 52.25ZM48.75 73.5C41.325 73.5 34.8 69.75 31 63.95L39.7 58.925C40.7409 60.3472 42.1034 61.503 43.6762 62.2981C45.249 63.0932 46.9876 63.5051 48.75 63.5C50.35 63.5 51.875 63.175 53.25 62.55L58.275 71.25C55.4 72.7 52.175 73.5 48.75 73.5Z" fill="white"/>
</svg>
