<svg width="102" height="101" viewBox="0 0 102 101" fill="none" xmlns="http://www.w3.org/2000/svg">
<rect x="0.947693" y="0.339996" width="100.337" height="100.337" rx="20" fill="url(#paint0_linear_2302_74462)"/>
<path d="M74.3333 20.4908H27.6667C24 20.4908 21 23.4908 21 27.1575V73.8241C21 77.4908 24 80.4908 27.6667 80.4908H74.3333C78 80.4908 81 77.4908 81 73.8241V27.1575C81 23.4908 78 20.4908 74.3333 20.4908ZM54.3333 34.1574L58 30.4908L62.6667 35.1575L67.3333 30.4908L71 34.1574L66.3333 38.8241L71 43.4908L67.3333 47.1574L62.6667 42.4908L58 47.1574L54.3333 43.4908L59 38.8241L54.3333 34.1574ZM31.6667 36.1574H48.3333V41.1574H31.6667V36.1574ZM49.3333 63.8241H42.6667V70.4908H37.6667V63.8241H31V58.8241H37.6667V52.1574H42.6667V58.8241H49.3333V63.8241ZM71 67.8241H54.3333V62.8241H71V67.8241ZM71 59.8241H54.3333V54.8241H71V59.8241Z" fill="url(#paint1_linear_2302_74462)"/>
<defs>
<linearGradient id="paint0_linear_2302_74462" x1="51.1162" y1="0.339996" x2="51.1162" y2="100.677" gradientUnits="userSpaceOnUse">
<stop stop-color="#8C8C8C"/>
<stop offset="1" stop-color="#8C8C8C"/>
</linearGradient>
<linearGradient id="paint1_linear_2302_74462" x1="51" y1="20.4908" x2="51" y2="80.4908" gradientUnits="userSpaceOnUse">
<stop stop-color="white"/>
</linearGradient>
</defs>
</svg>
