<svg width="101" height="101" viewBox="0 0 101 101" fill="none" xmlns="http://www.w3.org/2000/svg">
<rect width="100.337" height="100.337" rx="20" fill="url(#paint0_linear_2302_74465)"/>
<path d="M55 40H45V35H55V40ZM70 30V70C70 72.775 67.775 75 65 75H35C32.225 75 30 72.775 30 70V30C30 28.6739 30.5268 27.4021 31.4645 26.4645C32.4021 25.5268 33.6739 25 35 25H65C66.3261 25 67.5979 25.5268 68.5355 26.4645C69.4732 27.4021 70 28.6739 70 30ZM65 52.5H35V70H65V52.5ZM65 30H35V47.5H65V30ZM55 57.5H45V62.5H55V57.5Z" fill="white"/>
<defs>
<linearGradient id="paint0_linear_2302_74465" x1="50.1685" y1="0" x2="50.1685" y2="100.337" gradientUnits="userSpaceOnUse">
<stop stop-color="#8C8C8C"/>
<stop offset="1" stop-color="#8C8C8C"/>
</linearGradient>
</defs>
</svg>
