<svg width="101" height="101" viewBox="0 0 101 101" fill="none" xmlns="http://www.w3.org/2000/svg">
<rect y="0.490784" width="100.337" height="100.337" rx="20" fill="#8C8C8C"/>
<path d="M47.5 40.4908C47.5 46.0158 43.025 50.4908 37.5 50.4908C31.975 50.4908 27.5 46.0158 27.5 40.4908C27.5 34.9658 31.975 30.4908 37.5 30.4908C43.025 30.4908 47.5 34.9658 47.5 40.4908ZM47.5 57.2908V70.4908H20V65.4908C20 59.9658 27.825 55.4908 37.5 55.4908C41.25 55.4908 44.675 56.1658 47.5 57.2908ZM80 70.4908H52.5V27.9908H80V70.4908ZM60 49.2408C60 47.5832 60.6585 45.9935 61.8306 44.8214C63.0027 43.6493 64.5924 42.9908 66.25 42.9908C67.9076 42.9908 69.4973 43.6493 70.6694 44.8214C71.8415 45.9935 72.5 47.5832 72.5 49.2408C72.5 50.8984 71.8415 52.4881 70.6694 53.6602C69.4973 54.8323 67.9076 55.4908 66.25 55.4908C64.5924 55.4908 63.0027 54.8323 61.8306 53.6602C60.6585 52.4881 60 50.8984 60 49.2408ZM75 37.9908C73.6739 37.9908 72.4021 37.464 71.4645 36.5263C70.5268 35.5886 70 34.3169 70 32.9908H62.5C62.5 35.7658 60.275 37.9908 57.5 37.9908V60.4908C58.8261 60.4908 60.0979 61.0176 61.0355 61.9552C61.9732 62.8929 62.5 64.1647 62.5 65.4908H70C70 62.7408 72.25 60.4908 75 60.4908V37.9908Z" fill="white"/>
</svg>
