<svg width="102" height="101" viewBox="0 0 102 101" fill="none" xmlns="http://www.w3.org/2000/svg">
<rect x="0.806152" y="0.490723" width="100.337" height="100.337" rx="20" fill="#8C8C8C"/>
<path d="M53.3062 53.4907C53.3062 54.5953 52.4107 55.4907 51.3062 55.4907H50.3062C49.2016 55.4907 48.3062 54.5953 48.3062 53.4907V44.9907C48.3062 43.8862 49.2016 42.9907 50.3062 42.9907H51.3062C52.4107 42.9907 53.3062 43.8862 53.3062 44.9907V53.4907ZM53.3062 63.4907C53.3062 64.5953 52.4107 65.4907 51.3062 65.4907H50.3062C49.2016 65.4907 48.3062 64.5953 48.3062 63.4907V62.4907C48.3062 61.3862 49.2016 60.4907 50.3062 60.4907H51.3062C52.4107 60.4907 53.3062 61.3862 53.3062 62.4907V63.4907ZM25.0442 69.9886C24.2723 71.322 25.2344 72.9907 26.775 72.9907H74.8373C76.3779 72.9907 77.34 71.322 76.5681 69.9887L52.537 28.4804C51.7667 27.1498 49.8456 27.1498 49.0753 28.4804L25.0442 69.9886Z" fill="white"/>
</svg>
