<svg width="101" height="101" viewBox="0 0 101 101" fill="none" xmlns="http://www.w3.org/2000/svg">
<rect y="0.490723" width="100.337" height="100.337" rx="20" fill="#A0A0A0"/>
<path d="M46 50H51V62C51 63.104 51.896 64 53 64H60V60H55V36H60V32H53C51.896 32 51 32.896 51 34V46H46V50Z" fill="white"/>
<path d="M34 46C38.4183 46 42 42.4183 42 38C42 33.5817 38.4183 30 34 30C29.5817 30 26 33.5817 26 38C26 42.4183 29.5817 46 34 46Z" fill="white"/>
<path d="M48 67V62C48 54 40.075 49 34 49C27.925 49 20 54 20 62V67H48Z" fill="white"/>
<path d="M69 33C71.7614 33 74 30.7614 74 28C74 25.2386 71.7614 23 69 23C66.2386 23 64 25.2386 64 28C64 30.7614 66.2386 33 69 33Z" fill="white"/>
<path d="M77 46H61C61 41 63.158 36 69 36C74.842 36 77 41 77 46Z" fill="white"/>
<path d="M69 60C71.7614 60 74 57.7614 74 55C74 52.2386 71.7614 50 69 50C66.2386 50 64 52.2386 64 55C64 57.7614 66.2386 60 69 60Z" fill="white"/>
<path d="M77 73H61C61 68 63.158 63 69 63C74.842 63 77 68 77 73Z" fill="white"/>
</svg>
