<svg width="101" height="101" viewBox="0 0 101 101" fill="none" xmlns="http://www.w3.org/2000/svg">
<rect width="100.337" height="100.337" rx="20" fill="#8C8C8C"/>
<path d="M27.5 36H72.5V66H27.5V36ZM50 43.5C51.9891 43.5 53.8968 44.2902 55.3033 45.6967C56.7098 47.1032 57.5 49.0109 57.5 51C57.5 52.9891 56.7098 54.8968 55.3033 56.3033C53.8968 57.7098 51.9891 58.5 50 58.5C48.0109 58.5 46.1032 57.7098 44.6967 56.3033C43.2902 54.8968 42.5 52.9891 42.5 51C42.5 49.0109 43.2902 47.1032 44.6967 45.6967C46.1032 44.2902 48.0109 43.5 50 43.5ZM37.5 41C37.5 42.3261 36.9732 43.5979 36.0355 44.5355C35.0979 45.4732 33.8261 46 32.5 46V56C33.8261 56 35.0979 56.5268 36.0355 57.4645C36.9732 58.4021 37.5 59.6739 37.5 61H62.5C62.5 59.6739 63.0268 58.4021 63.9645 57.4645C64.9021 56.5268 66.1739 56 67.5 56V46C66.1739 46 64.9021 45.4732 63.9645 44.5355C63.0268 43.5979 62.5 42.3261 62.5 41H37.5Z" fill="#FCFCFF"/>
</svg>
