<svg width="101" height="101" viewBox="0 0 101 101" fill="none" xmlns="http://www.w3.org/2000/svg">
<rect y="0.490723" width="100.337" height="100.337" rx="20" fill="#8C8C8C"/>
<path d="M62.5 32.9907H70L66.25 37.9907L62.5 32.9907ZM27.5 25.4907H72.5C73.8261 25.4907 75.0979 26.0175 76.0355 26.9552C76.9732 27.8929 77.5 29.1646 77.5 30.4907V40.4907C77.5 43.2657 75.275 45.4907 72.5 45.4907H60V70.4907C60 73.2657 57.775 75.4907 55 75.4907H27.5C26.1739 75.4907 24.9021 74.9639 23.9645 74.0263C23.0268 73.0886 22.5 71.8168 22.5 70.4907V30.4907C22.5 27.7407 24.75 25.4907 27.5 25.4907ZM27.5 30.4907V40.4907H55V30.4907H27.5ZM72.5 40.4907V30.4907H60V40.4907H72.5ZM27.5 70.4907H55V45.4907H27.5V70.4907ZM32.5 50.4907H50V55.4907H32.5V50.4907ZM32.5 60.4907H50V65.4907H32.5V60.4907Z" fill="white"/>
</svg>
