<svg width="101" height="101" viewBox="0 0 101 101" fill="none" xmlns="http://www.w3.org/2000/svg">
<rect width="100.337" height="100.337" rx="20" fill="url(#paint0_linear_340_61846)"/>
<path d="M62.8 44.7C61.3944 43.2944 59.4879 42.5047 57.5 42.5047C55.5121 42.5047 53.6056 43.2944 52.2 44.7C50.7944 46.1056 50.0047 48.0121 50.0047 50C50.0047 51.9879 50.7944 53.8944 52.2 55.3C52.896 55.996 53.7223 56.5481 54.6317 56.9248C55.541 57.3015 56.5157 57.4953 57.5 57.4953C58.4843 57.4953 59.459 57.3015 60.3683 56.9248C61.2777 56.5481 62.104 55.996 62.8 55.3C63.496 54.604 64.0481 53.7777 64.4248 52.8683C64.8015 51.959 64.9953 50.9843 64.9953 50C64.9953 49.0157 64.8015 48.041 64.4248 47.1317C64.0481 46.2223 63.496 45.396 62.8 44.7ZM37.5 35V65H77.5V35H37.5ZM72.5 55C71.175 55 69.9 55.525 68.975 56.475C68.025 57.4 67.5 58.675 67.5 60H47.5C47.5 58.675 46.975 57.4 46.025 56.475C45.1 55.525 43.825 55 42.5 55V45C43.825 45 45.1 44.475 46.025 43.525C46.975 42.6 47.5 41.325 47.5 40H67.5C67.5 41.325 68.025 42.6 68.975 43.525C69.9 44.475 71.175 45 72.5 45V55ZM32.5 40H27.5C26.125 40 25 38.875 25 37.5C25 36.125 26.125 35 27.5 35H32.5V40ZM32.5 52.5H25C23.625 52.5 22.5 51.375 22.5 50C22.5 48.625 23.625 47.5 25 47.5H32.5V52.5ZM32.5 65H22.5C21.12 65 20 63.875 20 62.5C20 61.125 21.12 60 22.5 60H32.5V65Z" fill="white"/>
<defs>
<linearGradient id="paint0_linear_340_61846" x1="50.1685" y1="0" x2="50.1685" y2="100.337" gradientUnits="userSpaceOnUse">
<stop stop-color="#9BE48B"/>
<stop offset="1" stop-color="#CDF1C4"/>
</linearGradient>
</defs>
</svg>
