<svg width="101" height="101" viewBox="0 0 101 101" fill="none" xmlns="http://www.w3.org/2000/svg">
<rect x="0.403107" width="100.337" height="100.337" rx="20" fill="url(#paint0_linear_2352_74849)"/>
<path d="M34.7723 17H17.4031V34.3692H34.7723V17ZM32.096 31.6929H20.0794V19.6763H32.096V31.6929Z" fill="white"/>
<path d="M29.0699 22.6718H23.075V28.6667H29.0699V22.6718Z" fill="white"/>
<path d="M83.4012 17H66.032V34.3692H83.4012V17ZM80.7249 31.6929H68.7083V19.6763H80.7249V31.6929Z" fill="white"/>
<path d="M77.6988 22.6718H71.7039V28.6667H77.6988V22.6718Z" fill="white"/>
<path d="M17.4031 82.9822H34.7723V65.6129H17.4031V82.9822ZM20.0794 68.2625H32.096V80.2791H20.0794V68.2625Z" fill="white"/>
<path d="M29.0699 71.3009H23.075V77.2958H29.0699V71.3009Z" fill="white"/>
<path d="M55.3817 33.6486H58.9679V36.3785H61.1893V33.6486V28.5369H58.9679H55.3817H53.0265H49.6812V33.6486H46.0681V36.9673H49.6812V33.6486H53.0265V39.2689H55.3817V33.6486Z" fill="white"/>
<path d="M58.9749 23.8513H61.1963V19.1945V17H58.9749H54.3181V19.1945H58.9749V23.8513Z" fill="white"/>
<path d="M44.3064 17H39.6228V21.0144H44.3064V17Z" fill="white"/>
<path d="M80.4594 39.2198H77.4351V42.6723H80.4594V43.7428H74.4109V47.3558H80.4594V50.8885H83.4033V47.3558V43.7428V39.2733V39.2198H80.4594Z" fill="white"/>
<path d="M65.7901 64.1231V61.9553H60.1431V67.4952H65.7901V64.1231ZM63.5955 64.5781V65.3542H62.3109V64.0963H63.5955V64.5781Z" fill="white"/>
<path d="M44.3064 63.8567H39.6228V68.6205H44.3064V63.8567Z" fill="white"/>
<path d="M37.0205 60.7719H40.7139H44.0592V57.1053H37.0205V60.7719Z" fill="white"/>
<path d="M44.2759 40.414V39.2632V36.2389H40.8235V40.3604H36.9964V40.414V43.7326H44.2759V40.414Z" fill="white"/>
<path d="M22.381 47.3569H17.4031V50.8896H22.381V47.3569Z" fill="white"/>
<path d="M23.6657 43.7376H21.819V39.2682H17.4031V43.7376H21.7923V45.6378H23.6657V43.7376Z" fill="white"/>
<path d="M55.3842 79.1923H53.0291V82.9926H55.3842H58.9705V76.4892H55.3842V79.1923Z" fill="white"/>
<path d="M23.5586 54.2533H17.4031V60.7834H23.5586V54.2533Z" fill="white"/>
<path d="M25.21 60.7834H30.8302H34.4432V57.1169H30.8302V54.2533H25.21V60.7834ZM26.3876 56.6352H28.1272V58.3748H26.3876V56.6352Z" fill="white"/>
<path d="M40.2321 52.5292H37.0205V54.242V55.3929H40.2321V54.242V52.5292Z" fill="white"/>
<path d="M64.8535 52.8998H61.7222V55.7635H64.8535V52.8998Z" fill="white"/>
<path d="M83.4054 54.2533H80.4615V57.1169H83.4054V54.2533Z" fill="white"/>
<path d="M44.7613 32.476H47.625V28.408H44.7613H43.3161H39.6228V32.476H43.3161H44.7613Z" fill="white"/>
<path d="M44.3064 70.5758H39.6228V74.1888H44.3064V70.5758Z" fill="white"/>
<path d="M58.9598 70.044H55.3736V73.55H58.9598V70.044Z" fill="white"/>
<path d="M80.4561 73.5772V78.0467H75.0232V82.9978H80.4561H83.4001V73.5772V68.6261H80.4561V73.5772Z" fill="white"/>
<path d="M72.7518 40.6539H68.2556V43.7317H72.7518V40.6539Z" fill="white"/>
<path d="M66.9433 63.8657H72.0015V57.1214H66.9433H58.9679V54.2578V50.8857H55.3817V54.2578H53.0265V57.1214V60.788V63.8657H49.6812V60.788H46.0681V63.8657V68.6296H49.6812V73.5807H53.0265V68.6296H55.3817V64.1066H58.9679V60.788V60.4668H66.9433V60.788V63.8657Z" fill="white"/>
<path d="M74.3545 63.8543V63.9346H78.2619V63.8543V60.054H74.3545V63.8543Z" fill="white"/>
<path d="M78.2701 66.5065H80.4646H80.8661V63.9372H80.4646H78.2701V66.5065Z" fill="white"/>
<path d="M76.8158 68.625V68.3039H67.877V68.625V73.255H76.8158V68.625Z" fill="white"/>
<path d="M72.4813 76.0381H68.1992V82.9964H72.4813V76.0381Z" fill="white"/>
<path d="M65.9296 71.3492H60.2559V74.8016H65.9296V71.3492Z" fill="white"/>
<path d="M65.9287 76.5537H64.0017V78.5342H65.9287V76.5537Z" fill="white"/>
<path d="M65.9296 80.163H60.2559V82.9999H65.9296V80.163Z" fill="white"/>
<path d="M30.8416 43.7428H34.4546V39.2733V39.2198H30.8416V39.2733V43.7428Z" fill="white"/>
<path d="M55.3842 47.3506H58.9705V50.8833H66.9459H73.5563V47.3506H66.9459V43.7376V39.2682H58.9705V43.7376H55.3842H53.0291V47.3506H55.3842ZM63.8413 46.628V44.5137H65.9556V46.628H63.8413Z" fill="white"/>
<path d="M49.6812 43.7376H53.0265V39.2682H49.6812H46.0681V43.7376V47.3506H49.6812V43.7376Z" fill="white"/>
<path d="M53.0265 21.0947H49.6812V17H46.0681V27.0361H53.0265V21.0947Z" fill="white"/>
<path d="M53.0245 47.3569H49.6791V50.8896H46.0661V47.3569H44.273H34.4509H30.8379H23.5584V50.8896H30.8379V54.2618H34.4509V50.8896H44.273V54.2618H46.0661V57.1254H49.6791V54.2618H53.0245V50.8896V47.3569Z" fill="white"/>
<path d="M43.8246 78.7163H39.6228V82.9984H43.8246H44.2796H50.8901V76.602H43.8246V78.7163Z" fill="white"/>
<path d="M57.1961 21.2216H54.6001V23.8176H57.1961V21.2216Z" fill="white"/>
<path d="M77.7267 50.8682V52.5542H74.3545V55.9264H77.7267V52.5542H79.8142V50.8682V50.4667H77.7267V50.8682Z" fill="white"/>
<path d="M28.8035 43.812H26.5555V46.0601H28.8035V43.812Z" fill="white"/>
<path d="M65.2105 35.2882H62.9624V37.5363H65.2105V35.2882Z" fill="white"/>
<defs>
<linearGradient id="paint0_linear_2352_74849" x1="50.5716" y1="0" x2="50.5716" y2="100.337" gradientUnits="userSpaceOnUse">
<stop stop-color="#7ADE72"/>
<stop offset="1" stop-color="#88F386"/>
</linearGradient>
</defs>
</svg>
