<svg width="60" height="60" viewBox="0 0 60 60" fill="none" xmlns="http://www.w3.org/2000/svg">
<path d="M27.5 20C27.5 25.525 23.025 30 17.5 30C11.975 30 7.5 25.525 7.5 20C7.5 14.475 11.975 10 17.5 10C23.025 10 27.5 14.475 27.5 20ZM27.5 36.8V50H0V45C0 39.475 7.825 35 17.5 35C21.25 35 24.675 35.675 27.5 36.8ZM60 50H32.5V7.5H60V50ZM40 28.75C40 27.0924 40.6585 25.5027 41.8306 24.3306C43.0027 23.1585 44.5924 22.5 46.25 22.5C47.9076 22.5 49.4973 23.1585 50.6694 24.3306C51.8415 25.5027 52.5 27.0924 52.5 28.75C52.5 30.4076 51.8415 31.9973 50.6694 33.1694C49.4973 34.3415 47.9076 35 46.25 35C44.5924 35 43.0027 34.3415 41.8306 33.1694C40.6585 31.9973 40 30.4076 40 28.75ZM55 17.5C53.6739 17.5 52.4021 16.9732 51.4645 16.0355C50.5268 15.0979 50 13.8261 50 12.5H42.5C42.5 15.275 40.275 17.5 37.5 17.5V40C38.8261 40 40.0979 40.5268 41.0355 41.4645C41.9732 42.4021 42.5 43.6739 42.5 45H50C50 42.25 52.25 40 55 40V17.5Z" fill="#FF007A"/>
</svg>
