<svg width="101" height="101" viewBox="0 0 101 101" fill="none" xmlns="http://www.w3.org/2000/svg">
<rect width="100.337" height="100.337" rx="20" fill="url(#paint0_linear_2352_74850)"/>
<path d="M44 58.4V60.8C44 62.12 45.08 63.2 46.4 63.2H53.612C54.938 63.2 56 62.126 56 60.8C56 60.1208 56.0024 59.2292 56 58.4H44Z" fill="white"/>
<path d="M56.666 54.8C57.86 52.6292 60.3416 48.026 61.4012 45.3536C61.9256 43.7636 62.1248 42.026 61.9232 40.22C61.3112 34.7372 56.8508 30.2828 51.3692 29.6768C44.1272 28.8752 38 34.5224 38 41.6C38 42.9116 38.2112 44.174 38.5988 45.3536C39.428 47.7656 42.062 52.5644 43.3184 54.8H56.666Z" fill="white"/>
<path d="M29.6 69.2C32.9137 69.2 35.6 66.5137 35.6 63.2C35.6 59.8863 32.9137 57.2 29.6 57.2C26.2863 57.2 23.6 59.8863 23.6 63.2C23.6 66.5137 26.2863 69.2 29.6 69.2Z" fill="white"/>
<path d="M39.2 84.8H20C20 78.8 22.5896 72.8 29.6 72.8C36.6104 72.8 39.2 78.8 39.2 84.8Z" fill="white"/>
<path d="M70.4 69.2C73.7137 69.2 76.4 66.5137 76.4 63.2C76.4 59.8863 73.7137 57.2 70.4 57.2C67.0863 57.2 64.4 59.8863 64.4 63.2C64.4 66.5137 67.0863 69.2 70.4 69.2Z" fill="white"/>
<path d="M80 84.8H60.8C60.8 78.8 63.3896 72.8 70.4 72.8C77.4104 72.8 80 78.8 80 84.8Z" fill="white"/>
<path d="M24.8 38H33.2V42.8H24.8V38Z" fill="white"/>
<path d="M66.8 38H75.2V42.8H66.8V38Z" fill="white"/>
<path d="M47.6 16.4H52.4V24.8H47.6V16.4Z" fill="white"/>
<path d="M34.2966 21.3024L40.2964 27.3022L36.9024 30.6963L30.9025 24.6964L34.2966 21.3024Z" fill="white"/>
<path d="M65.7031 21.3021L69.0972 24.6962L63.0973 30.6961L59.7032 27.302L65.7031 21.3021Z" fill="white"/>
<defs>
<linearGradient id="paint0_linear_2352_74850" x1="50.1685" y1="0" x2="50.1685" y2="100.337" gradientUnits="userSpaceOnUse">
<stop stop-color="#E8E14B"/>
<stop offset="1" stop-color="#E5C658"/>
</linearGradient>
</defs>
</svg>
