<svg width="270" height="68" viewBox="0 0 270 68" fill="none" xmlns="http://www.w3.org/2000/svg">
<path d="M33.8337 0L68 0C68 20.1733 57.4119 22.6667 48.383 22.6667L32.0355 22.6667H14.0533C14.0533 9.29333 26.6817 0.906667 33.8337 0Z" fill="url(#paint0_linear_2277_74383)"/>
<path d="M34 68H-1.14441e-05C-1.14441e-05 47.8267 10.5881 45.3333 19.617 45.3333H35.9644H53.9467C53.9466 58.7067 41.152 67.0933 34 68Z" fill="url(#paint1_linear_2277_74383)"/>
<path fill-rule="evenodd" clip-rule="evenodd" d="M50.8186 34H17.6916C15.3511 30.7527 14.0533 27.0728 14.0533 22.3684C14.0533 4.47369 31.5067 0 34 0C32.64 1.34211 21.2688 12.8786 34 20.5789C42.2917 25.594 47.7427 29.3633 50.8186 34Z" fill="url(#paint2_linear_2277_74383)"/>
<path fill-rule="evenodd" clip-rule="evenodd" d="M17.68 34H50.807C53.1476 37.2473 54.4453 40.9272 54.4453 45.6316C54.4453 63.5263 36.4933 68 34 68C35.36 66.6579 47.2298 55.1214 34.4986 47.4211C26.207 42.406 20.756 38.6367 17.68 34Z" fill="url(#paint3_linear_2277_74383)"/>
<path d="M94.2933 43.0667L94.2933 0C74.12 2.40565e-07 71.6267 13.3463 71.6267 24.7273L71.6267 45.3333L71.6267 68C85 68 93.3867 52.0818 94.2933 43.0667Z" fill="url(#paint4_linear_2277_74383)"/>
<path d="M123.307 48.0649C123.159 48.0649 123.011 48.0533 122.863 48.0533C117.689 48.0562 112.669 50.0328 108.631 53.658C104.592 57.2832 101.774 62.3411 100.64 68H112.777C115.569 68 118.248 66.7565 120.223 64.5431C122.197 62.3297 123.307 59.3276 123.307 56.1974V48.0649Z" fill="url(#paint5_linear_2277_74383)"/>
<path fill-rule="evenodd" clip-rule="evenodd" d="M147.698 6.35444C142.809 2.1201 138.612 0.00195491 129.668 0H100.64C100.639 2.24257 101.084 4.46333 101.95 6.5354C102.815 8.60747 104.084 10.4903 105.684 12.0762C107.284 13.6622 109.183 14.9202 111.273 15.7784C113.364 16.6367 115.605 17.0783 117.867 17.0781H128.494C128.752 17.0781 129.005 17.0857 129.251 17.1008L129.179 17.0986C130.805 17.189 132.163 17.6054 133.255 18.3479C133.604 18.5861 133.925 18.8578 134.219 19.163C135.556 20.553 136.225 22.5079 136.225 25.0277C136.225 26.8008 135.911 28.3078 135.283 29.5489C134.995 30.1176 134.64 30.6305 134.22 31.0875C132.883 32.5419 130.974 33.2697 128.495 33.2706H110.084C108.844 33.2706 107.615 33.5128 106.469 33.9834C105.323 34.454 104.282 35.1437 103.405 36.0132C102.528 36.8827 101.833 37.9149 101.358 39.0508C100.884 40.1868 100.64 41.4042 100.64 42.6337V67.9986H100.665C101.8 62.9919 104.62 58.5168 108.661 55.3093C112.703 52.1015 117.726 50.3525 122.905 50.35C122.979 50.35 123.053 50.3526 123.126 50.3551C123.2 50.3577 123.274 50.3603 123.348 50.3603V50.3458L129.67 50.3458C130.228 50.3458 130.779 50.3369 131.322 50.3191C139.465 50.052 143.111 47.7814 147.699 43.5075C152.594 38.9487 155.041 32.5625 155.04 24.3489C155.039 16.5889 152.592 10.5907 147.698 6.35444Z" fill="url(#paint6_linear_2277_74383)"/>
<path d="M180.427 48.0649C180.279 48.0649 180.131 48.0533 179.983 48.0533C174.809 48.0562 169.789 50.0328 165.751 53.658C161.712 57.2832 158.894 62.3411 157.76 68H169.897C172.69 68 175.368 66.7565 177.343 64.5431C179.317 62.3297 180.427 59.3276 180.427 56.1974V48.0649Z" fill="url(#paint7_linear_2277_74383)"/>
<path fill-rule="evenodd" clip-rule="evenodd" d="M204.818 6.35444C199.929 2.1201 195.732 0.00195491 186.788 0H157.76C157.759 2.24257 158.204 4.46333 159.07 6.5354C159.935 8.60747 161.204 10.4903 162.804 12.0762C164.404 13.6622 166.303 14.9202 168.393 15.7784C170.484 16.6367 172.725 17.0783 174.987 17.0781H185.614C185.872 17.0781 186.125 17.0857 186.371 17.1008L186.299 17.0986C187.925 17.189 189.283 17.6054 190.375 18.3479C190.724 18.5861 191.045 18.8578 191.339 19.163C192.676 20.553 193.345 22.5079 193.345 25.0277C193.345 26.8008 193.031 28.3078 192.403 29.5489C192.115 30.1176 191.76 30.6305 191.34 31.0875C190.003 32.5419 188.094 33.2697 185.615 33.2706H167.204C165.964 33.2706 164.735 33.5128 163.589 33.9834C162.443 34.454 161.402 35.1437 160.525 36.0132C159.648 36.8827 158.953 37.9149 158.478 39.0508C158.004 40.1868 157.76 41.4042 157.76 42.6337V67.9986H157.785C158.92 62.9919 161.74 58.5168 165.781 55.3093C169.823 52.1015 174.846 50.3525 180.025 50.35C180.099 50.35 180.173 50.3526 180.246 50.3551C180.32 50.3577 180.394 50.3603 180.468 50.3603V50.3458L186.79 50.3458C187.348 50.3458 187.899 50.3369 188.442 50.3191C196.585 50.052 200.231 47.7814 204.819 43.5075C209.714 38.9487 212.161 32.5625 212.16 24.3489C212.159 16.5889 209.712 10.5907 204.818 6.35444Z" fill="url(#paint8_linear_2277_74383)"/>
<path d="M237.547 48.0649C237.399 48.0649 237.251 48.0533 237.103 48.0533C231.929 48.0562 226.909 50.0328 222.871 53.658C218.832 57.2832 216.014 62.3411 214.88 68H227.017C229.81 68 232.488 66.7565 234.463 64.5431C236.437 62.3297 237.547 59.3276 237.547 56.1974V48.0649Z" fill="url(#paint9_linear_2277_74383)"/>
<path fill-rule="evenodd" clip-rule="evenodd" d="M261.938 6.35444C257.049 2.1201 252.852 0.00195491 243.908 0H214.88C214.879 2.24257 215.324 4.46333 216.19 6.5354C217.055 8.60747 218.324 10.4903 219.924 12.0762C221.524 13.6622 223.423 14.9202 225.513 15.7784C227.604 16.6367 229.845 17.0783 232.107 17.0781H242.734C242.992 17.0781 243.245 17.0857 243.491 17.1008L243.419 17.0986C245.045 17.189 246.403 17.6054 247.495 18.3479C247.844 18.5861 248.165 18.8578 248.459 19.163C249.796 20.553 250.465 22.5079 250.465 25.0277C250.465 26.8008 250.151 28.3078 249.523 29.5489C249.235 30.1176 248.88 30.6305 248.46 31.0875C247.123 32.5419 245.214 33.2697 242.735 33.2706H224.324C223.084 33.2706 221.855 33.5128 220.709 33.9834C219.563 34.454 218.522 35.1437 217.645 36.0132C216.768 36.8827 216.073 37.9149 215.598 39.0508C215.124 40.1868 214.88 41.4042 214.88 42.6337V67.9986H214.905C216.04 62.9919 218.86 58.5168 222.901 55.3093C226.943 52.1015 231.966 50.3525 237.145 50.35C237.219 50.35 237.293 50.3526 237.366 50.3551C237.44 50.3577 237.514 50.3603 237.588 50.3603V50.3458L243.91 50.3458C244.468 50.3458 245.019 50.3369 245.562 50.3191C253.705 50.052 257.351 47.7814 261.939 43.5075C266.834 38.9487 269.281 32.5625 269.28 24.3489C269.279 16.5889 266.832 10.5907 261.938 6.35444Z" fill="url(#paint10_linear_2277_74383)"/>
<defs>
<linearGradient id="paint0_linear_2277_74383" x1="14.0533" y1="22.6667" x2="68" y2="22.6667" gradientUnits="userSpaceOnUse">
<stop stop-color="#3E8AE5"/>
<stop offset="1" stop-color="#034594"/>
</linearGradient>
<linearGradient id="paint1_linear_2277_74383" x1="53.9466" y1="45.3333" x2="-5.52914e-05" y2="45.3333" gradientUnits="userSpaceOnUse">
<stop stop-color="#034594"/>
<stop offset="1" stop-color="#3E8AE5"/>
</linearGradient>
<linearGradient id="paint2_linear_2277_74383" x1="34.2493" y1="0" x2="34.2493" y2="68" gradientUnits="userSpaceOnUse">
<stop stop-color="#034594"/>
<stop offset="0.9999" stop-color="#3E8AE5"/>
<stop offset="1" stop-color="#FFDD00"/>
</linearGradient>
<linearGradient id="paint3_linear_2277_74383" x1="34.2493" y1="0" x2="34.2493" y2="68" gradientUnits="userSpaceOnUse">
<stop stop-color="#034594"/>
<stop offset="0.9999" stop-color="#3E8AE5"/>
<stop offset="1" stop-color="#FFDD00"/>
</linearGradient>
<linearGradient id="paint4_linear_2277_74383" x1="71.6267" y1="68" x2="71.6267" y2="-5.49995e-05" gradientUnits="userSpaceOnUse">
<stop stop-color="#3E8AE5"/>
<stop offset="1" stop-color="#034594"/>
</linearGradient>
<linearGradient id="paint5_linear_2277_74383" x1="100.64" y1="68" x2="100.64" y2="48.0537" gradientUnits="userSpaceOnUse">
<stop stop-color="#3E8AE5"/>
<stop offset="1" stop-color="#034594"/>
</linearGradient>
<linearGradient id="paint6_linear_2277_74383" x1="100.64" y1="67.9986" x2="100.64" y2="0.00120778" gradientUnits="userSpaceOnUse">
<stop stop-color="#3E8AE5"/>
<stop offset="1" stop-color="#034594"/>
</linearGradient>
<linearGradient id="paint7_linear_2277_74383" x1="157.76" y1="68" x2="157.76" y2="48.0537" gradientUnits="userSpaceOnUse">
<stop stop-color="#3E8AE5"/>
<stop offset="1" stop-color="#034594"/>
</linearGradient>
<linearGradient id="paint8_linear_2277_74383" x1="157.76" y1="67.9986" x2="157.76" y2="0.00120778" gradientUnits="userSpaceOnUse">
<stop stop-color="#3E8AE5"/>
<stop offset="1" stop-color="#034594"/>
</linearGradient>
<linearGradient id="paint9_linear_2277_74383" x1="214.88" y1="68" x2="214.88" y2="48.0537" gradientUnits="userSpaceOnUse">
<stop stop-color="#3E8AE5"/>
<stop offset="1" stop-color="#034594"/>
</linearGradient>
<linearGradient id="paint10_linear_2277_74383" x1="214.88" y1="67.9986" x2="214.88" y2="0.00120778" gradientUnits="userSpaceOnUse">
<stop stop-color="#3E8AE5"/>
<stop offset="1" stop-color="#034594"/>
</linearGradient>
</defs>
</svg>
